<svg width="36" height="36" viewBox="0 0 36 36" xmlns="http://www.w3.org/2000/svg"><title>C4447B5F-868D-457E-9D9A-1208B87EB141</title><g transform="translate(1 1)" fill="none" fill-rule="evenodd"><circle stroke="#17788D" stroke-width="2" cx="17" cy="17" r="17"/><path d="M8 16.992c0-.656.176-1.152.527-1.488.352-.336.864-.504 1.536-.504.648 0 1.15.172 1.505.516.356.343.534.836.534 1.476 0 .617-.18 1.104-.54 1.46-.359.355-.859.532-1.5.532-.656 0-1.164-.173-1.523-.521-.36-.348-.539-.838-.539-1.47zm6.832 0c0-.656.176-1.152.527-1.488.352-.336.868-.504 1.547-.504.649 0 1.15.172 1.506.516.356.343.533.836.533 1.476 0 .617-.18 1.104-.539 1.46-.36.355-.86.532-1.5.532-.664 0-1.176-.173-1.535-.521-.36-.348-.539-.838-.539-1.47zm6.844 0c0-.656.176-1.152.527-1.488.352-.336.863-.504 1.535-.504.649 0 1.15.172 1.506.516.356.343.533.836.533 1.476 0 .617-.18 1.104-.539 1.46-.36.355-.86.532-1.5.532-.656 0-1.164-.173-1.523-.521-.36-.348-.54-.838-.54-1.47z" fill="#17788D" stroke="none"/></g></svg>