<svg width="24" height="24" viewBox="0 0 24 24" xmlns="http://www.w3.org/2000/svg"><title> copy</title><path d="M16 19.5c0 .281-.219.5-.5.5h-7a.494.494 0 0 1-.5-.5V17c0-.281.219-.5.5-.5H10v-5H8.5A.494.494 0 0 1 8 11V8.5c0-.281.219-.5.5-.5h5c.281 0 .5.219.5.5v8h1.5c.281 0 .5.219.5.5v2.5zm-2-14c0 .281-.219.5-.5.5h-3a.494.494 0 0 1-.5-.5V3c0-.281.219-.5.5-.5h3c.281 0 .5.219.5.5v2.5zM24 12c0-6.625-5.375-12-12-12S0 5.375 0 12s5.375 12 12 12 12-5.375 12-12z" fill="#00BFE9" fill-rule="evenodd"/></svg>