<svg width="16" height="16" viewBox="0 0 16 16" xmlns="http://www.w3.org/2000/svg" xmlns:xlink="http://www.w3.org/1999/xlink"><title>04C07D39-DEA5-4A35-96BE-AB1CBA0C926C</title><defs><path id="a" d="M15.915.074V15.68H0V.074h15.914V15.68H0V.074h15.914z"/><path id="c" d="M0 15.68h15.914V.074H0z"/></defs><g fill="none" fill-rule="evenodd"><g transform="translate(0 .015)"><mask id="b" fill="#fff"><use xlink:href="#a"/></mask><path d="M2.897 1.519c-.76.235-1.458.446-2.154.668-.56.178-.741.432-.742 1.034v9.3c0 .617.183.87.776 1.053 2.203.682 4.404 1.372 6.615 2.024.342.101.758.112 1.097.012 2.24-.66 4.468-1.36 6.698-2.053.532-.166.725-.436.726-1.003.002-3.114.002-6.23 0-9.344 0-.592-.188-.85-.753-1.026C12.943 1.496 10.73.8 8.504.142c-.34-.1-.748-.082-1.098.001-.74.178-1.464.434-2.194.658-.725.222-.725.222-.725.995v3.293l-1.59.3V1.52z" fill="#FFF" mask="url(#b)"/></g><g transform="translate(0 .015)"><mask id="d" fill="#fff"><use xlink:href="#c"/></mask><path d="M8.845 2.083v11.583l5.323-1.642v-8.3l-5.323-1.64m-5.948-.565v3.87l1.59-.3V1.796c0-.773 0-.773.725-.995.73-.224 1.453-.48 2.194-.658.35-.083.758-.101 1.098 0 2.225.657 4.44 1.353 6.656 2.041.565.176.752.434.753 1.026.002 3.115.002 6.23 0 9.344 0 .567-.194.837-.726 1.003-2.23.692-4.458 1.392-6.698 2.053-.339.1-.755.09-1.097-.012-2.211-.652-4.412-1.342-6.615-2.024-.593-.183-.775-.436-.776-1.054v-9.3c0-.6.183-.855.742-1.033.696-.222 1.395-.433 2.154-.668" fill="#4F4F4F" mask="url(#d)"/></g><path d="M13.348 7.39a9.67 9.67 0 0 0-.777.883c.086.506.13.762.214 1.303l.003.055c.001.071-.023.14-.084.146a.135.135 0 0 1-.086-.024 25.646 25.646 0 0 0-.991-.54c-.394.308-.597.472-1.02.82a.211.211 0 0 1-.094.052c-.07.013-.1-.052-.101-.128 0-.02.002-.038.004-.059l.197-1.465c-.34-.365-.512-.552-.874-.955-.03-.037-.062-.086-.062-.14 0-.09.077-.129.139-.143.495-.103.724-.149 1.169-.23.194-.498.287-.735.47-1.195.017-.048.052-.103.101-.098.049.005.086.066.106.117.202.487.305.72.51 1.18.434.079.651.118 1.106.198.054.01.128.04.128.11 0 .043-.029.082-.058.112" fill="#4F4F4F"/></g></svg>