<svg xmlns="http://www.w3.org/2000/svg" width="26" height="26" viewBox="0 0 26 26">
    <g fill="none" fill-rule="evenodd">
        <path stroke="#202751" stroke-width="2" d="M25 13c0 6.625-5.375 12-12 12S1 19.625 1 13 6.375 1 13 1s12 5.375 12 12z"/>
        <path fill="#202751" d="M19.744 10.238a.936.936 0 0 1-.244.65l-7.11 7.838a.868.868 0 0 1-.624.274.862.862 0 0 1-.611-.274L6.245 13.5A.936.936 0 0 1 6 12.85c0-.245.081-.49.244-.664l1.235-1.299a.838.838 0 0 1 .61-.274c.23 0 .448.1.61.274l3.067 3.263 5.279-5.876a.838.838 0 0 1 .61-.274c.23 0 .448.101.61.274l1.235 1.3a.972.972 0 0 1 .244.664z"/>
    </g>
</svg>
