<svg xmlns="http://www.w3.org/2000/svg" width="26" height="27" viewBox="0 0 26 27">
    <g fill="none" fill-rule="evenodd">
        <path stroke="#202751" stroke-width="2" d="M25 13.8c0 6.625-5.375 12-12 12s-12-5.375-12-12 5.375-12 12-12 12 5.375 12 12z"/>
        <path fill="#202751" d="M14.597 6.8l-.276 7.59h-2.896L11.15 6.8h3.448zm-1.724 13.34c-.26 0-.505-.046-.735-.138a1.802 1.802 0 0 1-.994-.96 1.74 1.74 0 0 1-.144-.706c0-.253.048-.489.144-.707a1.802 1.802 0 0 1 .994-.96c.23-.092.475-.138.735-.138s.506.046.736.138a1.802 1.802 0 0 1 .994.96c.096.218.143.454.143.707 0 .253-.047.488-.143.707a1.802 1.802 0 0 1-.994.96c-.23.091-.475.137-.736.137z"/>
    </g>
</svg>
