<svg width="24" height="23" viewBox="0 0 24 23" xmlns="http://www.w3.org/2000/svg"><title> copy 6</title><path d="M13.714 18.417a.435.435 0 0 1-.428.442h-2.572a.435.435 0 0 1-.428-.442v-2.545c0-.24.187-.442.428-.442h2.572c.241 0 .428.201.428.442v2.545zm-.026-5.01c-.014.175-.215.309-.456.309h-2.478c-.254 0-.455-.134-.455-.308l-.228-6.121c0-.08.04-.215.134-.282.08-.067.201-.147.322-.147h2.946c.12 0 .241.08.322.147a.324.324 0 0 1 .134.255l-.241 6.148zM13.5.898a1.704 1.704 0 0 0-3 0L.213 19.757a1.689 1.689 0 0 0 .027 1.688c.308.522.87.843 1.473.843h20.574c.603 0 1.165-.321 1.473-.843a1.689 1.689 0 0 0 .027-1.688L13.5.897z" fill="#FFF" fill-rule="evenodd"/></svg>