<svg xmlns="http://www.w3.org/2000/svg" width="307" height="75" viewBox="0 0 307 75">
    <g fill="#FFF" fill-rule="nonzero">
        <path d="M118.077 32.736l-2.059-4.632-2.059 4.632h4.118zm.31.72h-4.84l-.617 1.34c-.206.411-.309.823-.309 1.132 0 .411.206.617.412.823.206.103.618.206 1.338.206v.412h-4.53v-.412c.515-.103.927-.309 1.236-.618.309-.308.72-1.03 1.132-2.059l4.839-10.809h.206l4.941 11.118c.515 1.03.824 1.75 1.132 1.956.206.206.515.31.927.31v.41h-6.589v-.41h.31c.514 0 .926-.104 1.132-.207.103-.103.206-.309.206-.412 0-.103 0-.205-.103-.411 0-.103-.103-.31-.31-.72l-.514-1.648zM132.798 27.898v7.309c0 .72.103 1.132.206 1.338.103.206.412.31.824.31v.308h-3.81V36.03c-.411.514-.926.926-1.337 1.132-.412.206-.927.412-1.545.412-.514 0-1.03-.206-1.44-.515-.413-.309-.721-.72-.824-1.132-.103-.412-.206-1.236-.206-2.265v-3.706c0-.72-.103-1.133-.206-1.338-.103-.206-.412-.31-.824-.31v-.411h3.81v6.382c0 .618 0 1.133.102 1.339.103.206.206.309.309.412.103.102.309.102.515.102.206 0 .411-.102.617-.205.31-.206.618-.515.927-1.03v-5.044c0-.72-.103-1.133-.206-1.338-.103-.206-.412-.31-.824-.31v-.411h3.912v.103zM140.313 27.692l.103 3.191h-.309c-.411-.926-.823-1.544-1.235-1.956-.412-.308-.824-.514-1.338-.514-.31 0-.515.103-.72.308-.207.206-.31.412-.31.618 0 .206.103.309.206.515.206.309.824.72 1.75 1.441 1.03.618 1.647 1.235 1.956 1.647.309.412.515 1.03.515 1.544 0 .515-.103 1.03-.412 1.545-.309.514-.618.926-1.132 1.132a2.905 2.905 0 0 1-1.544.412c-.412 0-1.03-.103-1.75-.412-.206-.103-.31-.103-.412-.103-.206 0-.412.206-.515.515h-.309l-.206-3.397h.31c.308.926.72 1.544 1.234 1.955.515.412 1.03.618 1.545.618.308 0 .617-.103.823-.309.206-.206.309-.411.309-.72 0-.31-.103-.618-.309-.824a5.985 5.985 0 0 0-1.338-1.03c-1.03-.72-1.647-1.235-1.956-1.646-.412-.515-.618-1.133-.618-1.853 0-.721.206-1.339.72-1.956.516-.618 1.236-.927 2.163-.927.514 0 1.03.103 1.441.412.206.103.309.103.412.103.103 0 .206 0 .309-.103.103-.103.205-.206.308-.412h.31v.206zM145.255 24.5v3.398h2.264v1.03h-2.264v5.764c0 .515 0 .927.103 1.03.102.103.102.309.308.411.103.103.206.103.31.103.411 0 .823-.308 1.235-1.029l.308.206c-.514 1.235-1.44 1.956-2.676 1.956a2.529 2.529 0 0 1-1.544-.515c-.412-.309-.618-.72-.824-1.132-.103-.206-.103-.824-.103-1.853v-5.045h-1.235v-.308a20.16 20.16 0 0 0 2.162-1.853 8.244 8.244 0 0 0 1.544-2.162h.412zM152.049 27.898v2.162c.618-.927 1.132-1.647 1.647-1.956.515-.309.927-.515 1.338-.515.412 0 .72.103.927.309.206.206.309.515.309.926 0 .412-.103.824-.31 1.03-.205.206-.514.412-.823.412-.309 0-.617-.103-.926-.31-.31-.205-.412-.308-.412-.41-.103 0-.103-.104-.206-.104a.786.786 0 0 0-.515.206c-.308.206-.514.515-.617.926-.206.618-.31 1.339-.31 2.162v2.677c0 .412 0 .618.104.72.103.206.206.31.309.412.206.103.411.103.823.103v.31h-5.147v-.31c.412 0 .72-.103.824-.309.102-.206.205-.72.205-1.544v-5.147c0-.515 0-.824-.103-1.03-.102-.205-.205-.308-.308-.411-.103-.103-.31-.103-.721-.206v-.412h3.912v.309zM161.417 35.207v-3.088c-.824.514-1.441 1.03-1.853 1.544-.309.309-.412.72-.412 1.132 0 .31.103.618.309.824.206.206.412.309.72.309.412-.206.824-.412 1.236-.721m0 .72c-1.133 1.03-2.162 1.545-3.088 1.545-.515 0-1.03-.206-1.339-.515-.309-.309-.514-.824-.514-1.338 0-.72.308-1.339.926-1.956.618-.618 1.956-1.338 4.015-2.265v-.926c0-.721 0-1.133-.103-1.339-.103-.206-.206-.309-.412-.514-.206-.103-.412-.206-.72-.206-.412 0-.824.103-1.03.308-.206.103-.309.31-.309.412 0 .103.103.31.31.515.205.309.41.515.41.824 0 .308-.102.617-.41.823-.207.206-.516.309-.927.309-.412 0-.824-.103-1.03-.412-.309-.206-.412-.515-.412-.926 0-.515.206-.927.618-1.339.412-.411.927-.823 1.544-1.03a7.316 7.316 0 0 1 2.162-.308c.927 0 1.544.206 2.059.618.515.412.823.823 1.03 1.235.102.309.102.927.102 1.956V35.825c0 .103.103.206.103.206.103.102.103.102.206.102.206 0 .309-.102.515-.411l.309.206c-.31.514-.72.823-1.03 1.132-.309.206-.72.309-1.235.309-.515 0-.927-.103-1.235-.412-.206-.103-.412-.515-.515-1.03M169.55 23.677V35.31c0 .618.102 1.132.205 1.235.206.206.412.31.927.31v.41h-5.044v-.41c.411 0 .72-.104.926-.31.103-.103.206-.514.206-1.235v-9.677c0-.618-.103-1.03-.206-1.235-.103-.206-.412-.309-.926-.309v-.412h3.911zM175.314 27.898v7.412c0 .618.103 1.132.206 1.235.103.206.412.31.927.31v.41h-5.045v-.41c.412 0 .721-.104.927-.31.103-.103.206-.514.206-1.235v-5.456c0-.618-.103-1.03-.206-1.235-.103-.206-.412-.31-.927-.31v-.411h3.912zm-1.44-4.53c.41 0 .823.103 1.132.412.308.309.411.618.411 1.133 0 .411-.103.823-.411 1.132-.31.309-.618.412-1.133.412-.412 0-.823-.103-1.132-.412-.31-.309-.412-.618-.412-1.132 0-.412.103-.824.412-1.133.309-.206.72-.412 1.132-.412zM181.903 35.207v-3.088c-.824.514-1.441 1.03-1.853 1.544-.309.309-.412.72-.412 1.132 0 .31.103.618.309.824.206.206.412.309.72.309.412-.206.721-.412 1.236-.721m0 .72c-1.133 1.03-2.162 1.545-3.089 1.545-.514 0-1.029-.206-1.338-.515-.309-.309-.515-.824-.515-1.338 0-.72.31-1.339.927-1.956.618-.618 1.956-1.338 4.015-2.265v-.926c0-.721 0-1.133-.103-1.339-.103-.206-.206-.309-.412-.514-.206-.103-.412-.206-.72-.206-.412 0-.824.103-1.03.308-.206.103-.309.31-.309.412 0 .103.103.31.309.515.206.309.412.515.412.824 0 .308-.103.617-.412.823-.206.206-.515.309-.926.309-.412 0-.824-.103-1.03-.412-.309-.206-.412-.515-.412-.926 0-.515.206-.927.618-1.339.412-.411.926-.823 1.544-1.03a7.316 7.316 0 0 1 2.162-.308c.926 0 1.544.206 2.059.618.515.412.823.823 1.03 1.235.102.309.102.927.102 1.956V35.825c0 .103.103.206.103.206.103.102.103.102.206.102.206 0 .309-.102.515-.411l.309.206c-.31.514-.721.823-1.03 1.132-.309.206-.72.309-1.235.309-.515 0-.927-.103-1.235-.412-.31-.103-.515-.515-.515-1.03M189.932 27.898v1.235c.515-.514.927-.926 1.339-1.132.412-.206.926-.309 1.441-.309.618 0 1.132.206 1.544.515.412.309.618.72.824 1.235.103.412.206 1.132.206 2.162v3.603c0 .72.103 1.132.205 1.338.103.206.412.31.824.31v.308h-4.838v-.309c.308 0 .617-.206.72-.412.103-.206.206-.617.206-1.235v-4.118c0-.72 0-1.235-.103-1.441-.103-.206-.206-.309-.309-.412a.786.786 0 0 0-.514-.206c-.618 0-1.133.412-1.647 1.236v5.044c0 .72.102 1.132.205 1.338.103.206.412.31.721.31v.308h-4.735v-.309c.411 0 .72-.206.823-.412.103-.103.206-.617.206-1.338v-5.25c0-.72-.103-1.133-.206-1.338-.103-.206-.412-.31-.823-.31v-.411h3.911zM214.64 23.368v4.736h-.413a5.795 5.795 0 0 0-2.059-2.986c-.926-.72-1.853-1.029-2.882-1.029-1.03 0-1.853.309-2.574.824-.72.617-1.132 1.338-1.44 2.367-.31 1.03-.413 2.06-.413 3.192 0 1.338.103 2.47.412 3.397.309 1.03.824 1.75 1.441 2.162.721.411 1.545.72 2.471.72.309 0 .618 0 1.03-.103.308-.103.72-.206 1.029-.309v-2.78c0-.514 0-.926-.103-1.029a.804.804 0 0 0-.412-.411 1.94 1.94 0 0 0-.823-.206h-.31V31.5h6.59v.412c-.515 0-.824.103-1.03.206-.206.103-.309.308-.412.514-.103.103-.103.412-.103.927v2.78c-.823.411-1.75.72-2.676.823-.927.206-1.956.309-2.883.309-1.235 0-2.368-.206-3.191-.515-.824-.309-1.647-.824-2.265-1.338-.618-.618-1.132-1.236-1.544-1.956-.515-.927-.72-1.956-.72-3.089 0-2.058.72-3.808 2.161-5.147 1.441-1.44 3.191-2.162 5.456-2.162.72 0 1.236.103 1.853.206.309.103.72.206 1.441.412.618.206 1.03.412 1.133.412a.786.786 0 0 0 .515-.206c.205-.103.308-.412.411-.824h.31v.103zM221.228 28.413c-.31 0-.618.103-.927.411-.206.206-.412.721-.515 1.545-.103.72-.103 1.853-.103 3.19 0 .721 0 1.34.103 1.957.103.515.206.823.515 1.132.309.31.515.412.824.412.308 0 .514-.103.72-.206.31-.206.412-.515.515-.926.103-.618.206-1.956.206-3.81 0-1.132-.103-1.955-.206-2.367a1.99 1.99 0 0 0-.515-.927c-.103-.411-.309-.411-.617-.411m-.103-.72c.823 0 1.544.205 2.264.617a3.634 3.634 0 0 1 1.545 1.75c.411.823.514 1.647.514 2.573 0 1.339-.309 2.471-1.03 3.295-.823 1.132-1.955 1.647-3.396 1.647-1.442 0-2.471-.515-3.295-1.442-.72-1.029-1.132-2.161-1.132-3.397 0-1.338.412-2.47 1.132-3.5 1.03-1.03 2.06-1.544 3.398-1.544M229.978 37.575l-3.191-7.31c-.412-.823-.721-1.44-.927-1.646-.206-.206-.412-.31-.72-.31v-.411h4.94v.412c-.308 0-.514.103-.617.206-.206.103-.206.308-.206.514 0 .206.103.72.412 1.442l1.544 3.5 1.236-2.986c.308-.823.514-1.44.514-1.853a.786.786 0 0 0-.206-.514c-.103-.103-.411-.206-.823-.206V28h3.088v.412c-.309 0-.515.103-.72.308-.206.206-.515.721-.824 1.545l-3.088 7.309h-.412zM240.066 31.604c0-1.03-.103-1.853-.205-2.265a1.99 1.99 0 0 0-.515-.926.786.786 0 0 0-.515-.206c-.309 0-.618.206-.823.514-.412.618-.618 1.442-.618 2.471v.309h2.676v.103zm2.471.72h-5.147c.103 1.236.412 2.265 1.03 2.986.411.515 1.029.823 1.646.823.412 0 .721-.102 1.133-.308.309-.206.72-.618 1.03-1.236l.308.206c-.515 1.03-1.03 1.75-1.647 2.162-.618.412-1.338.618-2.162.618-1.441 0-2.47-.515-3.191-1.647-.618-.824-.824-1.956-.824-3.192 0-1.544.412-2.78 1.236-3.706.823-.926 1.853-1.44 2.985-1.44.927 0 1.75.41 2.47 1.131.721.927 1.03 2.06 1.133 3.604zM246.964 27.898v2.162c.617-.927 1.132-1.647 1.647-1.956.515-.309.926-.515 1.338-.515.412 0 .72.103.927.309.205.206.308.515.308.926 0 .412-.103.824-.308 1.03-.206.206-.515.412-.824.412-.309 0-.618-.103-.926-.31-.31-.205-.412-.308-.412-.41-.103 0-.103-.104-.206-.104a.786.786 0 0 0-.515.206c-.309.206-.515.515-.618.926-.205.618-.308 1.339-.308 2.162v2.677c0 .412 0 .618.103.72.103.206.205.31.308.412.206.103.412.103.824.103v.31h-5.044v-.31c.411 0 .72-.103.823-.309.103-.206.206-.72.206-1.544v-5.147c0-.515 0-.824-.103-1.03-.103-.205-.206-.308-.309-.411-.103-.103-.308-.103-.72-.206v-.412h3.809v.309zM255.611 27.898v1.235c.515-.514.927-.926 1.338-1.132.412-.206.927-.309 1.442-.309.617 0 1.132.206 1.544.515.411.309.617.72.823 1.235.103.412.206 1.132.206 2.162v3.603c0 .72.103 1.132.206 1.338.103.206.412.31.824.31v.308h-4.736v-.309c.309 0 .618-.206.72-.412.104-.206.207-.617.207-1.235v-4.118c0-.72 0-1.235-.103-1.441a1.421 1.421 0 0 0-.31-.412.786.786 0 0 0-.514-.206c-.618 0-1.132.412-1.647 1.236v5.044c0 .72.103 1.132.206 1.338.103.206.412.31.72.31v.308h-4.735v-.309c.412 0 .72-.206.824-.412.103-.103.206-.617.206-1.338v-5.25c0-.72-.103-1.133-.206-1.338-.103-.206-.412-.31-.824-.31v-.411h3.809zM266.42 27.898v1.235c.515-.514 1.03-.926 1.441-1.132.412-.206.927-.309 1.442-.309.617 0 1.132.103 1.544.412.412.309.72.72.926 1.235a5.975 5.975 0 0 1 1.544-1.338 2.905 2.905 0 0 1 1.545-.412c.617 0 1.132.103 1.544.412.412.309.617.72.823 1.132.103.412.206 1.133.206 2.162v3.81c0 .72.103 1.131.206 1.337.103.206.412.31.824.31v.308h-4.839v-.309c.412 0 .618-.206.824-.412.103-.206.206-.617.206-1.235V31.09c0-.823 0-1.338-.103-1.544-.103-.206-.206-.412-.309-.515a.786.786 0 0 0-.515-.206c-.309 0-.617.103-.823.31-.31.205-.618.514-.927.926v5.044c0 .72.103 1.132.206 1.235.103.206.412.412.927.412v.309h-4.839v-.309c.309 0 .515-.103.618-.206.103-.103.206-.309.309-.412.103-.205.103-.514.103-1.029V31.09c0-.823 0-1.338-.103-1.544-.103-.206-.206-.412-.31-.515a.786.786 0 0 0-.514-.206c-.309 0-.515.103-.72.206-.31.206-.618.515-1.03 1.03v5.044c0 .618.103 1.132.206 1.338.103.206.412.31.824.412v.309h-4.839v-.309c.412 0 .72-.206.824-.412.103-.103.206-.617.206-1.338v-5.25c0-.72-.103-1.133-.206-1.338-.103-.206-.412-.31-.824-.31v-.411h3.603v.103zM284.333 31.604c0-1.03-.103-1.853-.206-2.265a1.99 1.99 0 0 0-.515-.926.786.786 0 0 0-.515-.206c-.309 0-.617.206-.823.514-.412.618-.618 1.442-.618 2.471v.309h2.677v.103zm2.367.72h-5.147c.103 1.236.412 2.265 1.03 2.986.411.515 1.029.823 1.647.823.411 0 .72-.102 1.132-.308.309-.206.72-.618 1.03-1.236l.308.206c-.514 1.03-1.03 1.75-1.647 2.162-.618.412-1.338.618-2.162.618-1.44 0-2.47-.515-3.191-1.647-.618-.824-.824-1.956-.824-3.192 0-1.544.412-2.78 1.236-3.706.823-.926 1.853-1.44 2.985-1.44.927 0 1.75.41 2.47 1.131.721.927 1.133 2.06 1.133 3.604zM290.921 27.898v1.235c.515-.514.926-.926 1.338-1.132.412-.206.927-.309 1.441-.309.618 0 1.133.206 1.545.515.411.309.617.72.823 1.235.103.412.206 1.132.206 2.162v3.603c0 .72.103 1.132.206 1.338.103.206.412.31.824.31v.308h-4.736v-.309c.309 0 .618-.206.72-.412.104-.206.207-.617.207-1.235v-4.118c0-.72 0-1.235-.103-1.441a1.421 1.421 0 0 0-.31-.412.786.786 0 0 0-.514-.206c-.618 0-1.132.412-1.647 1.236v5.044c0 .72.103 1.132.206 1.338.103.206.412.31.72.31v.308h-4.735v-.309c.412 0 .72-.206.824-.412.103-.103.205-.617.205-1.338v-5.25c0-.72-.102-1.133-.205-1.338-.103-.206-.412-.31-.824-.31v-.411h3.809zM301.215 24.5v3.398h2.265v1.03h-2.265v5.764c0 .515 0 .927.103 1.03.103.103.103.309.31.411.102.103.205.103.308.103.412 0 .824-.308 1.235-1.029l.31.206c-.516 1.235-1.442 1.956-2.677 1.956a2.529 2.529 0 0 1-1.545-.515c-.411-.309-.617-.72-.823-1.132-.103-.206-.103-.824-.103-1.853v-5.045h-1.235v-.308a20.16 20.16 0 0 0 2.161-1.853 8.244 8.244 0 0 0 1.545-2.162h.411zM34.486 59.605c-.103.103-.103.206-.308.206M36.751 41.28c.309 0 .515-.205.515-.514 0-.309-.206-.515-.515-.515-.309 0-.515.206-.515.515.103.309.31.515.515.515M58.987 30.574h-5.353v-9.47h5.353v9.47zm0 4.427c-.103 1.03-.412 1.853-1.132 2.368l-4.22 2.573V31.09h5.352v3.912zm-5.868-4.427h-4.941v-9.47h4.941v9.47zm0 9.677l-1.956 1.133a.786.786 0 0 1-.514.206.786.786 0 0 1-.515-.206l-1.956-1.133V31.09h4.941v9.162zm-6.897-13.177h1.544v3.5h-1.544v-3.5zm1.441 12.868l-4.22-2.573c-.721-.515-1.03-1.338-1.133-2.368v-4.015h5.353v8.956zm-3.5-15.235H42.31v-3.603h1.853v3.603zm.515-2.265l.206-.206-.103-.206h.309l.206-.309.205.31h.31l-.104.205.206.206-.309.103v.309l-.308-.206-.31.206v-.31l-.308-.102zm1.235 3.809c0-.103-.103-.103-.206-.103-.206 0-.206.309-.411.309-.103 0-.206 0-.206-.103s.206-.206.308-.206c-1.132 0-1.132.515-1.338.515-.309 0 .206-.515.412-.721-.206 0-.412-.309-.618-.515.103-.206.206-.103.31 0 0-.103.102-.309.308-.309.515 0 .412.515.412.515s0-.515.309-.515c.514 0 1.132 1.339.617 1.339 0 0 .206-.103.103-.206zm-1.132 2.78h.309l.206-.31.205.31h.31l-.104.205.206.206-.309.103v.309l-.308-.206-.31.206v-.309l-.308-.103.206-.206-.103-.206zm-2.162-3.5h.309l.206-.31.206.31h.308l-.103.205.206.206-.308.103v.309l-.31-.206-.308.206v-.31l-.309-.102.206-.206-.103-.206zm-.309 1.543h1.853v3.5H42.31v-3.5zm4.324-1.03l.206-.205-.103-.206h.309l.205-.309.206.31h.31l-.104.205.206.206-.309.103v.309l-.309-.206-.308.206v-.31l-.31-.102zm1.03-1.337h-1.545v-3.603h1.544v3.603zm11.838-4.118H41.795v14.31c0 1.337.618 2.573 1.339 2.985l6.794 4.014c.103.206.412.31.618.31A.786.786 0 0 0 51.06 42l6.898-4.117c.823-.412 1.338-1.545 1.338-2.986l.206-14.31z"/>
        <path d="M47.457 34.28c0-.102-.72.206-.514.206 0-.206.411-.617.514-.72 0-.206-.308 0-.617.103 1.03-1.442.309-.824-.206-.72.926-.927.617-.927 0-.619.515-.411.617-.926.515-1.029-.515.618-.927.515-.927 1.132 0 .412-.103 1.03-.309 1.236-.309.309-.103-1.03-.72-1.03-.206 0-.721 0-.927.206.103 0 .309.309.309.515 0 .103.103.515-.103.515s-.515-.515-.515-.721v-.515c0-.617-.926-1.338-1.338-1.338 0 .412.515.515.515 1.03-.206 0-.515-.412-.515-.206 0 .205.309.308.309.514 0 .206-.412-.103-.412.206 0 .206.206.206.206.412-.103 0-.309 0-.309.103s0 .206.206.206c-.103 0-.103.206-.103.514 0 1.133.72 1.648 1.235 1.648.412 0 .31-.206.31-.412 0 .206.205-.103.205.206s-.309.206-.309.514c0 .412.618 0 .618.412 0 .515-.103.515-.103.72 0 .104.618-.205.515-.308.103.103.103.515.411.412.206 0 .206-.412.31-.515-.104 0 .514.412.514.206 0-.515-.206-.309-.206-.618s.72-.309.618-.412c-.103-.102-.206-.102-.206-.308 0 0-.618-.824.103-.412.823.515.926-1.03.926-1.133M66.296 37.986c.309 0 .618-.205.618-.514 0-.31-.309-.515-.618-.515s-.617.206-.617.515c0 .309.308.514.617.514M63.928 39.428c.31 0 .618-.206.618-.515 0-.309-.309-.515-.618-.515-.308 0-.617.206-.617.515 0 .309.309.515.617.515M36.03 42.619c.31 0 .618-.206.618-.515 0-.309-.309-.514-.617-.514-.31 0-.618.205-.618.514 0 .31.309.515.618.515M37.78 42.825c.31 0 .618-.206.618-.515 0-.309-.309-.515-.617-.515-.31 0-.618.206-.618.515.103.309.309.515.618.515M88.017 18.427c.824 1.03 1.03 2.677.412 3.809-.309 0-.309-.515-.309-.72-.617-1.133-1.132-2.574-.514-3.913.411.103.206.618.411.824M14.31 19.868c-.207.72-.207 1.75 0 2.47-.104.207-.104-.205-.31-.102-1.235-.824-.617-2.574-.926-3.809.103-.103.206-.103.309-.103.514.412.823.927.926 1.544M90.694 19.971c.206.31-.206.72-.412.824-.309.103-.617-.103-.72-.31-.103-.308.103-.617.411-.823.206-.103.515 0 .721.31M12.456 21.31c-.103.308-.103.514-.412.72-.205 0-.514 0-.617-.206-.206-.206-.206-.412-.103-.617.103-.206.412-.206.618-.31.205.104.411.104.514.412M91.93 21.824c.102.206.102.31 0 .515-.207.309-.515.412-.824.309a.566.566 0 0 1-.309-.515c.103-.206.309-.515.515-.515.206-.103.411.103.617.206M90.18 21.824c.205.103.102.412 0 .618-.207.206-.412.412-.618.309-.103-.103-.31-.103-.412-.412 0-.309.103-.618.412-.72.206 0 .411.102.617.205M87.915 22.339c0 .309 0 .823-.412.823-.412.103-.618-.205-.72-.411 0-.31.102-.618.41-.72.31 0 .516.102.722.308M15.75 22.442c.103.309-.205.515-.411.618-.206.102-.515-.103-.618-.31-.206-.205.103-.411.103-.617.412-.206.824 0 .926.309M13.897 22.545c0 .206-.102.515-.308.617-.206.103-.515-.102-.618-.308-.103-.31 0-.618.309-.72.309-.104.515.205.617.41M80.503 22.648c.308.617.514 1.441.617 2.265-.103.617.103 1.338-.309 1.75-.411-.206-.411-.721-.72-.927-.515-1.132-.103-2.368.103-3.397.206-.103.206.206.309.309M12.456 23.06c.103.411-.206.514-.412.823-.411.103-.617-.206-.72-.412 0-.309.206-.617.412-.72.308-.103.617 0 .72.309M85.34 23.986c.413.927.413 1.956.104 2.985l-.206.206c-.412-.823-1.03-1.647-1.235-2.47 0-.618.103-1.236.411-1.75.206-.103.31 0 .412.205 0 .206.206.618.515.824M89.15 23.368a.774.774 0 0 1-.515.721c-.309.103-.618 0-.72-.412-.103-.309.102-.617.308-.72.515-.103.824.205.927.411M14 24.398c0 .206-.205.515-.411.617-.206.206-.412-.102-.618-.205-.103-.206-.206-.515 0-.721.103-.206.309-.206.515-.206.103.103.411.206.514.515M15.339 24.192c.103.309-.206.515-.31.618-.41.103-.514-.206-.72-.412-.103-.309.103-.515.31-.72.41 0 .514.308.72.514M90.076 24.089c0 .412-.617.824-.72 1.235-.31.824-1.03 1.442-1.956 1.75-.206.206-.412.412-.72.412-.104-.618.514-1.132.823-1.75.72-.823 1.647-1.338 2.573-1.647M13.383 25.427c.412.515.72 1.03 1.235 1.441 0 .103-.103.31-.206.31-1.544-.104-2.573-1.648-3.294-2.78.103-.309.515-.103.72-.103.515.515 1.133.618 1.545 1.132M90.488 25.84c-.103 1.337-.72 2.676-1.956 3.396-.309.103-.72.515-1.03.206.618-1.338 1.648-2.47 2.677-3.603h.31zM84.62 26.766c.103.514-.206.72-.514.926-.31 0-.515-.206-.721-.515 0-.309.206-.617.412-.72.103-.103.206-.103.412-.103l.411.412M11.633 27.074c.617.412 1.132.927 1.647 1.442-.412.308-.927 0-1.338 0-1.03-.412-1.75-1.236-2.883-1.545 0-.308.412-.205.618-.308.823-.103 1.338.205 1.956.411"/>
        <path d="M44.678 17.81c-1.75-.721-2.883 1.132-4.633.926-.206.103-.103.309-.308.515-.103.103-.206 0-.31 0-.102-.721-.308-1.442-.411-2.162-.206-.31-.103-.72-.206-1.03-1.03-2.676 2.368-.617 3.088-2.264.618-1.339-1.132-1.545-1.647-2.471v-.412c-.514-.515-1.03-.618-1.338-1.338.206-.824.309-1.647.103-2.368 0-.206-.103-.412-.412-.309a29.455 29.455 0 0 0-1.544 2.265c-.618-.412-1.132-1.03-1.853-1.338-.412-.103-.927-.515-1.441-.31-.103.207 0 .31.103.516 0 1.235.617 2.161 1.544 3.088l.103.515c-.515 1.235-.412 2.78-.515 4.117-1.338 3.5-3.603 7-6.691 9.368-1.75 1.956-3.81 3.912-4.118 6.589-.103.412.103.926-.309 1.235-1.03-.412-2.059-.823-2.882-1.544-1.442-1.03-3.5-.824-4.324-2.677-.412-.72.103-1.44.412-1.955 1.03-1.03.926-2.78.309-4.015-.103 0-.206.103-.206.103-.103 1.853-1.544 3.088-1.03 5.147.103.618.412.926.618 1.544-.206-.103-.515-.103-.72-.206-.721-.103-1.339-.412-2.06-.309-1.44.618-3.397-.103-4.53 1.133-.205 0-.41.103-.41.309.72 0 1.337.205 1.955.205 1.03.206 1.75-.72 2.574-1.132h.206c.308-.309.823-.103 1.235-.206 1.956.206 3.5 1.133 5.044 2.162v.103c-.618.309-1.338.515-1.956.823-.72.515-1.544 1.236-1.75 2.06-.515.823.206 1.44.515 2.058 0 .31.103.72.309.824 1.03-1.03.103-2.368.206-3.603.205-.927 1.132-1.339 1.956-1.647 1.75-.72 2.985.72 4.426 1.44 0 1.442.206 2.78-.103 4.222-.412.205-1.03.205-1.441.205-2.47.206-4.324 1.545-6.486 2.265-1.029.31-2.161.31-3.19.72.72.207 1.543-.102 2.367-.102 2.985-.412 5.353-2.78 8.544-2.368l.103.103c-.412.824-.823 1.441-1.44 2.06-.104-.31-.104-.619-.413-.825-.206-.102-.514 0-.72.206-.103.206-.103.31 0 .515.206.309.411.309.72.412-.103.309-.412.412-.617.618-.824 1.44-2.574.823-3.603 1.853-.206.205-.721.308-.515.72a4.973 4.973 0 0 0 3.191-.823c1.132-1.236 2.368-2.471 3.5-3.706a3.304 3.304 0 0 1-.72 2.78c-.31-.207-.515-.413-.824-.516-.309.103-.515.412-.515.618.103.206.206.515.412.618-1.03.72-2.368.823-3.603 1.132-2.265.309-4.427.515-6.691.515-1.03-.103-2.265.309-3.295 0-1.132.206-2.47-.206-3.397.515-.103.205 0 .308 0 .514 1.441.927 3.397.206 4.942.515h12.147c.927 0 1.75-.103 2.47-.515 1.545-.926 2.471-2.47 3.192-4.118.309-.514.515-1.235.618-1.853.308-1.029 1.235-1.853 2.264-1.853.206 1.648-.103 3.192-.514 4.736-.206 1.03-.824 1.956-.412 2.985.103.515.618.515 1.03.515 3.705-.103 7.411-.206 11.426.103.72.103 1.338.309 2.06.309.102-.103.308-.103.205-.309-.103-.309-.309-.824-.72-.824-.104-.205-.31-.103-.412-.205-1.956-1.133-4.324-.515-6.692-.515-1.235.103-2.368.309-3.397-.309-.515-.515-.103-2.368-.103-2.368 0-.72 1.647-5.559 1.956-5.97.103-.515.206-.927.206-1.442.206-.617.206-1.44.206-2.059.103-1.03.617-1.956.926-2.882.206-.515.31-.927.515-1.441.206-.618.206-1.133.618-1.647 1.03.617 1.956.617 2.47 1.75l.412 2.573c0 .206.103.515.309.31.824-.516.515-1.75.515-2.472.206-.926-.515-1.44-.72-2.264-.207-.206-.619-.927-.619-.927-.103-.72-1.647-1.132-1.235-1.956.206-.72.412-1.338 1.03-1.75.102.103.102.103.102.206l.412-.309v-2.573c1.03 0 2.47.103 3.5.103.31.102.515.308.824.308l.206-.308 2.47-.515c-.926.206-1.544-1.03-2.573-1.03M47.354 18.942h.206-.206z"/>
        <path d="M20.486 27.59c0 .41-.206.617-.515.72-.206-.103-.412-.103-.617-.412-.103-.309.205-.618.411-.72.412.102.72.102.72.411M18.53 27.59c.206.205.206.514.103.72-.206.206-.515.309-.72.103-.207-.206-.412-.412-.207-.618.206-.309.618-.412.824-.206M61.458 27.898c0 .103 0 .103 0 0M84.93 28.516c.102.308-.104.617-.413.72-.308-.103-.72-.206-.72-.515 0-.205.206-.411.412-.514.308-.103.514.103.72.309M86.473 28.413c.103.206.31.411.103.514-.103.103-.206.103-.309.206-.308.103-.617-.103-.72-.412-.103-.308.206-.514.515-.617.102 0 .308.206.411.309M10.81 28.824c-.104.412-.413.515-.824.412-.103-.103-.206-.206-.206-.412 0-.205.103-.411.309-.514.308 0 .617.103.72.514M21.207 29.34c0 .205-.31.514-.515.617-.309 0-.515-.206-.72-.412 0-.206.102-.515.411-.618.309-.206.72 0 .824.412M19.354 29.133c.102.103.205.31.102.515-.205.206-.514.412-.72.206-.206-.206-.412-.309-.309-.618.103-.103.309-.309.515-.412.103 0 .206.103.412.31M91.209 29.442c0 .206-.206.515-.412.618-.206.103-.515 0-.72-.206-.207-.103-.104-.309-.104-.515.103-.206.412-.309.618-.412.309.206.515.31.618.515M93.165 29.75c-.103.31-.31.516-.618.516-.206 0-.515-.103-.412-.412 0-.206.103-.412.31-.515.308-.103.617.103.72.412M14.31 30.163c.102.411-.104.617-.413.72-.205.103-.411 0-.617-.206-.206-.205-.309-.411-.206-.617.103-.31.309-.206.515-.31.411.104.617.207.72.413M15.853 30.472c.103.205-.205.308-.205.514-.103.103-.412.206-.515.103-.206-.206-.515-.515-.206-.72.103-.515.72-.31.926.103M89.459 30.266c0 .308-.206.514-.412.72-.309.103-.515-.103-.618-.412 0-.205.103-.411.31-.617.205.103.514.103.72.309M91.93 30.78c-.104.31 0 .618-.31.824-.205.103-.514 0-.72-.103-.206-.206-.206-.412-.103-.618.206-.206.412-.411.72-.411.206.102.206.205.412.308M13.177 31.398c.103.206-.206.309-.206.412-.206.103-.412 0-.618-.103-.206-.103-.103-.412-.103-.618.206-.412.721 0 .927.31M89.973 32.016c.103 0 .103.206 0 .309-.72.411-1.853.514-2.47-.103-.412-.31-.824-.412-1.236-.721.103-.412.721-.412 1.133-.515.926.206 1.647 1.03 2.573 1.03M14.618 31.707c.103.206-.103.309-.206.515-.103.205-.412.103-.515.103-.308-.206-.411-.515-.205-.824.308-.309.72-.103.926.206M17.295 31.913c.103.309-.103.514-.31.72-.205.103-.41-.103-.617-.103-.103-.205-.412-.514-.103-.72.31-.412.824-.206 1.03.103M52.913 33.251c-.103.618-1.132-.103-.926.72.103.618.309 1.339.618 1.75.308.412.103 1.03.103 1.545-.31.412-.721.72-1.133 1.03-.926-.104-2.162.411-2.573-.618-.206-.515-.515-.927-.515-1.442.103-.103.206-.103.309-.103 0-.205-.206-.308-.206-.514 1.03-.206-.412-1.03.412-1.133.72.721 1.853.515 2.47 1.339l.412.411c-.103-.72-.515-1.44-.618-2.264-.103-.412.103-.824.31-1.03.617-.617 1.029 0 1.337.31M20.074 33.045c.103.309-.103.515-.309.618-.309.103-.411-.206-.514-.309-.103-.309.103-.515.308-.618.103 0 .31.103.515.31M39.016 33.354c.412 1.235.206 2.47-.412 3.5 0 .206.103.618-.309.618-.823-1.133-.206-2.78.103-4.015.206-.309.515-.412.618-.103M65.37 33.972c.411.823.411 2.059.103 2.882l-.206.206c-.31-.72-.618-1.441-.72-2.162.205-.515.308-1.03.41-1.647.413-.103.31.412.413.72M22.442 34.28c-.206.412-.72.515-1.03.721-.72.515-1.853.72-2.78.515.824-1.133 2.06-1.75 3.501-1.441.103.103.206.103.309.205M9.78 35.413c1.132.823 1.44 1.956 2.162 3.088.102.103.411.206.308.412-.206.206-.514-.206-.823-.103-1.133-.515-1.956-1.853-1.853-3.191-.103-.206.103-.206.206-.206M64.237 36.34c0 .308 0 .617-.309.72-.308.103-.617-.103-.72-.412-.103-.206.103-.309.206-.515.206-.205.617 0 .823.206"/>
        <path d="M77.208 37.986c0-.617.206-1.132.206-1.75.103-.205.206-.411.103-.617.72-1.03 2.265-.72 3.397-.618.412.206 1.03.206 1.544.309.206-.206.515-.206.721-.206 1.03-.515.309-1.647.412-2.574l-.412-.926c-.103-.206-.206-.412-.206-.618-.206-.206-.309-.617-.515-.823-.514-1.339-1.544-2.162-2.367-3.192-1.544-2.058-4.015-3.19-6.486-4.014-2.47-.824-4.941.205-7.103 1.03-.72-.207-1.03-.722-1.235-1.34-.103-1.132.103-2.367.617-3.293.103-.824.618-1.339.824-2.06.515-1.75 1.132-3.397 1.235-5.352.103-1.133-.823-1.956-1.647-2.471-.617-.206-1.235-.103-1.647.309-.412.823-1.235 1.44-1.956 1.75-.103.514.618.206.824.412.72.102 1.44-.103 1.956.308.103 1.236-.618 2.265-1.339 3.192-1.03 1.544-2.161 3.088-2.78 4.838l-.102-.103.103 7.618c1.03 1.647 2.162 3.5 4.015 4.118 1.03.823 2.264 1.75 3.5 1.03.72-.207.72.823 1.132 1.132.412 1.132-.515 1.956-.515 2.985l-.823 1.75c-.927 1.75-1.75 3.706-3.191 5.25-.412 0-.721.515-1.236.515-.206.309-.72.103-1.03.206-.926.412-2.264.206-2.985 1.03l.206.205c1.853 0 4.015.206 5.971.103.206-.103.515-.309.515-.618-.309-.514.103-1.029.309-1.44.103-.721.617-1.236.823-1.957.618-1.235 1.339-2.47 2.06-3.809l.926-1.544c.206-.515.617-1.132.926-1.75.206-.206.412-.515.515-.823 0-.31-.103-.412-.309-.618.206-.206.515-.206.824-.206.72.515 1.544 1.235 1.75 2.059l.308.823.103.412-.103 1.03.103.926c.103 1.441-.103 2.986-.308 4.53-.515 1.75-2.574 1.647-4.118 2.059-.412.205-1.03.103-1.03.72 1.75.412 3.912.206 5.765.103.31-.103.412-.412.515-.72.103-.412.515-.721.309-1.133-.309-.412 0-1.132-.103-1.75a.656.656 0 0 0 0-.618c.206-.926.206-1.956.412-2.882l.617-.927zM92.341 36.854c-1.03 1.441-2.059 2.985-3.809 3.5-.103 0-.206.103-.309-.103 1.03-1.132 1.647-2.882 3.192-3.294.411-.103.72-.309.926-.103M8.236 38.295c-.103.103 0 .412-.31.412-.205.103-.514 0-.617-.309-.103-.309.103-.617.412-.72.206.206.515.308.515.617M17.192 38.81c.103.309-.206.309-.412.309-1.338.515-2.574 0-3.5-.927 0-.103 0-.206.103-.308 1.235.308 2.676.102 3.809.926M9.986 38.398c.103.103.103.31.103.515-.206.309-.515.309-.721.309a.804.804 0 0 1-.412-.412c0-.309.309-.515.515-.618.206 0 .309 0 .515.206M38.81 38.501c.103.31-.206.515-.412.618-.309.103-.514-.103-.617-.206a.495.495 0 0 1 .205-.618c.31-.103.721-.103.824.206M93.576 38.604c.103.309-.205.515-.411.618-.206.103-.412 0-.618-.103 0-.206-.206-.309-.103-.515.103-.309.412-.412.72-.412.104.31.207.31.412.412M95.532 38.501c.206.31 0 .515-.103.72-.102.207-.411.31-.514.207-.206-.206-.412-.31-.412-.515 0-.206.309-.412.412-.515.309-.206.412.103.617.103M7 39.428c0 .206-.103.309-.206.514-.206.103-.309.206-.514.103a1.24 1.24 0 0 1-.515-.514c.103-.31.206-.515.515-.618.308.103.617.206.72.515"/>
        <path d="M71.855 39.428c.103.103 0 .309 0 .411-.206.206-.412.515-.72.31-.206-.207-.412-.412-.31-.618.31-.412.824-.515 1.03-.103M11.942 39.84c-.103.205-.103.411-.412.514-.31 0-.412-.206-.515-.309 0-.308 0-.514.206-.72.412-.206.72.206.72.514M8.956 39.942c.103.31-.103.515-.309.721-.411.103-.72-.206-.823-.412 0-.309.206-.617.514-.72.31-.103.515.308.618.411M73.914 39.84c.103.308 0 .617-.309.72-.412.103-.72-.206-.823-.412.206-.206.206-.617.514-.617.206 0 .412.103.618.308M10.397 40.045c.103.206-.103.31-.206.515-.102 0-.205.206-.411.103-.103-.206-.412-.206-.412-.412 0-.309.206-.514.412-.617.411-.103.514.103.617.411M91.826 40.251a1.24 1.24 0 0 1-.514.515c-.206.103-.412-.206-.618-.206-.206-.103-.103-.412 0-.515.309-.617 1.132-.411 1.132.206M94.194 40.354a.774.774 0 0 1-.72.515c-.31-.103-.618-.309-.412-.72.103-.104.206-.207.412-.31.308 0 .617.206.72.515M79.576 40.56c.206.412-.206.515-.412.72-.206 0-.412-.102-.617-.205-.103-.309.103-.618.411-.824.31 0 .412.103.618.31M71.135 40.972c.103.103.103.309.103.412-.206.103-.412.411-.721.206-.206-.103-.412-.31-.309-.618.103-.309.72-.309.927 0M72.782 41.178c0 .206 0 .412-.206.514-.206.206-.412 0-.72-.102-.104-.103-.104-.31 0-.515.102-.103.205-.206.411-.206.206.103.412.103.515.309M20.486 41.178c.206.206 0 .412-.103.617-.206.206-.515.31-.72.206-.31-.103-.31-.514-.207-.823.206-.103.206-.31.412-.31.31.104.515.207.618.31M82.87 41.384c.103.308-.206.411-.412.514-.411.103-.514-.206-.72-.411 0-.206.206-.31.206-.515.412-.206.72.103.926.412M81.223 41.384c.103.308-.206.514-.309.617-.206.103-.514.103-.72-.103-.103-.103-.103-.308-.103-.514.206-.206.309-.31.514-.412.206 0 .412.103.618.412M95.12 41.692c.104.412-.514.206-.72.31-1.338.823-2.985.205-4.22-.31.102-.411.514-.205.823-.411 1.338-.72 2.676.309 4.118.411zM10.81 41.384l-.104.206c-1.132.72-2.573 1.132-4.015.72l-.103-.206c1.133-.823 2.574-1.03 4.221-.72zM85.959 41.59c0 .205-.103.514-.31.617-.308.103-.72 0-.823-.309-.103-.206.103-.514.412-.617.309-.103.618 0 .72.309M16.265 41.692c-.103.206-.103.515-.412.618-.308.103-.72-.206-.72-.412-.103-.308.103-.411.309-.617.411-.206.617.103.823.411M14.103 41.795c.103.206-.103.31-.206.515-.205.206-.411.206-.617.103-.206-.206-.412-.412-.309-.72.206-.206.309-.206.515-.31.309 0 .514.104.617.412M88.12 42.516c0 .309-.205.515-.514.515-.206 0-.515-.206-.618-.31-.103-.205-.103-.41.103-.617.103-.103.309-.103.412-.206.412.206.617.412.617.618M11.839 42.207c.103.206-.103.31-.206.515-.103.515-.412.823-.72 1.338-.619.72-1.442.72-2.266.927l-.103-.206c.927-1.133 1.956-2.06 3.295-2.574zM86.576 42.928c.103.412-.206.412-.412.617-.308 0-.514-.102-.617-.411-.103-.31.206-.515.412-.618.308-.103.514.103.617.412M15.339 42.928c0 .103 0 .103.103.206 0 .309-.31.411-.412.617-.309 0-.515-.103-.72-.308-.104-.31 0-.618.308-.721.309-.103.618-.103.72.206M92.238 43.854c.309 0 .412-.411.72-.514.31-.103.618.103.721.308.103.412-.205.515-.411.721-.206.206-.721-.206-.618.206.206.103.412.412.412.618a.313.313 0 0 1-.412 0c-.927-.412-1.853-1.03-2.265-1.956-.103-.31-.72-.515-.412-.72 1.03 0 1.853.72 2.265 1.337M95.224 42.825a.656.656 0 0 1 0 .618c-.206.308-.618.205-.927.205-.103-.205-.309-.308-.206-.514.103-.206.206-.31.515-.412.206-.103.412 0 .618.103M84.106 44.575c.308.309.514.823.72 1.235-.103.103-.206.103-.309.103-1.03-.617-2.367-1.235-2.78-2.47-.102-.103-.308-.31-.308-.515.824-.206 1.544.412 2.162.823.103.31.309.412.515.824M13.589 43.34c.103.308-.103.514-.31.617-.308.103-.514-.103-.72-.206-.206-.308.206-.617.412-.72.309-.103.515.206.618.309M87.915 44.06c0 .206-.206.31-.31.412-.205 0-.514.103-.72-.103-.103-.206-.206-.412 0-.515.309-.411.824-.103 1.03.206M95.532 44.472c.103.412-.205.618-.411.824-.31.102-.515-.103-.721-.31-.206-.205 0-.411 0-.617.206-.206.515-.309.824-.206l.308.309M74.223 48.796c0 .411-.72.308-.927.514-.926.515-2.058.515-3.19.515v-.206c1.029-.926 2.676-1.235 4.117-.823M29.34 50.134c0 .309-.207.412-.516.515a.566.566 0 0 1-.514-.31c-.103-.41.206-.514.411-.72.31.103.515.31.618.515M73.708 50.443c-.103.309-.206.617-.412.72-.308.103-.514-.103-.72-.206-.103-.102-.103-.308-.103-.514.206-.515 1.03-.515 1.235 0M79.885 50.546c-.72.514-1.647 1.132-2.677 1.132h-1.647l-.206-.103c1.03-1.235 2.883-1.235 4.427-1.132v.103h.103zM20.898 51.37c0 .308-.103.514-.412.617-.309.103-.515-.103-.618-.309-.103-.309 0-.515.206-.72.309-.206.72.102.824.411M22.442 51.678c.103.206-.103.206-.103.412-.206.103-.412.206-.618 0-.206-.103-.309-.309-.206-.515.103-.206.31-.206.412-.309.206.103.412.206.515.412M10.603 54.766c-.309.412-.823-.103-1.132-.308-1.03-.618-1.03-1.853-2.162-2.574.103-.412.412 0 .618 0l.617.309c1.133.617 1.339 1.647 2.06 2.573"/>
        <path d="M51.472 54.149c-.103.412-.412.72-.309 1.132l-.103.103c.103-.515-.411-.72-.205-1.235-.206-.412-.206-.824-.412-1.236-.31-.514.206-.72.412-1.029.411.206.617.618.926.926 0 .515-.412.927-.309 1.339m48.899-11.427c-.515-.927-1.338-1.235-2.265-1.235-.824.103-1.338.617-1.75 1.235-.206.72.103 1.338.618 1.75.206.103.514.103.617-.206.103-.412-.309-.412-.309-.72-.102-.412 0-.824.31-1.133.308-.309.823-.206 1.235-.206.411.206.72.515.926.927a2.273 2.273 0 0 1 0 1.647c-.309.823-1.132 1.441-1.956 1.544-2.573.412-30.574.206-30.574.206-3.295.309-7.103-.618-9.883 1.132-1.338.618-1.956 2.06-2.265 3.294-.823.721-1.75 1.648-2.367 2.471l-.103-.103c.205-.72.514-1.441.617-2.162.412-.617.412-1.44.824-2.161 1.132-1.853 2.265-3.81 4.118-5.148.72-1.03 2.161-.823 3.294-.823 1.235.617 2.78.823 4.323.617.103-.103.103-.103.103-.205-.411-.412-1.132-.515-1.647-.927-1.235-.618-2.367.206-3.706.103-.103-.103-.103-.103-.103-.206 1.133-.823 2.471-1.441 3.81-2.059 1.029-.617 2.264-.926 3.396-1.338.412 0 .927-.412 1.339-.103l1.647-.412c.103 0 .103.103.206.103 1.338-.515 3.191 0 4.735-.103l.206.206 1.441.412c.515.103.824.72 1.339.72.308-.411-.31-.617-.515-.926.72-.206 1.441 0 2.059.309l-.31.309c-.205.308.104.617.413.72.206.103.411-.103.514-.103.412-.309 0-.514.103-.823 2.265.412 4.427.926 6.589 1.853.617.206 1.132.617 1.75.617-.618-.617-1.544-.926-2.368-1.235-.515-.309-1.235-.309-1.647-.823.103-.206.309-.103.412-.206 1.03-.103 1.956-.927 2.676-1.75.103-.206.412-.103.412-.412-.309-.309-.72.103-1.132.103-1.339.206-1.853 1.75-3.192 2.059-1.544-.412-3.19-.72-4.735-1.133-.72-.103-1.647-.206-2.265-.514l-1.75-.206H72.37c0-.103-.103-.103-.103-.206 1.132-.31 2.059-.927 3.191-1.236l8.236-3.809c.823-.823 1.647-1.647 2.368-2.573 0-.206-.103-.515-.31-.618-.205-.103-.411-.103-.617.103-.412.309 0 .618 0 .927a5.418 5.418 0 0 1-1.441 1.235c-.103 0-8.545 3.809-8.545 3.809-1.235.515-2.47 1.132-3.809 1.441l-1.75.309c-.103.412-.411.618-.72.72-.515.104-.927.412-1.441.412-4.015 1.545-8.133 3.192-11.324 6.383a2.85 2.85 0 0 0 .309-1.338c-.103-.515 0-1.03-.31-1.339-.102-.206-.308-.72-.205-.823l-.412.309c-.309.72-.515 1.956-.206 2.676.103.515.515 1.236.103 1.75-1.441 1.75-2.265 4.015-3.294 5.971-.412-.103-.515-.412-.72-.72 1.029-1.339 1.852-2.78 2.161-4.53.206-.206.103-.515.309-.72-.103-.515.309-1.03 0-1.442.206-.72-.927-1.338-.206-1.75l-.618.309c-1.338 1.75.721 4.323-.823 5.97v.104c-.412.514-.618 1.132-1.236 1.44-.72-.308-1.029-1.132-1.44-1.75-.721-.617-.721-1.955-.31-2.882.31-.926-.205-1.647-.308-2.47l-.31-.206c-.72.926-1.029 2.47-.411 3.603.309.514.309 1.338.824 1.75.308.926.823 1.441 1.338 2.265.103.308-.206.411-.309.514-.309-.206-.309-.72-.618-.926-1.03-2.162-2.367-3.912-3.912-5.662-.103-.309-.308-.515-.205-.824.617-.514.72-1.647.411-2.367-.103-.206-.206-.31-.206-.515l-.514-.412c.103 1.132-.618 2.059-.31 3.191v.103c-3.19-2.367-6.69-4.53-10.294-6.176l-.308.823c.926.206 3.294 1.647 3.294 1.647 1.03.412 2.059 1.03 3.088 1.647 4.22 2.368 7 6.177 8.853 10.5 0 .31.31.721.103 1.03-.617-1.03-1.544-1.544-2.367-2.368-.206-1.44-1.03-2.882-2.368-3.397-.515-.72-1.441-.72-2.265-.926l-11.22-.103c-9.163-.103-17.398.309-26.458.103-1.235-.103-2.78-.515-3.19-1.853-.207-.515-.207-1.236 0-1.75.308-.618.926-.824 1.543-.824.515.103.824.515 1.03.824 0 .412-.31.823-.515 1.132 0 .103.103.412.412.309.412-.103.72-.618.823-1.03 0-.205.103-.514-.103-.72-.205-.618-.823-1.132-1.44-1.235-.721-.103-1.545.205-2.06.72-.72.618-.72 1.75-.514 2.574.514 1.338 1.956 2.265 3.294 2.47l29.957.103c2.882.206 6.176-.308 9.162.206 1.03.31 2.264 1.133 2.47 2.368 0 .103-.103 0-.206 0-2.47-1.544-5.661-2.162-8.75-1.75-1.235-.103-2.368.412-3.5.72-.618.104-1.132-.205-1.544-.514-1.132-1.03-3.088-.927-4.427-.515v.206c1.544-.103 2.368 1.132 3.81 1.338.308.103.514-.309.823 0-1.441.72-2.78 1.442-4.324 1.956-.412-.103-.72-.514-1.03-.823-.617-.618-1.646-.412-2.47-.412-.309.103-.515-.103-.72 0 .205.515.823.823 1.338 1.03.72.308 1.647 0 2.367.411-.205.206-.411.309-.617.412-1.441.515-2.677 1.853-4.22 1.75-1.648.206-3.398-.309-4.53-1.441-.515-1.236-1.75-1.853-3.089-1.75-.103.103-.206.103-.206.206.72.411 1.236 1.235 1.853 1.647.412.514 1.236 0 1.647.617.618.412 1.339.721 1.956.824.515.206 1.03.309 1.647.412l-.205.103c-2.78.926-6.074 1.03-9.163.926-.926 0-1.853-.309-2.779-.309.103.206.515.31.72.412-.205.206-.514.206-.823.206-.412.103-.824.103-1.132.309a2.85 2.85 0 0 0-1.339.309c-.514.514-1.132 1.132-1.75 1.44 0 .104 0 .31.103.31.618-.206 1.339-.103 1.956-.31 1.03-.102 1.647-1.234 2.368-1.646.823-.72 2.059-.515 3.191-.412.618.103-.103.412.103.824.206.205.515.514.824.411.103-.103.103-.103.206-.103.205-.206.103-.514 0-.823.411-.309 1.03 0 1.44-.206 1.133 0 2.369-.309 3.5-.309.207 0 .413-.206.619 0-.103.206-.412.309-.31.618.104.309.413.412.618.514.31-.102.618-.308.515-.72-.103-.206-.309-.206-.515-.309.618-.309 1.339-.412 2.06-.72.514-.104.926-.206 1.338-.412.411 0 .72-.412 1.132-.206-.206.514-.412 1.03-.618 1.441-.514 1.647-.823 3.809 0 5.353.103 0 .103 0 .206-.103-.617-1.647-.309-3.5.31-5.044.41-2.677 3.19-3.397 5.043-4.427l.103.103c-.514 1.338-1.338 2.677-1.132 4.324.103.309-.103.515 0 .72.515-.308.823-.926 1.132-1.44.206-1.442-.617-3.09.824-4.119 2.573-1.029 4.941-2.264 7.824-2.367.103.103.308-.103.308.103-.617.72-1.544 1.338-1.75 2.162-1.03 1.338-.926 3.706-.514 5.353.308.926-.515 1.44-.927 2.264-.206.31-.206.721-.412 1.03l.618.103c.515-.515 1.03-1.236 1.03-2.06a.928.928 0 0 0 .617.619c.206-.31-.206-.618-.206-.927.515-.309.72.309 1.133.515.617.206 1.235.412 1.853.412l.206-.206c-.721-1.03-2.06-1.236-3.192-1.339-.617-1.029-.617-2.264-.514-3.5.102-.617.205-1.338.617-1.956.206-.411.618-.823.824-1.132.514-.515 1.235-.927 1.956-1.03h.103v.103c-.824.618-.927 1.545-1.442 2.368-.514.824-.72 1.853-.308 2.677.205.412.103 1.03.514 1.338.412-.515.412-1.235.618-1.853-.103-1.03-.72-1.956-.103-2.985.309-.824.927-1.133 1.647-1.339 1.647-.206 3.191.721 4.633 1.339.308.206.823.411.926.823 0 .824-.515 1.647-1.132 2.06-.824.514-2.06.514-2.78 0-.514-.516-.617-1.236-.514-1.854.308-.412.823-.72 1.338-.515.309.206.617.515 1.03.31.102-.104.205-.31.102-.516-.309-.205-.412-.617-.926-.72-.618-.103-1.339-.103-1.647.309-.618.514-.927 1.44-.721 2.162.206 1.029.926 1.75 1.956 1.955 1.441.31 2.882-.102 3.809-1.338.412-.412.412-.823.72-1.338 1.442.926 2.574 2.47 3.192 4.118 0 .514.103 1.132 0 1.544l1.03.103c-.104-.206 0-.515.102-.72.412-2.06 1.647-3.707 3.191-5.045.515-.309.412.412.515.618.412 1.132 1.544 2.058 2.677 2.367 1.338.206 2.573-.103 3.294-1.132.412-.72.926-1.853.206-2.574-.412-.514-1.03-.823-1.647-.823-.824 0-1.339.514-1.647 1.132 0 .206 0 .515.205.618.103 0 .412 0 .412-.206.103-.515.412-.72.824-.927.309-.205.72 0 1.03.206.308.31.411.72.411 1.236-.103.617-.412 1.235-1.03 1.44-.926.516-2.161.207-2.985-.308-.412-.412-.617-.824-.823-1.338-.103-.515-.206-.927 0-1.441 1.338-.824 2.78-1.442 4.426-1.545.618.103 1.236.515 1.647 1.03 1.442 1.441-.308 3.5.721 5.147.412-.103.412-.515.515-.824.514-1.132-.103-2.367-.412-3.397-.412-.72-.618-1.235-1.132-1.853.205-.103.205-.103.411-.103.618.412 1.339.927 1.853 1.647.927 1.442 1.339 3.192 1.236 5.045-.206.926-1.236 1.338-1.956 1.75-.31.206-.72.617-.824 1.03.412.205.927 0 1.235-.207.618-.206.927-.926 1.339-1.338.103 0 0 .103.103.206 0 .309-.206.824.103.926.206-.411.206-1.029.308-1.544.412.412.412 1.03.618 1.544.309.515.72 1.339 1.441 1.442.206-.31 0-.515-.103-.824-.103-.823-.72-1.132-1.132-1.75-1.03-1.441-.618-3.809-1.441-5.456-.309-.926-.927-1.544-1.647-2.265l.103-.103c1.544 0 2.78.515 4.117.72 1.648.824 4.118.619 4.942 2.883.309 1.236.926 2.368 1.75 3.398l.103-.103c.206-.31.206-.824 0-1.133-.206-1.544-1.544-1.956-2.265-3.191l.103-.103c.72.206 1.544.412 2.265.72 2.47.721 4.22 3.089 4.53 5.663 0 1.955-.413 3.603-1.133 5.353-.103.206-.515.514-.206.72.309-.206.412-.617.618-.926 1.03-1.75 1.544-4.015 1.03-6.28 0-.412-.516-.72-.31-1.132.206.206.31.206.515.309.206-.103.515-.103.618-.31 0-.205.103-.411 0-.514-.206-.309-.618-.309-.927-.206-.206.206-.309.412-.412.72-.308-.514-.617-1.235-1.132-1.646l.103-.103c1.338.514 2.676 1.132 4.118 1.544a1.74 1.74 0 0 0 1.03.309c1.234.514 2.573.617 3.808.926.927-.103 1.647.309 2.574.103v-.103c-.31-.412-1.03 0-1.442-.309-2.161-.206-4.117-.823-6.073-1.544 0-.103.206-.103.206-.103.308-.206.514-.412.514-.823-.103-.206-.411-.31-.72-.31a1.24 1.24 0 0 0-.515.516c0 .205.206.514.515.617-.103.103-.206 0-.31 0l-2.779-1.235c-.308-.103-.617-.309-.926-.412-.72-.309-1.441-.72-2.162-.926-1.956-1.03-4.118-1.545-6.28-2.368-.411-.103-.926-.206-1.338-.412-.72-.206-1.544-.412-2.265-.618-2.573-.617-6.176-.72-8.441.721-.412-.103-.618.515-.72.103.617-1.75 2.573-2.265 4.22-2.368 12.353-.103 23.986-.206 36.134-.411 1.44 0 2.78-.515 3.5-1.75.103-.515.206-1.854-.206-2.677"/>
        <path d="M84.826 52.193c0 .103.206.103.103.309-1.03.926-2.573 1.235-4.118 1.338-.103 0-.206.103-.411.103-.103-.103-.103-.206-.103-.206 1.235-1.235 2.882-1.853 4.53-1.544M79.885 52.708c.103.411-.103.72-.515.823-.309 0-.515-.206-.72-.515-.103-.206.102-.411.205-.514.31-.206.927-.206 1.03.206M21.31 52.81c.102.206 0 .515-.103.618-.103.206-.412.206-.515.206-.206 0-.309-.309-.412-.515 0-.309.103-.411.412-.617.206 0 .412 0 .617.308M15.853 54.766v.206a1.96 1.96 0 0 1-1.956-.514c-.411-.618-.926-1.236-1.647-1.545 0-.103-.206-.205 0-.308 1.442.103 2.368 1.338 3.603 2.161M89.562 52.708c-.721 1.029-1.339 2.367-2.574 2.78-.206 0-.412.308-.618.102.515-1.132 1.545-2.47 2.78-2.985.103.103.309.103.412.103M23.162 53.12c0 .308-.205.411-.411.617-.206 0-.412-.206-.515-.309-.103-.309.206-.412.309-.618.206-.102.412.103.617.31M93.37 53.325c-.308.412-.102 1.03-.411 1.441-.618.721-1.133 1.545-2.162 1.648-.103-.31.206-.618.412-.927.412-.926 1.03-1.956 2.059-2.368l.103.206zM6.28 53.634c.103.206.205.412 0 .72-.206.207-.412.207-.721.104-.309-.206-.412-.515-.206-.721.103-.309.72-.515.927-.103M4.53 53.943c0 .206.102.309.102.412a.804.804 0 0 1-.411.411c-.31.103-.515-.103-.72-.411 0-.31.102-.515.308-.618.206-.103.515 0 .72.206M8.133 54.149c.103.206.103.72-.206.72-.412.206-.72-.103-.927-.411 0-.31.206-.515.412-.618.206 0 .515.103.72.309M13.177 54.56c0 .206 0 .515-.206.618-.206.206-.412.103-.618.103-.103-.206-.411-.309-.206-.515.103-.205.206-.205.412-.308.206-.103.515-.103.618.103M96.356 54.766c-.103.206-.206.515-.412.515-.309 0-.515-.103-.72-.309-.103-.309.205-.514.411-.617.31 0 .721.103.721.411M90.694 54.972c0 .206-.206.412-.412.515-.412.206-.823-.103-.926-.515.103-.309.309-.514.514-.514.515-.103.721.205.824.514M94.606 54.87a.566.566 0 0 1-.309.514c-.206.103-.515.103-.72-.103-.31-.206-.103-.515.102-.618.31-.205.824-.205.927.206M5.456 55.384c.103.309-.103.618-.412.824-.309 0-.617-.206-.72-.412 0-.309.103-.515.308-.618.412-.206.618 0 .824.206M89.15 55.693c.103.309-.103.618-.412.823-.206.103-.412-.102-.618-.205-.103-.206-.308-.515 0-.618.31-.515.927-.309 1.03 0M22.03 56.105c.103.309-.206.411-.309.617-.103.103-.412.103-.514 0-.103-.206-.31-.411-.206-.617.103-.103.206-.206.411-.31.31-.205.412.104.618.31M95.841 56.31c.103.206-.103.31-.103.515-.206.206-.514.206-.72.103-.31-.206-.31-.412-.31-.72.207-.103.207-.31.413-.31.308 0 .617.104.72.413M93.885 56.414c.103.411-.206.514-.411.617-.103 0-.31-.103-.31.103.824.412 1.339 1.03 1.957 1.647v.206c-1.133 0-2.265-.309-3.089-1.132-.206-.206-.617-.206-.823-.412.412-.412 1.132-.206 1.647-.309.412-.412-.515-.72.103-1.132.206 0 .309-.206.515-.206.205.206.308.412.411.618M81.326 56.414c.103.205-.103.308-.103.514-.206.206-.515.206-.72.103-.206-.206-.412-.412-.31-.72.207-.412 1.03-.31 1.133.103M12.456 57.546c-.103.309-.206.515-.514.515-.206 0-.412-.103-.515-.412 0-.206.103-.309.103-.515.309-.309.926-.103.926.412M14.927 57.134c0 .412-.412.72-.618 1.133-.514 1.029-1.338 1.955-2.47 2.058-.103-.308.411-.617.514-.926.515-1.03 1.442-1.647 2.368-2.265h.206zM80.605 57.546c0 .309-.308.618-.514.72-.31.103-.515-.102-.618-.205-.206-.206-.103-.515 0-.721.309-.412.824-.103 1.132.206M82.458 57.752a.774.774 0 0 1-.514.72c-.103-.103-.206 0-.31-.103-.205-.102-.41-.308-.41-.514.205-.206.205-.412.41-.412.31-.103.722-.103.824.309M19.662 57.752c0 .309-.206.515-.411.617-.31 0-.515-.205-.618-.411-.103-.31.206-.515.412-.618.309-.103.411.206.617.412M21.824 57.855c-.103.309-.309.514-.617.514-.206-.102-.515-.102-.515-.411 0-.31.206-.515.412-.618.308 0 .617.206.72.515M89.15 60.017c.103.103.412.308.412.514-.515.206-.927-.309-1.339-.411-.72-.721-1.338-1.545-1.647-2.471.31-.309.618.103.824.206.617.514 1.338 1.235 1.75 2.162M90.282 57.855c.103.206.103.514-.103.72-.206.31-.617.206-.823.206-.103-.206-.412-.412-.206-.72.103-.206.412-.31.618-.412.102-.103.308.103.514.206M24.707 58.678c0 .206.103.618-.206.824-.31.103-.618 0-.72-.412-.104-.412.205-.412.41-.618.104-.103.31 0 .516.206M82.356 60.634c.411.618.72 1.441.823 2.162-.103.206.103.412 0 .618h-.103c-1.338-1.03-1.647-2.368-2.265-3.81-.103-.102-.206-.205-.103-.308.31-.309.515.309.824.412l.824.926zM28.619 59.605s0 .103 0 0c-1.236.926-2.883 1.441-4.324.617 0-.102 0-.205.206-.308.926-.31 1.75-.721 2.676-.618l1.442.309zM21.618 59.81c-1.03.618-1.956 1.957-3.294 2.265-.206.103-.412.412-.72.206.514-1.647 2.367-2.573 4.014-2.78v.31zM80.605 61.149c.103.206 0 .618-.205.618-.206.206-.412.206-.618 0-.309-.103-.309-.412-.309-.618.103-.206.309-.206.412-.309.309.103.515.103.72.309M78.032 61.355c-.206.412-.72.72-1.133.823-1.029.412-1.955-.103-2.882-.411 0-.206.309-.206.515-.31 1.03-.205 2.059-.411 3.191-.205 0 0 .206-.103.309.103M21.618 62.178c-.103.103-.103.412-.411.515-.206.103-.412 0-.618-.103-.103-.206-.309-.309-.103-.515a.566.566 0 0 1 .515-.308c.308 0 .617.103.617.411M23.471 62.487c-.103.206-.206.515-.411.618-.206.103-.412-.103-.618-.206-.103-.206-.206-.412-.103-.618.103-.206.309-.206.412-.308.309 0 .617.308.72.514M79.988 62.796c0 .206-.103.412-.206.618-.206.206-.412.206-.72.103-.207 0-.31-.31-.412-.412-.206-.206.102-.412.205-.618.412-.309 1.03-.103 1.133.31M81.326 62.796c0 .206.103.309.103.412-.206.206-.309.515-.72.412-.206.103-.31-.206-.412-.206-.103-.31 0-.824.411-.824.31-.206.515.103.618.206M22.339 63.62c.103.308-.103.617-.309.823-.309.103-.72.103-.926-.309 0-.308 0-.72.411-.926.31 0 .721.103.824.412M24.089 63.517c-.103.823-.206 1.956-1.132 2.47-.515.103-1.03.515-1.442.206v-.206c.618-.926 1.853-1.647 2.574-2.47M75.15 64.237c.102.206-.104.31-.206.515-.206.206-.515.103-.721 0-.206-.103-.206-.412-.103-.618.103-.206.206-.308.412-.308.206-.103.514.205.617.411M27.177 65.679c.412.72.206 1.647.412 2.47-.515.103-.72-.515-1.03-.823-.72-.927-.617-2.162-.926-3.295.103-.103.206-.103.206-.103.412.31.824.927 1.132 1.339 0 .206.206.206.206.412M76.694 64.443c0 .206-.31.309-.412.515-.206 0-.412-.103-.618-.309-.103-.309.103-.412.309-.515.309-.103.618 0 .72.31M80.4 67.223c0 .103 0 .309-.206.206h-.103c-.927-.824-1.75-1.75-1.647-2.986h.206c.72.72 1.647 1.544 1.75 2.78M78.032 66.296c0 .206-.103.412-.309.618-.309.103-.824.103-.926-.412 0-.309.308-.515.514-.618.412-.205.618.103.72.412M75.973 66.914c-.412 1.132-1.647 1.75-2.368 2.573-.103-.102-.103-.308-.103-.514.31-1.133 1.236-2.368 2.368-2.78.515.103 0 .515.103.72M78.34 67.84c0 .31-.308.412-.411.515-.206 0-.515-.103-.72-.309 0-.309.205-.412.411-.514.309-.103.618.102.72.308M55.487 11.736h-.309c-.926 0-.103 1.132.31 1.132.514 0 .617-1.132 0-1.132zm-2.78 1.132c.927 0 0-1.132-.411-1.132h-.927c-.926 0 0 1.132.412 1.132h.927zm-3.808 0c.926 0 0-1.132-.412-1.132h-.927c-.926 0 0 1.132.412 1.132h.927zm6.485-1.338c.412 0 .72.309.72.72 0 .412-.308.721-.72.721h-9.162a.704.704 0 0 1-.72-.72c0-.412.308-.721.72-.721h9.162zM55.487 25.633c0 .412.515.103.927.103.411 0 .926.309.926-.103 0-.618-.515-.412-.926-.412-.412.103-.927-.103-.927.412zm1.647 1.03c.412 0 .412-.515.412-1.03 0-1.03-.824 0-1.235-1.03-.31.824-1.133.104-1.133.927 0 .618 0 1.03.618 1.03h1.338v.103zm-2.573-4.633l1.75.72 1.75-.72-.721 2.574 1.338-.31-.514 1.545.514 1.544-1.235-.309.515 2.78-1.75-.72-1.75.72.72-2.78-1.441.412.412-1.544-.412-1.544 1.338.206-.514-2.574zM50.649 24.913h-.31l.104.205-.206.31h.309v.308l.206-.206.308.206v-.309h.31l-.207-.309.103-.205h-.309l-.205-.31zM49.207 26.663h-.205l.102.205-.205.31h.308v.308l.206-.206.31.206v-.309h.308l-.206-.309.103-.205h-.309l-.206-.31zM51.575 26.457h-.309l.103.206-.206.205.31.103v.31l.308-.207.206.206v-.309l.309-.103-.206-.205.103-.206h-.309l-.103-.31zM51.781 28.104h-.206l.103.103-.103.206h.206v.206l.103-.103.206.103v-.206h.103l-.103-.206.103-.103h-.206l-.103-.206zM49.722 28.619h-.515l.31.411-.413.412.515.103v.515l.412-.31.515.31v-.515l.514-.103-.411-.412.206-.411h-.515l-.309-.515zM50.649.824L51.78 3.5l2.78-.823-1.442 2.47 2.368 1.75-2.882.412.205 2.882-2.161-1.955-2.06 1.955.104-2.882-2.78-.412 2.368-1.75-1.441-2.47 2.78.823zM40.766 60.634c-.309.103-.412.206-.412.515l.412 1.647c.103.309.103.824-.103 1.03-.206.308-.72.617-1.132.617-.31.103-.824.206-1.339 0-.308-.103-.514-.309-.617-.823l-.412-1.75c-.103-.412-.309-.412-.618-.31v-.102l2.06-.515v.103c-.413.103-.619.206-.516.618l.412 1.75c.103.309.206 1.03 1.133.823 1.03-.309.926-1.03.823-1.338l-.412-1.544c-.103-.309-.206-.515-.72-.412v-.103l1.338-.309.103.103zM43.854 61.046c-.206-.309-.72-.824-1.44-.72-.31.102-.619.308-.516.617.103.309.206.412.721.515l1.03.206c.205 0 .72.206.926.823.103.412-.206 1.133-1.235 1.441-.618.103-.927 0-1.133.103-.103 0-.103.103-.103.206h-.206l-.308-1.235h.205c.206.515.721 1.03 1.545.824.72-.206.617-.721.617-.721-.103-.309-.412-.412-.823-.515l-.412-.103c-1.132-.206-1.235-.617-1.338-.823-.103-.31 0-1.03 1.132-1.339.515-.103.824 0 1.03 0a.221.221 0 0 0 .205-.205h.206l.206 1.132-.309-.206zM47.87 63.002l-2.266.206v-.103c.412-.103.618-.103.515-.515l-.309-2.78c-.412.104-1.03.104-1.132 1.03h-.206l-.103-1.03 3.706-.308.103 1.03h-.206c-.206-.824-.823-.824-1.235-.721l.309 2.78c0 .411.205.411.617.411h.206zM50.34 61.149c.823 0 1.132-.103 1.132-.824 0-.514-.206-.72-.72-.823-.31 0-.31.103-.412.206v1.441zm2.78 1.853H51.78l-1.235-1.647h-.206v1.03c0 .411.103.411.515.514v.103h-2.162v-.103c.411 0 .514 0 .514-.515v-2.367c0-.412-.205-.515-.514-.515v-.103h2.059c.411 0 1.75.103 1.75.926 0 .618-.618.824-1.03.927l1.236 1.544c.102.103.205.103.205.103l.206.103z"/>
        <path d="M55.487 62.075l-.515-1.338-.72 1.236 1.235.102zm1.75 1.442l-2.059-.206v-.103c.412 0 .515 0 .515-.103s-.103-.515-.206-.72l-1.441-.207c-.206.31-.309.515-.309.618 0 .206.309.206.515.309v.103l-1.236-.206v-.103c.31 0 .412-.206.721-.515l1.75-2.676h.206l1.03 2.882c.205.618.308.824.617.824l-.103.103z"/>
        <path d="M60.84 64.34l-3.603-.617v-.103c.309 0 .515 0 .618-.31l.412-2.47c.102-.309-.206-.412-.515-.515v-.103l2.162.412v.103c-.412-.103-.618-.103-.721.412l-.412 2.47c0 .207.103.31.515.412.926.206 1.338-.205 1.75-.72h.206l-.412 1.03z"/>
        <path d="M63.208 64.855l-2.162-.412v-.103c.309 0 .618.103.618-.206l.514-2.47c.103-.31-.205-.412-.514-.515v-.103l2.162.412v.103c-.31 0-.618-.103-.618.206l-.515 2.47c-.103.31.206.412.515.515v.103zM65.884 63.928l-.514-1.338-.72 1.236 1.234.102zm1.75 1.442l-2.058-.206v-.103c.411 0 .514 0 .514-.103s-.103-.515-.206-.72l-1.44-.104c-.207.31-.31.515-.31.618 0 .206.31.206.515.309v.103l-1.235-.103v-.103c.309 0 .412-.206.72-.515l1.647-2.78h.206l1.133 2.883c.206.618.309.824.617.824h-.103zM50.443 23.06c-.412 0-.824.205-.824-.206 0-.618.412-.515.824-.515s.926-.103.926.515c0 .514-.514.206-.926.206m1.132-.206c0-1.236-.72-.103-1.132-1.133-.31.927-1.133.103-1.133 1.133 0 .411.103.617.31.72v.412c0 .103.102.206.205.206h1.338a.221.221 0 0 0 .206-.206v-.412c.103-.206.206-.412.206-.72M62.59 38.398c.309 0 .618-.206.618-.514 0-.31-.309-.515-.618-.515s-.617.206-.617.515c0 .308.308.514.617.514M59.81 19.662s-.308.412-.308.515c0 .206.103.309.309.309.103 0 .309-.103.309-.309l-.31-.515M41.28 19.662s-.308.412-.308.515c0 .206.103.309.309.309.103 0 .309-.103.309-.309-.103 0-.31-.515-.31-.515M45.913 19.662s-.309.412-.309.515c0 .206.103.309.31.309.102 0 .308-.103.308-.309-.103 0-.309-.515-.309-.515M50.546 19.662s-.31.412-.31.515c0 .206.104.309.31.309.103 0 .309-.103.309-.309l-.31-.515M55.178 19.662s-.309.412-.309.515c0 .206.103.309.31.309.102 0 .308-.103.308-.309l-.309-.515M41.28 26.045s.31.412.31.515c0 .206-.103.308-.31.308-.102 0-.308-.102-.308-.308l.309-.515M41.28 32.222s.31.411.31.514c0 .206-.103.31-.31.31-.102 0-.308-.104-.308-.31l.309-.514M42.001 37.163s.31.412.31.515c0 .206-.104.308-.31.308-.103 0-.309-.102-.309-.308l.31-.515M45.913 39.737s.31.411.31.514c0 .206-.104.31-.31.31-.103 0-.309-.104-.309-.31l.31-.514M60.12 26.045s-.31.412-.31.515c0 .206.104.308.31.308.102 0 .308-.102.308-.308-.103 0-.308-.515-.308-.515M60.12 32.222s-.31.411-.31.514c0 .206.104.31.31.31.102 0 .308-.104.308-.31-.103 0-.308-.514-.308-.514M59.296 37.163s-.309.412-.309.515c0 .206.103.308.309.308.103 0 .309-.102.309-.308l-.309-.515M55.384 39.737s-.309.411-.309.514c0 .206.103.31.31.31.102 0 .308-.104.308-.31l-.309-.514M50.649 42.516s-.31.412-.31.515c0 .206.104.309.31.309.103 0 .308-.103.308-.31l-.308-.514M58.267 33.251c.102.103.205.103.411.103l.206-.515s-.206-.206-.309-.206c-.514.103-1.03.206-1.338.618 0 .309.206.618.515.72.206-.102.206.104.309.207 0 .102-.103.308-.206.308-.31-.308-.927.103-1.236-.308.103-.412.31-.927 0-1.339 0-.103.206-.206.103-.309-.103-.411-.617-.103-.823-.103-.412-.102-.824.206-1.03.515 0 .103.103.31.206.412.103 0 .206 0 .206.103l-.309.206c.103.103.103.206.103.309-.206.103-.412-.206-.514-.31 0-.205 0-.617-.31-.72-.102 0-.205.103-.205.103-.103.103-.103.309-.103.515 0 .206.103.515.103.515s.926.72 1.132 1.132c-.309.515-.309 1.235-.926 1.544-.206.103-.206.309-.206.515l.103.103c.412-.206 1.132-.309 1.03-.927.102-.309.308-.514.514-.72.309-.103.515.103.72.309-.102.411-.411.72-.823.926-.103.103 0 .103 0 .206.103.206.412.103.618.103.514-.309.72-.927 1.132-1.133.103.31-.618.412-.206.721.309-.103.618 0 .824-.309-.206-.514.72-.72.103-1.132 0-.412.514-.618.411-1.133-.205-.514-.72-.514-.926-.926.309-.206.515-.206.72-.103M36.854 38.604c.309 0 .618-.206.618-.515 0-.308-.31-.514-.618-.514-.309 0-.618.206-.618.514.103.31.31.515.618.515M6.691 56.208c.31 0 .618-.206.618-.515 0-.309-.206-.515-.618-.515-.308 0-.617.206-.617.515.103.309.309.515.617.515M25.942 60.531c-.103 0-.103 0 0 0h-.206v-.103h.103s.103 0 .103.103c0-.103-.103-.103 0 0z"/>
        <path d="M25.942 60.428s.103 0 0 0c.103.103 0 .103 0 0 0 .103 0 .103 0 0 0 .103 0 .103 0 0 0 .103 0 .103 0 0 0 .103 0 .103 0 0 0 .103 0 .103 0 0zM26.148 60.428l-.103.103v-.103h.103v.103-.103h-.103.103zM26.148 60.531c.103 0 .103 0 0 0 .103-.103.103-.103 0 0 .103-.103.103-.103 0 0 .103-.103 0-.103 0 0v-.103c.103 0 .103 0 0 .103.103 0 .103 0 0 0z"/>
        <path d="M26.25 60.428c.104 0 .104 0 0 0 .104 0 .104 0 0 0 .104.103.104.103 0 0 0 .103 0 .103 0 0 0 .103 0 .103 0 0 0 .103.104.103 0 0 .104.103.104.103 0 0 .104.103.104 0 0 0 .104 0 0 0 0 0zM60.737 35.516c-.103 1.235-.515 2.265-1.441 2.882l-8.133 5.147c-.206.103-.411.206-.617.206-.206 0-.412-.103-.618-.206l-8.03-5.147c-.823-.617-1.235-1.647-1.44-2.882v-16.06h20.28v16.06zm.618-16.677H39.839v16.368c0 1.647.721 3.088 1.648 3.603l8.235 5.25c.206.206.412.31.72.31.31 0 .515-.104.721-.31l8.339-5.353c1.03-.412 1.647-1.956 1.647-3.603l.206-16.265zM53.531 42.825l.309-.103c-.103 0-.206 0-.309.103M35.31 64.237l-.824-1.235-.411 1.338 1.235-.103zm2.059 1.03l-2.06.206v-.103c.413-.103.516-.103.516-.31 0-.102-.31-.514-.412-.617l-1.441.206c-.103.412-.206.618-.206.72 0 .207.309.207.514.207v.103l-1.235.102v-.102c.309-.103.412-.31.515-.721l1.03-2.985h.205l1.75 2.573c.31.515.515.72.72.618l.104.103z"/>
        <path d="M72.061 58.678c-.309.515-.72.927-1.338 1.03 0-.72.72-1.236.412-2.06-.412-.617-1.236-.823-1.956-.617-.31.206-.206.515-.206.824l-.103 1.03c-.618 0-.618-.516-.824-1.03 0-.618.31-1.339.927-1.647.514-.206 1.338-.206 1.75.103.412.103.823.308 1.03.617.514.412.411 1.236.308 1.75zm-2.47.31c.308-.31-.104-2.266.823-1.03 0 .206 0 .617-.206.823-.103.103-.309.412-.618.206zm.308.823c0 .514-.412.411-.72.514h-.721c-.103-.205-.103-.617-.103-.823.618.103 1.132.103 1.544.309zm.927 3.809c-.206.308 0 .823-.31 1.132 0 .515-.514.824-.823 1.03-3.706.823-7.309-.412-10.809-1.03-4.941-1.132-10.706-1.441-15.853-.206-2.368.412-4.633 1.03-7 1.647-1.442.206-2.986.412-4.324 0-1.133-.514-.618-1.956-1.03-2.985.103-.824-.205-1.441-.205-2.162-.103-.206-.206-.515-.103-.824.411.103.926.412 1.44.515 2.574.515 4.942-.309 7.31-.823 2.265-.515 4.632-.927 7.103-1.133 2.78 0 5.56-.206 8.236.31.823 0 1.647.205 2.47.308 1.75.206 3.294.72 5.045.823.308.103.617.103.926.206 2.78.412 5.868 1.236 8.544 0 0 1.03-.514 2.06-.617 3.192zm-15.648 2.264c.206.412.412.824.31 1.339-.31.617-.927.617-1.442.72-.309 0-.515-.103-.72-.206 0-.103 0-.205-.104-.308.103-.412-.72-.824-.103-1.133.31-.515 1.544-1.544 2.06-.412zm.618.103c.412.103.412.515.412.824 0 .72-.412 1.235-1.03 1.544-.309.206-.823.206-1.235.103.72 0 1.544-.309 1.853-1.03v-1.44zm.823 4.118c-.103 0-.103.103-.103.103-.926 0-1.44-.515-2.161-.926v-.206c.823.103 1.544.617 2.264 1.03zm-1.132 2.883c0 .103-.206.103-.206 0-.926-1.133-1.338-2.471-1.956-3.706h.103c.72 1.132 1.338 2.47 2.06 3.706zm-1.544-.824l-.206.103c-.103-.103-.103-.515-.103-.618.309.103.412.31.309.515zm-.824-1.853c0 .309.31.412.206.72-.103-.102-.309-.411-.206-.72zm-1.956 2.574c-.617 0-1.44.411-2.059-.103 0-.206-.205-.412-.205-.618.514-.206.926.412 1.338 0 .72 0 1.441-.103 2.162.103.309.103.823-.515.926.103-.206.926-1.441.206-2.162.515zm-1.44-3.706l.102-.206c-.206.72-.618 1.544-1.03 2.265-.102-.824.721-1.442.927-2.06zm.926-.618c.411-.412.72.206.926.618.412.72 1.647 1.338 1.235 2.264-.617.515-1.544 0-2.161.412-.31 0-.927.103-1.133-.309.31-1.03.618-2.059 1.133-2.985zm-.103-1.132h-.103l.206-.206c0 .103-.103.103-.103.206zm.72 0c.103-.206.31-.515.515-.515 0 0 0 .103.103.103-.309.206-.412.412-.618.412zm.412.514c.103-.103.206-.103.309 0h-.309zm.824.927c0 .103 0 .206-.103.206l-.72-.515c.41-.103.617.103.823.309zm1.235-3.81c-.412.104-.618.516-1.03.619.206-.31.618-.618 1.03-.618zm-1.544-.41c-.103-.31.309-.104.412-.207l.926.103c-.515-.103-1.132 1.133-1.338.103zm-2.265.926c.103-.412.206-.824.412-1.133.309 0 .617 0 .823.103.103.618.824 1.441 0 1.956-.308.103-.72.412-1.03.103-.308-.309-.308-.618-.205-1.03zm-.412 1.853c0-.103.103-.31.103-.412.103-.206.31.103.412.206-.206.206-.309.309-.515.206zm-.103-1.442v-.308.308zm-.309-.926c-.411-.103-.617-.515-1.029-.515.412-.103.72-.103 1.132 0 .206.206-.103.412-.103.515zm-.308 2.573c.103-.411.308-.926.514-1.338-.103.412-.308 1.03-.514 1.338zm-.72 0c-.516-.102-1.03-.205-1.442-.411-.309-.31 0-.618 0-1.03.412-.72 1.647-1.03 2.265-.412a3.813 3.813 0 0 1-.824 1.853zm.308.824v.103h-.103l.103-.103s-.103 0 0 0zm-.824 1.75c-.411 1.03-.926 1.956-1.544 2.883a.786.786 0 0 1-.515.205c0-.411.412-.823.618-1.132.618-.824.824-1.75 1.544-2.574.31.31-.103.412-.103.618zm-2.882-.309c.72-.309 1.544-.926 2.368-.72-.618.514-1.545.72-2.368.72zm1.132-2.059c-.103-1.132.31-2.059 1.03-2.78.411-.102.926-.205 1.338.104-.824.206-1.853.412-1.956 1.441 0 .412-.103.618.103.927.309.617 1.132.308 1.544.823 0 .206-.103.309-.309.412-.617-.412-1.338-.515-1.75-.927zm-14.515-9.985c.103-.206 0-.618.309-.72.206-.104.515-.104.618.205 0 .412-.103.72-.103 1.132-.515 0-.72-.205-.824-.617zm.103 1.03c.412.308 1.132.205 1.647.308.103.309.103.824-.206 1.03-.514-.103-1.235-.103-1.44-.515.102-.31 0-.618 0-.824zm-1.441-.927c.103-.515.206-1.133.72-1.544.721-.412 1.75-.31 2.471.102.206.103.412.31.515.618.103.515-.103 1.133-.515 1.441h-.309c0-.514 0-1.03.206-1.44 0-.413-.309-.413-.618-.516-.514-.205-1.029.103-1.338.31-.309.411-.617.823-.412 1.338.206.308 0 .823.103 1.132l-.103.103c-.308-.309-.823-.824-.72-1.544zm28.927 13.28c.72.308 2.265.617 3.294.823-.103.412-.823 0-.72.618-.927-.412-2.06-.515-2.78-1.339 0-.102.103-.205.206-.102zm-19.25.411l-.412-.411c.206-.31.72-.103 1.03-.31.823-.205 1.75-.514 2.573-.411-.927.823-2.162.926-3.191 1.132zm33.25-14.103c-.411-.927-1.132-1.647-2.058-1.956-1.03-.206-2.06-.103-2.677.72-1.132.927-.309 2.368-.309 3.604 0 .206 0 .411-.206.514-4.426-.411-8.647-1.544-13.073-1.956-1.03-.205-2.06-.103-2.986-.308l-1.235-.103c-3.81.103-7.721.308-11.324 1.235-.72.206-1.647.309-2.368.618-.515-.103-1.03.308-1.544.206l-1.03.205h-.308c-.515-1.235 1.03-2.058.514-3.294-.411-.72-1.235-1.441-2.161-1.235-1.03-.103-1.956.515-2.471 1.235-.72 1.544.206 3.191.515 4.736-.103.514.514 1.03 0 1.44-1.03-.72-2.265-1.029-3.5-.72-.412.206-1.03-.103-1.236.412 1.339.72 2.986.618 4.53.515.206-.103.309-.103.412 0 .103.823-.206 1.853.308 2.573.515.721 1.442.927 2.368 1.03 2.883-.103 5.353-.927 7.927-1.544.412 0 .72-.206 1.132-.206 1.339-.31 2.883-.515 4.324-.618-.618.824-1.03 1.75-1.338 2.78-.412.823.617.926.926 1.44-.926.31-1.647.927-2.573 1.34-1.956-.104-3.604.72-5.457.926 0 .411.618.308.721.72-.103.309-.412.309-.618.515 0 .206 0 .206.206.206.206-.206.618-.103.72-.309.619 0 1.133-.206 1.751-.206.515-.206 1.132-.206 1.544-.618.618-.205 1.03-.617 1.647-.823.927 0 1.75-.309 2.574-.412v.206c-.72 1.132-1.441 2.368-2.162 3.397-.103.206 0 .412.206.515.412.103.823 0 1.235-.206.618-1.132 1.236-2.162 1.75-3.294.206-1.03 1.03-1.647 1.75-2.368.103-.103.31-.206.412-.103-.618.72-1.03 1.441-1.441 2.162-.206.823-.309 1.956.412 2.676.411.31.926.206 1.44.206 1.236-.617 2.78.412 3.707-.823.515-.103.618.515.926.823.515.206 1.03.721 1.648.31 0-.31-.412-.618-.618-.927-.412-.618-.824-1.133-1.133-1.75-.102-.412-.411-.721-.514-1.133.514.206 1.03.515 1.647.618.515.206 1.132.206 1.647.515.412.514 1.03.823 1.544 1.132.72.412 1.647.412 2.47.72.31 0 .721.31 1.03 0-.103-.205-.309-.205-.412-.308-.102-.412.515-.206.721-.515-.103-.103-.206-.206-.309-.206-.412-.206-1.544-.309-1.853-.515a12.96 12.96 0 0 1-1.03-.308c-1.852 0-2.882-1.647-4.323-2.265.309-.309.824-.515 1.03-1.03.308-.411.411-1.132.103-1.647-.31-.926-1.545-.823-2.265-1.338l.103-.103c1.235-.103 2.264.206 3.294.412 2.985.412 5.662 1.544 8.75 1.544 1.647 0 3.81.103 4.633-1.544.103-.927.309-1.956.514-2.883.618-1.544 1.648-2.985 1.442-4.632zM110.048 46.634h196.006v1.029H110.048zM117.254 64.34l-1.853-4.22-1.853 4.22h3.706zm.309.618h-4.324l-.515 1.235c-.206.412-.206.72-.206 1.03 0 .309.103.617.412.72.206.103.618.206 1.235.206v.309h-4.117v-.309c.411-.103.823-.206 1.132-.515.309-.308.618-.926 1.03-1.853l4.426-9.882h.206l4.427 10.088c.411.927.823 1.545 1.029 1.853.206.206.515.31.824.31v.308h-5.971v-.309h.206c.514 0 .823-.103 1.03-.206.102-.103.205-.206.205-.411 0-.103 0-.206-.103-.31 0-.102-.103-.308-.309-.72l-.617-1.544zM130.43 60.017v6.691c0 .618.104 1.03.206 1.235.103.206.412.31.721.31v.308h-3.5v-1.132c-.412.514-.824.823-1.235 1.029a2.85 2.85 0 0 1-1.339.309c-.514 0-.926-.103-1.235-.412-.412-.309-.618-.618-.72-1.03-.104-.411-.206-1.132-.206-2.058V61.87c0-.618-.103-1.03-.206-1.236-.103-.206-.412-.309-.721-.309v-.308h3.5v5.764c0 .618 0 1.03.103 1.133.103.206.103.309.309.412.103.103.309.103.412.103.206 0 .411-.103.617-.206.206-.206.515-.515.824-.927v-4.53c0-.617-.103-1.029-.206-1.235-.103-.206-.412-.309-.72-.309v-.308h3.397v.103zM137.225 59.708l.103 2.882h-.309c-.412-.823-.72-1.441-1.132-1.75-.412-.309-.824-.515-1.133-.515-.206 0-.412.103-.617.206-.206.206-.31.31-.31.618 0 .206.104.309.207.515.206.206.72.72 1.647 1.235.926.618 1.441 1.132 1.75 1.544.309.412.412.927.412 1.441 0 .515-.103.927-.31 1.442a2.481 2.481 0 0 1-1.029 1.03c-.411.205-.926.41-1.44.41-.413 0-.927-.102-1.648-.41-.206-.104-.309-.104-.412-.104-.206 0-.412.103-.515.412h-.308l-.103-3.088h.309c.308.823.617 1.44 1.132 1.853.515.411.926.617 1.338.617.309 0 .515-.103.72-.309.207-.205.31-.411.31-.617 0-.31-.103-.515-.31-.72-.205-.207-.617-.516-1.235-.927-.926-.618-1.544-1.133-1.853-1.442-.411-.514-.617-1.029-.617-1.647 0-.617.206-1.235.72-1.75.412-.514 1.133-.823 1.956-.823.412 0 .927.103 1.339.309.206.102.308.102.411.102.103 0 .206 0 .31-.102.102 0 .205-.206.308-.412h.309zM141.754 56.825v3.089h2.06v.926h-2.06v5.25c0 .515 0 .824.103.927 0 .103.103.206.206.309.103.103.206.103.31.103.41 0 .72-.31 1.132-.927l.308.206c-.514 1.132-1.338 1.75-2.367 1.75-.515 0-1.03-.103-1.339-.412-.411-.309-.617-.617-.72-1.03-.103-.205-.103-.72-.103-1.646v-4.633h-1.133v-.309c.721-.514 1.442-1.132 1.956-1.75.515-.617 1.03-1.235 1.442-1.956h.205v.103zM147.725 60.017v1.956c.515-.927 1.03-1.442 1.441-1.75a1.978 1.978 0 0 1 1.236-.412c.309 0 .617.103.823.309.206.205.31.514.31.926 0 .412-.104.72-.31.927-.206.205-.411.308-.72.308-.31 0-.618-.103-.824-.308-.206-.206-.412-.31-.412-.31-.103 0-.103-.102-.205-.102-.206 0-.31.103-.515.206a1.99 1.99 0 0 0-.515.926 5.994 5.994 0 0 0-.309 1.956v2.471c0 .309 0 .617.103.617.103.206.206.31.309.412.103.103.412.103.72.103v.309h-4.632v-.309c.412 0 .618-.103.72-.309.104-.206.207-.617.207-1.338v-4.838c0-.515 0-.824-.103-.927-.103-.206-.103-.309-.31-.412-.102-.103-.308-.103-.617-.206v-.308h3.603v.103zM156.167 66.605v-2.882c-.72.411-1.236.926-1.647 1.338a1.74 1.74 0 0 0-.31 1.03c0 .308.104.514.31.72.103.206.411.206.617.206.31.103.72-.103 1.03-.412m0 .618c-1.03.926-1.956 1.338-2.78 1.338-.515 0-.926-.206-1.235-.515a1.705 1.705 0 0 1-.515-1.235c0-.618.309-1.235.824-1.75.514-.515 1.75-1.235 3.603-2.059v-.824c0-.617 0-1.029-.103-1.235a.804.804 0 0 0-.412-.412c-.206-.103-.412-.206-.618-.206-.411 0-.72.103-.926.31-.206.102-.206.205-.206.411 0 .103.103.309.206.515.206.309.309.514.309.72 0 .31-.103.515-.31.721-.205.206-.514.309-.823.309-.411 0-.72-.103-.926-.309-.206-.206-.412-.515-.412-.824 0-.411.206-.823.515-1.235.309-.412.823-.72 1.441-.926a5.994 5.994 0 0 1 1.956-.31c.823 0 1.441.207 1.956.515.515.31.823.721.926 1.133.103.206.103.823.103 1.75v4.014c0 .104.103.207.103.207.103 0 .103.103.206.103.206 0 .309-.103.515-.31l.309.207c-.31.411-.618.823-.927 1.03-.309.205-.72.308-1.132.308-.515 0-.824-.103-1.133-.309-.205-.309-.411-.618-.514-1.132"/>
        <path d="M163.373 56.208V66.81c0 .618.103 1.03.206 1.132.103.206.411.31.823.31v.308h-4.632v-.309c.412 0 .617-.103.823-.309.103-.103.206-.514.206-1.132v-8.853c0-.618-.103-.927-.206-1.133-.103-.206-.411-.309-.823-.309v-.308h3.603zM168.623 60.017v6.794c0 .618.103 1.03.206 1.132.103.206.412.31.823.31v.308h-4.632v-.309c.412 0 .618-.103.823-.309.103-.103.206-.514.206-1.132v-5.044c0-.618-.103-1.03-.206-1.133-.102-.206-.411-.309-.823-.309v-.308h3.603zm-1.338-4.118c.411 0 .72.103 1.03.412.308.308.41.617.41 1.029 0 .412-.102.72-.41 1.03-.31.308-.619.411-1.03.411-.412 0-.72-.103-1.03-.412-.309-.308-.412-.617-.412-1.029 0-.412.103-.72.412-1.03.31-.308.618-.411 1.03-.411zM174.594 66.605v-2.882c-.72.411-1.236.926-1.647 1.338a1.74 1.74 0 0 0-.31 1.03c0 .308.104.514.31.72.103.206.411.206.617.206.31.103.618-.103 1.03-.412m0 .618c-1.03.926-1.956 1.338-2.78 1.338-.514 0-.926-.206-1.235-.515a1.705 1.705 0 0 1-.515-1.235c0-.618.309-1.235.824-1.75.514-.515 1.75-1.235 3.603-2.059v-.824c0-.617 0-1.029-.103-1.235a.804.804 0 0 0-.412-.412c-.206-.103-.412-.206-.618-.206-.411 0-.72.103-.926.31-.206.102-.206.205-.206.411 0 .103.103.309.206.515.206.309.309.514.309.72 0 .31-.103.515-.31.721-.205.206-.514.309-.823.309-.411 0-.72-.103-.926-.309-.206-.206-.412-.515-.412-.824 0-.411.206-.823.515-1.235.309-.412.823-.72 1.441-.926a5.994 5.994 0 0 1 1.956-.31c.824 0 1.441.207 1.956.515.515.31.823.721.926 1.133.103.206.103.823.103 1.75v4.014c0 .104.103.207.103.207.103 0 .103.103.206.103.206 0 .309-.103.515-.31l.309.207c-.31.411-.618.823-.927 1.03-.309.205-.72.308-1.132.308-.515 0-.824-.103-1.133-.309-.308-.309-.514-.618-.514-1.132"/>
        <path d="M181.697 60.017v1.132c.412-.515.823-.824 1.235-1.03a2.85 2.85 0 0 1 1.339-.308c.514 0 1.029.206 1.338.514.412.31.617.721.72 1.133.103.309.103 1.03.103 1.956v3.294c0 .618.103 1.03.206 1.235.103.206.412.31.72.31v.308h-4.323v-.309c.309 0 .515-.206.72-.412.104-.103.104-.514.104-1.132v-3.809c0-.72 0-1.132-.103-1.338-.103-.206-.103-.31-.309-.412-.103-.103-.309-.206-.412-.206-.515 0-1.03.412-1.441 1.132v4.53c0 .618.103 1.03.206 1.235.103.206.309.31.618.31v.308h-4.324v-.309c.309 0 .618-.103.72-.309.103-.103.206-.514.206-1.132V61.87c0-.618-.103-1.03-.206-1.236-.102-.206-.308-.309-.72-.309v-.308h3.603zM202.698 56.208v3.294h-.31c-.205-.72-.411-1.338-.617-1.647a2.43 2.43 0 0 0-.926-.824c-.206-.103-.618-.206-1.236-.206h-.926v9.471c0 .618 0 1.03.103 1.133a.804.804 0 0 0 .411.411c.206.103.515.206.824.206h.412v.31h-6.486v-.31h.412c.309 0 .618-.103.824-.206a.804.804 0 0 0 .411-.411c.103-.103.103-.515.103-1.133v-9.47h-.926c-.824 0-1.441.205-1.853.514-.515.515-.824 1.235-1.03 2.059h-.308v-3.294h11.118v.103zM206.918 66.605v-2.882c-.72.411-1.235.926-1.647 1.338a1.74 1.74 0 0 0-.309 1.03c0 .308.103.514.31.72.102.206.411.206.617.206.206.103.618-.103 1.03-.412m0 .618c-1.03.926-1.957 1.338-2.78 1.338-.515 0-.927-.206-1.236-.515a1.705 1.705 0 0 1-.514-1.235c0-.618.309-1.235.823-1.75.515-.515 1.75-1.235 3.603-2.059v-.824c0-.617 0-1.029-.103-1.235a.804.804 0 0 0-.411-.412c-.206-.103-.412-.206-.618-.206-.412 0-.72.103-.927.31-.205.102-.205.205-.205.411 0 .103.103.309.205.515.206.309.31.514.31.72 0 .31-.104.515-.31.721-.205.206-.514.309-.823.309-.412 0-.72-.103-.927-.309-.205-.206-.411-.515-.411-.824 0-.411.206-.823.514-1.235.31-.412.824-.72 1.442-.926a5.994 5.994 0 0 1 1.956-.31c.823 0 1.44.207 1.955.515.515.31.824.721.927 1.133.103.206.103.823.103 1.75v4.014c0 .104.103.207.103.207.103 0 .103.103.206.103.206 0 .309-.103.514-.31l.31.207c-.31.411-.618.823-.927 1.03-.309.205-.72.308-1.133.308-.514 0-.823-.103-1.132-.309-.309-.309-.515-.618-.515-1.132M215.977 63.31l1.442 2.78c.514.927.926 1.647 1.235 1.853.206.103.412.206.72.206v.309h-4.735v-.309c.412 0 .618-.103.72-.103.104-.103.104-.206.104-.309 0-.205-.103-.411-.31-.823l-.72-1.338-.617.926c-.31.412-.412.618-.515.72 0 .104-.103.207-.103.31 0 .102 0 .308.103.308.103.103.103.206.206.206s.309.103.514.103v.309h-3.294v-.309c.412 0 .824-.103 1.133-.309.308-.206.823-.823 1.544-1.75l.72-1.03-1.44-2.676c-.516-.926-.824-1.44-1.03-1.647-.206-.206-.515-.309-.824-.309v-.308h4.736v.308h-.206l-.515.206s-.103.103-.103.206v.309s.103.206.206.515l.618 1.235.308-.515c.515-.617.721-1.132.721-1.44 0-.104-.103-.207-.206-.31-.103-.103-.309-.103-.515-.206v-.308h2.986v.308c-.412 0-.72.103-1.03.31-.308.205-.72.617-1.132 1.235l-.72 1.338zM224.213 66.605v-2.882c-.72.411-1.235.926-1.647 1.338a1.74 1.74 0 0 0-.309 1.03c0 .308.103.514.309.72.103.206.412.206.618.206.308.103.617-.103 1.029-.412m0 .618c-1.03.926-1.956 1.338-2.78 1.338-.514 0-.926-.206-1.235-.515a1.705 1.705 0 0 1-.515-1.235c0-.618.31-1.235.824-1.75.515-.515 1.75-1.235 3.603-2.059v-.824c0-.617 0-1.029-.103-1.235a.804.804 0 0 0-.412-.412c-.206-.103-.411-.206-.617-.206-.412 0-.721.103-.927.31-.206.102-.206.205-.206.411 0 .103.103.309.206.515.206.309.309.514.309.72 0 .31-.103.515-.309.721-.206.206-.515.309-.823.309-.412 0-.721-.103-.927-.309-.206-.206-.412-.515-.412-.824 0-.411.206-.823.515-1.235.309-.412.824-.72 1.441-.926a5.994 5.994 0 0 1 1.956-.31c.824 0 1.441.207 1.956.515.515.31.824.721.927 1.133.103.206.103.823.103 1.75v4.014c0 .104.103.207.103.207.102 0 .102.103.205.103.206 0 .31-.103.515-.31l.309.207c-.309.411-.618.823-.927 1.03-.308.205-.72.308-1.132.308-.515 0-.823-.103-1.132-.309-.31-.309-.412-.618-.515-1.132M231.522 56.825v3.089h2.059v.926h-2.059v5.25c0 .515 0 .824.103.927 0 .103.103.206.206.309.103.103.206.103.309.103.411 0 .72-.31 1.132-.927l.309.206c-.515 1.132-1.338 1.75-2.368 1.75-.515 0-1.03-.103-1.338-.412-.412-.309-.618-.617-.72-1.03-.104-.205-.104-.72-.104-1.646v-4.633h-1.132v-.309c.72-.514 1.441-1.132 1.956-1.75.515-.617 1.03-1.235 1.441-1.956h.206v.103zM237.802 60.017v6.794c0 .618.103 1.03.206 1.132.102.206.411.31.823.31v.308H234.2v-.309c.411 0 .617-.103.823-.309.103-.103.206-.514.206-1.132v-5.044c0-.618-.103-1.03-.206-1.133-.103-.206-.412-.309-.823-.309v-.308h3.603zm-1.236-4.118c.412 0 .72.103 1.03.412.309.308.412.617.412 1.029 0 .412-.103.72-.412 1.03-.31.308-.618.411-1.03.411-.411 0-.72-.103-1.03-.412-.308-.308-.41-.617-.41-1.029 0-.412.102-.72.41-1.03.31-.308.619-.411 1.03-.411zM243.155 60.428c-.31 0-.618.103-.824.31-.206.205-.412.72-.412 1.337-.103.721-.103 1.648-.103 2.883 0 .618 0 1.235.103 1.853.103.412.206.72.412 1.03.206.205.515.308.72.308.31 0 .516-.103.721-.206.206-.206.412-.514.515-.823.103-.618.206-1.75.206-3.5 0-1.03-.103-1.75-.206-2.162-.103-.412-.309-.72-.515-.824-.103-.206-.308-.206-.617-.206m0-.72c.72 0 1.441.206 2.059.617.617.412 1.132.927 1.44 1.648.31.72.516 1.44.516 2.264 0 1.236-.31 2.265-.927 2.986-.72 1.03-1.75 1.44-3.088 1.44-1.236 0-2.265-.41-2.986-1.337-.72-.927-1.03-1.956-1.03-3.089 0-1.235.31-2.264 1.03-3.191.721-.824 1.75-1.338 2.986-1.338M251.184 60.017v1.132c.412-.515.824-.824 1.236-1.03a2.85 2.85 0 0 1 1.338-.308c.515 0 1.03.206 1.338.514.412.31.618.721.72 1.133.104.309.104 1.03.104 1.956v3.294c0 .618.103 1.03.206 1.235.103.206.412.31.72.31v.308h-4.323v-.309c.309 0 .514-.206.72-.412.103-.103.103-.514.103-1.132v-3.809c0-.72 0-1.132-.103-1.338-.103-.206-.103-.31-.309-.412-.102-.103-.308-.206-.411-.206-.515 0-1.03.412-1.442 1.132v4.53c0 .618.103 1.03.206 1.235.103.206.31.31.618.31v.308h-4.324v-.309c.31 0 .618-.103.721-.309.103-.103.206-.514.206-1.132V61.87c0-.618-.103-1.03-.206-1.236-.103-.206-.309-.309-.72-.309v-.308h3.602zM268.067 56.516c-1.132 0-1.956.618-2.573 1.75-.515.927-.72 2.265-.72 4.118 0 2.06.41 3.706 1.131 4.633.515.72 1.236 1.03 2.162 1.03.618 0 1.133-.104 1.544-.413.515-.411.927-1.029 1.236-1.853.309-.823.412-1.955.412-3.294 0-1.647-.103-2.882-.412-3.706a4.679 4.679 0 0 0-1.133-1.75c-.514-.309-1.029-.515-1.647-.515m-.103-.514c1.956-.103 3.603.514 4.736 1.75 1.235 1.235 1.853 2.78 1.853 4.53 0 1.544-.412 2.985-1.338 4.117-1.236 1.544-2.883 2.368-5.148 2.368-2.264 0-3.912-.72-5.147-2.265-.926-1.235-1.441-2.574-1.441-4.22 0-1.854.618-3.398 1.853-4.53 1.235-1.236 2.78-1.853 4.632-1.75M278.876 60.84v5.868c0 .618.103.926.206 1.03.206.205.515.308 1.03.308v.31h-5.044v-.31c.411 0 .617 0 .823-.103.206-.103.309-.206.309-.309.103-.102.103-.411.103-.926V60.84h-1.235v-.926h1.235v-1.03c0-.823.309-1.647.926-2.162.618-.617 1.545-.926 2.574-.926.72 0 1.338.103 1.647.412.412.308.515.617.515.926 0 .309-.103.515-.309.72-.206.207-.515.31-.927.31-.308 0-.617-.103-.72-.206-.206-.206-.309-.31-.309-.515 0-.103 0-.206.103-.309v-.309c0-.103 0-.206-.103-.309-.103-.102-.206-.102-.309-.102-.206 0-.309.102-.412.205-.103.103-.205.412-.205.721v2.677h1.235v.926h-1.133v-.103z"/>
        <path d="M284.847 60.017h4.942v6.691c0 .618.103.926.205 1.132.103.206.412.31.824.31v.308h-4.427v-.309c.412 0 .618-.206.824-.412.103-.103.103-.514.103-1.029v-5.765h-2.368v5.765c0 .515 0 .926.103 1.03.103.205.412.308.824.411v.309h-4.427v-.309c.412 0 .72-.103.927-.412.103-.103.103-.514.103-1.132V60.84h-1.03v-.926h1.03c0-.927.102-1.75.411-2.265.31-.618.824-1.03 1.442-1.338.72-.31 1.44-.515 2.367-.515a6.23 6.23 0 0 1 1.544.206c.412.206.824.412.927.617.206.31.309.515.309.824 0 .309-.103.618-.31.824-.205.205-.514.308-.926.308-.411 0-.617-.103-.823-.206-.206-.205-.309-.411-.309-.617 0-.206.103-.309.206-.515.103-.206.206-.309.206-.412 0-.103-.103-.206-.103-.309a1.595 1.595 0 0 0-.824-.205c-.411 0-.72.103-.926.205-.309.206-.412.412-.515.721-.103.206-.103.72-.103 1.441v1.339h-.206zM297.715 66.296l.31.206c-.413.72-.927 1.338-1.545 1.647-.618.412-1.235.515-1.853.515-1.132 0-2.059-.412-2.677-1.235-.72-.824-1.029-1.853-1.029-3.089 0-1.132.309-2.162.926-3.088.721-1.03 1.75-1.544 3.089-1.544.926 0 1.544.206 2.059.617.514.412.823.927.823 1.442 0 .308-.103.617-.309.823-.205.206-.514.309-.823.309-.309 0-.618-.103-.927-.309-.206-.206-.411-.617-.411-1.235 0-.412-.103-.618-.31-.824a.786.786 0 0 0-.514-.206c-.309 0-.515.206-.72.515-.31.515-.515 1.133-.515 2.162 0 .824.103 1.544.411 2.265.206.72.618 1.235 1.03 1.647.309.309.72.412 1.132.412.31 0 .618-.103.824-.206.412-.206.72-.412 1.03-.824M303.48 63.31c0-.926-.103-1.646-.206-2.058-.103-.412-.309-.618-.514-.824a.786.786 0 0 0-.515-.206.774.774 0 0 0-.72.515c-.31.515-.515 1.236-.515 2.265v.309h2.47zm2.265.618h-4.633c.103 1.133.31 2.06.927 2.677.412.515.926.72 1.544.72.412 0 .72-.102 1.03-.308.308-.206.617-.618.926-1.133l.309.206c-.412.927-.927 1.647-1.544 1.956-.515.412-1.236.618-1.956.618-1.236 0-2.265-.515-2.883-1.441a5.268 5.268 0 0 1-.823-2.883c0-1.441.412-2.573 1.132-3.397.72-.823 1.647-1.235 2.677-1.235.823 0 1.647.309 2.265 1.03.617.72.926 1.852 1.029 3.19z"/>
    </g>
</svg>
