<svg xmlns="http://www.w3.org/2000/svg" xmlns:xlink="http://www.w3.org/1999/xlink" width="327" height="196" viewBox="0 0 327 196"><defs><path id="a" d="M0 0h326.722v195.213H0z"/><linearGradient id="b" x1="50%" x2="50%" y1="0%" y2="100%"><stop offset="0%" stop-color="#33B0C1"/><stop offset="100%" stop-color="#17788D"/></linearGradient></defs><g fill="none" fill-rule="evenodd"><use fill="#FAFBFC" xlink:href="#a"/><path stroke="#BBB" d="M.5.5h325.722v194.213H.5z"/><text fill="#17788D" font-size="36" font-weight="bold" letter-spacing="-1.5"><tspan x="16" y="59">255</tspan></text><text fill="#313131" font-size="17"><tspan x="16" y="90">Total opportunities </tspan> <tspan x="16" y="118">since August 2016.</tspan></text><text fill="#313131" font-size="20" font-weight="bold"><tspan x="16" y="161">38 new briefs this month</tspan></text><path stroke="url(#b)" stroke-linecap="round" stroke-width="3" d="M213 66l1.7-.525v-.622l1.345-.627 4.042-.622V60.48l1.345-.622 2.697-1.249v-.627l6.732-.622 1.345-.627 1.345-.622v-.627l5.387-.621v-6.25l1.351-.621 1.345-.627v-1.249l6.732-.622v-.627l1.352-.622v-.627l1.345-.622v-.627l1.345-.621 6.732-.627v-.622l2.697-1.249 6.732-.627 1.351-.622v-1.248l1.345-.628v-.621l1.346-.627 9.428-1.25V32.38l4.042-.627v-.622l2.69-.627v-.622l1.352-.627v-.621l1.345-.627v-.622l5.387-.627 1.345-.622v-2.497l1.345-.628v-1.248l1.351-.622L303 21"/></g></svg>