<svg xmlns="http://www.w3.org/2000/svg" xmlns:xlink="http://www.w3.org/1999/xlink" width="327" height="196" viewBox="0 0 327 196"><defs><path id="a" d="M0 0h326.722v195.213H0z"/><linearGradient id="b" x1="50%" x2="50%" y1="0%" y2="100%"><stop offset="0%" stop-color="#33B0C1"/><stop offset="100%" stop-color="#17788D"/></linearGradient></defs><g fill="none" fill-rule="evenodd"><use fill="#FAFBFC" xlink:href="#a"/><path stroke="#BBB" d="M.5.5h325.722v194.213H.5z"/><text fill="#17788D" font-size="36" font-weight="bold" letter-spacing="-1.5"><tspan x="16" y="59">$39.9m</tspan></text><text fill="#313131" font-size="17"><tspan x="16" y="90">Contracted through the </tspan> <tspan x="16" y="118">Marketplace since August 2016.</tspan></text><text fill="#313131" font-size="20" font-weight="bold"><tspan x="16" y="161">$5.3m this month</tspan></text><path stroke="url(#b)" stroke-linecap="round" stroke-width="3" d="M213 66l1.554-1.01 7.78-.165 1.565-.202 9.333-.283 1.565-1.175 1.554-.732h4.673l1.553-2.026h1.554l1.553-1.458 1.566-.892h3.107l1.553-.814 1.566-.526 1.553-3.973 1.554-1.176 1.565-3.932h3.107l1.554-3 3.119-.324 1.553-.933 9.346-.16 1.553-.814 1.554-3.119h4.672l1.554-2.355h1.565l1.554-.85 1.553-14.029h1.554l4.673-.201 1.553-.851H303"/></g></svg>