<svg xmlns="http://www.w3.org/2000/svg" width="295" height="152" viewBox="0 0 295 152"><g fill="none" fill-rule="evenodd"><path stroke="#224A61" stroke-linecap="round" stroke-width="2" d="M131 76h10"/><text fill="#333" font-family="OpenSans-Bold, Open Sans" font-size="16" font-weight="bold" transform="translate(0 -4)"><tspan x="153" y="64">57% of briefs </tspan> <tspan x="260.125" y="64" font-family="OpenSans, Open Sans" font-weight="normal">have </tspan> <tspan x="153" y="86" font-family="OpenSans, Open Sans" font-weight="normal">been for</tspan> <tspan x="216.352" y="86"> </tspan> <tspan x="220.508" y="86" font-family="OpenSans, Open Sans" font-weight="normal">digital</tspan> <tspan x="265.766" y="86"> </tspan> <tspan x="153" y="108">specialists</tspan></text><path stroke="#224A61" stroke-linecap="round" stroke-width="2" d="M46.35 137.649c33.88 11.008 70.267-7.533 81.275-41.412 11.008-33.879-7.532-70.267-41.411-81.275a64.475 64.475 0 0 0-19.258-3.17"/><text fill="#808184" font-family="OpenSans-Bold, Open Sans" font-size="11" font-weight="bold" transform="translate(0 -4)"><tspan x="0" y="12">Outcome</tspan></text><text fill="#808184" font-family="OpenSans-Bold, Open Sans" font-size="11" font-weight="bold" transform="translate(0 -4)"><tspan x="104" y="153">Specialist</tspan></text><path fill="#152D3B" fill-rule="nonzero" stroke="#FFF" stroke-width="2" d="M66.5 52.841V16c23.77 0 45.313 14.027 54.982 35.799 9.668 21.771 5.65 47.209-10.256 64.92-15.905 17.71-40.717 24.376-63.324 17.012l10.815-33.374a24.496 24.496 0 0 0 8.66 1.57c13.559 0 24.55-10.991 24.55-24.55 0-13.56-10.991-24.55-24.55-24.55-.294 0-.586.004-.877.014z"/><path fill="#00BFE9" fill-rule="nonzero" stroke="#FFF" stroke-width="2" d="M58.717 100.357L47.902 133.73C19.746 124.559 2.425 96.219 7.056 66.902 11.687 37.586 36.896 16 66.5 16v36.841c-13.153.462-23.674 11.27-23.674 24.536 0 10.51 6.605 19.479 15.891 22.98z"/></g></svg>