<?xml version="1.0" encoding="UTF-8" standalone="no"?>
<svg width="317px" height="153px" viewBox="0 0 317 153" version="1.1" xmlns="http://www.w3.org/2000/svg" xmlns:xlink="http://www.w3.org/1999/xlink">
    <!-- Generator: Sketch 45.2 (43514) - http://www.bohemiancoding.com/sketch -->
    <title>69% of all breifs have been open to all copy</title>
    <desc>Created with Sketch.</desc>
    <defs></defs>
    <g id="DLO-data-report" stroke="none" stroke-width="1" fill="none" fill-rule="evenodd">
        <g id="August-monthly-report-greater-than-768px" transform="translate(-344.000000, -1471.000000)">
            <g id="69%-of-all-breifs-have-been-open-to-all-copy" transform="translate(344.000000, 1467.000000)">
                <text id="Open-to-selected" font-size="11" font-weight="bold" fill="#808184">
                    <tspan x="0" y="12">Open to </tspan>
                    <tspan x="0" y="27">selected</tspan>
                </text>
                <text id="69%-of-all-briefs-ha" font-size="16" font-weight="bold" line-spacing="22" fill="#333333">
                    <tspan x="158" y="86">69% </tspan>
                    <tspan x="194.835938" y="86" font-weight="normal">of all briefs have </tspan>
                    <tspan x="158" y="108" font-weight="normal">been </tspan>
                    <tspan x="199.734375" y="108">open to all</tspan>
                </text>
                <g id="Group-23" transform="translate(4.000000, 14.000000)" stroke-width="2">
                    <path d="M133,77 L143,77" id="Line-Copy-15" stroke="#224A61" stroke-linecap="round"></path>
                    <path d="M123.226437,135.674497 C134.164383,124.117164 140.872284,108.515263 140.872284,91.3466472 C140.872284,55.7242808 111.99465,26.8466472 76.3722838,26.8466472 C61.9864212,26.8466472 48.7005543,31.5562891 37.9724156,39.5178407 C35.3003045,41.5008641 32.7868706,43.6856307 30.4546391,46.0496152 C18.964306,57.6963877 11.8722838,73.6933022 11.8722838,91.3466472 C11.8722838,100.330168 13.7088612,108.884734 17.0270312,116.655358" id="Oval-21-Copy-2" stroke="#224A61" stroke-linecap="round" transform="translate(76.372284, 81.260572) rotate(114.000000) translate(-76.372284, -81.260572) "></path>
                    <path d="M67.1648093,53.0017885 L67.1648093,16 C97.3194475,16 122.764935,38.8040121 126.544314,69.2153655 C130.323692,99.626719 111.256535,128.146932 82.0492598,135.770039 C52.841985,143.393145 22.6170003,127.738194 11.5163376,99.237698 L44.7516162,85.8614198 C48.3027057,94.5875077 56.8677412,100.73913 66.8695652,100.73913 C80.0523621,100.73913 90.7391304,90.0523621 90.7391304,76.8695652 C90.7391304,63.7853237 80.2115545,53.1599293 67.1648093,53.0017885 Z" id="Combined-Shape" stroke="#FFFFFF" fill="#125361" fill-rule="nonzero"></path>
                    <path d="M44.7516162,85.8614198 L11.5163376,99.237698 C4.21904009,80.5021859 6.52071231,59.3092999 17.6628369,42.6431674 C28.8049615,25.977035 47.3419057,16 67.1648093,16 L67.1648093,53.0017885 C67.0665364,53.0005973 66.9681205,53 66.8695652,53 C53.6867684,53 43,63.6867684 43,76.8695652 C43,80.050538 43.6222304,83.0861812 44.7516162,85.8614198 Z" id="Combined-Shape" stroke="#FFFFFF" fill="#870F48" fill-rule="nonzero"></path>
                </g>
            </g>
        </g>
    </g>
</svg>
