<svg xmlns="http://www.w3.org/2000/svg" width="325" height="490" viewBox="0 0 325 490"><g fill="none" fill-rule="evenodd"><text fill="#224A61" font-size="11" font-weight="bold" transform="translate(-5 -6)"><tspan x="192" y="495">Number of sellers</tspan></text><text fill="#224A61" font-size="11" transform="translate(-5 -6)"><tspan x="39.794" y="50">Strategy and policy</tspan></text><text fill="#224A61" font-size="11" transform="translate(-5 -6)"><tspan x="6.504" y="90">User research and design</tspan></text><text fill="#224A61" font-size="11" transform="translate(-5 -6)"><tspan x="46.76" y="130">Agile delivery and </tspan> <tspan x="77.128" y="145">governance</tspan></text><text fill="#224A61" font-size="11" transform="translate(-5 -6)"><tspan x="5.172" y="169">Software engineering and </tspan> <tspan x="69.201" y="184">development</tspan></text><text fill="#224A61" font-size="11" transform="translate(-5 -6)"><tspan x="14.915" y="209">Support and operations</tspan></text><text fill="#224A61" font-size="11" transform="translate(-5 -6)"><tspan x="17.294" y="249">Content and publishing</tspan></text><text fill="#224A61" font-size="11" transform="translate(-5 -6)"><tspan x="19.459" y="329">Marketing, comms and </tspan> <tspan x="72.697" y="344">engagement</tspan></text><text fill="#224A61" font-size="11" transform="translate(-5 -6)"><tspan x="30.636" y="289">Change, training and </tspan> <tspan x="59.237" y="304">transformation</tspan></text><text fill="#224A61" font-size="11" transform="translate(-5 -6)"><tspan x="64.152" y="368">Cyber security</tspan></text><text fill="#224A61" font-size="11" transform="translate(-5 -6)"><tspan x="72.407" y="407">Data science</tspan></text><text fill="#224A61" font-size="11" transform="translate(-5 -6)"><tspan x="20.453" y="448">Emerging technologies</tspan></text><text fill="#224A61" font-size="11" transform="translate(-5 -6)"><tspan x="153.71" y="480">0</tspan></text><text fill="#224A61" font-size="11" transform="translate(-5 -6)"><tspan x="308.131" y="480">350</tspan></text><path stroke="#BBB" stroke-linecap="square" d="M150 460h172.139"/><text fill="#224A61" font-size="14" font-weight="bold" transform="translate(-5 -6)"><tspan x="239" y="54">186</tspan></text><text fill="#224A61" font-size="14" font-weight="bold" transform="translate(-5 -6)"><tspan x="285" y="93">298</tspan></text><text fill="#224A61" font-size="14" font-weight="bold" transform="translate(-5 -6)"><tspan x="304" y="134">336</tspan></text><text fill="#224A61" font-size="14" font-weight="bold" transform="translate(-5 -6)"><tspan x="306" y="173">345</tspan></text><text fill="#224A61" font-size="14" font-weight="bold" transform="translate(-5 -6)"><tspan x="218" y="212">141</tspan></text><text fill="#224A61" font-size="14" font-weight="bold" transform="translate(-5 -6)"><tspan x="211" y="253">123</tspan></text><text fill="#224A61" font-size="14" font-weight="bold" transform="translate(-5 -6)"><tspan x="277" y="292">276</tspan></text><text fill="#224A61" font-size="14" font-weight="bold" transform="translate(-5 -6)"><tspan x="204" y="332">105</tspan></text><text fill="#224A61" font-size="14" font-weight="bold" transform="translate(-5 -6)"><tspan x="227" y="370">161</tspan></text><text fill="#224A61" font-size="14" font-weight="bold" transform="translate(-5 -6)"><tspan x="217" y="410">137</tspan></text><text fill="#224A61" font-size="14" font-weight="bold" transform="translate(-5 -6)"><tspan x="211" y="451">126</tspan></text><path fill="#17788D" fill-rule="nonzero" d="M154.167 32H148v20h80.15V32h-73.983zm89.526 80H148v20h145.178v-20h-49.485zm-4.969 40H149v20h148.831v-20h-59.107zm-7.704-80H148v20h127.762V72h-44.741zm-71.569 160H148v20h52.471v-20h-41.02zm53.769 39H148v20h118.006v-20h-52.787zm-35.55 79H148v20h68.876v-20h-39.205zm-26.723-158H148v20h60.419v-20h-57.472zm20.026 198H148v20h58.49v-20h-35.517zm-21.862 40H148v20h52.854v-20h-51.743zm2.319-119H148v20h45.373v-20H151.43z"/><text fill="#313131" font-size="17" transform="translate(-5 -6)"><tspan x="8.043" y="18">Number of sellers per area of expertise</tspan></text></g></svg>