<svg width="322" height="530" viewBox="0 0 322 530" xmlns="http://www.w3.org/2000/svg" xmlns:xlink="http://www.w3.org/1999/xlink"><title>&lt;767 top 10 sellers awarded contractes over 3 months</title><defs><path id="a" d="M153 198h68.127v20H153z"/><path id="b" d="M153 278h51.095v20H153z"/><path id="c" d="M236 514h16v16h-16z"/></defs><g fill="none" fill-rule="evenodd"><text font-size="11" fill="#224A61" transform="translate(-5)"><tspan x="314.421" y="476">10</tspan></text><text font-size="11" font-weight="bold" fill="#224A61" transform="translate(-5)"><tspan x="179" y="487">Number of briefs won</tspan></text><text font-size="11" fill="#224A61" transform="translate(-5)"><tspan x="151.71" y="475">0</tspan></text><path fill="#17788D" d="M148 80h136.254v20H148z"/><text font-size="11" fill="#224A61" transform="translate(-5)"><tspan x="5.403" y="92">Adelphi Digital Consulting </tspan> <tspan x="104.365" y="107">Group</tspan></text><text font-size="11" fill="#224A61" transform="translate(-5)"><tspan x="106.498" y="132">Paxus</tspan></text><text font-size="11" fill="#224A61" transform="translate(-5)"><tspan x="14.84" y="172">2XM Technology Pty Ltd</tspan></text><text font-size="11" fill="#224A61" transform="translate(-5)"><tspan x="33.096" y="211">SMS Management &amp; </tspan> <tspan x="78.364" y="226">Technology</tspan></text><text font-size="11" fill="#224A61" transform="translate(-5)"><tspan x="56.514" y="251">Zen Ex Machina</tspan></text><text font-size="11" fill="#224A61" transform="translate(-5)"><tspan x="99.263" y="291">Oakton</tspan></text><text font-size="11" fill="#224A61" transform="translate(-5)"><tspan x="56.02" y="371">Tobias &amp; Tobias</tspan></text><text font-size="11" fill="#224A61" transform="translate(-5)"><tspan x="76.457" y="331">Paper Giant</tspan></text><text font-size="11" fill="#224A61" transform="translate(-5)"><tspan x="66.682" y="410">AUREC Group</tspan></text><text font-size="11" fill="#224A61" transform="translate(-5)"><tspan x="81.925" y="449">ThinkPlace</tspan></text><path fill="#17788D" d="M148 120h85.159v20H148zM148 159h68.127v20H148z"/><g transform="translate(-5)"><use fill="#FFF" xlink:href="#aee"/><path stroke="#17788D" stroke-width="2" d="M154 199h66.127v18H154z"/></g><path fill="#17788D" d="M148 438h34.063v20H148zM148 398h34.063v20H148zM148 358h34.063v20H148zM148 318h51.095v20H148z"/><g transform="translate(-5)"><use fill="#FFF" xlink:href="#b"/><path stroke="#17788D" stroke-width="2" d="M154 279h49.095v18H154z"/></g><path fill="#17788D" d="M148 238h68.127v20H148z"/><path d="M148.46 462.5h172.181" stroke="#BBB" stroke-linecap="square"/><text font-size="14" font-weight="bold" fill="#224A61" transform="translate(-5)"><tspan x="295" y="95">8</tspan></text><text font-size="14" font-weight="bold" fill="#224A61" transform="translate(-5)"><tspan x="244" y="134">5</tspan></text><text font-size="14" font-weight="bold" fill="#224A61" transform="translate(-5)"><tspan x="226" y="174">4</tspan></text><text font-size="14" font-weight="bold" fill="#224A61" transform="translate(-5)"><tspan x="226" y="213">4</tspan></text><text font-size="14" font-weight="bold" fill="#224A61" transform="translate(-5)"><tspan x="226" y="253">4</tspan></text><text font-size="14" font-weight="bold" fill="#224A61" transform="translate(-5)"><tspan x="209" y="293">3</tspan></text><text font-size="14" font-weight="bold" fill="#224A61" transform="translate(-5)"><tspan x="209" y="333">3</tspan></text><text font-size="14" font-weight="bold" fill="#224A61" transform="translate(-5)"><tspan x="192" y="373">2</tspan></text><text font-size="14" font-weight="bold" fill="#224A61" transform="translate(-5)"><tspan x="192" y="413">2</tspan></text><text font-size="14" font-weight="bold" fill="#224A61" transform="translate(-5)"><tspan x="192" y="453">2</tspan></text><text font-size="14" fill="#808184" transform="translate(-5)"><tspan x="175" y="526">SME</tspan></text><text font-size="14" fill="#808184" transform="translate(-5)"><tspan x="258" y="526">Other</tspan></text><path fill="#17788D" d="M148 514h16v16h-16z"/><g transform="translate(-5)"><use fill="#FFF" xlink:href="#c"/><path stroke="#17788D" stroke-width="2" d="M237 515h14v14h-14z"/></g><path fill="#FFF" d="M82 0h169v54H82z"/><text font-size="17" fill="#313131" transform="translate(-5)"><tspan x="32.909" y="29">Top 10 sellers awarded contracts </tspan> <tspan x="89.546" y="56">June - August 2017</tspan></text></g></svg>
