<?xml version="1.0" encoding="UTF-8" standalone="no"?>
<svg width="330px" height="179px" viewBox="0 0 330 179" version="1.1" xmlns="http://www.w3.org/2000/svg" xmlns:xlink="http://www.w3.org/1999/xlink">
    <!-- Generator: Sketch 45.2 (43514) - http://www.bohemiancoding.com/sketch -->
    <title>&lt;767 Briefs by phase</title>
    <desc>Created with Sketch.</desc>
    <defs></defs>
    <g id="DLO-data-report" stroke="none" stroke-width="1" fill="none" fill-rule="evenodd">
        <g id="August-monthly-report-less-than-767px-Copy" transform="translate(-75.000000, -2962.000000)">
            <g id="&lt;767-Briefs-by-phase" transform="translate(76.000000, 2962.000000)">
                <text id="16%-Pre-discovery"  font-size="14" font-weight="bold" line-spacing="16" fill="#333333">
                    <tspan x="0" y="67">16% </tspan>
                    <tspan x="40.8994141" y="68.9638672" font-weight="normal"></tspan>
                    <tspan x="0.970703125" y="83.2939453" font-weight="normal">Pre-discovery</tspan>
                </text>
                <text id="34%-Discovery"  font-size="14" font-weight="bold" line-spacing="16" fill="#333333">
                    <tspan x="91.3242188" y="161">34%</tspan>
                    <tspan x="120.889648" y="161.293945" font-weight="normal"> </tspan>
                    <tspan x="75" y="177.293945" font-weight="normal">Discovery</tspan>
                </text>
                <text id="18%-Alpha"  font-size="14" font-weight="bold" line-spacing="16" fill="#333333">
                    <tspan x="177.411133" y="67">18%</tspan>
                    <tspan x="206.976562" y="67.2939453" font-weight="normal"> </tspan>
                    <tspan x="174" y="83.2939453" font-weight="normal">Alpha</tspan>
                </text>
                <text id="17%-Beta"  font-size="14" font-weight="bold" line-spacing="16" fill="#333333">
                    <tspan x="233" y="161">17%</tspan>
                    <tspan x="262.56543" y="161.293945" font-weight="normal"> </tspan>
                    <tspan x="233.440918" y="177.293945" font-weight="normal">Beta</tspan>
                </text>
                <text id="5%-Live"  font-size="14" font-weight="bold" line-spacing="16" fill="#333333">
                    <tspan x="274.56543" y="67">5%</tspan>
                    <tspan x="296.139648" y="67.2939453" font-weight="normal"> </tspan>
                    <tspan x="273" y="83.2939453" font-weight="normal">Live</tspan>
                </text>
                <text id="10%-Other"  font-size="14" font-weight="bold" line-spacing="16" fill="#333333">
                    <tspan x="290.73584" y="161">10% </tspan>
                    <tspan x="331.635254" y="162.963867" font-weight="normal"></tspan>
                    <tspan x="287" y="177.293945" font-weight="normal">Other</tspan>
                </text>
                <g id="Group-6" transform="translate(24.000000, 88.000000)" stroke="#224A61">
                    <path d="M1.5,17.5 L1.5,1.47501561" id="Line-2" stroke-linecap="square"></path>
                    <circle id="Oval" fill="#B9D6DC" cx="1.5" cy="1.5" r="1.5"></circle>
                </g>
                <g id="Group-3" transform="translate(249.500000, 134.000000) scale(1, -1) translate(-249.500000, -134.000000) translate(248.000000, 125.000000)" stroke="#224A61">
                    <path d="M1.5,17.5 L1.5,1.47501561" id="Line-2-Copy-3" stroke-linecap="square" transform="translate(1.500000, 9.500000) scale(-1, -1) translate(-1.500000, -9.500000) "></path>
                    <circle id="Oval-Copy-3" fill="#B9D6DC" transform="translate(1.500000, 1.500000) scale(-1, -1) translate(-1.500000, -1.500000) " cx="1.5" cy="1.5" r="1.5"></circle>
                </g>
                <g id="Group-3-Copy-2" transform="translate(106.500000, 134.000000) scale(1, -1) translate(-106.500000, -134.000000) translate(105.000000, 125.000000)" stroke="#224A61">
                    <path d="M1.5,17.5 L1.5,1.47501561" id="Line-2-Copy-3" stroke-linecap="square" transform="translate(1.500000, 9.500000) scale(-1, -1) translate(-1.500000, -9.500000) "></path>
                    <circle id="Oval-Copy-3" fill="#B9D6DC" transform="translate(1.500000, 1.500000) scale(-1, -1) translate(-1.500000, -1.500000) " cx="1.5" cy="1.5" r="1.5"></circle>
                </g>
                <g id="Group-3-Copy" transform="translate(310.500000, 134.000000) scale(1, -1) translate(-310.500000, -134.000000) translate(309.000000, 125.000000)" stroke="#224A61">
                    <path d="M1.5,17.5 L1.5,1.47501561" id="Line-2-Copy-3" stroke-linecap="square" transform="translate(1.500000, 9.500000) scale(-1, -1) translate(-1.500000, -9.500000) "></path>
                    <circle id="Oval-Copy-3" fill="#B9D6DC" transform="translate(1.500000, 1.500000) scale(-1, -1) translate(-1.500000, -1.500000) " cx="1.5" cy="1.5" r="1.5"></circle>
                </g>
                <g id="Group-4" transform="translate(191.000000, 88.000000)" stroke="#224A61">
                    <path d="M1.5,17.5 L1.5,1.47501561" id="Line-2-Copy" stroke-linecap="square"></path>
                    <circle id="Oval-Copy" fill="#B9D6DC" cx="1.5" cy="1.5" r="1.5"></circle>
                </g>
                <g id="Group-5" transform="translate(284.000000, 88.000000)" stroke="#224A61">
                    <path d="M1.5,17.5 L1.5,1.47501561" id="Line-2-Copy-2" stroke-linecap="square"></path>
                    <circle id="Oval-Copy-2" fill="#B9D6DC" cx="1.5" cy="1.5" r="1.5"></circle>
                </g>
                <rect id="Rectangle-13" fill="#FFFFFF" x="86" y="0" width="158" height="38"></rect>
                <rect id="Rectangle-9-Copy-5" stroke="#FFFFFF" stroke-width="2" fill="#F48834" x="222" y="97" width="54.0949071" height="35.3261719"></rect>
                <rect id="Rectangle-9-Copy-6" stroke="#FFFFFF" stroke-width="2" fill="#59A94F" x="276" y="97" width="18.0316361" height="35.3261719"></rect>
                <rect id="Rectangle-9-Copy-8" stroke="#FFFFFF" stroke-width="2" fill="#C52A72" x="162" y="97" width="60.1054528" height="35.3261719"></rect>
                <rect id="Rectangle-9-Copy-10" stroke="#FFFFFF" stroke-width="2" fill="#912B87" x="51" y="97" width="111.195089" height="35.3261719"></rect>
                <rect id="Rectangle-9-Copy-7" stroke="#FFFFFF" stroke-width="2" fill="#D8D8D8" x="294" y="97" width="33.0579993" height="35.3261719"></rect>
                <rect id="Rectangle-9-Copy-9" stroke="#FFFFFF" stroke-width="2" fill="#D8D8D8" x="0" y="97" width="51.0896319" height="35.3261719"></rect>
                <text id="Briefs-by-phase" font-size="17" font-weight="normal" line-spacing="28" fill="#313131">
                    <tspan x="99" y="30">Briefs by phase</tspan>
                </text>
            </g>
        </g>
    </g>
</svg>
