<svg xmlns="http://www.w3.org/2000/svg" width="324" height="299" viewBox="0 0 324 299"><g fill="none" fill-rule="evenodd" transform="translate(-3 -6)"><text fill="#224A61" font-size="11" font-weight="bold"><tspan x="90" y="302">Number of applications to briefs</tspan></text><text fill="#224A61" font-size="11" font-weight="bold" transform="rotate(-90 7.5 175)"><tspan x="-41.5" y="179.5">Number of sellers</tspan></text><path stroke="#17788D" stroke-linecap="round" stroke-width="4" d="M36.204 195.096l9.25-34.525.658-2.227 5.95-17.982.658-1.779 5.95-14.099.658-1.388 6.608-12.449.665-1.137 7.925-12.501.659-.957 6.608-8.71.665-.765 4.625-4.594.659-.531 3.966-2.443 3.966-.986 3.966.56 3.959 2.053.665.484 3.967 3.498.658.688 6.608 7.65.659.81 13.215 15.523.666.746 7.925 9.703.658.927 5.29 8.513.66 1.207 5.29 10.991.659 1.534 7.266 18.501.666 1.784 11.89 30.968.66 1.516 5.948 12.07.66 1.155 5.29 7.83.658.817 4.625 4.764.658.565 5.29 3.68 9.909 5.02 7.273 4.245.659.45 7.266 5.783.666.59 23.782 21.474.666.479 5.949 3.737 5.942 2.642 5.95 1.504 6.607.542 9.25-.431 20.488-1.225 13.215.28 12.55 1.295"/><path stroke="#BBB" d="M32 277.708h294.652"/><text fill="#444" font-size="11"><tspan x="25" y="294">0</tspan></text><text fill="#444" font-size="11"><tspan x="18" y="86">20</tspan></text><text fill="#444" font-size="11"><tspan x="311" y="293">40</tspan></text><path stroke="#870F48" stroke-dasharray="6" stroke-linecap="square" stroke-width="2" d="M106.667 56v222.085"/><g transform="translate(22 38)"><rect width="167" height="25" x=".839" fill="#870F48" rx="12.5"/><text fill="#FFF" font-size="11" font-weight="bold"><tspan x="11.268" y="17">10 applications on average</tspan></text></g><circle cx="106.5" cy="277.5" r="3.5" fill="#870F48"/><text fill="#313131" font-size="17"><tspan x="56.204" y="18">Seller applications per brief</tspan></text></g></svg>