<svg xmlns="http://www.w3.org/2000/svg" width="320" height="285" viewBox="0 0 320 285"><g fill="none" fill-rule="evenodd"><text fill="#224A61" font-size="11" font-weight="bold" transform="translate(-12 -6)"><tspan x="177" y="288">Number of briefs posted</tspan></text><text fill="#313131" font-size="17" transform="translate(-12 -6)"><tspan x="31.054" y="18">Types of briefs on the Marketplace</tspan></text><text fill="#224A61" font-size="11" transform="translate(-12 -6)"><tspan x="32.639" y="88">Software engineering </tspan> <tspan x="51.733" y="103">and development</tspan></text><text fill="#224A61" font-size="11" transform="translate(-12 -6)"><tspan x="89.171" y="49">Outcomes</tspan></text><text fill="#224A61" font-size="11" transform="translate(-12 -6)"><tspan x="11.409" y="127">User research and design</tspan></text><text fill="#224A61" font-size="11" transform="translate(-12 -6)"><tspan x="51.665" y="166">Agile delivery and </tspan> <tspan x="82.033" y="181">governance</tspan></text><text fill="#224A61" font-size="11" transform="translate(-12 -6)"><tspan x="22.199" y="205">Content and publishing</tspan></text><text fill="#224A61" font-size="11" transform="translate(-12 -6)"><tspan x="77.312" y="244">Data science</tspan></text><text fill="#224A61" font-size="11" transform="translate(-12 -6)"><tspan x="157.71" y="273">0</tspan></text><text fill="#224A61" font-size="11" transform="translate(-12 -6)"><tspan x="312.131" y="273">110</tspan></text><path stroke="#BBB" stroke-linecap="square" d="M147 253h172.139"/><path fill="#17788D" d="M145 70h70.344v20H145zm0-39h168.827v20H145zm0 78h65.655v20H145zm0 39h37.517v20H145zm0 39h9.379v20H145zm0 39h9.379v20H145z"/><text fill="#224A61" font-size="14" font-weight="bold" transform="translate(-12 -6)"><tspan x="233.018" y="92">45</tspan></text><text fill="#FFF" font-size="14" font-weight="bold" transform="translate(-12 -6)"><tspan x="294.026" y="52">108</tspan></text><text fill="#224A61" font-size="14" font-weight="bold" transform="translate(-12 -6)"><tspan x="228.018" y="131">42</tspan></text><text fill="#224A61" font-size="14" font-weight="bold" transform="translate(-12 -6)"><tspan x="200.018" y="170">24</tspan></text><text fill="#224A61" font-size="14" font-weight="bold" transform="translate(-12 -6)"><tspan x="172.009" y="209">6</tspan></text><text fill="#224A61" font-size="14" font-weight="bold" transform="translate(-12 -6)"><tspan x="172.009" y="248">6</tspan></text></g></svg>