<svg xmlns="http://www.w3.org/2000/svg" xmlns:xlink="http://www.w3.org/1999/xlink" width="322" height="513" viewBox="0 0 322 513"><defs><path id="a" d="M153 187h68.127v20H153z"/><path id="b" d="M153 267h51.095v20H153z"/><path id="c" d="M236 503h16v16h-16z"/></defs><g fill="none" fill-rule="evenodd"><text fill="#313131" font-size="17" transform="translate(-5 -6)"><tspan x="32.909" y="18">Top 10 sellers awarded contracts </tspan> <tspan x="89.546" y="44">June - August 2017</tspan></text><text fill="#224A61" font-size="11" transform="translate(-5 -6)"><tspan x="314.421" y="465">10</tspan></text><text fill="#224A61" font-size="11" font-weight="bold" transform="translate(-5 -6)"><tspan x="179" y="476">Number of briefs won</tspan></text><text fill="#224A61" font-size="11" transform="translate(-5 -6)"><tspan x="151.71" y="464">0</tspan></text><path fill="#17788D" d="M148 63h136.254v20H148z"/><text fill="#224A61" font-size="11" transform="translate(-5 -6)"><tspan x="5.403" y="81">Adelphi Digital Consulting </tspan> <tspan x="104.365" y="96">Group</tspan></text><text fill="#224A61" font-size="11" transform="translate(-5 -6)"><tspan x="106.498" y="121">Paxus</tspan></text><text fill="#224A61" font-size="11" transform="translate(-5 -6)"><tspan x="14.84" y="161">2XM Technology Pty Ltd</tspan></text><text fill="#224A61" font-size="11" transform="translate(-5 -6)"><tspan x="33.096" y="200">SMS Management &amp; </tspan> <tspan x="78.364" y="215">Technology</tspan></text><text fill="#224A61" font-size="11" transform="translate(-5 -6)"><tspan x="56.514" y="240">Zen Ex Machina</tspan></text><text fill="#224A61" font-size="11" transform="translate(-5 -6)"><tspan x="99.263" y="280">Oakton</tspan></text><text fill="#224A61" font-size="11" transform="translate(-5 -6)"><tspan x="56.02" y="360">Tobias &amp; Tobias</tspan></text><text fill="#224A61" font-size="11" transform="translate(-5 -6)"><tspan x="76.457" y="320">Paper Giant</tspan></text><text fill="#224A61" font-size="11" transform="translate(-5 -6)"><tspan x="66.682" y="399">AUREC Group</tspan></text><text fill="#224A61" font-size="11" transform="translate(-5 -6)"><tspan x="81.925" y="438">ThinkPlace</tspan></text><path fill="#17788D" d="M148 103h85.159v20H148zm0 39h68.127v20H148z"/><g transform="translate(-5 -6)"><use fill="#B9D6DC" xlink:href="#ads"/><path stroke="#17788D" stroke-width="2" d="M154 188h66.127v18H154z"/></g><path fill="#17788D" d="M148 421h34.063v20H148zm0-40h34.063v20H148zm0-40h34.063v20H148zm0-40h51.095v20H148z"/><g transform="translate(-5 -6)"><use fill="#B9D6DC" xlink:href="#b"/><path stroke="#17788D" stroke-width="2" d="M154 268h49.095v18H154z"/></g><path fill="#17788D" d="M148 221h68.127v20H148z"/><path stroke="#BBB" stroke-linecap="square" d="M148.46 445.5h172.181"/><text fill="#224A61" font-size="14" font-weight="bold" transform="translate(-5 -6)"><tspan x="295" y="84">8</tspan></text><text fill="#224A61" font-size="14" font-weight="bold" transform="translate(-5 -6)"><tspan x="244" y="123">5</tspan></text><text fill="#224A61" font-size="14" font-weight="bold" transform="translate(-5 -6)"><tspan x="226" y="163">4</tspan></text><text fill="#224A61" font-size="14" font-weight="bold" transform="translate(-5 -6)"><tspan x="226" y="202">4</tspan></text><text fill="#224A61" font-size="14" font-weight="bold" transform="translate(-5 -6)"><tspan x="226" y="242">4</tspan></text><text fill="#224A61" font-size="14" font-weight="bold" transform="translate(-5 -6)"><tspan x="209" y="282">3</tspan></text><text fill="#224A61" font-size="14" font-weight="bold" transform="translate(-5 -6)"><tspan x="209" y="322">3</tspan></text><text fill="#224A61" font-size="14" font-weight="bold" transform="translate(-5 -6)"><tspan x="192" y="362">2</tspan></text><text fill="#224A61" font-size="14" font-weight="bold" transform="translate(-5 -6)"><tspan x="192" y="402">2</tspan></text><text fill="#224A61" font-size="14" font-weight="bold" transform="translate(-5 -6)"><tspan x="192" y="442">2</tspan></text><text fill="#808184" font-size="14" transform="translate(-5 -6)"><tspan x="175" y="515">SME</tspan></text><text fill="#808184" font-size="14" transform="translate(-5 -6)"><tspan x="258" y="515">Other</tspan></text><path fill="#17788D" d="M148 497h16v16h-16z"/><g transform="translate(-5 -6)"><use fill="#B9D6DC" xlink:href="#c"/><path stroke="#17788D" stroke-width="2" d="M237 504h14v14h-14z"/></g></g></svg>
