<svg xmlns="http://www.w3.org/2000/svg" width="315" height="257" viewBox="0 0 315 257"><g fill="none" fill-rule="evenodd"><text fill="#333" font-size="17" transform="translate(-5 -4)"><tspan x="19.494" y="18">Top 5 buyers this month: August ‘17</tspan></text><text fill="#224A61" font-size="11" font-weight="bold" transform="translate(-5 -4)"><tspan x="165" y="258">Number of briefs posted</tspan></text><text fill="#224A61" font-size="11" transform="translate(-5 -4)"><tspan x="113.935" y="53">DTA</tspan></text><text fill="#224A61" font-size="11" transform="translate(-5 -4)"><tspan x="5.422" y="89">Dept. of the Environment </tspan> <tspan x="77.433" y="104">and Energy</tspan></text><text fill="#224A61" font-size="11" transform="translate(-5 -4)"><tspan x="32.482" y="129">National Health and </tspan> <tspan x="4.649" y="144">Medical Research Council</tspan></text><text fill="#224A61" font-size="11" transform="translate(-5 -4)"><tspan x="26.23" y="167">Dept. of Industry and </tspan> <tspan x="80.097" y="182">Innovation</tspan></text><text fill="#224A61" font-size="11" transform="translate(-5 -4)"><tspan x="87.208" y="208">AUSTRAC</tspan></text><text fill="#224A61" font-size="10" transform="translate(-5 -4)"><tspan x="144.282" y="238">0</tspan></text><path fill="#17788D" d="M140 37h136.254v20H140zm0 36h85.159v20H140zm0 40h68.127v20H140zm0 39h51.095v20H140zm0 40h34.063v20H140z"/><text fill="#224A61" font-size="14" font-weight="bold" transform="translate(-5 -4)"><tspan x="240.009" y="92">5</tspan></text><text fill="#224A61" font-size="14" font-weight="bold" transform="translate(-5 -4)"><tspan x="223.009" y="131">4</tspan></text><text fill="#224A61" font-size="14" font-weight="bold" transform="translate(-5 -4)"><tspan x="204.009" y="171">3</tspan></text><text fill="#224A61" font-size="14" font-weight="bold" transform="translate(-5 -4)"><tspan x="185.009" y="212">2</tspan></text><path stroke="#BBB" stroke-linecap="square" d="M141.46 216.5h172.181"/><text fill="#224A61" font-size="10" transform="translate(-5 -4)"><tspan x="308.564" y="238">10</tspan></text><text fill="#224A61" font-size="14" font-weight="bold" transform="translate(-5 -4)"><tspan x="290.009" y="57">8</tspan></text></g></svg>