<svg xmlns="http://www.w3.org/2000/svg" width="716" height="300" viewBox="0 0 716 300"><g fill="none" fill-rule="evenodd" transform="translate(-4 -6)"><text fill="#224A61" font-size="14" font-weight="bold"><tspan x="257" y="302">Number of applications to briefs</tspan></text><text fill="#224A61" font-size="14" font-weight="bold" transform="rotate(-90 9.5 179.5)"><tspan x="-53" y="185">Number of sellers</tspan></text><path stroke="#17788D" stroke-linecap="round" stroke-width="4" d="M31 195.073l21.729-34.525 1.547-2.227 13.976-17.983 1.547-1.778 13.976-14.1 1.547-1.387 15.523-12.45 1.564-1.136 18.618-12.502 1.547-.956 15.523-8.711 1.564-.764 10.864-4.595 1.547-.53 9.317-2.444 9.318-.985 9.317.56 9.3 2.052 1.564.484 9.317 3.499 1.547.688 15.523 7.65 1.548.81 31.046 15.522 1.563.747 18.618 9.702 1.547.927 12.429 8.514 1.547 1.207 12.428 10.99 1.548 1.534 17.07 18.502 1.564 1.784 27.935 30.968 1.547 1.516 13.975 12.07 1.548 1.154 12.428 7.831 1.547.817 10.865 4.764 1.547.565 12.428 3.68 23.277 5.02 17.086 4.245 1.548.449 17.07 5.784 1.564.589 55.87 21.475 1.563.478 13.976 3.738 13.959 2.641 13.975 1.505 15.523.542 21.73-.432 48.132-1.224 31.046.28L717.5 273"/><path stroke="#BBB" d="M21 277.292h697"/><text fill="#444" font-size="11"><tspan x="13.5" y="294">0</tspan></text><text fill="#444" font-size="11"><tspan x="6.5" y="86">20</tspan></text><text fill="#444" font-size="11"><tspan x="701" y="293">40</tspan></text><path stroke="#870F48" stroke-dasharray="6" stroke-linecap="square" stroke-width="2" d="M192.667 56v222.085"/><g transform="translate(109 38)"><rect width="167" height="25" x=".839" fill="#870F48" rx="12.5"/><text fill="#FFF" font-size="11" font-weight="bold"><tspan x="11.268" y="17">10 applications on average</tspan></text></g><circle cx="192.5" cy="277.5" r="3.5" fill="#870F48"/><text fill="#313131" font-size="17"><tspan x="240.204" y="18">Seller applications per brief</tspan></text></g></svg>