<svg xmlns="http://www.w3.org/2000/svg" width="739" height="84" viewBox="0 0 739 84"><g fill="none" fill-rule="evenodd"><path fill="#F48834" stroke="#FFF" d="M502 33h121.899v50H502z"/><path fill="#59A94F" stroke="#FFF" d="M623 33h40.633v50H623z"/><path fill="#C52A72" stroke="#FFF" d="M367 33h135.443v50H367z"/><path fill="#912B87" stroke="#FFF" d="M116 33h250.57v50H116z"/><path fill="#D8D8D8" stroke="#FFF" d="M664 33h74.494v50H664zM1 33h115.127v50H1z"/><text fill="#333" font-size="14" font-weight="bold" transform="translate(1 -7)"><tspan x="42.762" y="64">16% </tspan> <tspan x="14" y="80.294" font-weight="normal">Pre-discovery</tspan></text><text fill="#FFF" font-size="14" font-weight="bold" transform="translate(1 -7)"><tspan x="224.324" y="64">34%</tspan> <tspan x="253.89" y="64.294" font-weight="normal"> </tspan> <tspan x="208" y="80.294" font-weight="normal">Discovery</tspan></text><text fill="#FFF" font-size="14" font-weight="bold" transform="translate(1 -7)"><tspan x="418.411" y="64">18%</tspan> <tspan x="447.977" y="64.294" font-weight="normal"> </tspan> <tspan x="415" y="80.294" font-weight="normal">Alpha</tspan></text><text fill="#FFF" font-size="14" font-weight="bold" transform="translate(1 -7)"><tspan x="545" y="64">17%</tspan> <tspan x="574.565" y="64.294" font-weight="normal"> </tspan> <tspan x="545.441" y="80.294" font-weight="normal">Beta</tspan></text><text fill="#FFF" font-size="14" font-weight="bold" transform="translate(1 -7)"><tspan x="631.565" y="64">5%</tspan> <tspan x="653.14" y="64.294" font-weight="normal"> </tspan> <tspan x="630" y="80.294" font-weight="normal">Live</tspan></text><text fill="#333" font-size="14" font-weight="bold" transform="translate(1 -7)"><tspan x="684.736" y="64">10% </tspan> <tspan x="681" y="80.294" font-weight="normal">Other</tspan></text><text fill="#313131" font-size="17" transform="translate(1 -7)"><tspan x="308" y="18">Briefs by phase</tspan></text></g></svg>
