<svg xmlns="http://www.w3.org/2000/svg" width="362" height="256" viewBox="0 0 362 256"><g fill="none" fill-rule="evenodd"><text fill="#333" font-size="17" transform="translate(-11 -4)"><tspan x="52.494" y="18">Top 5 buyers this month: August ‘17</tspan></text><text fill="#224A61" font-size="14" font-weight="bold" transform="translate(-11 -4)"><tspan x="184" y="256">Number of briefs posted</tspan></text><text fill="#224A61" font-size="11" transform="translate(-11 -4)"><tspan x="119.935" y="53">DTA</tspan></text><text fill="#224A61" font-size="11" transform="translate(-11 -4)"><tspan x="11.422" y="89">Dept. of the Environment </tspan> <tspan x="83.433" y="104">and Energy</tspan></text><text fill="#224A61" font-size="11" transform="translate(-11 -4)"><tspan x="38.482" y="129">National Health and </tspan> <tspan x="10.649" y="144">Medical Research Council</tspan></text><text fill="#224A61" font-size="11" transform="translate(-11 -4)"><tspan x="32.23" y="167">Dept. of Industry and </tspan> <tspan x="86.097" y="182">Innovation</tspan></text><text fill="#224A61" font-size="11" transform="translate(-11 -4)"><tspan x="93.208" y="208">AUSTRAC</tspan></text><text fill="#224A61" font-size="10" transform="translate(-11 -4)"><tspan x="163.282" y="236">0</tspan></text><path fill="#17788D" d="M153 37h163.149v20H153zm0 36h101.968v20H153zm0 40h81.575v20H153zm0 39h61.181v20H153zm0 40h40.787v20H153z"/><text fill="#224A61" font-size="14" font-weight="bold" transform="translate(-11 -4)"><tspan x="272.009" y="92">5</tspan></text><text fill="#224A61" font-size="14" font-weight="bold" transform="translate(-11 -4)"><tspan x="251.009" y="131">4</tspan></text><text fill="#224A61" font-size="14" font-weight="bold" transform="translate(-11 -4)"><tspan x="231.009" y="171">3</tspan></text><text fill="#224A61" font-size="14" font-weight="bold" transform="translate(-11 -4)"><tspan x="211.009" y="212">2</tspan></text><path stroke="#BBB" stroke-linecap="square" d="M154.749 216.5h206.167"/><text fill="#224A61" font-size="10" transform="translate(-11 -4)"><tspan x="359.564" y="236">10</tspan></text><text fill="#224A61" font-size="14" font-weight="bold" transform="translate(-11 -4)"><tspan x="333.009" y="57">8</tspan></text></g></svg>