<svg xmlns="http://www.w3.org/2000/svg" width="731" height="282" viewBox="0 0 731 282"><g fill="none" fill-rule="evenodd"><text fill="#224A61" font-size="11" transform="translate(-4 -6)"><tspan x="9.534" y="229">Strategy </tspan> <tspan x="4.402" y="244">and policy</tspan></text><text fill="#224A61" font-size="11" transform="translate(-4 -6)"><tspan x="59.14" y="270">User research </tspan> <tspan x="66.552" y="285">and design</tspan></text><text fill="#224A61" font-size="11" transform="translate(-4 -6)"><tspan x="129.957" y="229">Agile delivery </tspan> <tspan x="122.784" y="244">and governance</tspan></text><text fill="#224A61" font-size="11" transform="translate(-4 -6)"><tspan x="176.21" y="270">Software engineering </tspan> <tspan x="185.758" y="285">and development</tspan></text><text fill="#224A61" font-size="11" transform="translate(-4 -6)"><tspan x="263.635" y="229">Support and </tspan> <tspan x="267.886" y="244">operations</tspan></text><text fill="#224A61" font-size="11" transform="translate(-4 -6)"><tspan x="336.767" y="270">Content and </tspan> <tspan x="341.834" y="285">publishing</tspan></text><text fill="#224A61" font-size="11" transform="translate(-4 -6)"><tspan x="389.084" y="229">Change, training, </tspan> <tspan x="393.499" y="244">transformation</tspan></text><text fill="#224A61" font-size="11" transform="translate(-4 -6)"><tspan x="422.528" y="270">Marketing, communications </tspan> <tspan x="450.421" y="285">and engagement</tspan></text><text fill="#224A61" font-size="11" transform="translate(-4 -6)"><tspan x="521.089" y="229">Cyber security</tspan></text><text fill="#224A61" font-size="11" transform="translate(-4 -6)"><tspan x="599.216" y="270">Data science</tspan></text><text fill="#224A61" font-size="11" transform="translate(-4 -6)"><tspan x="678.268" y="229">Emerging </tspan> <tspan x="669.967" y="244">technologies</tspan></text><path stroke="#BBB" stroke-linecap="square" d="M26.5 199.5v6m132-5v10m133-10v10m134-10v10m134-10v10m139-11v10m-206-9v51m-127-51v51m-138-51v51m-136-51v51m537-51v51m96.038-51.167H5"/><path fill="#17788D" fill-rule="nonzero" d="M17 193.983v6.167h20V120H17v73.983zm133-89.498v95.693h20V55h-20v49.485zm67 5.622v89.724h20V51h-20v59.107zm-136 6.635v83.02h20V72H81v44.742zm274 72.278v11.451h20V148h-20v41.02zm64-54.233v65.219h20V82h-20v52.787zm125 35.419v29.67h20V131h-20v39.206zm-262 27.266v2.947h20V140h-20v57.472zm336-19.956v22.974h20V142h-20v35.516zm71 21.227v1.111h20V147h-20v51.743zm-206-1.801v3.43h20V155h-20v41.942z"/><text fill="#224A61" font-size="14" font-weight="bold" transform="translate(-4 -6)"><tspan x="18" y="118">186</tspan></text><text fill="#224A61" font-size="14" font-weight="bold" transform="translate(-4 -6)"><tspan x="86" y="74">298</tspan></text><text fill="#224A61" font-size="14" font-weight="bold" transform="translate(-4 -6)"><tspan x="152" y="57">336</tspan></text><text fill="#224A61" font-size="14" font-weight="bold" transform="translate(-4 -6)"><tspan x="219" y="53">345</tspan></text><text fill="#224A61" font-size="14" font-weight="bold" transform="translate(-4 -6)"><tspan x="284" y="141">141</tspan></text><text fill="#224A61" font-size="14" font-weight="bold" transform="translate(-4 -6)"><tspan x="353" y="148">123</tspan></text><text fill="#224A61" font-size="14" font-weight="bold" transform="translate(-4 -6)"><tspan x="421" y="82">276</tspan></text><text fill="#224A61" font-size="14" font-weight="bold" transform="translate(-4 -6)"><tspan x="483" y="155">105</tspan></text><text fill="#224A61" font-size="14" font-weight="bold" transform="translate(-4 -6)"><tspan x="546" y="133">161</tspan></text><text fill="#224A61" font-size="14" font-weight="bold" transform="translate(-4 -6)"><tspan x="618" y="140">137</tspan></text><text fill="#224A61" font-size="14" font-weight="bold" transform="translate(-4 -6)"><tspan x="691" y="148">126</tspan></text><text fill="#313131" font-size="17" transform="translate(-4 -6)"><tspan x="214.043" y="18">Number of sellers per area of expertise</tspan></text></g></svg>