<svg xmlns="http://www.w3.org/2000/svg" xmlns:xlink="http://www.w3.org/1999/xlink" width="335" height="523" viewBox="0 0 335 523"><defs><path id="a" d="M138 267.213h63.471v20H138z"/><path id="b" d="M221 513.213h16v16h-16z"/></defs><g fill="none" fill-rule="evenodd"><text fill="#313131" font-size="17" transform="translate(-18 -7)"><tspan x="45.909" y="18.213">Top 10 sellers awarded contracts </tspan> <tspan x="102.546" y="44.213">June - August 2017</tspan></text><path fill="#17788D" d="M120 62.213h169.255v20H120z"/><text fill="#224A61" font-size="11" transform="translate(-18 -7)"><tspan x="47.82" y="81.213">Adelphi Digital </tspan> <tspan x="31.948" y="96.213">Consulting Group</tspan></text><text fill="#224A61" font-size="11" transform="translate(-18 -7)"><tspan x="91.498" y="121.213">Paxus</tspan></text><text fill="#224A61" font-size="11" transform="translate(-18 -7)"><tspan x="19.031" y="161.213">2XM Technology Pty </tspan> <tspan x="105.667" y="176.213">Ltd</tspan></text><text fill="#224A61" font-size="11" transform="translate(-18 -7)"><tspan x="18.096" y="200.213">SMS Management &amp; </tspan> <tspan x="63.364" y="215.213">Technology</tspan></text><text fill="#224A61" font-size="11" transform="translate(-18 -7)"><tspan x="41.514" y="240.213">Zen Ex Machina</tspan></text><text fill="#224A61" font-size="11" transform="translate(-18 -7)"><tspan x="84.263" y="280.213">Oakton</tspan></text><text fill="#224A61" font-size="11" transform="translate(-18 -7)"><tspan x="41.02" y="360.213">Tobias &amp; Tobias</tspan></text><text fill="#224A61" font-size="11" transform="translate(-18 -7)"><tspan x="61.457" y="320.213">Paper Giant</tspan></text><path fill="#17788D" d="M120 102.213h105.785v20H120zm0 39h84.628v20H120z"/><g transform="translate(-18 -7)"><use fill="#B9D6DC" xlink:href="#aa"/><path stroke="#17788D" stroke-width="2" d="M139 188.213h82.628v18H139z"/></g><path fill="#17788D" d="M120 340.213h42.314v20H120zm0-40h63.471v20H120z"/><g transform="translate(-18 -7)"><use fill="#B9D6DC" xlink:href="#aaa"/><path stroke="#17788D" stroke-width="2" d="M139 268.213h61.471v18H139z"/></g><path fill="#17788D" d="M120 220.213h84.628v20H120z"/><text fill="#224A61" font-size="14" font-weight="bold" transform="translate(-18 -7)"><tspan x="314" y="84.213">8</tspan></text><text fill="#224A61" font-size="14" font-weight="bold" transform="translate(-18 -7)"><tspan x="249" y="123.213">5</tspan></text><text fill="#224A61" font-size="14" font-weight="bold" transform="translate(-18 -7)"><tspan x="228" y="163.213">4</tspan></text><text fill="#224A61" font-size="14" font-weight="bold" transform="translate(-18 -7)"><tspan x="228" y="202.213">4</tspan></text><text fill="#224A61" font-size="14" font-weight="bold" transform="translate(-18 -7)"><tspan x="228" y="242.213">4</tspan></text><text fill="#224A61" font-size="14" font-weight="bold" transform="translate(-18 -7)"><tspan x="207" y="282.213">3</tspan></text><text fill="#224A61" font-size="14" font-weight="bold" transform="translate(-18 -7)"><tspan x="207" y="322.213">3</tspan></text><text fill="#224A61" font-size="14" font-weight="bold" transform="translate(-18 -7)"><tspan x="187" y="362.213">2</tspan></text><text fill="#224A61" font-size="11" transform="translate(-18 -7)"><tspan x="340.421" y="466.213">10</tspan></text><text fill="#224A61" font-size="14" font-weight="bold" transform="translate(-18 -7)"><tspan x="169" y="486.213">Number of briefs won</tspan></text><text fill="#224A61" font-size="11" transform="translate(-18 -7)"><tspan x="136.71" y="465.213">0</tspan></text><text fill="#224A61" font-size="11" transform="translate(-18 -7)"><tspan x="51.682" y="399.213">AUREC Group</tspan></text><text fill="#224A61" font-size="11" transform="translate(-18 -7)"><tspan x="66.925" y="438.213">ThinkPlace</tspan></text><path fill="#17788D" d="M120 420.213h42.314v20H120zm0-40h42.314v20H120z"/><path stroke="#BBB" stroke-linecap="square" d="M120.572 443.713h213.884"/><text fill="#224A61" font-size="14" font-weight="bold" transform="translate(-18 -7)"><tspan x="187" y="402.213">2</tspan></text><text fill="#224A61" font-size="14" font-weight="bold" transform="translate(-18 -7)"><tspan x="187" y="442.213">2</tspan></text><text fill="#808184" font-size="14" transform="translate(-18 -7)"><tspan x="160" y="525.213">SME</tspan></text><text fill="#808184" font-size="14" transform="translate(-18 -7)"><tspan x="243" y="525.213">Other</tspan></text><path fill="#17788D" d="M120 506.213h16v16h-16z"/><g transform="translate(-18 -7)"><use fill="#B9D6DC" xlink:href="#b"/><path stroke="#17788D" stroke-width="2" d="M222 514.213h14v14h-14z"/></g></g></svg>
