<svg width="739" height="100" viewBox="0 0 739 100" xmlns="http://www.w3.org/2000/svg"><title>&gt;768 Briefs by phase</title><g fill="none" fill-rule="evenodd"><path stroke="#FFF" fill="#F48834" d="M502 49h121.899v50H502z"/><path stroke="#FFF" fill="#59A94F" d="M623 49h40.633v50H623z"/><path stroke="#FFF" fill="#C52A72" d="M367 49h135.443v50H367z"/><path stroke="#FFF" fill="#912B87" d="M116 49h250.57v50H116z"/><path stroke="#FFF" fill="#D8D8D8" d="M664 49h74.494v50H664zM1 49h115.127v50H1z"/><text font-size="14" font-weight="bold" fill="#333" transform="translate(1)"><tspan x="42.762" y="73">16% </tspan>  <tspan x="14" y="89.294" font-weight="normal">Pre-discovery</tspan></text><text font-size="14" font-weight="bold" fill="#FFF" transform="translate(1)"><tspan x="224.324" y="73">34%</tspan> <tspan x="253.89" y="73.294" font-weight="normal"> </tspan> <tspan x="208" y="89.294" font-weight="normal">Discovery</tspan></text><text font-size="14" font-weight="bold" fill="#FFF" transform="translate(1)"><tspan x="418.411" y="73">18%</tspan> <tspan x="447.977" y="73.294" font-weight="normal"> </tspan> <tspan x="415" y="89.294" font-weight="normal">Alpha</tspan></text><text font-size="14" font-weight="bold" fill="#FFF" transform="translate(1)"><tspan x="545" y="73">17%</tspan> <tspan x="574.565" y="73.294" font-weight="normal"> </tspan> <tspan x="545.441" y="89.294" font-weight="normal">Beta</tspan></text><text font-size="14" font-weight="bold" fill="#FFF" transform="translate(1)"><tspan x="631.565" y="73">5%</tspan> <tspan x="653.14" y="73.294" font-weight="normal"> </tspan> <tspan x="630" y="89.294" font-weight="normal">Live</tspan></text><text font-size="14" font-weight="bold" fill="#333" transform="translate(1)"><tspan x="684.736" y="73">10% </tspan>  <tspan x="681" y="89.294" font-weight="normal">Other</tspan></text><path fill="#FFF" d="M326 0h85v29h-85z"/><text font-size="17" fill="#313131" transform="translate(1)"><tspan x="308" y="27">Briefs by phase</tspan></text></g></svg>