<svg xmlns="http://www.w3.org/2000/svg" width="326" height="133" viewBox="0 0 326 133"><g fill="none" fill-rule="evenodd"><text fill="#808184" font-size="11" font-weight="bold" transform="translate(-15 -18)"><tspan x="15" y="27">Other</tspan></text><path stroke="#224A61" stroke-linecap="round" stroke-width="2" d="M136 67h10"/><path fill="#125361" fill-rule="nonzero" stroke="#FFF" stroke-width="2" d="M70.844 43.13V6c26.71 0 50.298 17.421 58.152 42.951 7.854 25.53-1.862 53.196-23.954 68.21-22.092 15.013-51.392 13.862-72.238-2.838-20.845-16.7-28.36-45.044-18.528-69.88L48.7 58.074A23.803 23.803 0 0 0 46.975 67c0 13.183 10.687 23.87 23.87 23.87 13.182 0 23.869-10.687 23.869-23.87 0-13.183-10.687-23.87-23.87-23.87z"/><path fill="#870F48" fill-rule="nonzero" stroke="#FFF" stroke-width="2" d="M48.565 58.073l-34.424-13.63C23.328 21.24 45.753 6 70.709 6v37.13c-10.026 0-18.61 6.183-22.144 14.943z"/><text fill="#333" font-size="16" font-weight="bold" transform="translate(-15 -18)"><tspan x="168" y="58">81% </tspan> <tspan x="204.836" y="58" font-weight="normal">of the value </tspan> <tspan x="168" y="80" font-weight="normal">contracted through the </tspan> <tspan x="168" y="102" font-weight="normal">Marketplace has been </tspan> <tspan x="168" y="124">awarded to SMEs</tspan></text><path stroke="#224A61" stroke-linecap="round" stroke-width="2" d="M11.235 40.924c-14.49 32.542.146 70.669 32.689 85.158 32.542 14.489 70.669-.147 85.158-32.69 5.851-13.141 6.953-27.194 4.043-40.233a64.857 64.857 0 0 0-2.91-9.525c-5.966-15.234-17.695-28.22-33.822-35.4-8.207-3.653-16.77-5.455-25.218-5.584"/></g></svg>
