<svg xmlns="http://www.w3.org/2000/svg" width="299" height="255" viewBox="0 0 299 255"><g fill="none" fill-rule="evenodd"><text fill="#4A4A4A" font-size="16" font-weight="bold"><tspan x="151" y="45">172 entities have </tspan> <tspan x="151" y="67">registered</tspan> <tspan x="151" y="89" font-weight="normal">54% of which are </tspan> <tspan x="151" y="111" font-weight="normal">federal government</tspan></text><path stroke="#224A61" stroke-linecap="round" stroke-width="2" d="M135 65h10"/><path fill="#0C7B92" fill-rule="nonzero" stroke="#FFF" d="M71 41.68V6c31.617 0 57.873 24.405 60.181 55.938 2.308 31.532-20.115 59.5-51.395 64.104l-5.148-34.979c12.004-1.742 21.225-12.075 21.225-24.562 0-13.708-11.113-24.82-24.821-24.82H71z"/><path fill="#F17465" fill-rule="nonzero" stroke="#FFF" d="M46.12 67.232l-35.963 1.314A60.342 60.342 0 0 1 70.459 6v36.005c-13.487.255-24.342 11.268-24.342 24.816 0 .137 0 .274.003.41z"/><path fill="#6C81DA" fill-rule="nonzero" stroke="#FFF" d="M59.868 88.934l-15.022 32.044a60.342 60.342 0 0 1-34.689-52.433l35.534-1.299c.283 9.585 6 17.806 14.177 21.688z"/><path fill="#C35D8E" fill-rule="nonzero" stroke="#FFF" d="M64.89 90.656l-7.843 34.484a60.342 60.342 0 0 0 21.902.899l-4.996-35.036a24.671 24.671 0 0 1-9.063-.347z"/><path fill="#4E9774" fill-rule="nonzero" stroke="#FFF" d="M59.914 88.959l-15.15 31.944a60.342 60.342 0 0 0 12.473 4.318l7.844-34.484a25.172 25.172 0 0 1-5.167-1.778z"/><text fill="#808184" font-size="14"><tspan x="22" y="175">D10</tspan></text><text fill="#808184" font-size="14"><tspan x="22" y="212">State / Territory</tspan></text><text fill="#808184" font-size="14"><tspan x="186" y="175">Other federal</tspan></text><text fill="#808184" font-size="14"><tspan x="186" y="215">Local</tspan></text><path fill="#C35D8E" d="M0 163h16v16H0z"/><path fill="#6C81DA" d="M0 200h16v16H0z"/><path fill="#0C7B92" d="M164 163h16v16h-16z"/><path fill="#F17465" d="M164 200h16v16h-16z"/><text fill="#808184" font-size="14"><tspan x="21" y="253">Other</tspan></text><path fill="#4E9774" d="M0 239h16v16H0z"/><path stroke="#224A61" stroke-linecap="round" stroke-width="2" d="M56.212 128.975c34.71 8.013 69.343-13.628 77.356-48.338 8.013-34.71-13.628-69.343-48.337-77.356a64.698 64.698 0 0 0-14.585-1.667"/></g></svg>