<svg xmlns="http://www.w3.org/2000/svg" xmlns:xlink="http://www.w3.org/1999/xlink" width="327" height="196" viewBox="0 0 327 196"><defs><path id="a" d="M0 0h326.722v195.213H0z"/><linearGradient id="b" x1="50%" x2="50%" y1="0%" y2="100%"><stop offset="0%" stop-color="#33B0C1"/><stop offset="100%" stop-color="#17788D"/></linearGradient></defs><g fill="none" fill-rule="evenodd"><use fill="#FAFBFC" xlink:href="#a"/><path stroke="#BBB" d="M.5.5h325.722v194.213H.5z"/><text fill="#17788D" font-size="36" font-weight="bold" letter-spacing="-1.5"><tspan x="16" y="59">600</tspan></text><text fill="#313131" font-size="17"><tspan x="16" y="90">Sellers registered to offer </tspan> <tspan x="16" y="118">digital and ICT services.</tspan></text><text fill="#313131" font-size="20" font-weight="bold"><tspan x="16" y="161">67 new sellers this month</tspan></text><path stroke="url(#b)" stroke-linecap="round" stroke-width="3" d="M213 66l3.513-.771 6.199-.35v-3.833l1.552-.349 1.542-.698v-2.094l1.552-.35v-3.484l1.552-.349v-4.88l7.74-.35v-1.745l1.543-.349 1.552-.698v-.693l3.094-.349 3.105-1.047v-1.047l1.542-.349 3.094-1.047 4.646-1.047v-2.089l1.553-.349 3.094-1.047v-.698l1.552-.349 4.646-.698v-1.047l1.542-.349 1.553-.692 1.552-1.047 1.542-1.048 4.646-1.047v-.698l1.552-.349v-.698l1.553-.343 1.542-.698 6.198-1.047 1.542-.35 1.552-.697 1.553-.699v-1.047l1.542-.349 6.198-.698L303 21"/></g></svg>