<svg xmlns="http://www.w3.org/2000/svg" width="309" height="259" viewBox="0 0 309 259"><g fill="none" fill-rule="evenodd"><text fill="#313131" font-size="17" transform="translate(-19 -6)"><tspan x="20.936" y="18">Trend for day rates offered per area </tspan> <tspan x="116.665" y="44">of expertise</tspan></text><text fill="#224A61" font-size="11" font-weight="bold" transform="translate(-19 -6)"><tspan x="165" y="262">Contractor daily rate bid $</tspan></text><path fill="#001F5F" fill-opacity=".3" fill-rule="nonzero" stroke="#BBB" d="M133 229h174"/><path fill="#66C2A5" fill-opacity=".5" fill-rule="nonzero" d="M156 213.114l11.294.326.27.033 4.842.923.27.066 6.455 1.487.266.028 5.917.274.27.02 4.302.714.27.071 11.298 3.157.27.014 3.224-.16.27-.039 5.38-1.192.27-.062 6.183-1.202.27-.033 8.874-1.415.27-.057 7.8-1.292.27-.038 9.414-.999.27-.004 45.719-.616h.27l3.227-.004-3.227-.005h-.27l-45.72-.615-.27-.005-9.413-.999-.27-.038-7.8-1.292-.27-.057-8.875-1.415-.27-.033-6.182-1.202-.27-.062-5.38-1.192-.27-.038-3.225-.161-.27.014-11.297 3.157-.27.071-4.302.715-.27.019-5.917.274-.266.029-6.456 1.486-.27.066-4.841.923-.27.033z"/><path stroke="#4E9774" stroke-width="2" d="M156 213.114l11.294-.327.27-.033 4.842-.923.27-.066 6.455-1.486.266-.029 5.917-.274.27-.02 4.302-.714.27-.071 11.298-3.157.27-.014 3.224.16.27.039 5.38 1.192.27.062 6.183 1.202.27.033 8.874 1.415.27.057 7.8 1.292.27.038 9.414.999.27.005 45.719.615h.27l3.227.005"/><path stroke="#4E9774" stroke-width="2" d="M156 213l11.294.327.27.033 4.842.923.27.066 6.455 1.486.266.028 5.917.275.27.019 4.302.714.27.071 11.298 3.157.27.015 3.224-.161.27-.038 5.38-1.193.27-.061 6.183-1.203.27-.033 8.874-1.415.27-.057 7.8-1.292.27-.038 9.414-.998.27-.005 45.719-.615h.27l3.227-.005"/><path fill="#E78AC3" fill-opacity=".5" fill-rule="nonzero" d="M141 184.151l11 .355.22.02 6.162.875.221.047 7.261 1.898.22.066 8.799 2.334.22.042 5.063.516.22.005 5.28-.346.22-.028 6.82-.554.22.005 4.402.44.22.038 9.46 1.406h.22l3.74-.327.22-.038 5.5-1.4.22-.067 11.883-3.242.22-.043 7.482-1.25.221-.027 8.802-.62.217-.005 7.702-.104v-.024l-7.702-.104-.217-.005-8.802-.62-.22-.028-7.482-1.25-.22-.042-11.883-3.242-.22-.067-5.5-1.4-.221-.038-3.74-.327h-.22l-9.46 1.406-.22.038-4.401.44-.22.004-6.82-.553-.221-.029-5.28-.345-.22.005-5.063.515-.22.043-8.798 2.333-.22.067-7.262 1.897-.22.048-6.162.875-.22.02-11.001.354z"/><path stroke="#C35D8E" stroke-width="2" d="M141 184.118l11-.355.22-.019 6.162-.875.221-.048 7.261-1.897.22-.067 8.799-2.333.22-.043 5.063-.515 5.5.34.22.029 6.82.553 4.622-.444.22-.038 9.46-1.406 3.96.327.22.037 5.5 1.401.22.067 11.883 3.242.22.042 7.482 1.25.221.028 8.802.62 7.919.109"/><path stroke="#C35D8E" stroke-width="2" d="M141 184.005l11 .355.22.019 6.162.875.221.048 7.261 1.897.22.067 8.799 2.333.22.043 5.063.515.22.005 5.28-.345.22-.029 6.82-.553.22.004 4.402.44.22.038 9.46 1.406h.22l3.74-.327.22-.037 5.5-1.401.22-.067 11.883-3.242.22-.042 7.482-1.25.221-.028 8.802-.62.217-.005 7.702-.104"/><path fill="#FC8D62" fill-opacity=".5" fill-rule="nonzero" d="M184.015 159.685l7.006 1.278 14.007 3.142 7.002.999 7.006.166 7.002-.497 21.01-2.23 7.005-1.178 14.007-2.22 7.002-.544 14.075-.002-.033-.933-14.042-.002-7.002-.544-14.007-2.22-7.006-1.179-21.01-2.229-7.001-.492-7.006.16-7.002 1-14.007 3.142-7.006 1.278-7.002.87-7.005.46-14.008.213z"/><path stroke="#F17465" stroke-width="2" d="M156 158.123l14.008-.213 7.005-.46 7.002-.87 7.006-1.278 14.007-3.142 7.002-1 7.006-.16 7.002.492 21.01 2.23 7.005 1.178 14.007 2.22 6.833.53 14.233.01"/><path stroke="#F17465" stroke-width="2" d="M156 158l14.008.213 7.005.46 7.002.87 7.006 1.278 14.007 3.142 7.002 1 7.006.165 7.002-.497 21.01-2.23 7.005-1.178 14.007-2.22 6.865-.533 14.2-.006"/><path fill="#FFD92F" fill-opacity=".5" fill-rule="nonzero" d="M140 134.061l16.546.35.287.015 37.737 2.078.29.037 22.06 3.181.291.062 7.835 1.306.291.019 4.646-.024.29-.024 5.224-.842.29-.062 10.451-2.735.29-.076 7.836-1.694.29-.043 6.967-.672.291-.019 17.123-.767.291-.01 9.001-.08v-.014l-9.001-.08-.29-.01-17.124-.766-.29-.02-6.968-.671-.29-.043-7.835-1.694-.291-.076-10.45-2.736-.291-.061-5.224-.843-.29-.023-4.646-.024-.29.019-7.836 1.306-.29.062-22.06 3.18-.29.038-37.738 2.078-.287.014-16.546.35z"/><path stroke="#F69900" stroke-width="2" d="M140 134.047l16.546-.35.287-.014 37.737-2.078.29-.038 22.06-3.18.291-.062 7.835-1.306.291-.019 4.646.024.29.023 5.224.843.29.061 10.451 2.736.29.076 7.836 1.694.29.043 6.967.672.291.019 17.123.766.291.01 9.001.08"/><path stroke="#F69900" stroke-width="2" d="M140 134l16.546.35.287.014 37.737 2.078.29.038 22.06 3.18.291.062 7.835 1.306.291.02 4.646-.024.29-.024 5.224-.843.29-.061 10.451-2.736.29-.075 7.836-1.695.29-.042 6.967-.672.291-.02 17.123-.766.291-.01 9.001-.08"/><path fill="#A6D854" fill-opacity=".5" fill-rule="nonzero" d="M149 105.052l15.835.416.879.076 7.04.98.88.18 7.036 1.86.882.274 7.916 2.21.882.166 5.276.578.883.052 10.555.26.879-.08 4.4-.833.88-.228 8.797-1.969.88-.16 7.919-1.089.878-.052 20.236-1.292.879-.118 10.559-1.136.879-.029 16.713-.01h.883v-.113h-.883l-16.713-.01-.88-.028-10.558-1.136-.879-.118-20.236-1.292-.878-.052-7.92-1.089-.879-.16-8.798-1.97-.878-.227-4.401-.833-.879-.08-10.555.26-.883.052-5.276.578-.882.165-7.916 2.21-.882.275-7.037 1.86-.879.18-7.04.98-.879.075z"/><path stroke="#0CAC78" stroke-width="2" d="M149 105.052l15.835-.417.879-.075 7.04-.98.88-.18 7.036-1.86.882-.274 7.916-2.21.882-.166 5.276-.578.883-.052 10.555-.26.879.08 4.4.833.88.228 8.797 1.969.88.16 7.919 1.089.878.052 20.236 1.292.879.118 10.559 1.136.879.029 16.713.01h.883"/><path stroke="#0CAC78" stroke-width="2" d="M149 105l15.835.416.879.076 7.04.98.88.18 7.036 1.86.882.274 7.916 2.21.882.166 5.276.578.883.052 10.555.26.879-.08 4.4-.833.88-.228 8.797-1.969.88-.16 7.919-1.089.878-.052 20.236-1.292.879-.118 10.559-1.136.879-.029 16.713-.01"/><path fill="#E5C494" fill-opacity=".5" fill-rule="nonzero" d="M169.083 73.483l.41.028 8.994.96.41.067 5.724 1.193.41.113 11.857 3.304.41.066 8.584 1.046.41.01 5.314-.346.41-.042 10.633-1.165.406-.1 6.953-1.476.41-.042 11.448-1.449.406-.061 19.626-2.376.41-.014 12.677.047.41.01 14.308-.005.41-.01v-.213l-.41-.01-14.308-.004-.41.01-12.677.047-.41-.014-19.626-2.376-.406-.062-11.449-1.448-.41-.043-6.952-1.476-.406-.1-10.633-1.164-.41-.042-5.314-.346-.41.01-8.584 1.045-.41.067-11.858 3.303-.41.114-5.723 1.193-.41.066-8.994.96-.41.029-13.083.345z"/><path stroke="#97784C" stroke-width="2" d="M156 73.132l13.083-.345.41-.028 8.994-.961.41-.066 5.724-1.193.41-.114 11.857-3.303.41-.067 8.584-1.046.41-.009 5.314.346.41.042 10.633 1.164.406.1 6.953 1.476.41.043 11.448 1.448.406.062 19.626 2.376.41.014 12.677-.047.41-.01 14.308.005.41.01"/><path stroke="#97784C" stroke-width="2" d="M156 73l13.083.346.41.028 8.994.96.41.067 5.724 1.193.41.113 11.857 3.304.41.066 8.584 1.046.41.01 5.314-.346.41-.043 10.633-1.164.406-.1 6.953-1.476.41-.043 11.448-1.448.406-.061 19.626-2.376.41-.014 12.677.047.41.01 14.308-.005.41-.01"/><text fill="#444" font-size="7" transform="translate(-19 -6)"><tspan x="197" y="244">1000</tspan></text><text fill="#444" font-size="7" transform="translate(-19 -6)"><tspan x="254" y="244">2000</tspan></text><text fill="#444" font-size="7" transform="translate(-19 -6)"><tspan x="310" y="244">3000</tspan></text><text fill="#224A61" font-size="11" transform="translate(-19 -6)"><tspan x="18.504" y="76">User research and design</tspan></text><text fill="#224A61" font-size="11" transform="translate(-19 -6)"><tspan x="39.639" y="104">Software engineering </tspan> <tspan x="58.733" y="119">and development</tspan></text><text fill="#224A61" font-size="11" transform="translate(-19 -6)"><tspan x="84.22" y="143">Data science</tspan></text><text fill="#224A61" font-size="11" transform="translate(-19 -6)"><tspan x="76.826" y="166">Cyber security</tspan></text><text fill="#224A61" font-size="11" transform="translate(-19 -6)"><tspan x="29.294" y="188">Content and publishing</tspan></text><text fill="#224A61" font-size="11" transform="translate(-19 -6)"><tspan x="58.76" y="218">Agile delivery and </tspan> <tspan x="89.128" y="233">governance</tspan></text><text fill="#444" font-size="7" transform="translate(-19 -6)"><tspan x="154" y="244">0</tspan></text></g></svg>