<svg width="330" height="179" viewBox="0 0 330 179" xmlns="http://www.w3.org/2000/svg"><title>&lt;767 Briefs by phase</title><g fill="none" fill-rule="evenodd"><text font-size="14" font-weight="bold" fill="#333" transform="translate(1)"><tspan x="0" y="67">16% </tspan>  <tspan x=".971" y="83.294" font-weight="normal">Pre-discovery</tspan></text><text font-size="14" font-weight="bold" fill="#333" transform="translate(1)"><tspan x="91.324" y="161">34%</tspan> <tspan x="120.89" y="161.294" font-weight="normal"> </tspan> <tspan x="75" y="177.294" font-weight="normal">Discovery</tspan></text><text font-size="14" font-weight="bold" fill="#333" transform="translate(1)"><tspan x="177.411" y="67">18%</tspan> <tspan x="206.977" y="67.294" font-weight="normal"> </tspan> <tspan x="174" y="83.294" font-weight="normal">Alpha</tspan></text><text font-size="14" font-weight="bold" fill="#333" transform="translate(1)"><tspan x="233" y="161">17%</tspan> <tspan x="262.565" y="161.294" font-weight="normal"> </tspan> <tspan x="233.441" y="177.294" font-weight="normal">Beta</tspan></text><text font-size="14" font-weight="bold" fill="#333" transform="translate(1)"><tspan x="274.565" y="67">5%</tspan> <tspan x="296.14" y="67.294" font-weight="normal"> </tspan> <tspan x="273" y="83.294" font-weight="normal">Live</tspan></text><text font-size="14" font-weight="bold" fill="#333" transform="translate(1)"><tspan x="290.736" y="161">10% </tspan>  <tspan x="287" y="177.294" font-weight="normal">Other</tspan></text><g transform="translate(25 88)" stroke="#224A61"><path d="M1.5 17.5V1.475" stroke-linecap="square"/><circle fill="#B9D6DC" cx="1.5" cy="1.5" r="1.5"/></g><g transform="matrix(1 0 0 -1 249 143)" stroke="#224A61"><path d="M1.5 1.5v16.025" stroke-linecap="square"/><circle fill="#B9D6DC" transform="rotate(180 1.5 1.5)" cx="1.5" cy="1.5" r="1.5"/></g><g transform="matrix(1 0 0 -1 106 143)" stroke="#224A61"><path d="M1.5 1.5v16.025" stroke-linecap="square"/><circle fill="#B9D6DC" transform="rotate(180 1.5 1.5)" cx="1.5" cy="1.5" r="1.5"/></g><g transform="matrix(1 0 0 -1 310 143)" stroke="#224A61"><path d="M1.5 1.5v16.025" stroke-linecap="square"/><circle fill="#B9D6DC" transform="rotate(180 1.5 1.5)" cx="1.5" cy="1.5" r="1.5"/></g><g transform="translate(192 88)" stroke="#224A61"><path d="M1.5 17.5V1.475" stroke-linecap="square"/><circle fill="#B9D6DC" cx="1.5" cy="1.5" r="1.5"/></g><g transform="translate(285 88)" stroke="#224A61"><path d="M1.5 17.5V1.475" stroke-linecap="square"/><circle fill="#B9D6DC" cx="1.5" cy="1.5" r="1.5"/></g><path fill="#FFF" d="M87 0h158v38H87z"/><path stroke="#FFF" stroke-width="2" fill="#F48834" d="M223 97h54.095v35.326H223z"/><path stroke="#FFF" stroke-width="2" fill="#59A94F" d="M277 97h18.032v35.326H277z"/><path stroke="#FFF" stroke-width="2" fill="#C52A72" d="M163 97h60.105v35.326H163z"/><path stroke="#FFF" stroke-width="2" fill="#912B87" d="M52 97h111.195v35.326H52z"/><path stroke="#FFF" stroke-width="2" fill="#D8D8D8" d="M295 97h33.058v35.326H295zM1 97h51.09v35.326H1z"/><text font-size="17" fill="#313131" transform="translate(1)"><tspan x="99" y="30">Briefs by phase</tspan></text></g></svg>