<svg xmlns="http://www.w3.org/2000/svg" width="328" height="74" viewBox="0 0 328 74"><g fill="none" fill-rule="evenodd"><path fill="#FFF" d="M36.2 8.016h3.882v5.554a12.45 12.45 0 0 1-1.844.438c-.625.099-1.349.148-2.172.148-1.729 0-3.075-.514-4.039-1.543-.963-1.028-1.445-2.47-1.445-4.324 0-1.187.238-2.228.715-3.121a4.835 4.835 0 0 1 2.058-2.047c.896-.471 1.946-.707 3.149-.707 1.219 0 2.354.224 3.406.672l-.515 1.172c-1.032-.438-2.024-.656-2.977-.656-1.39 0-2.477.414-3.258 1.242-.781.828-1.172 1.976-1.172 3.445 0 1.542.377 2.711 1.13 3.508.752.797 1.857 1.195 3.316 1.195.791 0 1.565-.091 2.32-.273V9.203h-2.555V8.016zM50.02 9.71c0 1.396-.352 2.486-1.055 3.27-.703.783-1.675 1.175-2.914 1.175-.766 0-1.446-.18-2.04-.539-.593-.36-1.051-.875-1.374-1.547-.323-.672-.485-1.458-.485-2.36 0-1.395.35-2.482 1.047-3.26.698-.78 1.667-1.169 2.906-1.169 1.198 0 2.15.399 2.856 1.196.706.796 1.059 1.875 1.059 3.234zm-6.524 0c0 1.094.219 1.927.656 2.5.438.573 1.081.86 1.93.86s1.494-.286 1.934-.856c.44-.57.66-1.405.66-2.504 0-1.089-.22-1.915-.66-2.48-.44-.566-1.09-.848-1.95-.848-.849 0-1.49.278-1.921.836-.433.557-.649 1.388-.649 2.492zM54.168 14l-3.25-8.563h1.39l1.844 5.079c.417 1.187.662 1.958.735 2.312h.062c.058-.276.238-.848.543-1.715.305-.867.988-2.759 2.051-5.675h1.39L55.684 14h-1.515zm9.758.156c-1.266 0-2.265-.385-2.996-1.156-.732-.77-1.098-1.841-1.098-3.21 0-1.381.34-2.477 1.02-3.29.68-.813 1.592-1.219 2.738-1.219 1.073 0 1.922.353 2.547 1.059.625.706.937 1.637.937 2.793v.82h-5.898c.026 1.005.28 1.768.761 2.29.482.52 1.16.78 2.036.78.922 0 1.833-.192 2.734-.578v1.157c-.458.197-.892.34-1.3.425a7.31 7.31 0 0 1-1.481.13zm-.352-7.789c-.687 0-1.235.224-1.644.672-.41.448-.65 1.068-.723 1.86h4.477c0-.818-.183-1.445-.547-1.88-.365-.434-.886-.652-1.563-.652zm9.617-1.086c.38 0 .722.031 1.024.094l-.18 1.203a4.418 4.418 0 0 0-.937-.117c-.693 0-1.285.281-1.778.844-.492.562-.738 1.263-.738 2.101V14h-1.297V5.437h1.07l.149 1.586h.062c.318-.557.7-.987 1.149-1.289.448-.302.94-.453 1.476-.453zM81.676 14V8.46c0-.697-.16-1.218-.477-1.562-.317-.343-.815-.515-1.492-.515-.896 0-1.552.242-1.969.726-.416.485-.625 1.284-.625 2.399V14h-1.297V5.437h1.055l.211 1.172h.063a2.648 2.648 0 0 1 1.117-.98 3.63 3.63 0 0 1 1.601-.348c1.032 0 1.808.249 2.328.746.521.498.782 1.293.782 2.387V14h-1.297zm14.875 0V8.43c0-.683-.146-1.194-.438-1.535-.291-.342-.745-.512-1.36-.512-.806 0-1.403.232-1.788.695-.386.464-.578 1.177-.578 2.14V14H91.09V8.43c0-.683-.146-1.194-.438-1.535-.291-.342-.747-.512-1.367-.512-.812 0-1.407.243-1.785.73-.378.487-.566 1.285-.566 2.395V14h-1.297V5.437h1.054l.211 1.172h.063c.245-.416.59-.742 1.035-.976a3.162 3.162 0 0 1 1.496-.352c1.339 0 2.214.485 2.625 1.453h.063a2.73 2.73 0 0 1 1.109-1.062c.484-.26 1.036-.39 1.656-.39.969 0 1.694.248 2.176.745.482.498.723 1.293.723 2.387V14H96.55zm7.586.156c-1.266 0-2.265-.385-2.996-1.156-.732-.77-1.098-1.841-1.098-3.21 0-1.381.34-2.477 1.02-3.29.68-.813 1.592-1.219 2.738-1.219 1.073 0 1.922.353 2.547 1.059.625.706.937 1.637.937 2.793v.82h-5.898c.026 1.005.28 1.768.761 2.29.482.52 1.16.78 2.036.78.921 0 1.833-.192 2.734-.578v1.157c-.458.197-.892.34-1.3.425a7.31 7.31 0 0 1-1.481.13zm-.352-7.789c-.687 0-1.236.224-1.644.672-.41.448-.65 1.068-.723 1.86h4.477c0-.818-.183-1.445-.547-1.88-.365-.434-.886-.652-1.563-.652zM115.355 14V8.46c0-.697-.158-1.218-.476-1.562-.318-.343-.815-.515-1.492-.515-.896 0-1.552.242-1.969.726-.417.485-.625 1.284-.625 2.399V14h-1.297V5.437h1.055l.21 1.172h.063a2.648 2.648 0 0 1 1.117-.98 3.63 3.63 0 0 1 1.602-.348c1.031 0 1.807.249 2.328.746.52.498.781 1.293.781 2.387V14h-1.297zm6.727-.914a4.615 4.615 0 0 0 1.172-.156v.992a2.37 2.37 0 0 1-.621.168c-.274.044-.52.066-.738.066-1.657 0-2.485-.872-2.485-2.617V6.445h-1.226V5.82l1.226-.539.547-1.828h.75v1.985h2.484v1.007h-2.484v5.04c0 .515.122.91.367 1.187.245.276.58.414 1.008.414zm14.031.914l-1.57-5.023c-.099-.308-.284-1.006-.555-2.094h-.062a28.64 28.64 0 0 1-.547 2.11L131.762 14h-1.5l-2.336-8.563h1.36l1.26 4.915c.29 1.125.455 1.882.497 2.273h.062c.058-.297.15-.681.278-1.152.127-.472.238-.845.332-1.121l1.57-4.915h1.406l1.532 4.915c.291.895.49 1.648.593 2.257h.063c.02-.187.077-.476.168-.867.091-.39.634-2.492 1.629-6.305h1.344L137.652 14h-1.539zm6.75 0h-1.297V5.437h1.297V14zm-1.406-10.883c0-.297.073-.514.219-.652a.764.764 0 0 1 .547-.207c.208 0 .388.07.539.21.15.141.226.358.226.65 0 .29-.075.508-.226.652a.757.757 0 0 1-.54.214.75.75 0 0 1-.546-.214c-.146-.144-.219-.361-.219-.653zM146.91 14h-1.297V1.844h1.297V14zm4.047 0h-1.297V1.844h1.297V14zm12.43-2.336c0 .797-.297 1.412-.89 1.844-.595.432-1.428.648-2.5.648-1.136 0-2.022-.18-2.657-.539v-1.203a6.45 6.45 0 0 0 1.324.492c.471.12.926.18 1.363.18.677 0 1.198-.108 1.563-.324.364-.216.547-.546.547-.989 0-.333-.145-.618-.434-.855-.289-.237-.853-.517-1.691-.84-.797-.297-1.364-.556-1.7-.777-.335-.222-.585-.473-.75-.754-.164-.281-.246-.617-.246-1.008 0-.698.284-1.249.852-1.652.568-.404 1.346-.606 2.336-.606.922 0 1.823.188 2.703.563l-.46 1.054c-.86-.354-1.639-.53-2.337-.53-.614 0-1.078.096-1.39.288-.313.193-.47.459-.47.797 0 .23.06.425.177.586.117.162.306.315.566.461.26.146.76.357 1.5.633 1.016.37 1.702.742 2.059 1.117.356.375.535.846.535 1.414zm5.726 2.492c-1.265 0-2.264-.385-2.996-1.156-.732-.77-1.097-1.841-1.097-3.21 0-1.381.34-2.477 1.02-3.29.679-.813 1.592-1.219 2.737-1.219 1.073 0 1.922.353 2.547 1.059.625.706.938 1.637.938 2.793v.82h-5.899c.026 1.005.28 1.768.762 2.29.482.52 1.16.78 2.035.78.922 0 1.833-.192 2.735-.578v1.157a6.87 6.87 0 0 1-1.301.425 7.31 7.31 0 0 1-1.48.13zm-.351-7.789c-.688 0-1.236.224-1.645.672-.409.448-.65 1.068-.722 1.86h4.476c0-.818-.182-1.445-.547-1.88-.364-.434-.885-.652-1.562-.652zm8.476 6.719a4.615 4.615 0 0 0 1.172-.156v.992a2.37 2.37 0 0 1-.62.168c-.274.044-.52.066-.74.066-1.655 0-2.484-.872-2.484-2.617V6.445h-1.226V5.82l1.226-.539.547-1.828h.75v1.985h2.485v1.007h-2.485v5.04c0 .515.123.91.367 1.187.245.276.581.414 1.008.414zm12.305.914l-.258-1.219h-.062c-.427.537-.853.9-1.278 1.09-.424.19-.954.285-1.59.285-.848 0-1.514-.218-1.996-.656-.481-.438-.722-1.06-.722-1.867 0-1.73 1.383-2.636 4.148-2.719l1.453-.047v-.531c0-.672-.144-1.168-.433-1.488-.29-.32-.752-.48-1.387-.48-.714 0-1.52.218-2.422.655l-.398-.992a6.1 6.1 0 0 1 1.386-.539 6.006 6.006 0 0 1 1.512-.195c1.02 0 1.777.226 2.27.68.492.453.738 1.18.738 2.18V14h-.961zm-2.93-.914c.808 0 1.442-.221 1.903-.664.46-.443.691-1.063.691-1.86V9.79l-1.297.055c-1.031.036-1.775.196-2.23.48-.456.284-.684.725-.684 1.324 0 .47.142.826.426 1.07.284.246.68.368 1.191.368zm13.485 0a4.667 4.667 0 0 0 1.172-.156v.992a2.37 2.37 0 0 1-.622.168c-.273.044-.52.066-.738.066-1.656 0-2.484-.872-2.484-2.617V6.445h-1.227V5.82l1.227-.539.547-1.828h.75v1.985h2.484v1.007h-2.484v5.04c0 .515.122.91.367 1.187.245.276.58.414 1.008.414zm8.148.914l-.258-1.219h-.062c-.427.537-.853.9-1.278 1.09-.424.19-.954.285-1.59.285-.848 0-1.514-.218-1.995-.656-.482-.438-.723-1.06-.723-1.867 0-1.73 1.383-2.636 4.148-2.719l1.453-.047v-.531c0-.672-.144-1.168-.433-1.488-.29-.32-.751-.48-1.387-.48-.713 0-1.52.218-2.422.655l-.398-.992a6.09 6.09 0 0 1 1.387-.539 6.006 6.006 0 0 1 1.511-.195c1.021 0 1.778.226 2.27.68.492.453.738 1.18.738 2.18V14h-.96zm-2.93-.914c.808 0 1.442-.221 1.903-.664.46-.443.691-1.063.691-1.86V9.79l-1.297.055c-1.031.036-1.774.196-2.23.48-.456.284-.684.725-.684 1.324 0 .47.142.826.426 1.07.284.246.681.368 1.191.368zm10.47-7.805c.38 0 .72.031 1.023.094l-.18 1.203a4.418 4.418 0 0 0-.938-.117c-.692 0-1.285.281-1.777.844-.492.562-.738 1.263-.738 2.101V14h-1.297V5.437h1.07l.149 1.586h.062c.318-.557.7-.987 1.149-1.289.448-.302.94-.453 1.476-.453zm9.632.157v.82l-1.586.187c.146.183.276.42.39.715.115.294.173.626.173.996 0 .839-.287 1.508-.86 2.008s-1.36.75-2.36.75c-.254 0-.494-.02-.718-.062-.552.291-.828.658-.828 1.101a.56.56 0 0 0 .289.52c.193.112.523.168.992.168h1.516c.927 0 1.64.195 2.137.586.497.39.746.958.746 1.703 0 .948-.38 1.67-1.141 2.168-.76.497-1.87.746-3.328.746-1.12 0-1.983-.209-2.59-.625-.607-.417-.91-1.005-.91-1.766 0-.52.167-.971.5-1.351.333-.38.802-.638 1.406-.774a1.357 1.357 0 0 1-.55-.46 1.22 1.22 0 0 1-.223-.727c0-.313.083-.586.25-.82.166-.235.43-.462.789-.68a2.313 2.313 0 0 1-1.082-.93 2.732 2.732 0 0 1-.418-1.5c0-.938.281-1.66.843-2.168.563-.508 1.36-.762 2.391-.762.448 0 .852.052 1.211.157h2.961zm-6.828 10c0 .463.195.815.586 1.054.39.24.95.36 1.68.36 1.088 0 1.894-.163 2.417-.489.524-.325.786-.767.786-1.324 0-.463-.144-.785-.43-.965-.287-.18-.826-.27-1.617-.27h-1.555c-.589 0-1.047.141-1.375.423-.328.28-.492.684-.492 1.21zm.703-7.258c0 .599.17 1.052.508 1.36.338.306.81.46 1.414.46 1.265 0 1.898-.615 1.898-1.844 0-1.286-.64-1.93-1.922-1.93-.609 0-1.078.165-1.406.493-.328.328-.492.815-.492 1.46zm11.5 5.976c-1.266 0-2.264-.385-2.996-1.156-.732-.77-1.098-1.841-1.098-3.21 0-1.381.34-2.477 1.02-3.29.68-.813 1.592-1.219 2.738-1.219 1.073 0 1.922.353 2.547 1.059.625.706.937 1.637.937 2.793v.82h-5.898c.026 1.005.28 1.768.762 2.29.481.52 1.16.78 2.035.78.922 0 1.833-.192 2.734-.578v1.157c-.458.197-.892.34-1.3.425a7.31 7.31 0 0 1-1.481.13zm-.352-7.789c-.687 0-1.235.224-1.644.672-.409.448-.65 1.068-.723 1.86h4.477c0-.818-.183-1.445-.547-1.88-.365-.434-.886-.652-1.563-.652zm8.477 6.719a4.615 4.615 0 0 0 1.172-.156v.992a2.37 2.37 0 0 1-.621.168c-.274.044-.52.066-.739.066-1.656 0-2.484-.872-2.484-2.617V6.445h-1.226V5.82l1.226-.539.547-1.828h.75v1.985h2.484v1.007h-2.484v5.04c0 .515.122.91.367 1.187.245.276.58.414 1.008.414zm9.805 0a4.667 4.667 0 0 0 1.172-.156v.992a2.37 2.37 0 0 1-.622.168c-.273.044-.52.066-.738.066-1.656 0-2.484-.872-2.484-2.617V6.445h-1.227V5.82l1.227-.539.547-1.828h.75v1.985h2.484v1.007h-2.484v5.04c0 .515.122.91.367 1.187.245.276.58.414 1.008.414zm10.273-3.375c0 1.396-.351 2.486-1.055 3.27-.703.783-1.674 1.175-2.914 1.175-.765 0-1.445-.18-2.039-.539-.593-.36-1.052-.875-1.375-1.547-.323-.672-.484-1.458-.484-2.36 0-1.395.349-2.482 1.047-3.26.698-.78 1.666-1.169 2.906-1.169 1.198 0 2.15.399 2.856 1.196.705.796 1.058 1.875 1.058 3.234zm-6.523 0c0 1.094.218 1.927.656 2.5.437.573 1.08.86 1.93.86.849 0 1.493-.286 1.933-.856.44-.57.66-1.405.66-2.504 0-1.089-.22-1.915-.66-2.48-.44-.566-1.09-.848-1.949-.848-.849 0-1.49.278-1.922.836-.432.557-.648 1.388-.648 2.492zM30.753 31.008c0-.776.433-1.164 1.298-1.164.864 0 1.297.388 1.297 1.164 0 .37-.108.657-.325.863-.216.206-.54.309-.972.309-.865 0-1.297-.39-1.297-1.172zM33.239 42h-2.383v-8.734h2.383V42zm10.563 0h-2.383v-5.102c0-.63-.112-1.102-.336-1.418-.224-.315-.58-.472-1.07-.472-.667 0-1.149.222-1.446.668-.296.445-.445 1.183-.445 2.215V42h-2.383v-8.734h1.82l.32 1.117h.134a2.512 2.512 0 0 1 1.097-.957c.467-.216.996-.324 1.59-.324 1.016 0 1.787.274 2.313.824.526.55.789 1.342.789 2.379V42zm6 .156c-2.719 0-4.078-1.492-4.078-4.476 0-1.485.37-2.619 1.109-3.403.74-.784 1.8-1.175 3.18-1.175 1.01 0 1.916.197 2.718.593l-.703 1.844a12.025 12.025 0 0 0-1.047-.371 3.373 3.373 0 0 0-.968-.145c-1.24 0-1.86.88-1.86 2.641 0 1.708.62 2.563 1.86 2.563a4.24 4.24 0 0 0 1.273-.184c.39-.122.781-.314 1.172-.574v2.039a3.84 3.84 0 0 1-1.168.508c-.393.093-.89.14-1.488.14zm9.554-9.054c.323 0 .592.023.805.07l-.18 2.234a2.73 2.73 0 0 0-.703-.078c-.76 0-1.353.195-1.777.586-.424.39-.637.938-.637 1.64V42H54.48v-8.734h1.805l.352 1.468h.117c.27-.49.637-.884 1.098-1.183a2.7 2.7 0 0 1 1.503-.45zm6.008 1.695c-.505 0-.9.16-1.187.48-.287.32-.45.775-.492 1.364h3.343c-.01-.589-.164-1.043-.46-1.364-.297-.32-.699-.48-1.204-.48zm.336 7.36c-1.406 0-2.505-.389-3.297-1.165-.791-.776-1.187-1.875-1.187-3.297 0-1.463.366-2.595 1.097-3.394.732-.8 1.744-1.2 3.036-1.2 1.234 0 2.195.352 2.882 1.055.688.703 1.032 1.675 1.032 2.914v1.157H63.63c.026.677.226 1.205.601 1.586.375.38.902.57 1.579.57.526 0 1.023-.055 1.492-.164.469-.11.958-.284 1.469-.524v1.844a5.595 5.595 0 0 1-1.336.465c-.474.101-1.052.152-1.735.152zM76.746 42l-.46-1.188h-.063c-.401.506-.814.856-1.239 1.051-.424.196-.977.293-1.66.293-.838 0-1.498-.24-1.98-.718-.482-.48-.723-1.162-.723-2.047 0-.927.324-1.611.973-2.051.648-.44 1.626-.684 2.933-.73l1.516-.047v-.383c0-.886-.453-1.328-1.36-1.328-.697 0-1.518.21-2.46.632l-.79-1.609c1.006-.526 2.12-.79 3.344-.79 1.172 0 2.07.256 2.696.767.625.51.937 1.286.937 2.328V42h-1.664zm-.703-4.047l-.922.031c-.693.021-1.208.146-1.547.375-.338.23-.508.578-.508 1.047 0 .672.386 1.008 1.157 1.008.552 0 .993-.159 1.324-.477.33-.317.496-.74.496-1.265v-.719zm10.914 1.453c0 .896-.311 1.578-.934 2.047-.622.469-1.553.703-2.793.703a8.772 8.772 0 0 1-1.625-.129 6.146 6.146 0 0 1-1.257-.379V39.68c.442.208.941.382 1.496.523.554.14 1.043.211 1.465.211.864 0 1.296-.25 1.296-.75a.626.626 0 0 0-.171-.457c-.115-.117-.313-.25-.594-.398a14.996 14.996 0 0 0-1.125-.52c-.672-.281-1.166-.542-1.48-.781a2.2 2.2 0 0 1-.688-.824c-.143-.31-.215-.692-.215-1.145 0-.776.3-1.376.902-1.8.602-.425 1.455-.637 2.559-.637 1.052 0 2.075.229 3.07.687l-.718 1.719a13.222 13.222 0 0 0-1.227-.461c-.38-.12-.768-.18-1.164-.18-.703 0-1.055.19-1.055.57 0 .214.113.399.34.555.227.156.723.388 1.488.696.683.276 1.183.533 1.5.773.318.24.552.516.703.828.152.313.227.685.227 1.117zm5.477-4.61c-.506 0-.901.161-1.188.481-.286.32-.45.775-.492 1.364h3.344c-.01-.589-.164-1.043-.461-1.364-.297-.32-.698-.48-1.203-.48zm.336 7.36c-1.407 0-2.506-.388-3.297-1.164-.792-.776-1.188-1.875-1.188-3.297 0-1.463.366-2.595 1.098-3.394.732-.8 1.743-1.2 3.035-1.2 1.234 0 2.195.352 2.883 1.055.687.703 1.031 1.675 1.031 2.914v1.157h-5.633c.026.677.227 1.205.602 1.586.375.38.9.57 1.578.57.526 0 1.023-.055 1.492-.164.469-.11.958-.284 1.469-.524v1.844a5.595 5.595 0 0 1-1.336.465c-.474.101-1.052.152-1.734.152zm14.515-9.054c1.031 0 1.839.402 2.422 1.207.583.804.875 1.907.875 3.308 0 1.443-.3 2.56-.902 3.352-.602.791-1.42 1.187-2.457 1.187-1.026 0-1.831-.372-2.414-1.117h-.164l-.399.961h-1.82V29.844h2.383v2.828c0 .36-.032.935-.094 1.726h.094c.557-.864 1.382-1.296 2.476-1.296zm-.765 1.906c-.589 0-1.019.18-1.29.543-.27.362-.411.96-.421 1.793v.258c0 .937.139 1.609.418 2.015.278.406.72.61 1.324.61.49 0 .879-.226 1.168-.676.289-.45.433-1.106.433-1.965 0-.86-.145-1.504-.437-1.934-.292-.43-.69-.644-1.195-.644zm4.78-1.742h2.61l1.649 4.914c.14.427.237.932.289 1.515h.047a6.718 6.718 0 0 1 .335-1.515l1.618-4.914h2.554l-3.695 9.851c-.339.912-.822 1.594-1.45 2.047-.627.453-1.36.68-2.198.68a5.53 5.53 0 0 1-1.211-.133v-1.89c.286.067.599.1.937.1.422 0 .79-.128 1.106-.386.315-.258.56-.647.738-1.168l.14-.43-3.468-8.671zM131.169 42h-2.414v-6.61l.023-1.085.04-1.188a12.7 12.7 0 0 1-.837.79l-1.312 1.054-1.164-1.453 3.68-2.93h1.984V42zm11.086-5.71c0 1.994-.327 3.47-.98 4.429-.654.958-1.66 1.437-3.02 1.437-1.318 0-2.311-.495-2.98-1.484-.67-.99-1.004-2.45-1.004-4.383 0-2.016.325-3.501.976-4.457s1.654-1.434 3.008-1.434c1.318 0 2.314.5 2.988 1.5.675 1 1.012 2.464 1.012 4.391zm-5.586 0c0 1.4.121 2.404.363 3.01.242.608.65.91 1.223.91.562 0 .969-.306 1.219-.92.25-.616.375-1.616.375-3 0-1.402-.127-2.408-.38-3.02-.252-.612-.657-.918-1.214-.918-.568 0-.974.306-1.219.918-.245.612-.367 1.618-.367 3.02zm8.617-2.29c0 .661.059 1.155.176 1.48.117.326.306.489.566.489.5 0 .75-.656.75-1.969 0-1.302-.25-1.953-.75-1.953-.26 0-.449.16-.566.48-.117.32-.176.812-.176 1.473zm3.461-.016c0 1.198-.232 2.098-.695 2.7-.464.601-1.143.902-2.04.902-.859 0-1.523-.309-1.991-.926-.47-.617-.704-1.509-.704-2.676 0-2.38.899-3.57 2.696-3.57.88 0 1.556.309 2.027.926.471.617.707 1.499.707 2.644zm5.375-3.406L147.785 42h-1.875l6.336-11.422h1.875zm-.836 7.985c0 .661.059 1.154.176 1.48.117.325.306.488.566.488.5 0 .75-.656.75-1.968 0-1.303-.25-1.954-.75-1.954-.26 0-.449.16-.566.48-.117.321-.176.812-.176 1.474zm3.461-.016c0 1.193-.232 2.09-.695 2.691-.464.602-1.143.903-2.04.903-.859 0-1.523-.309-1.991-.926-.47-.617-.704-1.507-.704-2.668 0-2.38.899-3.57 2.696-3.57.88 0 1.556.308 2.027.925.471.618.707 1.499.707 2.645zm8.79 2.539a4.615 4.615 0 0 0 1.171-.156v.992a2.37 2.37 0 0 1-.621.168c-.274.044-.52.066-.738.066-1.657 0-2.485-.872-2.485-2.617v-5.094h-1.226v-.625l1.226-.539.547-1.828h.75v1.985h2.485v1.007h-2.485v5.04c0 .515.123.91.367 1.187.245.276.581.414 1.008.414zm8.741.914v-5.54c0-.697-.159-1.218-.476-1.562-.318-.343-.815-.515-1.492-.515-.901 0-1.559.245-1.973.734-.414.49-.621 1.292-.621 2.406V42h-1.297V29.844h1.297v3.68c0 .442-.021.81-.063 1.101h.078a2.645 2.645 0 0 1 1.09-.973c.472-.237 1.01-.355 1.614-.355 1.046 0 1.832.249 2.355.746.524.497.785 1.288.785 2.371V42h-1.297zm7.578.156c-1.265 0-2.264-.385-2.996-1.156-.731-.77-1.097-1.841-1.097-3.21 0-1.381.34-2.477 1.02-3.29.679-.813 1.592-1.219 2.738-1.219 1.072 0 1.921.353 2.546 1.059.625.706.938 1.637.938 2.793v.82h-5.899c.027 1.005.28 1.768.762 2.29.482.52 1.16.78 2.035.78.922 0 1.834-.192 2.735-.578v1.157a6.87 6.87 0 0 1-1.301.425 7.31 7.31 0 0 1-1.48.13zm-.351-7.789c-.688 0-1.236.224-1.645.672-.408.448-.65 1.068-.722 1.86h4.476c0-.818-.182-1.445-.547-1.88-.364-.434-.885-.652-1.562-.652zm16.508 4.594c0 1.005-.365 1.789-1.094 2.352-.73.562-1.719.843-2.969.843-1.354 0-2.396-.174-3.125-.523v-1.281c.469.197.98.354 1.531.468a8.056 8.056 0 0 0 1.641.172c.886 0 1.552-.168 2-.504.448-.336.672-.803.672-1.402 0-.396-.08-.72-.238-.973-.16-.252-.425-.485-.797-.699-.373-.213-.939-.456-1.7-.727-1.062-.38-1.821-.83-2.277-1.351-.455-.52-.683-1.2-.683-2.04 0-.88.33-1.58.992-2.1.661-.522 1.536-.782 2.625-.782 1.135 0 2.18.208 3.133.625l-.414 1.156c-.943-.396-1.86-.593-2.75-.593-.704 0-1.253.15-1.649.453-.396.302-.594.721-.594 1.258 0 .395.073.72.22.972.145.253.391.485.737.695.347.211.877.444 1.59.7 1.198.427 2.022.885 2.473 1.375.45.49.676 1.125.676 1.906zm7.39 3.039l-3.875-10.125h-.062c.073.802.11 1.755.11 2.86V42h-1.227V30.578h2L205.965 40h.062l3.649-9.422h1.984V42h-1.328v-7.36c0-.843.036-1.76.11-2.75h-.063L206.473 42h-1.07zm15.758 0h-6.367V30.578h6.367v1.18h-5.039v3.68h4.734v1.171h-4.734v4.203h5.04V42zm12.016-2.336c0 .797-.297 1.412-.89 1.844-.595.432-1.428.648-2.5.648-1.136 0-2.022-.18-2.657-.539v-1.203a6.45 6.45 0 0 0 1.324.492c.471.12.926.18 1.363.18.677 0 1.198-.108 1.563-.324.364-.216.547-.546.547-.989 0-.333-.145-.618-.434-.855-.289-.237-.853-.517-1.691-.84-.797-.297-1.363-.556-1.7-.777-.335-.222-.585-.473-.75-.754-.164-.281-.246-.617-.246-1.008 0-.698.284-1.249.852-1.652.568-.404 1.346-.606 2.336-.606.922 0 1.823.188 2.703.563l-.46 1.054c-.86-.354-1.639-.53-2.337-.53-.614 0-1.078.096-1.39.288-.313.193-.47.459-.47.797 0 .23.06.425.177.586.117.162.306.315.566.461.26.146.76.357 1.5.633 1.016.37 1.702.742 2.059 1.117.356.375.535.846.535 1.414zM241.145 42v-5.54c0-.697-.16-1.218-.477-1.562-.318-.343-.815-.515-1.492-.515-.901 0-1.559.245-1.973.734-.414.49-.621 1.292-.621 2.406V42h-1.297V29.844h1.297v3.68c0 .442-.02.81-.062 1.101h.078a2.645 2.645 0 0 1 1.09-.973c.47-.237 1.009-.355 1.613-.355 1.047 0 1.832.249 2.355.746.524.497.785 1.288.785 2.371V42h-1.296zm9.226 0l-.258-1.219h-.062c-.427.537-.853.9-1.278 1.09-.424.19-.954.285-1.59.285-.848 0-1.514-.218-1.995-.656-.482-.438-.723-1.06-.723-1.867 0-1.73 1.383-2.636 4.148-2.719l1.453-.047v-.531c0-.672-.144-1.168-.433-1.488-.29-.32-.751-.48-1.387-.48-.713 0-1.52.218-2.422.655l-.398-.992a6.09 6.09 0 0 1 1.387-.539 6.006 6.006 0 0 1 1.511-.195c1.021 0 1.778.226 2.27.68.492.453.738 1.18.738 2.18V42h-.96zm-2.93-.914c.808 0 1.442-.221 1.903-.664.46-.443.691-1.063.691-1.86v-.773l-1.297.055c-1.031.036-1.774.196-2.23.48-.456.284-.684.725-.684 1.324 0 .47.142.826.426 1.07.284.246.681.368 1.191.368zm10.47-7.805c.38 0 .72.031 1.023.094l-.18 1.203a4.418 4.418 0 0 0-.938-.117c-.692 0-1.285.281-1.777.844-.492.562-.738 1.263-.738 2.101V42h-1.297v-8.563h1.07l.149 1.586h.062c.318-.557.7-.987 1.149-1.289.448-.302.94-.453 1.476-.453zm6.241 8.875c-1.265 0-2.264-.385-2.996-1.156-.732-.77-1.097-1.841-1.097-3.21 0-1.381.34-2.477 1.02-3.29.679-.813 1.592-1.219 2.737-1.219 1.073 0 1.922.353 2.547 1.059.625.706.938 1.637.938 2.793v.82h-5.899c.026 1.005.28 1.768.762 2.29.482.52 1.16.78 2.035.78.922 0 1.834-.192 2.735-.578v1.157a6.87 6.87 0 0 1-1.301.425 7.31 7.31 0 0 1-1.48.13zm-.351-7.789c-.688 0-1.236.224-1.645.672-.409.448-.65 1.068-.722 1.86h4.476c0-.818-.182-1.445-.547-1.88-.364-.434-.885-.652-1.562-.652zm17.258 3.344c0 1.396-.352 2.486-1.055 3.27-.703.783-1.675 1.175-2.914 1.175-.766 0-1.445-.18-2.04-.539-.593-.36-1.051-.875-1.374-1.547-.323-.672-.485-1.458-.485-2.36 0-1.395.35-2.482 1.047-3.26.698-.78 1.667-1.169 2.907-1.169 1.197 0 2.15.399 2.855 1.196.706.796 1.059 1.875 1.059 3.234zm-6.524 0c0 1.094.219 1.927.656 2.5.438.573 1.081.86 1.93.86.85 0 1.494-.286 1.934-.856.44-.57.66-1.405.66-2.504 0-1.089-.22-1.915-.66-2.48-.44-.566-1.09-.848-1.95-.848-.848 0-1.49.278-1.921.836-.433.557-.649 1.388-.649 2.492zm12.656-3.266h-2.18V42h-1.296v-7.555h-1.531v-.586l1.53-.468v-.477c0-2.104.92-3.156 2.759-3.156.453 0 .984.091 1.593.273l-.336 1.04c-.5-.162-.927-.243-1.28-.243-.49 0-.852.163-1.087.488-.234.326-.351.848-.351 1.567v.554h2.18v1.008zM36.2 64.015h3.883v5.555a12.45 12.45 0 0 1-1.844.438c-.625.099-1.349.148-2.172.148-1.729 0-3.075-.514-4.039-1.543-.963-1.028-1.445-2.47-1.445-4.324 0-1.187.238-2.228.715-3.121a4.835 4.835 0 0 1 2.058-2.047c.896-.471 1.946-.707 3.149-.707 1.219 0 2.354.224 3.406.672l-.515 1.172c-1.032-.438-2.024-.656-2.977-.656-1.39 0-2.477.414-3.258 1.242-.781.828-1.172 1.976-1.172 3.445 0 1.542.377 2.711 1.13 3.508.752.797 1.857 1.195 3.316 1.195.791 0 1.565-.091 2.32-.273v-3.516H36.2v-1.187zm13.82 1.696c0 1.396-.351 2.486-1.054 3.27-.703.783-1.675 1.175-2.914 1.175-.766 0-1.446-.18-2.04-.539-.593-.36-1.051-.875-1.374-1.547-.323-.672-.485-1.458-.485-2.36 0-1.395.35-2.482 1.047-3.26.698-.78 1.667-1.169 2.906-1.169 1.198 0 2.15.399 2.856 1.196.706.796 1.059 1.875 1.059 3.234zm-6.523 0c0 1.094.219 1.927.656 2.5.438.573 1.081.86 1.93.86s1.494-.286 1.934-.856c.44-.57.66-1.405.66-2.504 0-1.089-.22-1.915-.66-2.48-.44-.566-1.09-.848-1.95-.848-.849 0-1.49.278-1.921.836-.433.557-.649 1.388-.649 2.492zM54.168 70l-3.25-8.563h1.39l1.844 5.079c.417 1.187.662 1.958.735 2.312h.062c.058-.276.238-.848.543-1.715.305-.867.988-2.759 2.051-5.675h1.39L55.684 70h-1.515zm9.758.156c-1.266 0-2.265-.385-2.996-1.156-.732-.77-1.098-1.841-1.098-3.21 0-1.381.34-2.477 1.02-3.29.68-.813 1.592-1.219 2.738-1.219 1.073 0 1.922.353 2.547 1.059.625.706.937 1.637.937 2.793v.82h-5.898c.026 1.005.28 1.768.761 2.29.482.52 1.16.78 2.036.78.922 0 1.833-.192 2.734-.578v1.157c-.458.197-.892.34-1.3.425a7.31 7.31 0 0 1-1.481.13zm-.352-7.789c-.687 0-1.235.224-1.644.672-.41.448-.65 1.068-.723 1.86h4.477c0-.818-.183-1.445-.547-1.88-.365-.434-.886-.652-1.563-.652zm9.617-1.086c.38 0 .722.031 1.024.094l-.18 1.203a4.418 4.418 0 0 0-.937-.117c-.693 0-1.285.281-1.778.844-.492.562-.738 1.263-.738 2.101V70h-1.297v-8.563h1.07l.149 1.586h.062c.318-.557.7-.987 1.149-1.289.448-.302.94-.453 1.476-.453zM81.676 70v-5.54c0-.697-.16-1.218-.477-1.562-.317-.343-.815-.515-1.492-.515-.896 0-1.552.242-1.969.726-.416.485-.625 1.284-.625 2.399V70h-1.297v-8.563h1.055l.211 1.172h.063a2.648 2.648 0 0 1 1.117-.98 3.63 3.63 0 0 1 1.601-.348c1.032 0 1.808.249 2.328.746.521.498.782 1.293.782 2.387V70h-1.297zm14.875 0v-5.57c0-.683-.146-1.194-.438-1.535-.291-.342-.745-.512-1.36-.512-.806 0-1.403.232-1.788.695-.386.464-.578 1.177-.578 2.14V70H91.09v-5.57c0-.683-.146-1.194-.438-1.535-.291-.342-.747-.512-1.367-.512-.812 0-1.407.243-1.785.73-.378.487-.566 1.285-.566 2.395V70h-1.297v-8.563h1.054l.211 1.172h.063c.245-.416.59-.742 1.035-.976a3.162 3.162 0 0 1 1.496-.352c1.339 0 2.214.485 2.625 1.453h.063a2.73 2.73 0 0 1 1.109-1.062c.484-.26 1.036-.39 1.656-.39.969 0 1.694.248 2.176.745.482.498.723 1.293.723 2.387V70H96.55zm7.586.156c-1.266 0-2.265-.385-2.996-1.156-.732-.77-1.098-1.841-1.098-3.21 0-1.381.34-2.477 1.02-3.29.68-.813 1.592-1.219 2.738-1.219 1.073 0 1.922.353 2.547 1.059.625.706.937 1.637.937 2.793v.82h-5.898c.026 1.005.28 1.768.761 2.29.482.52 1.16.78 2.036.78.921 0 1.833-.192 2.734-.578v1.157c-.458.197-.892.34-1.3.425a7.31 7.31 0 0 1-1.481.13zm-.352-7.789c-.687 0-1.236.224-1.644.672-.41.448-.65 1.068-.723 1.86h4.477c0-.818-.183-1.445-.547-1.88-.365-.434-.886-.652-1.563-.652zM115.355 70v-5.54c0-.697-.158-1.218-.476-1.562-.318-.343-.815-.515-1.492-.515-.896 0-1.552.242-1.969.726-.417.485-.625 1.284-.625 2.399V70h-1.297v-8.563h1.055l.21 1.172h.063a2.648 2.648 0 0 1 1.117-.98 3.63 3.63 0 0 1 1.602-.348c1.031 0 1.807.249 2.328.746.52.498.781 1.293.781 2.387V70h-1.297zm6.727-.914a4.615 4.615 0 0 0 1.172-.156v.992a2.37 2.37 0 0 1-.621.168c-.274.044-.52.066-.738.066-1.657 0-2.485-.872-2.485-2.617v-5.094h-1.226v-.625l1.226-.539.547-1.828h.75v1.984h2.484v1.008h-2.484v5.04c0 .515.122.91.367 1.187.245.276.58.414 1.008.414zm3.922-10.508l.117.172c-.135.52-.33 1.126-.586 1.816-.255.69-.52 1.332-.797 1.926h-.953c.365-1.484.63-2.789.797-3.914h1.422zm7.203 9.086c0 .797-.297 1.412-.89 1.844-.594.432-1.428.648-2.5.648-1.136 0-2.021-.18-2.657-.539v-1.203c.412.208.853.372 1.324.492.472.12.926.18 1.364.18.677 0 1.198-.108 1.562-.324.365-.216.547-.546.547-.989 0-.333-.144-.618-.434-.855-.289-.237-.852-.517-1.691-.84-.797-.297-1.363-.556-1.7-.777-.335-.222-.585-.473-.75-.754-.163-.281-.245-.617-.245-1.008 0-.698.284-1.249.851-1.652.568-.404 1.347-.606 2.336-.606.922 0 1.823.188 2.703.563l-.46 1.054c-.86-.354-1.639-.53-2.337-.53-.614 0-1.078.096-1.39.288-.313.193-.469.459-.469.797 0 .23.059.425.176.586.117.162.306.315.566.461.26.146.76.357 1.5.633 1.016.37 1.702.742 2.059 1.117.357.375.535.846.535 1.414zM144.738 70l-.258-1.219h-.062c-.427.537-.853.9-1.277 1.09-.425.19-.955.285-1.59.285-.85 0-1.515-.218-1.996-.656-.482-.438-.723-1.06-.723-1.867 0-1.73 1.383-2.636 4.148-2.719l1.454-.047v-.531c0-.672-.145-1.168-.434-1.488-.29-.32-.751-.48-1.387-.48-.713 0-1.52.218-2.422.655l-.398-.992a6.09 6.09 0 0 1 1.387-.539 6.006 6.006 0 0 1 1.511-.195c1.021 0 1.778.226 2.27.68.492.453.738 1.18.738 2.18V70h-.96zm-2.93-.914c.808 0 1.442-.221 1.903-.664.46-.443.691-1.063.691-1.86v-.773l-1.297.055c-1.03.036-1.774.196-2.23.48-.456.284-.684.725-.684 1.324 0 .47.142.826.426 1.07.284.246.681.368 1.192.368zM154.23 70v-5.54c0-.697-.158-1.218-.476-1.562-.318-.343-.815-.515-1.492-.515-.896 0-1.552.242-1.969.726-.417.485-.625 1.284-.625 2.399V70h-1.297v-8.563h1.055l.21 1.172h.063a2.648 2.648 0 0 1 1.117-.98 3.63 3.63 0 0 1 1.602-.348c1.031 0 1.807.249 2.328.746.52.498.781 1.293.781 2.387V70h-1.297zm9.82 0v-5.54c0-.697-.158-1.218-.476-1.562-.317-.343-.815-.515-1.492-.515-.896 0-1.552.242-1.969.726-.416.485-.625 1.284-.625 2.399V70h-1.297v-8.563h1.055l.211 1.172h.063a2.648 2.648 0 0 1 1.117-.98 3.63 3.63 0 0 1 1.601-.348c1.032 0 1.808.249 2.328.746.521.498.782 1.293.782 2.387V70h-1.297zm5.18-8.563v5.555c0 .698.16 1.219.477 1.563.318.343.815.515 1.492.515.896 0 1.551-.244 1.965-.734.414-.49.621-1.29.621-2.398v-4.5h1.297V70h-1.07l-.188-1.148h-.07a2.585 2.585 0 0 1-1.106.968c-.47.224-1.009.336-1.613.336-1.042 0-1.821-.247-2.34-.742-.518-.495-.777-1.286-.777-2.375v-5.602h1.312zM183.098 70l-.258-1.219h-.063c-.427.537-.853.9-1.277 1.09-.424.19-.954.285-1.59.285-.849 0-1.514-.218-1.996-.656-.482-.438-.723-1.06-.723-1.867 0-1.73 1.383-2.636 4.149-2.719l1.453-.047v-.531c0-.672-.145-1.168-.434-1.488-.289-.32-.75-.48-1.386-.48-.714 0-1.521.218-2.422.655l-.399-.992a6.09 6.09 0 0 1 1.387-.539 6.006 6.006 0 0 1 1.512-.195c1.02 0 1.777.226 2.27.68.492.453.738 1.18.738 2.18V70h-.961zm-2.93-.914c.807 0 1.441-.221 1.902-.664.461-.443.692-1.063.692-1.86v-.773l-1.297.055c-1.031.036-1.775.196-2.23.48-.456.284-.684.725-.684 1.324 0 .47.142.826.426 1.07.283.246.68.368 1.191.368zm7.86.914h-1.298V57.844h1.297V70zm7.1 0V58.578h1.329V70h-1.328zm9.352-10.398c-1.255 0-2.246.418-2.972 1.253-.727.836-1.09 1.98-1.09 3.434 0 1.495.35 2.65 1.05 3.465.701.815 1.7 1.223 2.997 1.223.797 0 1.706-.144 2.726-.43v1.164c-.791.297-1.768.445-2.93.445-1.682 0-2.98-.51-3.894-1.531-.914-1.02-1.37-2.471-1.37-4.352 0-1.177.22-2.208.66-3.093a4.74 4.74 0 0 1 1.905-2.047c.831-.48 1.81-.719 2.934-.719 1.198 0 2.245.219 3.14.656l-.562 1.14c-.864-.405-1.729-.608-2.594-.608zM213.2 70h-1.329V59.758h-3.617v-1.18h8.562v1.18H213.2V70zm14.82-2.336c0 .797-.297 1.412-.891 1.844-.594.432-1.427.648-2.5.648-1.136 0-2.02-.18-2.656-.539v-1.203a6.45 6.45 0 0 0 1.324.492c.471.12.926.18 1.363.18.677 0 1.198-.108 1.563-.324.364-.216.547-.546.547-.989 0-.333-.145-.618-.434-.855-.29-.237-.853-.517-1.691-.84-.797-.297-1.364-.556-1.7-.777-.336-.222-.586-.473-.75-.754-.164-.281-.246-.617-.246-1.008 0-.698.284-1.249.852-1.652.567-.404 1.346-.606 2.336-.606.922 0 1.823.188 2.703.563l-.461 1.054c-.86-.354-1.638-.53-2.336-.53-.615 0-1.078.096-1.39.288-.313.193-.47.459-.47.797 0 .23.06.425.176.586.118.162.306.315.567.461.26.146.76.357 1.5.633 1.015.37 1.702.742 2.058 1.117.357.375.536.846.536 1.414zm6.093 2.492a3.705 3.705 0 0 1-1.527-.308 2.872 2.872 0 0 1-1.16-.95h-.094c.063.5.094.974.094 1.422v3.524h-1.297V61.438h1.055l.18 1.171h.062c.333-.468.721-.807 1.164-1.015.443-.209.95-.313 1.523-.313 1.136 0 2.012.388 2.63 1.164.616.776.925 1.865.925 3.266 0 1.406-.314 2.499-.941 3.277-.628.779-1.5 1.168-2.614 1.168zm-.187-7.773c-.875 0-1.508.242-1.899.726-.39.485-.59 1.256-.601 2.313v.289c0 1.203.2 2.064.601 2.582.401.518 1.045.777 1.93.777.74 0 1.319-.3 1.738-.898.42-.6.63-1.425.63-2.477 0-1.067-.21-1.886-.63-2.457-.419-.57-1.009-.855-1.77-.855zm9.625 7.773c-1.266 0-2.265-.385-2.996-1.156-.732-.77-1.098-1.841-1.098-3.21 0-1.381.34-2.477 1.02-3.29.68-.813 1.592-1.219 2.738-1.219 1.073 0 1.922.353 2.547 1.059.625.706.937 1.637.937 2.793v.82h-5.898c.026 1.005.28 1.768.762 2.29.481.52 1.16.78 2.035.78.922 0 1.833-.192 2.734-.578v1.157c-.458.197-.892.34-1.3.425a7.31 7.31 0 0 1-1.481.13zm-.352-7.789c-.687 0-1.235.224-1.644.672-.41.448-.65 1.068-.723 1.86h4.477c0-.818-.183-1.445-.547-1.88-.365-.434-.886-.652-1.563-.652zM254.77 70v-5.54c0-.697-.158-1.218-.476-1.562-.318-.343-.815-.515-1.492-.515-.896 0-1.552.242-1.969.726-.417.485-.625 1.284-.625 2.399V70h-1.297v-8.563h1.055l.21 1.172h.063a2.648 2.648 0 0 1 1.117-.98 3.63 3.63 0 0 1 1.602-.348c1.031 0 1.807.249 2.328.746.521.498.781 1.293.781 2.387V70h-1.296zm9.79-1.148h-.07c-.6.87-1.496 1.304-2.688 1.304-1.12 0-1.991-.383-2.613-1.148-.623-.766-.934-1.854-.934-3.266 0-1.411.312-2.508.937-3.289.625-.781 1.495-1.172 2.61-1.172 1.161 0 2.052.422 2.672 1.266h.101l-.054-.617-.032-.602v-3.484h1.297V70h-1.055l-.171-1.148zm-2.594.218c.885 0 1.527-.24 1.926-.722.398-.482.597-1.26.597-2.332v-.274c0-1.213-.202-2.08-.605-2.597-.404-.519-1.048-.778-1.934-.778-.76 0-1.342.296-1.746.887-.404.591-.605 1.426-.605 2.504 0 1.094.2 1.92.601 2.476.401.558.99.836 1.766.836z"/><path fill="#B9D6DC" d="M3.485 6.278h.294c.798 0 1.516.304 2.152.913.637.61.956 1.368.956 2.278 0 .896-.319 1.634-.956 2.215-.636.581-1.424.872-2.362.872-1.021 0-1.872-.41-2.55-1.229C.338 10.51 0 9.343 0 7.832c0-1.386.297-2.684.892-3.895.595-1.211 1.323-2.17 2.184-2.877C3.936.353 4.703 0 5.375 0c.448 0 .798.133 1.05.399s.378.609.378 1.029c0 .616-.273 1.07-.82 1.364-.741.406-1.329.882-1.763 1.428-.434.546-.679 1.232-.735 2.058zm9.28 0h.274c.783 0 1.494.304 2.13.913.638.61.956 1.368.956 2.278 0 .882-.318 1.624-.955 2.226-.637.602-1.425.903-2.362.903-1.036 0-1.89-.42-2.562-1.26-.672-.84-1.008-2.009-1.008-3.506 0-1.078.175-2.093.525-3.045.35-.952.802-1.781 1.354-2.488.553-.707 1.148-1.267 1.785-1.68C13.54.206 14.11 0 14.613 0c.462 0 .816.13 1.06.388.246.26.368.606.368 1.04 0 .63-.273 1.085-.819 1.364-.77.434-1.35.914-1.743 1.439-.391.525-.63 1.207-.713 2.047zm301.636 59.084h-.315c-.783 0-1.494-.319-2.13-.956-.638-.636-.956-1.389-.956-2.257 0-.895.318-1.644.955-2.246.637-.602 1.418-.903 2.341-.903 1.05 0 1.908.42 2.572 1.26.665.84.998 2.008.998 3.506 0 1.372-.29 2.663-.872 3.874-.58 1.21-1.294 2.173-2.141 2.887s-1.613 1.07-2.3 1.07c-.433 0-.787-.136-1.06-.409a1.357 1.357 0 0 1-.409-.997c0-.63.287-1.092.86-1.386.743-.434 1.324-.91 1.743-1.428.42-.517.658-1.19.714-2.015zm9.239 0h-.252c-.798 0-1.523-.315-2.173-.945-.651-.63-.977-1.386-.977-2.268 0-.881.322-1.627.966-2.236.644-.609 1.428-.913 2.352-.913 1.063 0 1.924.413 2.582 1.239.658.826.987 2.001.987 3.527 0 1.414-.29 2.72-.871 3.916-.581 1.197-1.295 2.148-2.142 2.855-.847.707-1.62 1.06-2.32 1.06-.448 0-.805-.132-1.07-.398-.267-.266-.4-.602-.4-1.008 0-.616.287-1.078.861-1.386.798-.462 1.393-.941 1.785-1.438.392-.497.616-1.165.672-2.005z"/></g></svg>