<svg xmlns="http://www.w3.org/2000/svg" width="313" height="75" viewBox="0 0 313 75"><g fill="none" fill-rule="evenodd"><path fill="#FFF" d="M31.594 9.016h3.883v5.554a12.51 12.51 0 0 1-1.844.438c-.625.099-1.35.148-2.172.148-1.73 0-3.076-.514-4.04-1.543-.963-1.028-1.444-2.47-1.444-4.324 0-1.187.238-2.228.714-3.121a4.835 4.835 0 0 1 2.059-2.047c.896-.471 1.945-.707 3.148-.707 1.22 0 2.355.224 3.407.672l-.516 1.172c-1.031-.438-2.023-.656-2.977-.656-1.39 0-2.476.414-3.257 1.242-.782.828-1.172 1.976-1.172 3.445 0 1.542.376 2.711 1.129 3.508.752.797 1.858 1.195 3.316 1.195.792 0 1.565-.091 2.32-.273v-3.516h-2.554V9.016zm13.82 1.695c0 1.396-.351 2.486-1.055 3.27-.703.783-1.674 1.175-2.914 1.175-.765 0-1.445-.18-2.039-.539-.594-.36-1.052-.875-1.375-1.547-.323-.672-.484-1.458-.484-2.36 0-1.395.349-2.482 1.047-3.26.698-.78 1.666-1.169 2.906-1.169 1.198 0 2.15.399 2.855 1.196.706.796 1.06 1.875 1.06 3.234zm-6.523 0c0 1.094.218 1.927.656 2.5.437.573 1.08.86 1.93.86.849 0 1.493-.286 1.933-.856.44-.57.66-1.405.66-2.504 0-1.089-.22-1.915-.66-2.48-.44-.566-1.09-.848-1.95-.848-.848 0-1.489.278-1.92.836-.433.557-.65 1.388-.65 2.492zM49.563 15l-3.25-8.563h1.39l1.844 5.079c.417 1.187.661 1.958.734 2.312h.063c.057-.276.238-.848.543-1.715.304-.867.988-2.759 2.05-5.675h1.391L51.078 15h-1.516zm9.757.156c-1.265 0-2.264-.385-2.996-1.156-.732-.77-1.097-1.841-1.097-3.21 0-1.381.34-2.477 1.02-3.29.679-.813 1.592-1.219 2.737-1.219 1.073 0 1.922.353 2.547 1.059.625.706.938 1.637.938 2.793v.82H56.57c.026 1.005.28 1.768.762 2.29.482.52 1.16.78 2.035.78.922 0 1.834-.192 2.735-.578v1.157a6.87 6.87 0 0 1-1.301.425 7.31 7.31 0 0 1-1.48.13zm-.351-7.789c-.688 0-1.236.224-1.645.672-.409.448-.65 1.068-.722 1.86h4.476c0-.818-.182-1.445-.547-1.88-.364-.434-.885-.652-1.562-.652zm9.617-1.086c.38 0 .721.031 1.023.094l-.18 1.203a4.418 4.418 0 0 0-.937-.117c-.693 0-1.285.281-1.777.844-.492.562-.738 1.263-.738 2.101V15H64.68V6.437h1.07l.148 1.586h.063c.318-.557.7-.987 1.148-1.289.448-.302.94-.453 1.477-.453zM77.07 15V9.46c0-.697-.159-1.218-.476-1.562-.318-.343-.815-.515-1.492-.515-.896 0-1.553.242-1.97.726-.416.485-.624 1.284-.624 2.399V15H71.21V6.437h1.055l.21 1.172h.063a2.648 2.648 0 0 1 1.117-.98 3.63 3.63 0 0 1 1.602-.348c1.031 0 1.807.249 2.328.746.52.498.781 1.293.781 2.387V15H77.07zm14.875 0V9.43c0-.683-.146-1.194-.437-1.535-.292-.342-.745-.512-1.36-.512-.807 0-1.403.232-1.789.695-.385.464-.578 1.177-.578 2.14V15h-1.297V9.43c0-.683-.145-1.194-.437-1.535-.292-.342-.748-.512-1.367-.512-.813 0-1.408.243-1.785.73-.378.487-.567 1.285-.567 2.395V15h-1.297V6.437h1.055l.21 1.172h.063c.245-.416.59-.742 1.036-.976a3.162 3.162 0 0 1 1.496-.352c1.338 0 2.213.485 2.625 1.453h.062a2.73 2.73 0 0 1 1.11-1.062c.484-.26 1.036-.39 1.656-.39.969 0 1.694.248 2.176.745.481.498.722 1.293.722 2.387V15h-1.297zm7.586.156c-1.265 0-2.264-.385-2.996-1.156-.732-.77-1.097-1.841-1.097-3.21 0-1.381.34-2.477 1.019-3.29.68-.813 1.592-1.219 2.738-1.219 1.073 0 1.922.353 2.547 1.059.625.706.938 1.637.938 2.793v.82h-5.9c.026 1.005.28 1.768.762 2.29.482.52 1.16.78 2.035.78.922 0 1.833-.192 2.734-.578v1.157c-.458.197-.891.34-1.3.425a7.31 7.31 0 0 1-1.48.13zm-.351-7.789c-.688 0-1.236.224-1.645.672-.409.448-.65 1.068-.722 1.86h4.476c0-.818-.182-1.445-.547-1.88-.364-.434-.885-.652-1.562-.652zM110.75 15V9.46c0-.697-.159-1.218-.477-1.562-.317-.343-.815-.515-1.492-.515-.896 0-1.552.242-1.969.726-.416.485-.624 1.284-.624 2.399V15h-1.297V6.437h1.054l.211 1.172h.063a2.648 2.648 0 0 1 1.117-.98 3.63 3.63 0 0 1 1.602-.348c1.03 0 1.807.249 2.328.746.52.498.78 1.293.78 2.387V15h-1.296zm6.727-.914a4.64 4.64 0 0 0 1.171-.156v.992a2.37 2.37 0 0 1-.62.168c-.274.044-.52.066-.739.066-1.656 0-2.484-.872-2.484-2.617V7.445h-1.227V6.82l1.227-.539.547-1.828h.75v1.984h2.484v1.008h-2.484v5.04c0 .515.122.91.367 1.187.245.276.58.414 1.008.414zm14.03.914l-1.57-5.023c-.098-.308-.283-1.006-.554-2.094h-.063a28.64 28.64 0 0 1-.547 2.11L127.156 15h-1.5l-2.336-8.563h1.36l1.261 4.915c.29 1.125.455 1.882.496 2.273h.063c.057-.297.15-.681.277-1.152a19.5 19.5 0 0 1 .332-1.121l1.57-4.915h1.407l1.531 4.915c.292.895.49 1.648.594 2.257h.062a8.28 8.28 0 0 1 .168-.867c.092-.39.635-2.492 1.63-6.305h1.343L133.047 15h-1.54zm6.75 0h-1.296V6.437h1.297V15zm-1.405-10.883c0-.297.072-.514.218-.652a.764.764 0 0 1 .547-.207c.209 0 .388.07.54.21.15.141.226.358.226.65 0 .29-.076.508-.227.652a.757.757 0 0 1-.539.214.75.75 0 0 1-.547-.214c-.146-.144-.218-.361-.218-.653zM142.305 15h-1.297V2.844h1.297V15zm4.047 0h-1.297V2.844h1.297V15zm12.43-2.336c0 .797-.298 1.412-.891 1.844-.594.432-1.427.648-2.5.648-1.136 0-2.021-.18-2.657-.539v-1.203a6.46 6.46 0 0 0 1.325.492c.471.12.925.18 1.363.18.677 0 1.198-.108 1.562-.324.365-.216.547-.546.547-.989 0-.333-.144-.618-.433-.855-.29-.237-.853-.517-1.692-.84-.797-.297-1.363-.556-1.699-.777-.336-.222-.586-.473-.75-.754-.164-.281-.246-.617-.246-1.008 0-.698.284-1.249.851-1.652.568-.404 1.347-.606 2.336-.606.922 0 1.823.188 2.704.563l-.461 1.054c-.86-.354-1.638-.53-2.336-.53-.615 0-1.078.096-1.39.288-.313.193-.47.459-.47.797 0 .23.059.425.176.586.117.162.306.315.566.461.26.146.76.357 1.5.633 1.016.37 1.702.742 2.06 1.117.356.375.534.846.534 1.414zm5.726 2.492c-1.266 0-2.265-.385-2.996-1.156-.732-.77-1.098-1.841-1.098-3.21 0-1.381.34-2.477 1.02-3.29.68-.813 1.592-1.219 2.738-1.219 1.073 0 1.922.353 2.547 1.059.625.706.937 1.637.937 2.793v.82h-5.898c.026 1.005.28 1.768.762 2.29.481.52 1.16.78 2.035.78.922 0 1.833-.192 2.734-.578v1.157c-.458.197-.892.34-1.3.425a7.31 7.31 0 0 1-1.481.13zm-.352-7.789c-.687 0-1.235.224-1.644.672-.41.448-.65 1.068-.723 1.86h4.477c0-.818-.183-1.445-.547-1.88-.365-.434-.886-.652-1.563-.652zm8.477 6.719a4.667 4.667 0 0 0 1.172-.156v.992a2.37 2.37 0 0 1-.621.168c-.274.044-.52.066-.739.066-1.656 0-2.484-.872-2.484-2.617V7.445h-1.227V6.82l1.227-.539.547-1.828h.75v1.984h2.484v1.008h-2.484v5.04c0 .515.122.91.367 1.187.245.276.58.414 1.008.414zm12.304.914l-.257-1.219h-.063c-.427.537-.853.9-1.277 1.09-.425.19-.955.285-1.59.285-.849 0-1.514-.218-1.996-.656-.482-.438-.723-1.06-.723-1.867 0-1.73 1.383-2.636 4.149-2.719l1.453-.047v-.531c0-.672-.145-1.168-.434-1.488-.289-.32-.751-.48-1.387-.48-.713 0-1.52.218-2.421.655l-.399-.992a6.09 6.09 0 0 1 1.387-.539 6.006 6.006 0 0 1 1.512-.195c1.02 0 1.777.226 2.27.68.491.453.737 1.18.737 2.18V15h-.96zm-2.93-.914c.808 0 1.442-.221 1.903-.664.461-.443.692-1.063.692-1.86v-.773l-1.297.055c-1.032.036-1.775.196-2.23.48-.457.284-.684.725-.684 1.324 0 .47.142.826.425 1.07.284.246.681.368 1.192.368zm13.485 0a4.615 4.615 0 0 0 1.172-.156v.992a2.37 2.37 0 0 1-.621.168c-.273.044-.52.066-.738.066-1.657 0-2.485-.872-2.485-2.617V7.445h-1.226V6.82l1.226-.539.547-1.828h.75v1.984h2.485v1.008h-2.485v5.04c0 .515.123.91.367 1.187.245.276.581.414 1.008.414zm8.149.914l-.258-1.219h-.063c-.427.537-.853.9-1.277 1.09-.425.19-.954.285-1.59.285-.849 0-1.514-.218-1.996-.656-.482-.438-.723-1.06-.723-1.867 0-1.73 1.383-2.636 4.149-2.719l1.453-.047v-.531c0-.672-.145-1.168-.434-1.488-.289-.32-.751-.48-1.386-.48-.714 0-1.521.218-2.422.655l-.399-.992a6.09 6.09 0 0 1 1.387-.539 6.006 6.006 0 0 1 1.512-.195c1.02 0 1.777.226 2.27.68.491.453.738 1.18.738 2.18V15h-.961zm-2.93-.914c.807 0 1.441-.221 1.902-.664.461-.443.692-1.063.692-1.86v-.773l-1.297.055c-1.031.036-1.775.196-2.23.48-.456.284-.684.725-.684 1.324 0 .47.142.826.426 1.07.283.246.68.368 1.19.368zM211.18 6.28c.38 0 .721.031 1.023.094l-.18 1.203a4.418 4.418 0 0 0-.937-.117c-.693 0-1.285.281-1.777.844-.493.562-.739 1.263-.739 2.101V15h-1.297V6.437h1.07l.15 1.586h.062c.317-.557.7-.987 1.148-1.289.448-.302.94-.453 1.477-.453zm9.632.157v.82l-1.585.187c.145.183.276.42.39.715.115.294.172.626.172.996 0 .839-.286 1.508-.86 2.008-.572.5-1.359.75-2.359.75-.255 0-.494-.02-.718-.062-.553.291-.829.658-.829 1.101a.56.56 0 0 0 .29.52c.192.112.523.168.992.168h1.515c.927 0 1.64.195 2.137.586.497.39.746.958.746 1.703 0 .948-.38 1.67-1.14 2.168-.76.497-1.87.746-3.329.746-1.12 0-1.983-.209-2.59-.625-.606-.417-.91-1.005-.91-1.766 0-.52.167-.971.5-1.351.334-.38.802-.638 1.407-.774a1.357 1.357 0 0 1-.551-.46 1.22 1.22 0 0 1-.223-.727c0-.313.084-.586.25-.82.167-.235.43-.462.79-.68a2.313 2.313 0 0 1-1.083-.93 2.732 2.732 0 0 1-.418-1.5c0-.938.281-1.66.844-2.168.563-.508 1.36-.762 2.39-.762.449 0 .852.052 1.212.157h2.96zm-6.828 10c0 .463.196.815.586 1.054.39.24.95.36 1.68.36 1.089 0 1.895-.163 2.418-.489.523-.325.785-.767.785-1.324 0-.463-.143-.785-.43-.965-.286-.18-.825-.27-1.617-.27h-1.554c-.589 0-1.047.141-1.375.423-.329.28-.493.684-.493 1.21zm.703-7.258c0 .599.17 1.052.508 1.36.339.306.81.46 1.414.46 1.266 0 1.899-.615 1.899-1.844 0-1.286-.64-1.93-1.922-1.93-.61 0-1.078.165-1.406.493-.328.328-.493.815-.493 1.46zm11.5 5.976c-1.265 0-2.264-.385-2.996-1.156-.731-.77-1.097-1.841-1.097-3.21 0-1.381.34-2.477 1.02-3.29.679-.813 1.592-1.219 2.738-1.219 1.072 0 1.921.353 2.546 1.059.625.706.938 1.637.938 2.793v.82h-5.899c.027 1.005.28 1.768.762 2.29.482.52 1.16.78 2.035.78.922 0 1.834-.192 2.735-.578v1.157a6.87 6.87 0 0 1-1.301.425 7.31 7.31 0 0 1-1.48.13zm-.351-7.789c-.688 0-1.236.224-1.645.672-.408.448-.65 1.068-.722 1.86h4.476c0-.818-.182-1.445-.547-1.88-.364-.434-.885-.652-1.562-.652zm8.476 6.719a4.64 4.64 0 0 0 1.172-.156v.992a2.37 2.37 0 0 1-.62.168c-.274.044-.52.066-.739.066-1.656 0-2.484-.872-2.484-2.617V7.445h-1.227V6.82l1.227-.539.547-1.828h.75v1.984h2.484v1.008h-2.484v5.04c0 .515.122.91.367 1.187.244.276.58.414 1.007.414zm9.805 0a4.615 4.615 0 0 0 1.172-.156v.992a2.37 2.37 0 0 1-.621.168c-.273.044-.52.066-.738.066-1.657 0-2.485-.872-2.485-2.617V7.445h-1.226V6.82l1.226-.539.547-1.828h.75v1.984h2.485v1.008h-2.485v5.04c0 .515.123.91.367 1.187.245.276.581.414 1.008.414zm10.274-3.375c0 1.396-.352 2.486-1.055 3.27-.703.783-1.675 1.175-2.914 1.175-.766 0-1.445-.18-2.04-.539-.593-.36-1.051-.875-1.374-1.547-.323-.672-.485-1.458-.485-2.36 0-1.395.35-2.482 1.047-3.26.698-.78 1.667-1.169 2.907-1.169 1.197 0 2.15.399 2.855 1.196.706.796 1.059 1.875 1.059 3.234zm-6.524 0c0 1.094.219 1.927.656 2.5.438.573 1.081.86 1.93.86.85 0 1.494-.286 1.934-.856.44-.57.66-1.405.66-2.504 0-1.089-.22-1.915-.66-2.48-.44-.566-1.09-.848-1.95-.848-.848 0-1.49.278-1.921.836-.433.557-.649 1.388-.649 2.492zM26.148 32.008c0-.776.433-1.164 1.297-1.164.865 0 1.297.388 1.297 1.164 0 .37-.108.657-.324.863-.216.206-.54.309-.973.309-.864 0-1.297-.39-1.297-1.172zM28.633 43H26.25v-8.734h2.383V43zm10.562 0h-2.383v-5.102c0-.63-.111-1.102-.335-1.418-.224-.315-.581-.472-1.07-.472-.667 0-1.15.222-1.446.668-.297.445-.445 1.183-.445 2.215V43h-2.383v-8.734h1.82l.32 1.117h.133a2.52 2.52 0 0 1 1.098-.957c.466-.216.996-.324 1.59-.324 1.015 0 1.786.274 2.312.824.526.55.79 1.342.79 2.379V43zm6 .156c-2.718 0-4.078-1.492-4.078-4.476 0-1.485.37-2.619 1.11-3.403.74-.784 1.799-1.175 3.18-1.175 1.01 0 1.916.197 2.718.593l-.703 1.844a12.025 12.025 0 0 0-1.047-.371 3.373 3.373 0 0 0-.969-.145c-1.24 0-1.86.88-1.86 2.641 0 1.708.62 2.563 1.86 2.563a4.24 4.24 0 0 0 1.274-.184 4.63 4.63 0 0 0 1.172-.574v2.039a3.84 3.84 0 0 1-1.168.508c-.394.093-.89.14-1.489.14zm9.555-9.054c.323 0 .591.023.805.07l-.18 2.234a2.73 2.73 0 0 0-.703-.078c-.76 0-1.353.195-1.777.586-.425.39-.637.938-.637 1.64V43h-2.383v-8.734h1.805l.351 1.468h.117c.271-.49.637-.884 1.098-1.183.461-.3.962-.45 1.504-.45zm6.008 1.695c-.505 0-.901.16-1.188.48-.286.32-.45.775-.492 1.364h3.344c-.01-.589-.164-1.043-.461-1.364-.297-.32-.698-.48-1.203-.48zm.336 7.36c-1.407 0-2.505-.389-3.297-1.165-.792-.776-1.188-1.875-1.188-3.297 0-1.463.366-2.595 1.098-3.394.732-.8 1.744-1.2 3.035-1.2 1.235 0 2.195.352 2.883 1.055.688.703 1.031 1.675 1.031 2.914v1.157h-5.633c.026.677.227 1.205.602 1.586.375.38.901.57 1.578.57.526 0 1.024-.055 1.492-.164.47-.11.959-.284 1.47-.524v1.844a5.595 5.595 0 0 1-1.337.465c-.474.101-1.052.152-1.734.152zM72.14 43l-.461-1.188h-.063c-.4.506-.814.856-1.238 1.051-.425.196-.978.293-1.66.293-.839 0-1.499-.24-1.98-.718-.482-.48-.723-1.162-.723-2.047 0-.927.324-1.611.972-2.051.649-.44 1.627-.684 2.934-.73l1.516-.047v-.383c0-.886-.454-1.328-1.36-1.328-.698 0-1.518.21-2.46.632l-.79-1.609c1.005-.526 2.12-.79 3.344-.79 1.172 0 2.07.256 2.695.767.625.51.938 1.286.938 2.328V43H72.14zm-.704-4.047l-.921.031c-.693.021-1.209.146-1.547.375-.339.23-.508.578-.508 1.047 0 .672.385 1.008 1.156 1.008.552 0 .994-.159 1.324-.477.331-.317.496-.74.496-1.265v-.719zm10.915 1.453c0 .896-.312 1.578-.934 2.047-.622.469-1.553.703-2.793.703A8.772 8.772 0 0 1 77 43.027a6.146 6.146 0 0 1-1.258-.379V40.68c.443.208.942.382 1.496.523.555.14 1.043.211 1.465.211.865 0 1.297-.25 1.297-.75a.626.626 0 0 0-.172-.457c-.114-.117-.312-.25-.594-.398a14.996 14.996 0 0 0-1.125-.52c-.672-.281-1.165-.542-1.48-.781a2.2 2.2 0 0 1-.688-.824c-.143-.31-.214-.692-.214-1.145 0-.776.3-1.376.902-1.8.601-.425 1.454-.637 2.558-.637a7.26 7.26 0 0 1 3.07.687l-.718 1.719a13.222 13.222 0 0 0-1.227-.461c-.38-.12-.768-.18-1.164-.18-.703 0-1.054.19-1.054.57 0 .214.113.399.34.555.226.156.722.388 1.488.696.682.276 1.182.533 1.5.773.318.24.552.516.703.828.151.313.227.685.227 1.117zm5.476-4.61c-.505 0-.9.161-1.187.481-.287.32-.45.775-.493 1.364h3.344c-.01-.589-.164-1.043-.46-1.364-.298-.32-.699-.48-1.204-.48zm.336 7.36c-1.406 0-2.505-.388-3.297-1.164-.791-.776-1.187-1.875-1.187-3.297 0-1.463.366-2.595 1.097-3.394.732-.8 1.744-1.2 3.035-1.2 1.235 0 2.196.352 2.883 1.055.688.703 1.032 1.675 1.032 2.914v1.157h-5.633c.026.677.226 1.205.601 1.586.375.38.901.57 1.578.57.526 0 1.024-.055 1.493-.164.468-.11.958-.284 1.468-.524v1.844a5.595 5.595 0 0 1-1.336.465c-.474.101-1.052.152-1.734.152zm14.516-9.054c1.03 0 1.838.402 2.422 1.207.583.804.875 1.907.875 3.308 0 1.443-.301 2.56-.903 3.352-.601.791-1.42 1.187-2.457 1.187-1.026 0-1.83-.372-2.414-1.117h-.164L99.64 43h-1.82V30.844h2.382v2.828c0 .36-.031.935-.094 1.726h.094c.557-.864 1.383-1.296 2.477-1.296zm-.766 1.906c-.588 0-1.018.18-1.289.543-.27.362-.411.96-.422 1.793v.258c0 .937.14 1.609.418 2.015.279.406.72.61 1.324.61.49 0 .88-.226 1.168-.676.29-.45.434-1.106.434-1.965 0-.86-.146-1.504-.438-1.934-.291-.43-.69-.644-1.195-.644zm4.781-1.742h2.61l1.648 4.914c.14.427.237.932.29 1.515h.046c.057-.536.17-1.041.336-1.515l1.617-4.914h2.555l-3.695 9.851c-.339.912-.822 1.594-1.45 2.047-.627.453-1.36.68-2.199.68a5.53 5.53 0 0 1-1.21-.133v-1.89c.286.067.598.1.937.1.422 0 .79-.128 1.105-.386.315-.258.561-.647.738-1.168l.141-.43-3.469-8.671zM126.563 43h-2.415v-6.61l.024-1.085.039-1.188a12.7 12.7 0 0 1-.836.79l-1.313 1.054-1.164-1.453 3.68-2.93h1.984V43zm11.085-5.71c0 1.994-.326 3.47-.98 4.429-.654.958-1.66 1.437-3.02 1.437-1.317 0-2.31-.495-2.98-1.484-.67-.99-1.004-2.45-1.004-4.383 0-2.016.326-3.501.977-4.457.65-.956 1.653-1.434 3.007-1.434 1.318 0 2.314.5 2.989 1.5.674 1 1.011 2.464 1.011 4.391zm-5.585 0c0 1.4.12 2.404.363 3.01.242.608.65.91 1.222.91.563 0 .97-.306 1.22-.92.25-.616.374-1.616.374-3 0-1.402-.126-2.408-.379-3.02-.252-.612-.657-.918-1.215-.918-.567 0-.974.306-1.218.918-.245.612-.368 1.618-.368 3.02zM140.68 35c0 .661.058 1.155.175 1.48.118.326.306.489.567.489.5 0 .75-.656.75-1.969 0-1.302-.25-1.953-.75-1.953-.26 0-.45.16-.567.48-.117.32-.175.812-.175 1.473zm3.46-.016c0 1.198-.231 2.098-.695 2.7-.463.601-1.143.902-2.039.902-.86 0-1.523-.309-1.992-.926-.469-.617-.703-1.509-.703-2.676 0-2.38.898-3.57 2.695-3.57.88 0 1.556.309 2.028.926.471.617.707 1.499.707 2.644zm5.376-3.406L143.18 43h-1.875l6.336-11.422h1.875zm-.836 7.985c0 .661.058 1.154.175 1.48.118.325.306.488.567.488.5 0 .75-.656.75-1.968 0-1.303-.25-1.954-.75-1.954-.26 0-.45.16-.567.48-.117.321-.175.812-.175 1.474zm3.46-.016c0 1.193-.231 2.09-.695 2.691-.463.602-1.143.903-2.039.903-.86 0-1.523-.309-1.992-.926-.469-.617-.703-1.507-.703-2.668 0-2.38.898-3.57 2.695-3.57.88 0 1.556.308 2.028.925.471.618.707 1.499.707 2.645zm8.79 2.539a4.667 4.667 0 0 0 1.172-.156v.992a2.37 2.37 0 0 1-.622.168c-.273.044-.52.066-.738.066-1.656 0-2.484-.872-2.484-2.617v-5.094h-1.227v-.625l1.227-.539.547-1.828h.75v1.984h2.484v1.008h-2.484v5.04c0 .515.122.91.367 1.187.245.276.58.414 1.008.414zm8.742.914v-5.54c0-.697-.159-1.218-.477-1.562-.317-.343-.815-.515-1.492-.515-.9 0-1.558.245-1.973.734-.414.49-.62 1.292-.62 2.406V43h-1.298V30.844h1.297v3.68c0 .442-.02.81-.062 1.101h.078a2.645 2.645 0 0 1 1.09-.973c.471-.237 1.009-.355 1.613-.355 1.047 0 1.832.249 2.356.746.523.497.785 1.288.785 2.371V43h-1.297zm7.578.156c-1.266 0-2.264-.385-2.996-1.156-.732-.77-1.098-1.841-1.098-3.21 0-1.381.34-2.477 1.02-3.29.68-.813 1.592-1.219 2.738-1.219 1.073 0 1.922.353 2.547 1.059.625.706.937 1.637.937 2.793v.82H174.5c.026 1.005.28 1.768.762 2.29.481.52 1.16.78 2.035.78.922 0 1.833-.192 2.734-.578v1.157c-.458.197-.892.34-1.3.425a7.31 7.31 0 0 1-1.481.13zm-.352-7.789c-.687 0-1.235.224-1.644.672-.409.448-.65 1.068-.723 1.86h4.477c0-.818-.182-1.445-.547-1.88-.365-.434-.885-.652-1.563-.652zm16.508 4.594c0 1.005-.364 1.789-1.094 2.352-.729.562-1.718.843-2.968.843-1.354 0-2.396-.174-3.125-.523v-1.281c.469.197.979.354 1.531.468a8.056 8.056 0 0 0 1.64.172c.886 0 1.553-.168 2-.504.449-.336.673-.803.673-1.402 0-.396-.08-.72-.239-.973-.159-.252-.424-.485-.797-.699-.372-.213-.938-.456-1.699-.727-1.062-.38-1.821-.83-2.277-1.351-.456-.52-.684-1.2-.684-2.04 0-.88.33-1.58.992-2.1.662-.522 1.537-.782 2.625-.782 1.136 0 2.18.208 3.133.625l-.414 1.156c-.943-.396-1.86-.593-2.75-.593-.703 0-1.252.15-1.648.453-.396.302-.594.721-.594 1.258 0 .395.073.72.219.972.146.253.392.485.738.695.346.211.876.444 1.59.7 1.198.427 2.022.885 2.472 1.375.451.49.676 1.125.676 1.906zm7.39 3.039l-3.874-10.125h-.063c.073.802.11 1.755.11 2.86V43h-1.227V31.578h2L201.36 41h.063l3.648-9.422h1.985V43h-1.328v-7.36c0-.843.036-1.76.109-2.75h-.063L201.867 43h-1.07zm15.759 0h-6.368V31.578h6.368v1.18h-5.04v3.68h4.735v1.171h-4.734v4.203h5.039V43zm12.015-2.336c0 .797-.297 1.412-.89 1.844-.594.432-1.427.648-2.5.648-1.136 0-2.021-.18-2.657-.539v-1.203a6.46 6.46 0 0 0 1.325.492c.471.12.925.18 1.363.18.677 0 1.198-.108 1.562-.324.365-.216.547-.546.547-.989 0-.333-.144-.618-.433-.855-.29-.237-.853-.517-1.692-.84-.797-.297-1.363-.556-1.699-.777-.336-.222-.586-.473-.75-.754-.164-.281-.246-.617-.246-1.008 0-.698.284-1.249.852-1.652.567-.404 1.346-.606 2.335-.606.922 0 1.823.188 2.704.563l-.461 1.054c-.86-.354-1.638-.53-2.336-.53-.615 0-1.078.096-1.39.288-.313.193-.47.459-.47.797 0 .23.059.425.176.586.117.162.306.315.567.461.26.146.76.357 1.5.633 1.015.37 1.701.742 2.058 1.117.357.375.535.846.535 1.414zM236.54 43v-5.54c0-.697-.16-1.218-.477-1.562-.318-.343-.816-.515-1.493-.515-.9 0-1.558.245-1.972.734-.414.49-.621 1.292-.621 2.406V43h-1.297V30.844h1.297v3.68c0 .442-.021.81-.063 1.101h.078a2.645 2.645 0 0 1 1.09-.973c.471-.237 1.01-.355 1.613-.355 1.047 0 1.832.249 2.356.746.523.497.785 1.288.785 2.371V43h-1.297zm9.226 0l-.258-1.219h-.063c-.427.537-.853.9-1.277 1.09-.425.19-.954.285-1.59.285-.849 0-1.514-.218-1.996-.656-.482-.438-.723-1.06-.723-1.867 0-1.73 1.383-2.636 4.149-2.719l1.453-.047v-.531c0-.672-.145-1.168-.434-1.488-.289-.32-.751-.48-1.386-.48-.714 0-1.521.218-2.422.655l-.399-.992a6.09 6.09 0 0 1 1.387-.539 6.006 6.006 0 0 1 1.512-.195c1.02 0 1.777.226 2.27.68.491.453.738 1.18.738 2.18V43h-.961zm-2.93-.914c.807 0 1.441-.221 1.902-.664.461-.443.692-1.063.692-1.86v-.773l-1.297.055c-1.031.036-1.775.196-2.23.48-.456.284-.684.725-.684 1.324 0 .47.142.826.426 1.07.283.246.68.368 1.19.368zm10.469-7.805c.38 0 .721.031 1.023.094l-.18 1.203a4.418 4.418 0 0 0-.937-.117c-.693 0-1.285.281-1.777.844-.493.562-.739 1.263-.739 2.101V43h-1.297v-8.563h1.07l.15 1.586h.062c.317-.557.7-.987 1.148-1.289.448-.302.94-.453 1.477-.453zm6.242 8.875c-1.266 0-2.264-.385-2.996-1.156-.732-.77-1.098-1.841-1.098-3.21 0-1.381.34-2.477 1.02-3.29.68-.813 1.592-1.219 2.738-1.219 1.073 0 1.922.353 2.547 1.059.625.706.937 1.637.937 2.793v.82h-5.898c.026 1.005.28 1.768.762 2.29.481.52 1.16.78 2.035.78.922 0 1.833-.192 2.734-.578v1.157c-.458.197-.892.34-1.3.425a7.31 7.31 0 0 1-1.481.13zm-.352-7.789c-.687 0-1.235.224-1.644.672-.41.448-.65 1.068-.723 1.86h4.477c0-.818-.183-1.445-.547-1.88-.365-.434-.886-.652-1.563-.652zm17.258 3.344c0 1.396-.351 2.486-1.055 3.27-.703.783-1.674 1.175-2.914 1.175-.765 0-1.445-.18-2.039-.539-.593-.36-1.052-.875-1.375-1.547-.323-.672-.484-1.458-.484-2.36 0-1.395.349-2.482 1.047-3.26.698-.78 1.666-1.169 2.906-1.169 1.198 0 2.15.399 2.856 1.196.705.796 1.058 1.875 1.058 3.234zm-6.523 0c0 1.094.218 1.927.656 2.5.437.573 1.08.86 1.93.86.849 0 1.493-.286 1.933-.856.44-.57.66-1.405.66-2.504 0-1.089-.22-1.915-.66-2.48-.44-.566-1.09-.848-1.949-.848-.849 0-1.49.278-1.922.836-.432.557-.648 1.388-.648 2.492zm12.656-3.266h-2.18V43h-1.297v-7.555h-1.53v-.586l1.53-.468v-.477c0-2.104.92-3.156 2.758-3.156.453 0 .985.091 1.594.273l-.336 1.04c-.5-.162-.927-.243-1.281-.243-.49 0-.852.163-1.086.488-.235.326-.352.848-.352 1.567v.554h2.18v1.008zM31.594 65.015h3.883v5.555a12.51 12.51 0 0 1-1.844.438c-.625.099-1.35.148-2.172.148-1.73 0-3.076-.514-4.04-1.543-.963-1.028-1.444-2.47-1.444-4.324 0-1.187.238-2.228.714-3.121a4.835 4.835 0 0 1 2.059-2.047c.896-.471 1.945-.707 3.148-.707 1.22 0 2.355.224 3.407.672l-.516 1.172c-1.031-.438-2.023-.656-2.977-.656-1.39 0-2.476.414-3.257 1.242-.782.828-1.172 1.976-1.172 3.445 0 1.542.376 2.711 1.129 3.508.752.797 1.858 1.195 3.316 1.195.792 0 1.565-.091 2.32-.273v-3.516h-2.554v-1.187zm13.82 1.696c0 1.396-.351 2.486-1.055 3.27-.703.783-1.674 1.175-2.914 1.175-.765 0-1.445-.18-2.039-.539-.594-.36-1.052-.875-1.375-1.547-.323-.672-.484-1.458-.484-2.36 0-1.395.349-2.482 1.047-3.26.698-.78 1.666-1.169 2.906-1.169 1.198 0 2.15.399 2.855 1.196.706.796 1.06 1.875 1.06 3.234zm-6.523 0c0 1.094.218 1.927.656 2.5.437.573 1.08.86 1.93.86.849 0 1.493-.286 1.933-.856.44-.57.66-1.405.66-2.504 0-1.089-.22-1.915-.66-2.48-.44-.566-1.09-.848-1.95-.848-.848 0-1.489.278-1.92.836-.433.557-.65 1.388-.65 2.492zM49.563 71l-3.25-8.563h1.39l1.844 5.079c.417 1.187.661 1.958.734 2.312h.063c.057-.276.238-.848.543-1.715.304-.867.988-2.759 2.05-5.675h1.391L51.078 71h-1.516zm9.757.156c-1.265 0-2.264-.385-2.996-1.156-.732-.77-1.097-1.841-1.097-3.21 0-1.381.34-2.477 1.02-3.29.679-.813 1.592-1.219 2.737-1.219 1.073 0 1.922.353 2.547 1.059.625.706.938 1.637.938 2.793v.82H56.57c.026 1.005.28 1.768.762 2.29.482.52 1.16.78 2.035.78.922 0 1.834-.192 2.735-.578v1.157a6.87 6.87 0 0 1-1.301.425 7.31 7.31 0 0 1-1.48.13zm-.351-7.789c-.688 0-1.236.224-1.645.672-.409.448-.65 1.068-.722 1.86h4.476c0-.818-.182-1.445-.547-1.88-.364-.434-.885-.652-1.562-.652zm9.617-1.086c.38 0 .721.031 1.023.094l-.18 1.203a4.418 4.418 0 0 0-.937-.117c-.693 0-1.285.281-1.777.844-.492.562-.738 1.263-.738 2.101V71H64.68v-8.563h1.07l.148 1.586h.063c.318-.557.7-.987 1.148-1.289.448-.302.94-.453 1.477-.453zM77.07 71v-5.54c0-.697-.159-1.218-.476-1.562-.318-.343-.815-.515-1.492-.515-.896 0-1.553.242-1.97.726-.416.485-.624 1.284-.624 2.399V71H71.21v-8.563h1.055l.21 1.172h.063a2.648 2.648 0 0 1 1.117-.98 3.63 3.63 0 0 1 1.602-.348c1.031 0 1.807.249 2.328.746.52.498.781 1.293.781 2.387V71H77.07zm14.875 0v-5.57c0-.683-.146-1.194-.437-1.535-.292-.342-.745-.512-1.36-.512-.807 0-1.403.232-1.789.695-.385.464-.578 1.177-.578 2.14V71h-1.297v-5.57c0-.683-.145-1.194-.437-1.535-.292-.342-.748-.512-1.367-.512-.813 0-1.408.243-1.785.73-.378.487-.567 1.285-.567 2.395V71h-1.297v-8.563h1.055l.21 1.172h.063c.245-.416.59-.742 1.036-.976a3.162 3.162 0 0 1 1.496-.352c1.338 0 2.213.485 2.625 1.453h.062a2.73 2.73 0 0 1 1.11-1.062c.484-.26 1.036-.39 1.656-.39.969 0 1.694.248 2.176.745.481.498.722 1.293.722 2.387V71h-1.297zm7.586.156c-1.265 0-2.264-.385-2.996-1.156-.732-.77-1.097-1.841-1.097-3.21 0-1.381.34-2.477 1.019-3.29.68-.813 1.592-1.219 2.738-1.219 1.073 0 1.922.353 2.547 1.059.625.706.938 1.637.938 2.793v.82h-5.9c.026 1.005.28 1.768.762 2.29.482.52 1.16.78 2.035.78.922 0 1.833-.192 2.734-.578v1.157c-.458.197-.891.34-1.3.425a7.31 7.31 0 0 1-1.48.13zm-.351-7.789c-.688 0-1.236.224-1.645.672-.409.448-.65 1.068-.722 1.86h4.476c0-.818-.182-1.445-.547-1.88-.364-.434-.885-.652-1.562-.652zM110.75 71v-5.54c0-.697-.159-1.218-.477-1.562-.317-.343-.815-.515-1.492-.515-.896 0-1.552.242-1.969.726-.416.485-.624 1.284-.624 2.399V71h-1.297v-8.563h1.054l.211 1.172h.063a2.648 2.648 0 0 1 1.117-.98 3.63 3.63 0 0 1 1.602-.348c1.03 0 1.807.249 2.328.746.52.498.78 1.293.78 2.387V71h-1.296zm6.727-.914a4.64 4.64 0 0 0 1.171-.156v.992a2.37 2.37 0 0 1-.62.168c-.274.044-.52.066-.739.066-1.656 0-2.484-.872-2.484-2.617v-5.094h-1.227v-.625l1.227-.539.547-1.828h.75v1.984h2.484v1.008h-2.484v5.04c0 .515.122.91.367 1.187.245.276.58.414 1.008.414zm3.921-10.508l.118.172c-.136.52-.331 1.126-.586 1.816a26.23 26.23 0 0 1-.797 1.926h-.953c.364-1.484.63-2.789.797-3.914h1.421zm7.204 9.086c0 .797-.297 1.412-.891 1.844-.594.432-1.427.648-2.5.648-1.135 0-2.02-.18-2.656-.539v-1.203a6.45 6.45 0 0 0 1.324.492c.471.12.926.18 1.363.18.677 0 1.198-.108 1.563-.324.364-.216.547-.546.547-.989 0-.333-.145-.618-.434-.855-.29-.237-.853-.517-1.691-.84-.797-.297-1.364-.556-1.7-.777-.336-.222-.586-.473-.75-.754-.164-.281-.246-.617-.246-1.008 0-.698.284-1.249.852-1.652.568-.404 1.346-.606 2.336-.606.922 0 1.823.188 2.703.563l-.461 1.054c-.86-.354-1.638-.53-2.336-.53-.615 0-1.078.096-1.39.288-.313.193-.47.459-.47.797 0 .23.06.425.176.586.118.162.306.315.567.461.26.146.76.357 1.5.633 1.015.37 1.702.742 2.058 1.117.357.375.536.846.536 1.414zM140.132 71l-.257-1.219h-.063c-.427.537-.852.9-1.277 1.09-.424.19-.954.285-1.59.285-.849 0-1.514-.218-1.996-.656-.482-.438-.722-1.06-.722-1.867 0-1.73 1.382-2.636 4.148-2.719l1.453-.047v-.531c0-.672-.144-1.168-.433-1.488-.29-.32-.752-.48-1.387-.48-.714 0-1.521.218-2.422.655l-.399-.992a6.108 6.108 0 0 1 1.387-.539 6.006 6.006 0 0 1 1.512-.195c1.02 0 1.777.226 2.27.68.492.453.738 1.18.738 2.18V71h-.961zm-2.929-.914c.807 0 1.442-.221 1.902-.664.461-.443.692-1.063.692-1.86v-.773l-1.297.055c-1.031.036-1.775.196-2.23.48-.456.284-.684.725-.684 1.324 0 .47.142.826.426 1.07.284.246.68.368 1.191.368zm12.422.914v-5.54c0-.697-.159-1.218-.477-1.562-.317-.343-.815-.515-1.492-.515-.896 0-1.552.242-1.969.726-.416.485-.625 1.284-.625 2.399V71h-1.296v-8.563h1.054l.211 1.172h.063a2.648 2.648 0 0 1 1.117-.98 3.63 3.63 0 0 1 1.601-.348c1.032 0 1.808.249 2.329.746.52.498.78 1.293.78 2.387V71h-1.296zm9.82 0v-5.54c0-.697-.159-1.218-.476-1.562-.318-.343-.815-.515-1.492-.515-.896 0-1.553.242-1.97.726-.416.485-.624 1.284-.624 2.399V71h-1.297v-8.563h1.055l.21 1.172h.063a2.648 2.648 0 0 1 1.117-.98 3.63 3.63 0 0 1 1.602-.348c1.031 0 1.807.249 2.328.746.52.498.781 1.293.781 2.387V71h-1.297zm5.18-8.563v5.555c0 .698.159 1.219.477 1.563.317.343.815.515 1.492.515.896 0 1.55-.244 1.965-.734.414-.49.62-1.29.62-2.398v-4.5h1.298V71h-1.07l-.188-1.148h-.07a2.585 2.585 0 0 1-1.106.968c-.471.224-1.01.336-1.613.336-1.042 0-1.822-.247-2.34-.742-.518-.495-.778-1.286-.778-2.375v-5.602h1.313zM178.492 71l-.258-1.219h-.062c-.427.537-.853.9-1.277 1.09-.425.19-.955.285-1.59.285-.85 0-1.515-.218-1.996-.656-.482-.438-.723-1.06-.723-1.867 0-1.73 1.383-2.636 4.148-2.719l1.453-.047v-.531c0-.672-.144-1.168-.433-1.488-.29-.32-.751-.48-1.387-.48-.713 0-1.52.218-2.422.655l-.398-.992a6.09 6.09 0 0 1 1.387-.539 6.006 6.006 0 0 1 1.511-.195c1.021 0 1.778.226 2.27.68.492.453.738 1.18.738 2.18V71h-.96zm-2.93-.914c.808 0 1.442-.221 1.903-.664.46-.443.691-1.063.691-1.86v-.773l-1.297.055c-1.03.036-1.774.196-2.23.48-.456.284-.684.725-.684 1.324 0 .47.142.826.426 1.07.284.246.681.368 1.191.368zm7.86.914h-1.297V58.844h1.297V71zm7.101 0V59.578h1.329V71h-1.329zm9.352-10.398c-1.255 0-2.246.418-2.973 1.253-.726.836-1.09 1.98-1.09 3.434 0 1.495.35 2.65 1.051 3.465.7.815 1.7 1.223 2.996 1.223.797 0 1.706-.144 2.727-.43v1.164c-.792.297-1.768.445-2.93.445-1.682 0-2.98-.51-3.894-1.531-.914-1.02-1.371-2.471-1.371-4.352 0-1.177.22-2.208.66-3.093a4.74 4.74 0 0 1 1.906-2.047c.83-.48 1.809-.719 2.934-.719 1.198 0 2.244.219 3.14.656l-.562 1.14c-.865-.405-1.73-.608-2.594-.608zM208.594 71h-1.328V60.758h-3.618v-1.18h8.563v1.18h-3.617V71zm14.82-2.336c0 .797-.297 1.412-.89 1.844-.594.432-1.428.648-2.5.648-1.136 0-2.021-.18-2.657-.539v-1.203c.412.208.853.372 1.324.492.472.12.926.18 1.364.18.677 0 1.198-.108 1.562-.324.365-.216.547-.546.547-.989 0-.333-.144-.618-.434-.855-.289-.237-.852-.517-1.69-.84-.798-.297-1.364-.556-1.7-.777-.336-.222-.586-.473-.75-.754-.164-.281-.246-.617-.246-1.008 0-.698.284-1.249.851-1.652.568-.404 1.347-.606 2.336-.606.922 0 1.823.188 2.703.563l-.46 1.054c-.86-.354-1.639-.53-2.337-.53-.614 0-1.078.096-1.39.288-.313.193-.469.459-.469.797 0 .23.059.425.176.586.117.162.306.315.566.461.26.146.76.357 1.5.633 1.016.37 1.702.742 2.059 1.117.357.375.535.846.535 1.414zm6.094 2.492a3.705 3.705 0 0 1-1.528-.308 2.872 2.872 0 0 1-1.16-.95h-.093c.062.5.093.974.093 1.422v3.524h-1.297V62.438h1.055l.18 1.171h.062c.334-.468.722-.807 1.164-1.015.443-.209.95-.313 1.524-.313 1.135 0 2.012.388 2.629 1.164.617.776.925 1.865.925 3.266 0 1.406-.313 2.499-.94 3.277-.629.779-1.5 1.168-2.614 1.168zm-.188-7.773c-.875 0-1.507.242-1.898.726-.39.485-.591 1.256-.602 2.313v.289c0 1.203.2 2.064.602 2.582.4.518 1.044.777 1.93.777.74 0 1.319-.3 1.738-.898.42-.6.629-1.425.629-2.477 0-1.067-.21-1.886-.63-2.457-.418-.57-1.008-.855-1.769-.855zm9.625 7.773c-1.265 0-2.264-.385-2.996-1.156-.732-.77-1.097-1.841-1.097-3.21 0-1.381.34-2.477 1.02-3.29.679-.813 1.592-1.219 2.737-1.219 1.073 0 1.922.353 2.547 1.059.625.706.938 1.637.938 2.793v.82h-5.899c.026 1.005.28 1.768.762 2.29.482.52 1.16.78 2.035.78.922 0 1.834-.192 2.735-.578v1.157a6.87 6.87 0 0 1-1.301.425 7.31 7.31 0 0 1-1.48.13zm-.351-7.789c-.688 0-1.236.224-1.645.672-.409.448-.65 1.068-.722 1.86h4.476c0-.818-.182-1.445-.547-1.88-.364-.434-.885-.652-1.562-.652zM250.164 71v-5.54c0-.697-.159-1.218-.476-1.562-.318-.343-.816-.515-1.493-.515-.896 0-1.552.242-1.968.726-.417.485-.625 1.284-.625 2.399V71h-1.297v-8.563h1.054l.211 1.172h.063a2.648 2.648 0 0 1 1.117-.98 3.63 3.63 0 0 1 1.602-.348c1.03 0 1.807.249 2.328.746.52.498.78 1.293.78 2.387V71h-1.296zm9.79-1.148h-.071c-.6.87-1.495 1.304-2.688 1.304-1.12 0-1.99-.383-2.613-1.148-.622-.766-.934-1.854-.934-3.266 0-1.411.313-2.508.938-3.289.625-.781 1.495-1.172 2.61-1.172 1.16 0 2.051.422 2.671 1.266h.102l-.055-.617-.031-.602v-3.484h1.297V71h-1.055l-.172-1.148zm-2.595.218c.886 0 1.528-.24 1.926-.722.399-.482.598-1.26.598-2.332v-.274c0-1.213-.202-2.08-.606-2.597-.403-.519-1.048-.778-1.933-.778-.76 0-1.343.296-1.746.887-.404.591-.606 1.426-.606 2.504 0 1.094.2 1.92.602 2.476.4.558.99.836 1.765.836z"/><path fill="#DEF4F9" d="M3.57 6.973h.294c.798 0 1.515.304 2.152.913.637.609.955 1.368.955 2.278 0 .896-.318 1.634-.955 2.215s-1.424.871-2.362.871c-1.022 0-1.872-.409-2.551-1.228-.68-.819-1.019-1.984-1.019-3.496a8.71 8.71 0 0 1 .893-3.894C1.572 3.42 2.3 2.462 3.16 1.755c.861-.707 1.628-1.06 2.3-1.06.447 0 .797.133 1.05.399.251.266.377.609.377 1.029 0 .615-.273 1.07-.819 1.364-.742.406-1.33.882-1.763 1.428-.434.546-.68 1.232-.735 2.058zm9.28 0h.273c.784 0 1.494.304 2.131.913.637.609.955 1.368.955 2.278 0 .882-.318 1.624-.955 2.226-.637.602-1.424.902-2.362.902-1.036 0-1.89-.42-2.561-1.26-.672-.84-1.008-2.008-1.008-3.506 0-1.077.175-2.092.525-3.044.35-.952.801-1.781 1.354-2.488.553-.707 1.148-1.267 1.785-1.68.636-.413 1.207-.62 1.71-.62.463 0 .816.13 1.061.39.245.258.367.605.367 1.039 0 .63-.272 1.084-.818 1.364-.77.434-1.351.914-1.743 1.439-.392.524-.63 1.207-.714 2.047zm287.3 59.084h-.315c-.784 0-1.494-.319-2.131-.956-.637-.637-.955-1.389-.955-2.257 0-.896.318-1.644.955-2.246.637-.602 1.417-.903 2.34-.903 1.05 0 1.908.42 2.573 1.26.665.84.997 2.008.997 3.506a8.84 8.84 0 0 1-.871 3.874c-.581 1.21-1.295 2.173-2.142 2.887s-1.613 1.07-2.299 1.07c-.434 0-.787-.136-1.06-.409a1.357 1.357 0 0 1-.41-.997c0-.63.287-1.092.861-1.386.742-.434 1.323-.91 1.743-1.428.42-.518.658-1.19.714-2.015zm9.238 0h-.252c-.798 0-1.522-.315-2.173-.945-.65-.63-.976-1.386-.976-2.268 0-.882.322-1.627.966-2.236.644-.609 1.427-.913 2.351-.913 1.064 0 1.925.413 2.583 1.239.658.825.987 2.001.987 3.527 0 1.414-.29 2.719-.872 3.916-.58 1.196-1.295 2.148-2.141 2.855-.847.707-1.62 1.06-2.32 1.06-.448 0-.805-.132-1.071-.398-.266-.266-.4-.602-.4-1.008 0-.616.288-1.078.862-1.386.797-.462 1.392-.941 1.784-1.438.392-.497.616-1.166.672-2.005z"/></g></svg>