<svg xmlns="http://www.w3.org/2000/svg" width="352" height="304" viewBox="0 0 352 304"><g fill="none" fill-rule="evenodd"><text fill="#224A61" font-size="14" font-weight="bold" transform="translate(-2 -6)"><tspan x="158" y="306">Number of briefs posted</tspan></text><text fill="#313131" font-size="17" transform="translate(-2 -6)"><tspan x="40.054" y="18">Types of briefs on the Marketplace</tspan></text><text fill="#224A61" font-size="11" transform="translate(-2 -6)"><tspan x="12.639" y="88">Software engineering </tspan> <tspan x="31.733" y="103">and development</tspan></text><text fill="#224A61" font-size="11" transform="translate(-2 -6)"><tspan x="69.267" y="49">Outcomes</tspan></text><text fill="#224A61" font-size="11" transform="translate(-2 -6)"><tspan x="28.081" y="127">User research and </tspan> <tspan x="88.28" y="142">design</tspan></text><text fill="#224A61" font-size="11" transform="translate(-2 -6)"><tspan x="31.76" y="166">Agile delivery and </tspan> <tspan x="62.128" y="181">governance</tspan></text><text fill="#224A61" font-size="11" transform="translate(-2 -6)"><tspan x="2.294" y="205">Content and publishing</tspan></text><text fill="#224A61" font-size="11" transform="translate(-2 -6)"><tspan x="57.407" y="244">Data science</tspan></text><text fill="#224A61" font-size="11" transform="translate(-2 -6)"><tspan x="138.71" y="275">0</tspan></text><text fill="#224A61" font-size="11" transform="translate(-2 -6)"><tspan x="334.131" y="275">110</tspan></text><path stroke="#BBB" stroke-linecap="square" d="M138 252.5h212.53"/><path fill="#17788D" d="M136 70h86.85v20H136zm0-39h208.441v20H136zm0 78h81.06v20H136zm0 39h46.32v20H136zm0 39h11.58v20H136zm0 39h11.58v20H136z"/><text fill="#224A61" font-size="14" font-weight="bold" transform="translate(-2 -6)"><tspan x="231.018" y="92">45</tspan></text><text fill="#FFF" font-size="14" font-weight="bold" transform="translate(-2 -6)"><tspan x="316.026" y="52">108</tspan></text><text fill="#224A61" font-size="14" font-weight="bold" transform="translate(-2 -6)"><tspan x="225.018" y="131">42</tspan></text><text fill="#224A61" font-size="14" font-weight="bold" transform="translate(-2 -6)"><tspan x="190.018" y="170">24</tspan></text><text fill="#224A61" font-size="14" font-weight="bold" transform="translate(-2 -6)"><tspan x="153.009" y="209">6</tspan></text><text fill="#224A61" font-size="14" font-weight="bold" transform="translate(-2 -6)"><tspan x="153.009" y="247">6</tspan></text></g></svg>