<svg xmlns="http://www.w3.org/2000/svg" width="356" height="304" viewBox="0 0 356 304"><g fill="none" fill-rule="evenodd"><text fill="#313131" font-size="17" transform="translate(-3 -6)"><tspan x="36.936" y="18">Trend for day rates offered per area </tspan> <tspan x="132.665" y="44">of expertise</tspan></text><text fill="#224A61" font-size="14" font-weight="bold" transform="translate(-3 -6)"><tspan x="156" y="306">Contractor daily rate bid $</tspan></text><path fill="#001F5F" fill-opacity=".3" fill-rule="nonzero" stroke="#BBB" d="M140 251h215"/><path fill="#E78AC3" fill-opacity=".5" fill-rule="nonzero" d="M146 201.151l13.592.355.273.02 7.613.875.273.047 8.972 1.898.272.066 10.872 2.334.272.042 6.255.516.273.005 6.524-.346.272-.028 8.427-.554.273.005 5.437.44.273.038 11.689 1.406h.272l4.62-.327.273-.038 6.796-1.4.272-.067 14.683-3.242.272-.043 9.245-1.25.272-.027 10.876-.62.268-.005 9.517-.104v-.024l-9.517-.104-.268-.005-10.876-.62-.272-.028-9.245-1.25-.272-.042-14.683-3.242-.272-.067-6.796-1.4-.273-.038-4.62-.327h-.272l-11.69 1.406-.272.038-5.437.44-.273.004-8.427-.553-.272-.029-6.524-.345-.273.005-6.255.515-.272.043-10.872 2.333-.272.067-8.972 1.897-.273.048-7.613.875-.273.02-13.592.354z"/><path stroke="#C35D8E" stroke-width="2" d="M146 201.118l13.592-.355.273-.019 7.613-.875.273-.048 8.972-1.897.272-.067 10.872-2.333.272-.043 6.255-.515.273-.005 6.524.345.272.029 8.427.553.273-.004 5.437-.44.273-.038L227.562 194h.272l4.62.327.273.037 6.796 1.401.272.067 14.683 3.242.272.042 9.245 1.25.272.028 10.876.62.268.005 9.517.104"/><path stroke="#C35D8E" stroke-width="2" d="M146 201.005l13.592.355.273.019 7.613.875.273.048 8.972 1.897.272.067 10.872 2.333.272.043 6.255.515.273.005 6.524-.345.272-.029 8.427-.553.273.004 5.437.44.273.038 11.689 1.406h.272l4.62-.327.273-.037 6.796-1.401.272-.067 14.683-3.242.272-.042 9.245-1.25.272-.028 10.876-.62.268-.005 9.517-.104"/><text fill="#444" font-size="11" transform="translate(-3 -6)"><tspan x="197" y="275">1000</tspan></text><text fill="#444" font-size="11" transform="translate(-3 -6)"><tspan x="267" y="275">2000</tspan></text><text fill="#444" font-size="11" transform="translate(-3 -6)"><tspan x="332" y="276">3000</tspan></text><path fill="#E5C494" fill-opacity=".5" fill-rule="nonzero" d="M180.166 74.483l.506.028 11.114.96.506.067 7.073 1.193.506.113 14.652 3.304.506.066 10.607 1.046.506.01 6.567-.346.506-.042 13.138-1.165.502-.1 8.591-1.476.507-.042 14.145-1.449.502-.061 24.252-2.376.506-.014 15.664.047.506.01 17.68-.005.506-.01v-.213l-.506-.01-17.68-.004-.506.01-15.664.047-.506-.014L270.6 71.68l-.502-.062-14.145-1.448-.507-.043-8.591-1.476-.502-.1-13.138-1.164-.506-.042-6.567-.346-.506.01-10.607 1.045-.506.067-14.652 3.303-.506.114-7.073 1.193-.506.066-11.114.96-.506.029-16.166.345z"/><path stroke="#97784C" stroke-width="2" d="M164 74.132l16.166-.345.506-.028 11.114-.961.506-.066 7.073-1.193.506-.114 14.652-3.303.506-.067 10.607-1.046.506-.009 6.567.346.506.042 13.138 1.164.502.1 8.591 1.476.507.043 14.145 1.448.502.062 24.252 2.376.506.014 15.664-.047.506-.01 17.68.005.506.01"/><path stroke="#97784C" stroke-width="2" d="M164 74l16.166.346.506.028 11.114.96.506.067 7.073 1.193.506.113 14.652 3.304.506.066 10.607 1.046.506.01 6.567-.346.506-.043 13.138-1.164.502-.1 8.591-1.476.507-.043 14.145-1.448.502-.061 24.252-2.376.506-.014 15.664.047.506.01 17.68-.005.506-.01"/><text fill="#224A61" font-size="11" transform="translate(-2 59)"><tspan x="27.532" y="12">User research and </tspan> <tspan x="87.731" y="27">design</tspan></text><path fill="#A6D854" fill-opacity=".5" fill-rule="nonzero" d="M156 106.052l19.566.416 1.086.076 8.7.98 1.085.18 8.696 1.86 1.09.274 9.78 2.21 1.09.166 6.52.578 1.09.052 13.043.26 1.086-.08 5.438-.833 1.085-.228 10.871-1.969 1.086-.16 9.786-1.089 1.085-.052 25.004-1.292 1.086-.118 13.047-1.136 1.086-.029 20.652-.01h1.09v-.113h-1.09l-20.652-.01-1.086-.028-13.047-1.136-1.086-.118-25.004-1.292-1.085-.052-9.786-1.089-1.086-.16-10.87-1.97-1.086-.227-5.438-.833-1.086-.08-13.043.26-1.09.052-6.52.578-1.09.165-9.78 2.21-1.09.275-8.696 1.86-1.085.18-8.7.98-1.086.075z"/><path stroke="#0CAC78" stroke-width="2" d="M156 106.052l19.566-.417 1.086-.075 8.7-.98 1.085-.18 8.696-1.86 1.09-.274 9.78-2.21 1.09-.166 6.52-.578 1.09-.052 13.043-.26 1.086.08 5.438.833 1.085.228 10.871 1.969 1.086.16 9.786 1.089 1.085.052 25.004 1.292 1.086.118 13.047 1.136 1.086.029 20.652.01h1.09"/><path stroke="#0CAC78" stroke-width="2" d="M156 106l19.566.416 1.086.076 8.7.98 1.085.18 8.696 1.86 1.09.274 9.78 2.21 1.09.166 6.52.578 1.09.052 13.043.26 1.086-.08 5.438-.833 1.085-.228 10.871-1.969 1.086-.16 9.786-1.089 1.085-.052 25.004-1.292 1.086-.118 13.047-1.136 1.086-.029 20.652-.01"/><text fill="#224A61" font-size="11" transform="translate(-3 94)"><tspan x="12.639" y="12">Software engineering </tspan> <tspan x="31.733" y="27">and development</tspan></text><path fill="#FFD92F" fill-opacity=".5" fill-rule="nonzero" d="M145 140.061l20.444.35.355.015 46.63 2.078.359.037 27.258 3.181.359.062 9.681 1.306.36.019 5.74-.024.359-.024 6.454-.842.36-.062 12.912-2.735.36-.076 9.68-1.694.36-.043 8.608-.672.36-.019 21.158-.767.359-.01 11.122-.08v-.014l-11.122-.08-.36-.01-21.158-.766-.359-.02-8.608-.671-.36-.043-9.68-1.694-.36-.076-12.913-2.736-.359-.061-6.454-.843-.36-.023-5.74-.024-.359.019-9.681 1.306-.36.062-27.257 3.18-.36.038-46.629 2.078-.355.014-20.444.35z"/><path stroke="#F69900" stroke-width="2" d="M145 140.047l20.444-.35.355-.014 46.63-2.078.359-.038 27.258-3.18.359-.062 9.681-1.306.36-.019 5.74.024.359.023 6.454.843.36.061 12.912 2.736.36.076 9.68 1.694.36.043 8.608.672.36.019 21.158.766.359.01 11.122.08"/><path stroke="#F69900" stroke-width="2" d="M145 140l20.444.35.355.014 46.63 2.078.359.038 27.258 3.18.359.062 9.681 1.306.36.02 5.74-.024.359-.024 6.454-.843.36-.061 12.912-2.736.36-.075 9.68-1.695.36-.042 8.608-.672.36-.02 21.158-.766.359-.01 11.122-.08"/><text fill="#224A61" font-size="11" transform="translate(-3 131)"><tspan x="57.407" y="12">Data science</tspan></text><path fill="#FC8D62" fill-opacity=".5" fill-rule="nonzero" d="M198.616 171.685l8.657 1.278 17.308 3.142 8.652.999 8.656.166 8.652-.497 25.96-2.23 8.656-1.178 17.308-2.22 8.652-.544 17.391-.002-.04-.933-17.35-.002-8.653-.544-17.308-2.22-8.656-1.179-25.96-2.229-8.652-.492-8.656.16-8.652 1-17.308 3.142-8.657 1.278-8.652.87-8.656.46-17.308.213z"/><path stroke="#F17465" stroke-width="2" d="M164 170.123l17.308-.213 8.656-.46 8.652-.87 8.657-1.278 17.308-3.142 8.652-1 8.656-.16 8.652.492 25.96 2.23 8.656 1.178 17.308 2.22 8.443.53 17.586.01"/><path stroke="#F17465" stroke-width="2" d="M164 170l17.308.213 8.656.46 8.652.87 8.657 1.278 17.308 3.142 8.652 1 8.656.165 8.652-.497 25.96-2.23 8.656-1.178 17.308-2.22 8.482-.533 17.547-.006"/><text fill="#224A61" font-size="11" transform="translate(-2 160)"><tspan x="49.152" y="12">Cyber security</tspan></text><text fill="#224A61" font-size="11" transform="translate(-3 -6)"><tspan x="2.745" y="205">Content and publishing</tspan></text><path fill="#66C2A5" fill-opacity=".5" fill-rule="nonzero" d="M164 235.114l13.956.326.333.033 5.982.923.334.066 7.977 1.487.328.028 7.311.274.333.02 5.317.714.333.071 13.96 3.157.333.014 3.984-.16.333-.039 6.65-1.192.332-.062 7.64-1.202.333-.033 10.966-1.415.334-.057 9.638-1.292.333-.038 11.632-.999.333-.004 56.493-.616h.333l3.989-.004-3.989-.005h-.333l-56.493-.615-.333-.005-11.632-.999-.333-.038-9.638-1.292-.334-.057-10.966-1.415-.333-.033-7.64-1.202-.333-.062-6.649-1.192-.333-.038-3.984-.161-.333.014-13.96 3.157-.333.071-5.317.715-.333.019-7.31.274-.33.029-7.976 1.486-.334.066-5.982.923-.333.033z"/><path stroke="#4E9774" stroke-width="2" d="M164 235.114l13.956-.327.333-.033 5.982-.923.334-.066 7.977-1.486.328-.029 7.311-.274.333-.02 5.317-.714.333-.071 13.96-3.157.333-.014 3.984.16.333.039 6.65 1.192.332.062 7.64 1.202.333.033 10.966 1.415.334.057 9.638 1.292.333.038 11.632.999.333.005 56.493.615h.333l3.989.005"/><path stroke="#4E9774" stroke-width="2" d="M164 235l13.956.327.333.033 5.982.923.334.066 7.977 1.486.328.028 7.311.275.333.019 5.317.714.333.071 13.96 3.157.333.015 3.984-.161.333-.038 6.65-1.193.332-.061 7.64-1.203.333-.033 10.966-1.415.334-.057 9.638-1.292.333-.038 11.632-.998.333-.005 56.493-.615h.333l3.989-.005"/><text fill="#224A61" font-size="11" transform="translate(-2 222)"><tspan x="31.211" y="12">Agile delivery and </tspan> <tspan x="61.579" y="27">governance</tspan></text><text fill="#444" font-size="11" transform="translate(-3 -6)"><tspan x="141" y="275">0</tspan></text></g></svg>