<svg width="335" height="541" viewBox="0 0 335 541" xmlns="http://www.w3.org/2000/svg" xmlns:xlink="http://www.w3.org/1999/xlink"><title>&gt;768 Top 10 sellers awarded contracts over 3 months</title><defs><path id="a" d="M138 198.213h84.628v20H138z"/><path id="b" d="M138 278.213h63.471v20H138z"/><path id="c" d="M221 524.213h16v16h-16z"/></defs><g fill="none" fill-rule="evenodd"><path fill="#17788D" d="M120 80.213h169.255v20H120z"/><text font-size="11" fill="#224A61" transform="translate(-18)"><tspan x="47.82" y="92.213">Adelphi Digital </tspan> <tspan x="31.948" y="107.213">Consulting Group</tspan></text><text font-size="11" fill="#224A61" transform="translate(-18)"><tspan x="91.498" y="132.213">Paxus</tspan></text><text font-size="11" fill="#224A61" transform="translate(-18)"><tspan x="19.031" y="172.213">2XM Technology Pty </tspan> <tspan x="105.667" y="187.213">Ltd</tspan></text><text font-size="11" fill="#224A61" transform="translate(-18)"><tspan x="18.096" y="211.213">SMS Management &amp; </tspan> <tspan x="63.364" y="226.213">Technology</tspan></text><text font-size="11" fill="#224A61" transform="translate(-18)"><tspan x="41.514" y="251.213">Zen Ex Machina</tspan></text><text font-size="11" fill="#224A61" transform="translate(-18)"><tspan x="84.263" y="291.213">Oakton</tspan></text><text font-size="11" fill="#224A61" transform="translate(-18)"><tspan x="41.02" y="371.213">Tobias &amp; Tobias</tspan></text><text font-size="11" fill="#224A61" transform="translate(-18)"><tspan x="61.457" y="331.213">Paper Giant</tspan></text><path fill="#17788D" d="M120 120.213h105.785v20H120zM120 159.213h84.628v20H120z"/><g transform="translate(-18)"><use fill="#FFF" xlink:href="#aee"/><path stroke="#17788D" stroke-width="2" d="M139 199.213h82.628v18H139z"/></g><path fill="#17788D" d="M120 358.213h42.314v20H120zM120 318.213h63.471v20H120z"/><g transform="translate(-18)"><use fill="#FFF" xlink:href="#b"/><path stroke="#17788D" stroke-width="2" d="M139 279.213h61.471v18H139z"/></g><path fill="#17788D" d="M120 238.213h84.628v20H120z"/><text font-size="14" font-weight="bold" fill="#224A61" transform="translate(-18)"><tspan x="314" y="95.213">8</tspan></text><text font-size="14" font-weight="bold" fill="#224A61" transform="translate(-18)"><tspan x="249" y="134.213">5</tspan></text><text font-size="14" font-weight="bold" fill="#224A61" transform="translate(-18)"><tspan x="228" y="174.213">4</tspan></text><text font-size="14" font-weight="bold" fill="#224A61" transform="translate(-18)"><tspan x="228" y="213.213">4</tspan></text><text font-size="14" font-weight="bold" fill="#224A61" transform="translate(-18)"><tspan x="228" y="253.213">4</tspan></text><text font-size="14" font-weight="bold" fill="#224A61" transform="translate(-18)"><tspan x="207" y="293.213">3</tspan></text><text font-size="14" font-weight="bold" fill="#224A61" transform="translate(-18)"><tspan x="207" y="333.213">3</tspan></text><text font-size="14" font-weight="bold" fill="#224A61" transform="translate(-18)"><tspan x="187" y="373.213">2</tspan></text><text font-size="11" fill="#224A61" transform="translate(-18)"><tspan x="340.421" y="477.213">10</tspan></text><text font-size="14" font-weight="bold" fill="#224A61" transform="translate(-18)"><tspan x="169" y="497.213">Number of briefs won</tspan></text><text font-size="11" fill="#224A61" transform="translate(-18)"><tspan x="136.71" y="476.213">0</tspan></text><text font-size="11" fill="#224A61" transform="translate(-18)"><tspan x="51.682" y="410.213">AUREC Group</tspan></text><text font-size="11" fill="#224A61" transform="translate(-18)"><tspan x="66.925" y="449.213">ThinkPlace</tspan></text><path fill="#17788D" d="M120 438.213h42.314v20H120zM120 398.213h42.314v20H120z"/><path d="M120.572 461.713h213.884" stroke="#BBB" stroke-linecap="square"/><text font-size="14" font-weight="bold" fill="#224A61" transform="translate(-18)"><tspan x="187" y="413.213">2</tspan></text><text font-size="14" font-weight="bold" fill="#224A61" transform="translate(-18)"><tspan x="187" y="453.213">2</tspan></text><text font-size="14" fill="#808184" transform="translate(-18)"><tspan x="160" y="536.213">SME</tspan></text><text font-size="14" fill="#808184" transform="translate(-18)"><tspan x="243" y="536.213">Other</tspan></text><path fill="#17788D" d="M120 524.213h16v16h-16z"/><g transform="translate(-18)"><use fill="#FFF" xlink:href="#c"/><path stroke="#17788D" stroke-width="2" d="M222 525.213h14v14h-14z"/></g><path fill="#FFF" d="M117 0h126v36H117z"/><text font-size="17" fill="#313131" transform="translate(-18)"><tspan x="45.909" y="29.213">Top 10 sellers awarded contracts </tspan> <tspan x="102.546" y="55.213">June - August 2017</tspan></text></g></svg>
