<svg width="32px" height="32px" viewBox="0 0 32 32" version="1.1" xmlns="http://www.w3.org/2000/svg">
    <title>Warning Copy 2</title>
    <desc>Created with Sketch.</desc>
    <defs></defs>
    <g id="Page-1" stroke="none" stroke-width="1" fill="none" fill-rule="evenodd">
        <g id="Warning-Copy-2" fill="#313131">
            <path d="M18.0002372,1.28846154 L31.7161495,28.3653846 C32.1090532,29.1153846 32.0911939,30.0384615 31.6804309,30.7884615 C31.2696679,31.5384615 30.519579,32 29.7159123,32 L2.28408775,32 C1.48042101,32 0.730332062,31.5384615 0.319569064,30.7884615 C-0.0911939328,30.0384615 -0.109053194,29.1153846 0.283850543,28.3653846 L13.9997628,1.28846154 C14.3926665,0.5 15.1606147,0 16,0 C16.8393853,0 17.6073335,0.5 18.0002372,1.28846154 Z M18,26.3554687 L18,22.6445312 C18,22.2929688 17.7265625,22 17.375,22 L13.625,22 C13.2734375,22 13,22.2929688 13,22.6445312 L13,26.3554687 C13,26.7070312 13.2734375,27 13.625,27 L17.375,27 C17.7265625,27 18,26.7070312 18,26.3554687 Z M17.6875,18.5957031 L18,10.5273438 C18,10.421875 17.9479167,10.28125 17.8263889,10.1933594 C17.7222222,10.1054688 17.5659722,10 17.4097222,10 L13.5902778,10 C13.4340278,10 13.2777778,10.1054688 13.1736111,10.1933594 C13.0520833,10.28125 13,10.4570312 13,10.5625 L13.2951389,18.5957031 C13.2951389,18.8242187 13.5555556,19 13.8854167,19 L17.0972222,19 C17.4097222,19 17.6701389,18.8242187 17.6875,18.5957031 Z" id="Combined-Shape"></path>
        </g>
    </g>
</svg>
