<?xml version="1.0" encoding="UTF-8" standalone="no"?>
<svg width="16px" height="10px" viewBox="0 0 16 10" version="1.1" xmlns="http://www.w3.org/2000/svg" xmlns:xlink="http://www.w3.org/1999/xlink">
    <!-- Generator: Sketch 42 (36781) - http://www.bohemiancoding.com/sketch -->
    <title></title>
    <desc>Created with Sketch.</desc>
    <defs></defs>
    <g id="Symbols" stroke="none" stroke-width="1" fill="none" fill-rule="evenodd">
        <g id="Chevron" transform="translate(0.000000, -8.000000)" stroke="#17788D" stroke-width="2" fill="#17788D">
            <path d="M14.3973386,10.2857015 C14.3973386,10.1785585 14.3437671,10.0580227 14.2634099,9.97766543 L13.5937662,9.30802178 C13.513409,9.22766454 13.3928731,9.17409305 13.2857301,9.17409305 C13.1785871,9.17409305 13.0580513,9.22766454 12.977694,9.30802178 L7.71429491,14.5714209 L2.45089578,9.30802178 C2.37053854,9.22766454 2.25000268,9.17409305 2.1428597,9.17409305 C2.02232384,9.17409305 1.91518085,9.22766454 1.83482362,9.30802178 L1.16517996,9.97766543 C1.08482272,10.0580227 1.03125123,10.1785585 1.03125123,10.2857015 C1.03125123,10.3928445 1.08482272,10.5133804 1.16517996,10.5937376 L7.40625883,16.8348165 C7.48661607,16.9151737 7.60715193,16.9687452 7.71429491,16.9687452 C7.8214379,16.9687452 7.94197375,16.9151737 8.02233099,16.8348165 L14.2634099,10.5937376 C14.3437671,10.5133804 14.3973386,10.3928445 14.3973386,10.2857015 Z" id=""></path>
        </g>
    </g>
</svg>