<svg width="16" height="10" viewBox="0 0 16 10" xmlns="http://www.w3.org/2000/svg"><title></title><path d="M14.397 2.286a.461.461 0 0 0-.134-.308l-.67-.67a.461.461 0 0 0-.307-.134.461.461 0 0 0-.308.134L7.714 6.571 2.451 1.308a.461.461 0 0 0-.308-.134.436.436 0 0 0-.308.134l-.67.67c-.08.08-.134.2-.134.308 0 .107.054.227.134.308l6.241 6.24c.08.081.201.135.308.135a.461.461 0 0 0 .308-.134l6.241-6.241c.08-.08.134-.201.134-.308z" stroke="#17788D" stroke-width="2" fill="#17788D" fill-rule="evenodd"/></svg>