<svg width="35" height="35" viewBox="0 0 35 35" xmlns="http://www.w3.org/2000/svg"><title>6DCC68FB-8ACC-4694-A543-E3134197AD51</title><path d="M28.66 14.098c0 .38-.133.737-.401 1.005l-12.12 12.12a1.472 1.472 0 0 1-1.027.424 1.46 1.46 0 0 1-1.005-.424l-8.08-8.08a1.399 1.399 0 0 1-.402-1.005c0-.38.134-.759.402-1.026l2.031-2.01a1.42 1.42 0 0 1 1.005-.423c.379 0 .736.156 1.004.424l5.045 5.044 9.107-9.085a1.42 1.42 0 0 1 1.004-.424c.38 0 .737.157 1.005.424l2.031 2.01c.268.267.402.647.402 1.026zm5.626 3.616C34.286 8.25 26.607.571 17.143.571S0 8.25 0 17.714c0 9.465 7.679 17.143 17.143 17.143s17.143-7.678 17.143-17.143z" stroke="none" fill="#17788D" fill-rule="evenodd"/></svg>