<?xml version="1.0" encoding="UTF-8" standalone="no"?>
<svg width="24px" height="24px" viewBox="0 0 24 24" version="1.1" xmlns="http://www.w3.org/2000/svg" xmlns:xlink="http://www.w3.org/1999/xlink">
    <!-- Generator: Sketch 41.2 (35397) - http://www.bohemiancoding.com/sketch -->
    <title> copy</title>
    <desc>Created with Sketch.</desc>
    <defs></defs>
    <g id="Actionable-notifications" stroke="none" stroke-width="1" fill="none" fill-rule="evenodd">
        <g id="Artboard" transform="translate(-90.000000, -284.000000)" fill="#00BFE9">
            <path d="M106,303.5 C106,303.78125 105.78125,304 105.5,304 L98.5,304 C98.21875,304 98,303.78125 98,303.5 L98,301 C98,300.71875 98.21875,300.5 98.5,300.5 L100,300.5 L100,295.5 L98.5,295.5 C98.21875,295.5 98,295.28125 98,295 L98,292.5 C98,292.21875 98.21875,292 98.5,292 L103.5,292 C103.78125,292 104,292.21875 104,292.5 L104,300.5 L105.5,300.5 C105.78125,300.5 106,300.71875 106,301 L106,303.5 Z M104,289.5 C104,289.78125 103.78125,290 103.5,290 L100.5,290 C100.21875,290 100,289.78125 100,289.5 L100,287 C100,286.71875 100.21875,286.5 100.5,286.5 L103.5,286.5 C103.78125,286.5 104,286.71875 104,287 L104,289.5 Z M114,296 C114,289.375 108.625,284 102,284 C95.375,284 90,289.375 90,296 C90,302.625 95.375,308 102,308 C108.625,308 114,302.625 114,296 Z" id="-copy"></path>
        </g>
    </g>
</svg>