<svg width="21" height="22" viewBox="0 0 21 22" xmlns="http://www.w3.org/2000/svg"><title>search</title><path d="M14.143 9.357c0-3.032-2.468-5.5-5.5-5.5a5.507 5.507 0 0 0-5.5 5.5c0 3.033 2.468 5.5 5.5 5.5s5.5-2.467 5.5-5.5zm6.286 10.214c0 .86-.712 1.572-1.572 1.572a1.54 1.54 0 0 1-1.105-.467l-4.21-4.198A8.623 8.623 0 0 1 8.641 18 8.64 8.64 0 0 1 0 9.357 8.64 8.64 0 0 1 8.643.714a8.64 8.64 0 0 1 8.643 8.643 8.623 8.623 0 0 1-1.523 4.899l4.211 4.21c.283.283.455.688.455 1.105z" fill="#FFF" fill-rule="evenodd"/></svg>