<?xml version="1.0" encoding="UTF-8" standalone="no"?>
<svg width="21px" height="22px" viewBox="0 0 21 22" version="1.1" xmlns="http://www.w3.org/2000/svg" xmlns:xlink="http://www.w3.org/1999/xlink">
    <!-- Generator: Sketch 42 (36781) - http://www.bohemiancoding.com/sketch -->
    <title>search</title>
    <desc>Created with Sketch.</desc>
    <defs></defs>
    <g id="Catalogue" stroke="none" stroke-width="1" fill="none" fill-rule="evenodd">
        <g id="Catalogue-seller-search-results" transform="translate(-1148.000000, -294.000000)" fill="#FFFFFF">
            <path d="M1162.14287,303.357133 C1162.14287,300.324763 1159.67524,297.857126 1156.64287,297.857126 C1153.6105,297.857126 1151.14286,300.324763 1151.14286,303.357133 C1151.14286,306.389502 1153.6105,308.857139 1156.64287,308.857139 C1159.67524,308.857139 1162.14287,306.389502 1162.14287,303.357133 Z M1168.4286,313.57143 C1168.4286,314.430806 1167.71654,315.142861 1166.85717,315.142861 C1166.43975,315.142861 1166.03462,314.970986 1165.75225,314.676342 L1161.54131,310.477677 C1160.10493,311.472098 1158.38617,312 1156.64287,312 C1151.86719,312 1148,308.132808 1148,303.357133 C1148,298.581457 1151.86719,294.714265 1156.64287,294.714265 C1161.41854,294.714265 1165.28573,298.581457 1165.28573,303.357133 C1165.28573,305.100438 1164.75783,306.81919 1163.76341,308.255576 L1167.97435,312.466518 C1168.25672,312.748885 1168.4286,313.154019 1168.4286,313.57143 Z" id="search"></path>
        </g>
    </g>
</svg>