<?xml version="1.0" encoding="UTF-8" standalone="no"?>
<svg width="24px" height="23px" viewBox="0 0 24 23" version="1.1" xmlns="http://www.w3.org/2000/svg" xmlns:xlink="http://www.w3.org/1999/xlink">
    <!-- Generator: Sketch 41.2 (35397) - http://www.bohemiancoding.com/sketch -->
    <title> copy 6</title>
    <desc>Created with Sketch.</desc>
    <defs></defs>
    <g id="Actionable-notifications" stroke="none" stroke-width="1" fill="none" fill-rule="evenodd">
        <g id="Artboard" transform="translate(-90.000000, -85.000000)" fill="#FFFFFF">
            <path d="M103.714489,103.417363 C103.714489,103.658463 103.526967,103.859379 103.285867,103.859379 L100.714133,103.859379 C100.473033,103.859379 100.285511,103.658463 100.285511,103.417363 L100.285511,100.872418 C100.285511,100.631318 100.473033,100.430401 100.714133,100.430401 L103.285867,100.430401 C103.526967,100.430401 103.714489,100.631318 103.714489,100.872418 L103.714489,103.417363 Z M103.6877,98.40784 C103.674306,98.5819678 103.473389,98.7159123 103.232289,98.7159123 L100.754317,98.7159123 C100.499822,98.7159123 100.298905,98.5819678 100.298905,98.40784 L100.0712,92.2865784 C100.0712,92.2062117 100.111383,92.0722673 100.205144,92.005295 C100.285511,91.9383228 100.406061,91.8579561 100.526611,91.8579561 L103.473389,91.8579561 C103.593939,91.8579561 103.714489,91.9383228 103.794856,92.005295 C103.888617,92.0722673 103.9288,92.1794228 103.9288,92.2597895 L103.6877,98.40784 Z M103.500178,85.8974279 C103.2055,85.3482556 102.629539,85 102,85 C101.370461,85 100.7945,85.3482556 100.499822,85.8974279 L90.2128879,104.756807 C89.9182101,105.279191 89.9316046,105.922124 90.2396768,106.444507 C90.547749,106.966891 91.1103158,107.288357 91.7130658,107.288357 L112.286934,107.288357 C112.889684,107.288357 113.452251,106.966891 113.760323,106.444507 C114.068395,105.922124 114.08179,105.279191 113.787112,104.756807 L103.500178,85.8974279 Z" id="-copy-6"></path>
        </g>
    </g>
</svg>