<?xml version="1.0" encoding="UTF-8" standalone="no"?>
<svg width="87px" height="56px" viewBox="0 0 87 56" version="1.1" xmlns="http://www.w3.org/2000/svg" xmlns:xlink="http://www.w3.org/1999/xlink">
    <!-- Generator: Sketch 50.2 (55047) - http://www.bohemiancoding.com/sketch -->
    <title>dta logo</title>
    <desc>Created with Sketch.</desc>
    <defs>
        <polygon id="path-1" points="0 0.0461142857 30.8673607 0.0461142857 30.8673607 41.8458514 0 41.8458514"></polygon>
    </defs>
    <g id="Symbols" stroke="none" stroke-width="1" fill="none" fill-rule="evenodd">
        <g id="Footer" transform="translate(-56.000000, -79.000000)">
            <g id="dta-logo" transform="translate(56.000000, 79.000000)">
                <polygon id="Fill-1" fill="#44C1EF" points="1 56 87 56 87 48 1 48"></polygon>
                <g id="Group-4">
                    <mask id="mask-2" fill="white">
                        <use xlink:href="#path-1"></use>
                    </mask>
                    <g id="Clip-3"></g>
                    <path d="M23.7653115,26.6457943 C23.7653115,21.28128 20.3778415,17.5371086 15.4612077,17.5371086 C10.598612,17.5371086 7.21165027,21.3369943 7.15693443,26.6457943 C7.21165027,32.0103086 10.544235,35.75448 15.4612077,35.75448 C20.3778415,35.75448 23.7653115,32.0103086 23.7653115,26.6457943 Z M30.8673607,0.04608 L30.8673607,41.5103657 L23.7653115,41.5103657 L23.7653115,36.7045371 C21.6893279,40.0016229 18.3018579,41.8458514 13.9311967,41.8458514 C5.57254645,41.8458514 0,35.5869943 0,26.4781371 C0,17.4253371 5.57254645,11.3343086 13.7672186,11.3343086 C18.2476503,11.3343086 21.634612,13.1783657 23.7653115,16.5313371 L23.7653115,0.04608 L30.8673607,0.04608 Z" id="Fill-2" fill="#FFFFFF" mask="url(#mask-2)"></path>
                </g>
                <path d="M55,39.8100078 C52.7656303,41.2136767 50.2585333,42 47.697533,42 C42.9562352,42 39.1414329,39.1923176 39.1414329,33.0161054 L39.1414329,16.9067264 L35.0540723,16.9067264 L35,11.5724744 L39.1414329,11.5724744 L39.1414329,0 L46.1711727,0 L46.1711727,11.5724744 L54.5096316,11.5724744 L54.5096316,16.9067264 L46.1711727,16.9067264 L46.1711727,31.7247438 C46.1711727,34.5882353 47.3158162,35.542675 49.2232173,35.542675 C50.4221021,35.542675 51.7845556,35.0936181 53.3648192,34.3074671 L55,39.8100078 Z" id="Fill-5" fill="#FFFFFF"></path>
                <path d="M79.8543736,27.0994594 L79.8543736,25.0116478 C79.4148447,20.2865562 76.171806,17.0996392 71.5551328,17.0996392 C66.6630511,17.0996392 63.2555512,20.8358561 63.2003332,26.0554694 C63.2555512,31.3298609 66.6081739,35.011131 71.5551328,35.011131 C76.171806,35.011131 79.4148447,31.824551 79.8543736,27.0994594 Z M87,11.2759478 L87,40.6703189 L79.8543736,40.6703189 L79.8543736,36.0001742 C77.7658015,39.1867541 74.412838,41 70.0158441,41 C61.6063377,41 56,34.8462904 56,25.8906288 C56,17.0448609 61.4965832,11.0561604 69.7411172,11.0012136 C74.248036,10.9462667 77.7110947,12.7593441 79.8543736,16.0008709 L79.8543736,11.2759478 L87,11.2759478 Z" id="Fill-7" fill="#FFFFFF"></path>
            </g>
        </g>
    </g>
</svg>