<?xml version="1.0" encoding="UTF-8" standalone="no"?>
<svg width="161px" height="56px" viewBox="0 0 161 56" version="1.1" xmlns="http://www.w3.org/2000/svg" xmlns:xlink="http://www.w3.org/1999/xlink">
    <!-- Generator: Sketch 50 (54983) - http://www.bohemiancoding.com/sketch -->
    <title>Group 7</title>
    <desc>Created with Sketch.</desc>
    <defs></defs>
    <g id="Symbols" stroke="none" stroke-width="1" fill="none" fill-rule="evenodd">
        <g id="Footer" transform="translate(-55.000000, -189.000000)" fill="#FFFFFF" fill-rule="nonzero">
            <g id="Group-7" transform="translate(55.000000, 189.000000)">
                <path d="M62.9686024,30 C62.8085579,30 62.6796332,29.9602964 62.5818283,29.8787994 C62.4840233,29.7973024 62.3839955,29.6761018 62.2817449,29.5151976 L57.9094193,22.3162994 C57.8516255,22.2306231 57.7938316,22.1992781 57.7315921,22.2201748 C57.664907,22.2410715 57.6337871,22.2954028 57.6337871,22.3831687 L57.6337871,29.5151976 C57.6337871,29.6656535 57.5893304,29.7847644 57.4959711,29.8704407 C57.4048347,29.9582067 57.2781328,30 57.1203112,30 L56.5179216,30 C56.3556543,30 56.2289525,29.9582067 56.1378161,29.8704407 C56.0444568,29.7847644 56,29.6656535 56,29.5151976 L56,19.4868921 C56,19.3364362 56.0444568,19.2173253 56.1378161,19.1316489 C56.2289525,19.043883 56.3556543,19 56.5179216,19 L57.1869964,19 C57.3603779,19 57.5026397,19.0292554 57.6182273,19.0898557 C57.7338149,19.150456 57.8360656,19.2528495 57.927202,19.4053952 L62.1083634,26.2490502 C62.155043,26.3117401 62.2083912,26.3389058 62.2728535,26.3284574 C62.335093,26.3180091 62.3662128,26.2699468 62.3662128,26.1821809 L62.3662128,19.4868921 C62.3662128,19.3364362 62.4106696,19.2173253 62.5040289,19.1316489 C62.5951653,19.043883 62.7218671,19 62.8841344,19 L63.486524,19 C63.6443457,19 63.7710474,19.043883 63.8621839,19.1316489 C63.9555431,19.2173253 64,19.3364362 64,19.4868921 L64,29.5151976 C64,29.6656535 63.9555431,29.7847644 63.8621839,29.8704407 C63.7710474,29.9582067 63.6443457,30 63.486524,30 L62.9686024,30 Z" id="Fill-240"></path>
                <path d="M69.6650674,21.0545316 C69.6330967,20.935398 69.5776809,20.8768763 69.4988199,20.8768763 C69.4242217,20.8768763 69.3688059,20.935398 69.3347038,21.0545316 L68.0153807,25.4394832 C67.9812787,25.566977 68.0324317,25.633859 68.1624458,25.633859 L70.8373254,25.633859 C70.9694708,25.633859 71.0184925,25.566977 70.9865218,25.4394832 L69.6650674,21.0545316 Z M72.815244,30 C72.521114,30 72.3335525,29.8725062 72.254692,29.6112483 L71.5278918,27.2515676 C71.4959209,27.1428843 71.4191915,27.0885426 71.2977027,27.0885426 L67.7020682,27.0885426 C67.5827109,27.0885426 67.50385,27.1428843 67.4718793,27.2515676 L66.7450793,29.6112483 C66.6683497,29.8725062 66.4807885,30 66.1823956,30 L65.3746033,30 C65.0570279,30 64.9419335,29.8495155 65.0271886,29.5485464 L68.3286933,19.4368231 C68.3819778,19.265438 68.4587074,19.1483945 68.5503566,19.0898727 C68.6462687,19.0292609 68.7677572,19 68.9212164,19 L70.0764234,19 C70.232014,19 70.3556339,19.0292609 70.4494145,19.0898727 C70.5410638,19.1483945 70.6156621,19.265438 70.6710779,19.4368231 L73.9725826,29.5485464 C74.0578377,29.8495155 73.9448746,30 73.6251683,30 L72.815244,30 Z" id="Fill-241"></path>
                <path d="M74.7050341,30 C74.5461224,30 74.4242178,29.9582067 74.3349657,29.8704407 C74.2457144,29.7847644 74.1999997,29.6656535 74.1999997,29.5151976 L74.1999997,20.6174012 C74.1999997,20.5108283 74.1434016,20.456497 74.0323812,20.456497 L71.5028571,20.456497 C71.3461227,20.456497 71.2242174,20.412614 71.1327888,20.3269377 C71.0435374,20.2391717 71,20.1221504 71,19.9716946 L71,19.4868921 C71,19.3364362 71.0435374,19.2173253 71.1327888,19.1316489 C71.2242174,19.043883 71.3461227,19 71.5028571,19 L78.4971429,19 C78.6538773,19 78.7757826,19.043883 78.8672112,19.1316489 C78.9564626,19.2173253 79,19.3364362 79,19.4868921 L79,19.9716946 C79,20.1221504 78.9564626,20.2391717 78.8672112,20.3269377 C78.7757826,20.412614 78.6538773,20.456497 78.4971429,20.456497 L75.9676188,20.456497 C75.8565984,20.456497 75.8000003,20.5108283 75.8000003,20.6174012 L75.8000003,29.5151976 C75.8000003,29.6656535 75.7542856,29.7847644 75.6650343,29.8704407 C75.5757822,29.9582067 75.4517011,30 75.2949659,30 L74.7050341,30 Z" id="Fill-242"></path>
                <path d="M80.315646,30 C80.2163262,30 80.1401359,29.9582067 80.0843538,29.8704407 C80.0285712,29.7847644 80,29.6656535 80,29.5151976 L80,19.4868921 C80,19.3364362 80.0285712,19.2173253 80.0843538,19.1316489 C80.1401359,19.043883 80.2163262,19 80.315646,19 L80.6843535,19 C80.782313,19 80.8598637,19.043883 80.9170066,19.1316489 C80.9714283,19.2173253 81,19.3364362 81,19.4868921 L81,29.5151976 C81,29.6656535 80.9714283,29.7847644 80.9170066,29.8704407 C80.8598637,29.9582067 80.782313,30 80.6843535,30 L80.315646,30 Z" id="Fill-243"></path>
                <path d="M89.3832831,22.6138796 C89.3832831,21.9865264 89.1787188,21.4627168 88.7695903,21.0424511 C88.3626618,20.6242156 87.7709655,20.4130675 86.9989007,20.4130675 C86.226836,20.4130675 85.6395383,20.6242156 85.2304097,21.0424511 C84.8212819,21.4627168 84.6145176,21.9865264 84.6145176,22.6138796 L84.6145176,26.3861204 C84.6145176,27.0134736 84.8212819,27.5372832 85.2304097,27.9575489 C85.6395383,28.3778147 86.226836,28.5869325 86.9989007,28.5869325 C87.7709655,28.5869325 88.3626618,28.3778147 88.7695903,27.9575489 C89.1787188,27.5372832 89.3832831,27.0134736 89.3832831,26.3861204 L89.3832831,22.6138796 Z M91,26.3861204 C91,26.9200812 90.9010175,27.4114065 90.7008526,27.8560355 C90.5028876,28.3006645 90.225736,28.6803249 89.8671983,28.9950166 C89.5108607,29.3097084 89.0863349,29.555371 88.6002205,29.7340347 C88.1119059,29.9106682 87.5773991,30 86.9989007,30 C86.4204016,30 85.8880948,29.9106682 85.397581,29.7340347 C84.9114658,29.555371 84.4891401,29.3097084 84.1306024,28.9950166 C83.7720655,28.6803249 83.4949138,28.3006645 83.2969482,27.8560355 C83.0967832,27.4114065 83,26.9200812 83,26.3861204 L83,22.6138796 C83,22.0799188 83.0967832,21.5906238 83.2969482,21.1439646 C83.4949138,20.6993355 83.7720655,20.3196751 84.1306024,20.0049834 C84.4891401,19.6923218 84.9114658,19.444629 85.397581,19.2659653 C85.8880948,19.0873015 86.4204016,19 86.9989007,19 C87.5773991,19 88.1119059,19.0873015 88.6002205,19.2659653 C89.0863349,19.444629 89.5108607,19.6923218 89.8671983,20.0049834 C90.225736,20.3196751 90.5028876,20.6993355 90.7008526,21.1439646 C90.9010175,21.5906238 91,22.0799188 91,22.6138796 L91,26.3861204 Z" id="Fill-244"></path>
                <path d="M98.9686025,30 C98.8085576,30 98.679633,29.9602964 98.5818279,29.8787994 C98.4840229,29.7973024 98.3839953,29.6761018 98.2817445,29.5151976 L93.9094192,22.3162994 C93.8516251,22.2306231 93.7938319,22.1992781 93.7293688,22.2201748 C93.6649065,22.2410715 93.633787,22.2954028 93.633787,22.3831687 L93.633787,29.5151976 C93.633787,29.6656535 93.5893302,29.7847644 93.4959709,29.8704407 C93.4048348,29.9582067 93.2781327,30 93.1180886,30 L92.5179216,30 C92.3556543,30 92.2289522,29.9582067 92.1378161,29.8704407 C92.0444568,29.7847644 92,29.6656535 92,29.5151976 L92,19.4868921 C92,19.3364362 92.0444568,19.2173253 92.1378161,19.1316489 C92.2289522,19.043883 92.3556543,19 92.5179216,19 L93.1869966,19 C93.360378,19 93.5026399,19.0292554 93.6182272,19.0898557 C93.7338145,19.150456 93.8360654,19.2528495 93.9272022,19.4053952 L98.1083631,26.2490502 C98.1550431,26.3117401 98.2083906,26.3389058 98.2728537,26.3284574 C98.3350927,26.3180091 98.3662123,26.2699468 98.3662123,26.1821809 L98.3662123,19.4868921 C98.3662123,19.3364362 98.410669,19.2173253 98.5040284,19.1316489 C98.5951652,19.043883 98.7218673,19 98.8841339,19 L99.4843009,19 C99.6443457,19 99.7710471,19.043883 99.8621839,19.1316489 C99.9555432,19.2173253 100,19.3364362 100,19.4868921 L100,29.5151976 C100,29.6656535 99.9555432,29.7847644 99.8621839,29.8704407 C99.7710471,29.9582067 99.6443457,30 99.4843009,30 L98.9686025,30 Z" id="Fill-245"></path>
                <path d="M105.665601,21.0545316 C105.633626,20.935398 105.578204,20.8768763 105.499334,20.8768763 C105.424727,20.8768763 105.369305,20.935398 105.335199,21.0545316 L104.015725,25.4394832 C103.981619,25.566977 104.032779,25.633859 104.162807,25.633859 L106.837993,25.633859 C106.970153,25.633859 107.01918,25.566977 106.987206,25.4394832 L105.665601,21.0545316 Z M108.816137,30 C108.519842,30 108.334391,29.8725062 108.25552,29.6112483 L107.528638,27.2515676 C107.496663,27.1428843 107.419925,27.0885426 107.298423,27.0885426 L103.702377,27.0885426 C103.580874,27.0885426 103.504136,27.1428843 103.472162,27.2515676 L102.745278,29.6112483 C102.66854,29.8725062 102.480958,30 102.18253,30 L101.374646,30 C101.057035,30 100.941927,29.8495155 101.027192,29.5485464 L104.329073,19.4368231 C104.382365,19.265438 104.459103,19.1483945 104.550762,19.0898727 C104.646685,19.0292609 104.768188,19 104.921665,19 L106.077004,19 C106.232612,19 106.356246,19.0292609 106.450037,19.0898727 C106.541697,19.1483945 106.616304,19.265438 106.671725,19.4368231 L109.971476,29.5485464 C110.058873,29.8495155 109.945897,30 109.626153,30 L108.816137,30 Z" id="Fill-246"></path>
                <path d="M110.516303,30 C110.354543,30 110.228236,29.9582067 110.139601,29.8704407 C110.04875,29.7847644 110,29.6656535 110,29.5151976 L110,19.4868921 C110,19.3364362 110.04875,19.2173253 110.139601,19.1316489 C110.228236,19.043883 110.354543,19 110.516303,19 L111.116809,19 C111.276353,19 111.402659,19.043883 111.495726,19.1316489 C111.584362,19.2173253 111.630896,19.3364362 111.630896,19.4868921 L111.630896,28.3825988 C111.630896,28.4891717 111.688509,28.543503 111.801519,28.543503 L116.485914,28.543503 C116.645457,28.543503 116.769548,28.587386 116.862615,28.6730623 C116.953467,28.7608283 117,28.8778496 117,29.0303951 L117,29.5151976 C117,29.6656535 116.953467,29.7847644 116.862615,29.8704407 C116.769548,29.9582067 116.645457,30 116.485914,30 L110.516303,30 Z" id="Fill-247"></path>
                <path d="M56.3165761,43 C56.2173913,43 56.1413044,42.9582067 56.0855978,42.8704407 C56.0298913,42.7847645 56,42.6656535 56,42.5151976 L56,32.4868922 C56,32.3364362 56.0298913,32.2173253 56.0855978,32.1316489 C56.1413044,32.043883 56.2173913,32 56.3165761,32 L56.6847826,32 C56.7826087,32 56.8600544,32.043883 56.9157608,32.1316489 C56.9714674,32.2173253 57,32.3364362 57,32.4868922 L57,42.5151976 C57,42.6656535 56.9714674,42.7847645 56.9157608,42.8704407 C56.8600544,42.9582067 56.7826087,43 56.6847826,43 L56.3165761,43 Z" id="Fill-248"></path>
                <path d="M65.9686024,43 C65.8063351,43 65.6796332,42.9602964 65.5818283,42.8787994 C65.4840233,42.7973024 65.3839956,42.6761018 65.2817449,42.5151976 L60.9094193,35.3162994 C60.8516255,35.2306231 60.7916088,35.1992781 60.7315921,35.2201748 C60.664907,35.2410715 60.6337872,35.2954028 60.6337872,35.3831688 L60.6337872,42.5151976 C60.6337872,42.6656535 60.5893304,42.7847645 60.4959711,42.8704407 C60.4048347,42.9582067 60.2781329,43 60.1180884,43 L59.5179216,43 C59.3556543,43 59.2289526,42.9582067 59.1378161,42.8704407 C59.0444569,42.7847645 59,42.6656535 59,42.5151976 L59,32.4868922 C59,32.3364362 59.0444569,32.2173253 59.1378161,32.1316489 C59.2289526,32.043883 59.3556543,32 59.5179216,32 L60.1869964,32 C60.3603779,32 60.5026397,32.0292554 60.6182273,32.0919453 C60.7338149,32.150456 60.8360656,32.2528495 60.9294249,32.4053952 L65.1083634,39.2490502 C65.155043,39.3117401 65.2083912,39.3389058 65.2728535,39.3284575 C65.335093,39.3180091 65.3662129,39.2699469 65.3662129,39.1821809 L65.3662129,32.4868922 C65.3662129,32.3364362 65.4106696,32.2173253 65.5040289,32.1316489 C65.5951653,32.043883 65.7218672,32 65.8841345,32 L66.486524,32 C66.6443457,32 66.7710475,32.043883 66.8621839,32.1316489 C66.9555432,32.2173253 67,32.3364362 67,32.4868922 L67,42.5151976 C67,42.6656535 66.9555432,42.7847645 66.8621839,42.8704407 C66.7710475,42.9582067 66.6443457,43 66.486524,43 L65.9686024,43 Z" id="Fill-249"></path>
                <path d="M74.9686025,43 C74.8085576,43 74.679633,42.9602964 74.5818279,42.8787994 C74.4840229,42.7973024 74.3839953,42.6761018 74.2817445,42.5151976 L69.9094192,35.3162994 C69.8516254,35.2306231 69.7938316,35.1992781 69.7293692,35.2201748 C69.6649069,35.2410715 69.6337871,35.2954028 69.6337871,35.3831688 L69.6337871,42.5151976 C69.6337871,42.6656535 69.5893303,42.7847645 69.4959711,42.8704407 C69.4048346,42.9582067 69.2781328,43 69.1180884,43 L68.5179216,43 C68.3556543,43 68.2289525,42.9582067 68.1378161,42.8704407 C68.0444568,42.7847645 68,42.6656535 68,42.5151976 L68,32.4868922 C68,32.3364362 68.0444568,32.2173253 68.1378161,32.1316489 C68.2289525,32.043883 68.3556543,32 68.5179216,32 L69.1869964,32 C69.3603779,32 69.5026396,32.0292554 69.6182273,32.0919453 C69.7338149,32.150456 69.8360655,32.2528495 69.927202,32.4053952 L74.1083631,39.2490502 C74.1550431,39.3117401 74.2083914,39.3389058 74.2728537,39.3284575 C74.3350928,39.3180091 74.366213,39.2699469 74.366213,39.1821809 L74.366213,32.4868922 C74.366213,32.3364362 74.4106698,32.2173253 74.5040284,32.1316489 C74.5951652,32.043883 74.7218673,32 74.8841347,32 L75.4843009,32 C75.6443457,32 75.7710471,32.043883 75.8621839,32.1316489 C75.9555432,32.2173253 76,32.3364362 76,32.4868922 L76,42.5151976 C76,42.6656535 75.9555432,42.7847645 75.8621839,42.8704407 C75.7710471,42.9582067 75.6443457,43 75.4843009,43 L74.9686025,43 Z" id="Fill-250"></path>
                <path d="M83.3832831,35.6138797 C83.3832831,34.9865264 83.1787188,34.4627169 82.7695903,34.042451 C82.3626618,33.6221853 81.7709647,33.4130676 80.9989,33.4130676 C80.2268352,33.4130676 79.6395383,33.6221853 79.2282104,34.042451 C78.8212812,34.4627169 78.6167169,34.9865264 78.6167169,35.6138797 L78.6167169,39.3861203 C78.6167169,40.0134736 78.8212812,40.5372831 79.2282104,40.9555186 C79.6395383,41.3778147 80.2268352,41.5869324 80.9989,41.5869324 C81.7709647,41.5869324 82.3626618,41.3778147 82.7695903,40.9555186 C83.1787188,40.5372831 83.3832831,40.0134736 83.3832831,39.3861203 L83.3832831,35.6138797 Z M85,39.3861203 C85,39.9200812 84.9010175,40.4114064 84.7008526,40.8560354 C84.5050869,41.3006645 84.2257352,41.6803248 83.8671983,41.9950166 C83.5108607,42.3097084 83.0863349,42.555371 82.6002197,42.7340347 C82.1119052,42.9106681 81.5773991,43 80.9989,43 C80.4204016,43 79.8880948,42.9106681 79.3975803,42.7340347 C78.9114658,42.555371 78.4891393,42.3097084 78.1306024,41.9950166 C77.7720648,41.6803248 77.4949131,41.3006645 77.2969482,40.8560354 C77.0967832,40.4114064 77,39.9200812 77,39.3861203 L77,35.6138797 C77,35.0799187 77.0967832,34.5885936 77.2969482,34.1439646 C77.4949131,33.6993355 77.7720648,33.3196751 78.1306024,33.0049833 C78.4891393,32.6902916 78.9114658,32.444629 79.3975803,32.2659653 C79.8880948,32.0873016 80.4204016,32 80.9989,32 C81.5773991,32 82.1119052,32.0873016 82.6002197,32.2659653 C83.0863349,32.444629 83.5108607,32.6902916 83.8671983,33.0049833 C84.2257352,33.3196751 84.5050869,33.6993355 84.7008526,34.1439646 C84.9010175,34.5885936 85,35.0799187 85,35.6138797 L85,39.3861203 Z" id="Fill-251"></path>
                <path d="M88.9224838,43 C88.7668862,43 88.6432596,42.9707447 88.5516061,42.9122341 C88.4578208,42.8516338 88.3832187,42.7367021 88.3278007,42.5632599 L85.0282655,32.4534575 C84.940875,32.1525456 85.0559749,32 85.3756975,32 L86.1835288,32 C86.4798051,32 86.6673759,32.1316489 86.7441091,32.3886778 L89.3338599,40.9458587 C89.3679642,41.0649696 89.4212511,41.1234803 89.5001162,41.1234803 C89.5768494,41.1234803 89.6301362,41.0649696 89.6663717,40.9458587 L92.2561225,32.3886778 C92.3307246,32.1316489 92.5182953,32 92.8167028,32 L93.6245348,32 C93.9421256,32 94.0593565,32.1525456 93.9719661,32.4534575 L90.6724309,42.5632599 C90.614881,42.7367021 90.5424108,42.8516338 90.4486255,42.9122341 C90.3548401,42.9707447 90.2312142,43 90.0777478,43 L88.9224838,43 Z" id="Fill-252"></path>
                <path d="M97.6656008,34.0545317 C97.6336263,33.9353981 97.5760726,33.8768764 97.4993337,33.8768764 C97.4247275,33.8768764 97.3693051,33.9353981 97.3351993,34.0545317 L96.0157255,38.4394832 C95.9816197,38.566977 96.032778,38.6338591 96.1628073,38.6338591 L98.8379921,38.6338591 C98.9701527,38.6338591 99.0191804,38.566977 98.9872059,38.4394832 L97.6656008,34.0545317 Z M100.818269,43 C100.519842,43 100.334391,42.8725062 100.255521,42.6133384 L99.5286375,40.2515676 C99.4966637,40.1449744 99.4199248,40.0885427 99.2984229,40.0885427 L95.7023765,40.0885427 C95.5808746,40.0885427 95.5041364,40.1449744 95.4721619,40.2515676 L94.7452786,42.6133384 C94.6685404,42.8725062 94.4809575,43 94.1825305,43 L93.3746457,43 C93.0570342,43 92.9419269,42.8516056 93.0271917,42.5485464 L96.3290737,32.4368231 C96.382364,32.265438 96.4591022,32.1483945 96.5507624,32.0898727 C96.6466852,32.031351 96.7681879,32 96.9216643,32 L98.0770031,32 C98.2326115,32 98.3541142,32.031351 98.450037,32.0898727 C98.5416971,32.1483945 98.6163033,32.265438 98.6717257,32.4368231 L101.971476,42.5485464 C102.058873,42.8516056 101.945896,43 101.626154,43 L100.818269,43 Z" id="Fill-253"></path>
                <path d="M104.706203,43 C104.547334,43 104.425462,42.9582067 104.334058,42.8704407 C104.247007,42.7847645 104.201306,42.6656535 104.201306,42.5151976 L104.201306,33.6174013 C104.201306,33.5108283 104.144722,33.456497 104.033732,33.456497 L101.504897,33.456497 C101.348204,33.456497 101.224157,33.412614 101.134929,33.3269377 C101.045702,33.2391718 101,33.1221505 101,32.9716946 L101,32.4868922 C101,32.3364362 101.045702,32.2173253 101.134929,32.1316489 C101.224157,32.043883 101.348204,32 101.504897,32 L108.49728,32 C108.653971,32 108.775843,32.043883 108.867247,32.1316489 C108.956474,32.2173253 109,32.3364362 109,32.4868922 L109,32.9716946 C109,33.1221505 108.956474,33.2391718 108.867247,33.3269377 C108.775843,33.412614 108.653971,33.456497 108.49728,33.456497 L105.968444,33.456497 C105.857454,33.456497 105.80087,33.5108283 105.80087,33.6174013 L105.80087,42.5151976 C105.80087,42.6656535 105.755169,42.7847645 105.665941,42.8704407 C105.574537,42.9582067 105.452666,43 105.295974,43 L104.706203,43 Z" id="Fill-254"></path>
                <path d="M108.315646,43 C108.217687,43 108.140136,42.9582067 108.084354,42.8704407 C108.028571,42.7847645 108,42.6656535 108,42.5151976 L108,32.4868922 C108,32.3364362 108.028571,32.2173253 108.084354,32.1316489 C108.140136,32.043883 108.217687,32 108.315646,32 L108.684354,32 C108.782313,32 108.859864,32.043883 108.917007,32.1316489 C108.971429,32.2173253 109,32.3364362 109,32.4868922 L109,42.5151976 C109,42.6656535 108.971429,42.7847645 108.917007,42.8704407 C108.859864,42.9582067 108.782313,43 108.684354,43 L108.315646,43 Z" id="Fill-255"></path>
                <path d="M118.383282,35.6138797 C118.383282,34.9865264 118.178718,34.4627169 117.76959,34.042451 C117.362661,33.6221853 116.770965,33.4130676 115.9989,33.4130676 C115.229035,33.4130676 114.639537,33.6221853 114.22821,34.042451 C113.821281,34.4627169 113.616717,34.9865264 113.616717,35.6138797 L113.616717,39.3861203 C113.616717,40.0134736 113.821281,40.5372831 114.22821,40.9555186 C114.639537,41.3778147 115.229035,41.5869324 115.9989,41.5869324 C116.770965,41.5869324 117.362661,41.3778147 117.76959,40.9555186 C118.178718,40.5372831 118.383282,40.0134736 118.383282,39.3861203 L118.383282,35.6138797 Z M120,39.3861203 C120,39.9200812 119.903217,40.4114064 119.703052,40.8560354 C119.505086,41.3006645 119.225735,41.6803248 118.867198,41.9950166 C118.510861,42.3097084 118.086335,42.555371 117.60022,42.7340347 C117.111905,42.9106681 116.577398,43 115.9989,43 C115.420401,43 114.888094,42.9106681 114.39758,42.7340347 C113.911465,42.555371 113.489139,42.3097084 113.130602,41.9950166 C112.772065,41.6803248 112.494913,41.3006645 112.296947,40.8560354 C112.096782,40.4114064 112,39.9200812 112,39.3861203 L112,35.6138797 C112,35.0799187 112.096782,34.5885936 112.296947,34.1439646 C112.494913,33.6993355 112.772065,33.3196751 113.130602,33.0049833 C113.489139,32.6902916 113.911465,32.444629 114.39758,32.2659653 C114.888094,32.0873016 115.420401,32 115.9989,32 C116.577398,32 117.111905,32.0873016 117.60022,32.2659653 C118.086335,32.444629 118.510861,32.6902916 118.867198,33.0049833 C119.225735,33.3196751 119.505086,33.6993355 119.703052,34.1439646 C119.903217,34.5885936 120,35.0799187 120,35.6138797 L120,39.3861203 Z" id="Fill-256"></path>
                <path d="M126.968602,43 C126.808558,43 126.679633,42.9602964 126.581828,42.8787994 C126.484023,42.7973024 126.383995,42.6761018 126.281744,42.5151976 L121.909419,35.3162994 C121.851625,35.2306231 121.793831,35.1992781 121.729369,35.2201748 C121.664906,35.2410715 121.633787,35.2954028 121.633787,35.3831688 L121.633787,42.5151976 C121.633787,42.6656535 121.58933,42.7847645 121.495971,42.8704407 C121.404835,42.9582067 121.278133,43 121.120311,43 L120.517922,43 C120.355654,43 120.228952,42.9582067 120.137816,42.8704407 C120.044457,42.7847645 120,42.6656535 120,42.5151976 L120,32.4868922 C120,32.3364362 120.044457,32.2173253 120.137816,32.1316489 C120.228952,32.043883 120.355654,32 120.517922,32 L121.186996,32 C121.360378,32 121.502639,32.0292554 121.618227,32.0919453 C121.733815,32.150456 121.836065,32.2528495 121.927201,32.4053952 L126.108363,39.2490502 C126.155043,39.3117401 126.208391,39.3389058 126.272853,39.3284575 C126.335093,39.3180091 126.366212,39.2699469 126.366212,39.1821809 L126.366212,32.4868922 C126.366212,32.3364362 126.410669,32.2173253 126.504028,32.1316489 C126.595165,32.043883 126.721867,32 126.884134,32 L127.486523,32 C127.644345,32 127.771047,32.043883 127.862184,32.1316489 C127.955543,32.2173253 128,32.3364362 128,32.4868922 L128,42.5151976 C128,42.6656535 127.955543,42.7847645 127.862184,42.8704407 C127.771047,42.9582067 127.644345,43 127.486523,43 L126.968602,43 Z" id="Fill-257"></path>
                <path d="M138.848864,38.4528876 C138.848864,38.3463146 138.79457,38.2898936 138.685983,38.2898936 L137.021665,38.2898936 C136.59149,38.2898936 136.234403,38.4445289 135.954581,38.7537994 C135.674758,39.0588906 135.534847,39.4496581 135.534847,39.9261018 C135.534847,40.3983663 135.674758,40.7745061 135.954581,41.0503419 C136.234403,41.3240882 136.59149,41.4620061 137.021665,41.4620061 L138.685983,41.4620061 C138.79457,41.4620061 138.848864,41.4076748 138.848864,41.3011018 L138.848864,38.4528876 Z M137.071782,43 C136.626991,43 136.221874,42.924772 135.85017,42.7784955 C135.476377,42.6343085 135.15479,42.4274316 134.879143,42.1557751 C134.605586,41.8882979 134.390498,41.5727584 134.233881,41.2091566 C134.077264,40.849734 134,40.4464286 134,40.0055091 C134,39.3911475 134.137822,38.8645517 134.41138,38.4299012 C134.684938,37.9931611 135.01279,37.6609043 135.388671,37.4352204 C135.474289,37.3787994 135.52023,37.3223785 135.52023,37.2638678 C135.52023,37.2053571 135.493083,37.1468465 135.436701,37.0946049 C135.221613,36.868921 135.035761,36.5909954 134.879143,36.2691869 C134.724615,35.9452888 134.645262,35.5733283 134.645262,35.1533055 C134.645262,34.7228344 134.730879,34.3132599 134.897937,33.9245821 C135.062908,33.5359043 135.288436,33.2015578 135.568259,32.9194529 C135.845993,32.6415274 136.178021,32.4179332 136.560167,32.2507599 C136.944401,32.081497 137.355782,32 137.796398,32 L139.009658,32 C139.162099,32 139.279039,32.0417934 139.366745,32.1274696 C139.452362,32.2152356 139.494127,32.3322569 139.494127,32.4848025 L139.494127,33.0511019 C139.494127,33.2015578 139.452362,33.318579 139.366745,33.406345 C139.279039,33.4920213 139.162099,33.5359043 139.009658,33.5359043 L137.748368,33.5359043 C137.318194,33.5359043 136.948577,33.6905395 136.643696,34.0039894 C136.334638,34.3195289 136.182198,34.7270137 136.182198,35.2327128 C136.182198,35.7405016 136.334638,36.1333587 136.643696,36.4154635 C136.948577,36.6954788 137.318194,36.8354863 137.748368,36.8354863 L141.515531,36.8354863 C141.667972,36.8354863 141.784913,36.8793693 141.872618,36.9650456 C141.958235,37.0507219 142,37.1698328 142,37.3202888 L142,37.8071809 C142,37.9555472 141.958235,38.0746581 141.872618,38.162424 C141.784913,38.2481003 141.667972,38.2898936 141.515531,38.2898936 L140.546593,38.2898936 C140.438006,38.2898936 140.383712,38.3463146 140.383712,38.4528876 L140.383712,42.5131079 C140.383712,42.6635639 140.341947,42.7805851 140.254241,42.8683511 C140.168624,42.9540274 140.049595,43 139.899243,43 L137.071782,43 Z" id="Fill-258"></path>
                <path d="M56.5606431,53.8462816 C56.6817887,53.742757 56.8099235,53.6940395 56.9497069,53.704189 C57.084831,53.7143384 57.210636,53.7630559 57.3201331,53.8462816 C57.413322,53.9193578 57.522819,54.0005536 57.6439647,54.089869 C57.7627806,54.1791844 57.9002343,54.2603801 58.0586555,54.3334563 C58.214747,54.4065326 58.3918061,54.4653995 58.5968217,54.514117 C58.8018375,54.5608046 59.0394693,54.5851633 59.3027281,54.5851633 C59.87817,54.5851633 60.3534336,54.4451005 60.7261894,54.1690349 C61.0989453,53.8909393 61.2853232,53.5417974 61.2853232,53.123639 C61.2853232,52.6527035 61.1199127,52.275143 60.7914217,51.9909578 C60.4582712,51.7108322 59.9340833,51.4164975 59.2118689,51.1140432 C58.7529133,50.925263 58.3428818,50.7243034 57.9771152,50.5152242 C57.6090188,50.306145 57.2921764,50.0706772 57.0289175,49.8067909 C56.7656587,49.5469644 56.5629727,49.2505998 56.425519,48.9217568 C56.2880653,48.5908839 56.2181736,48.2112936 56.2181736,47.7809559 C56.2181736,47.4257244 56.2973842,47.0786123 56.4534757,46.7436797 C56.6072375,46.408747 56.8355504,46.1144123 57.1384146,45.8566156 C57.438949,45.598819 57.8023859,45.3937996 58.2287254,45.2354678 C58.6550649,45.077136 59.1326583,45 59.6615056,45 C60.3487742,45 60.9335349,45.115704 61.4227769,45.3471121 C61.9073595,45.5764902 62.2964234,45.8160177 62.5829794,46.0697546 C62.8369194,46.2889832 62.8369194,46.5082119 62.5829794,46.7274405 L62.1682885,47.105001 C62.0471429,47.2105555 61.9353162,47.2653626 61.8258191,47.2714523 C61.7186519,47.2755121 61.590517,47.220705 61.4484039,47.105001 C61.2923124,46.9811774 61.0523508,46.832995 60.7261894,46.6665437 C60.4023578,46.4980624 60.04591,46.4128068 59.6615056,46.4128068 C59.3982468,46.4128068 59.1536258,46.4534047 58.932302,46.5325706 C58.7086485,46.6117365 58.5176111,46.7132312 58.3545304,46.8390847 C58.1937795,46.9629083 58.0656447,47.1070309 57.9771152,47.2714523 C57.886256,47.4338439 57.8419912,47.6043551 57.8419912,47.7809559 C57.8419912,48.0123639 57.8792668,48.2153534 57.9584774,48.3939842 C58.037688,48.5726149 58.1565039,48.7370364 58.3195846,48.8892785 C58.4803356,49.0394907 58.6923404,49.1856431 58.9509398,49.321646 C59.2072094,49.457649 59.5240519,49.593652 59.8968077,49.7296549 C60.3907092,49.9184352 60.8286973,50.1173648 61.2131018,50.326444 C61.5975062,50.5355232 61.9236675,50.770991 62.1869263,51.0267577 C62.4501852,51.2825244 62.6528712,51.5768592 62.7926546,51.9057022 C62.9301083,52.2345451 63,52.6161653 63,53.0444731 C63,53.4443624 62.9044813,53.819893 62.7111142,54.1771545 C62.5177471,54.532386 62.2521587,54.84296 61.9166784,55.1109061 C61.5788684,55.3768223 61.1874748,55.5919912 60.7355083,55.7543827 C60.2835419,55.9167743 59.8059485,56 59.3027281,56 C58.484995,56 57.844321,55.8924156 57.3807059,55.6772467 C56.9194205,55.4620779 56.5140486,55.1860122 56.16459,54.8510795 C56.0690713,54.7678538 56.0154876,54.6622993 56.0015093,54.5384757 C55.9898607,54.4126223 56.0457741,54.2969183 56.16459,54.1913637 L56.5606431,53.8462816 Z" id="Fill-259"></path>
                <path d="M70.8493506,54.1142277 C70.9602023,54.2197822 71.0092328,54.3334563 70.998574,54.4593098 C70.9879152,54.5871932 70.9367529,54.6907178 70.8493506,54.7759734 C70.49761,55.1088762 70.0840482,55.3971212 69.6129288,55.6386787 C69.1375459,55.8782063 68.5278621,56 67.7796136,56 C67.2424097,56 66.7414457,55.9086547 66.2788534,55.7259642 C65.816261,55.5412438 65.4176216,55.2834471 65.082935,54.9546042 C64.7461166,54.6257612 64.4839099,54.2279018 64.2899195,53.761026 C64.098061,53.2961801 64,52.7846466 64,52.2284555 L64,48.7735744 C64,48.2275327 64.098061,47.722089 64.2899195,47.2552131 C64.4839099,46.7903672 64.7461166,46.3925078 65.082935,46.061635 C65.4176216,45.7307621 65.816261,45.4729655 66.2788534,45.2841853 C66.7414457,45.0954051 67.2424097,45 67.7796136,45 C68.1420131,45 68.4724363,45.0365381 68.7687511,45.1035247 C69.0671978,45.1705111 69.3357998,45.2577967 69.5788207,45.3613213 C69.8218414,45.4668759 70.0328859,45.5866396 70.2140856,45.714523 C70.3974172,45.8464661 70.5466405,45.9702897 70.6681509,46.0839639 C70.8983812,46.3052224 70.8983812,46.5264809 70.6681509,46.7457096 L70.2886973,47.1070309 C70.1799774,47.2105555 70.0733894,47.2673925 69.9753283,47.2714523 C69.8751355,47.277542 69.7600204,47.220705 69.6278511,47.1070309 C69.4850231,46.9811774 69.2675834,46.832995 68.975532,46.6665437 C68.6856124,46.4980624 68.286973,46.4148367 67.7796136,46.4148367 C67.427873,46.4148367 67.1166357,46.4737036 66.8480337,46.5954973 C66.5773,46.717291 66.3470697,46.8837424 66.1552111,47.0989113 C65.9612208,47.3140801 65.816261,47.5637571 65.7182,47.8540321 C65.6180072,48.1402473 65.5689766,48.4467614 65.5689766,48.7735744 L65.5689766,52.2284555 C65.5689766,52.930799 65.762967,53.4991696 66.1552111,53.9335671 C66.5453236,54.3679646 67.0867911,54.5871932 67.7796136,54.5871932 C68.2635236,54.5871932 68.6749536,54.4999078 69.0096402,54.3253367 C69.3443268,54.1527957 69.6171924,53.9782248 69.826105,53.799594 C69.9241661,53.7163683 70.0392812,53.6696807 70.1650551,53.6595313 C70.2908291,53.6493818 70.4102077,53.6960694 70.5189276,53.799594 L70.8493506,54.1142277 Z" id="Fill-260"></path>
                <path d="M71.3156464,56 C71.2163266,56 71.1401363,55.9582066 71.0843537,55.8704407 C71.0285717,55.7847644 71,55.6656535 71,55.5151975 L71,45.4848024 C71,45.3364361 71.0285717,45.2173252 71.0843537,45.1316489 C71.1401363,45.043883 71.2163266,45 71.3156464,45 L71.6843536,45 C71.7823126,45 71.8598637,45.043883 71.9170066,45.1316489 C71.9714283,45.2173252 72,45.3364361 72,45.4848024 L72,55.5151975 C72,55.6656535 71.9714283,55.7847644 71.9170066,55.8704407 C71.8598637,55.9582066 71.7823126,56 71.6843536,56 L71.3156464,56 Z" id="Fill-261"></path>
                <path d="M74.5137008,56 C74.3527558,56 74.2270871,55.9582066 74.1388981,55.8704407 C74.048504,55.7847644 74,55.6656535 74,55.5151975 L74,45.4848024 C74,45.3364361 74.048504,45.2173252 74.1388981,45.1316489 C74.2270871,45.043883 74.3527558,45 74.5137008,45 L80.146772,45 C80.3033074,45 80.4289762,45.043883 80.5193703,45.1316489 C80.6119688,45.2173252 80.6582676,45.3364361 80.6582676,45.4848024 L80.6582676,45.9716945 C80.6582676,46.1221504 80.6119688,46.2391717 80.5193703,46.3269377 C80.4289762,46.4126139 80.3033074,46.456497 80.146772,46.456497 L75.7924414,46.456497 C75.6800004,46.456497 75.6226774,46.5108283 75.6226774,46.6174012 L75.6226774,49.5283055 C75.6226774,49.6369681 75.6800004,49.6912994 75.7924414,49.6912994 L79.8050396,49.6912994 C79.9637794,49.6912994 80.0872445,49.7351823 80.1798423,49.8208586 C80.2702364,49.906535 80.3143308,50.0256459 80.3143308,50.1781914 L80.3143308,50.6609043 C80.3143308,50.8134498 80.2702364,50.9325607 80.1798423,51.0182371 C80.0872445,51.106003 79.9637794,51.1477963 79.8050396,51.1477963 L75.7924414,51.1477963 C75.6800004,51.1477963 75.6226774,51.2021276 75.6226774,51.3107902 L75.6226774,54.3825987 C75.6226774,54.4891717 75.6800004,54.543503 75.7924414,54.543503 L80.4862992,54.543503 C80.6450398,54.543503 80.7707086,54.587386 80.8611027,54.6730623 C80.951496,54.7608282 81,54.8778495 81,55.0303951 L81,55.5151975 C81,55.6656535 80.951496,55.7847644 80.8611027,55.8704407 C80.7707086,55.9582066 80.6450398,56 80.4862992,56 L74.5137008,56 Z" id="Fill-262"></path>
                <path d="M88.9686025,56 C88.8063351,56 88.6796338,55.9602963 88.5818287,55.8787993 C88.4840236,55.7973024 88.383996,55.6761018 88.2817452,55.5151975 L83.9094192,48.3162994 C83.8516259,48.2306231 83.7916094,48.1992781 83.7293696,48.2201747 C83.6649073,48.2410714 83.6337877,48.2954027 83.6337877,48.381079 L83.6337877,55.5151975 C83.6337877,55.6656535 83.589331,55.7847644 83.4959716,55.8704407 C83.4048348,55.9582066 83.2781327,56 83.1180886,56 L82.5179216,56 C82.3556543,56 82.2289529,55.9582066 82.1378161,55.8704407 C82.0444568,55.7847644 82,55.6656535 82,55.5151975 L82,45.4848024 C82,45.3364361 82.0444568,45.2173252 82.1378161,45.1316489 C82.2289529,45.043883 82.3556543,45 82.5179216,45 L83.1869966,45 C83.360378,45 83.5026399,45.0292553 83.6182272,45.0877659 C83.7338153,45.1504559 83.8360661,45.2528495 83.9272022,45.4053951 L88.1083638,52.2490501 C88.1550431,52.3117401 88.2083914,52.3389058 88.2728537,52.3284574 C88.3350935,52.3180091 88.366213,52.2699468 88.366213,52.1821808 L88.366213,45.4848024 C88.366213,45.3364361 88.4106698,45.2173252 88.5040291,45.1316489 C88.5951652,45.043883 88.7218673,45 88.8841347,45 L89.4843016,45 C89.6443457,45 89.7710478,45.043883 89.8621839,45.1316489 C89.9555432,45.2173252 90,45.3364361 90,45.4848024 L90,55.5151975 C90,55.6656535 89.9555432,55.7847644 89.8621839,55.8704407 C89.7710478,55.9582066 89.6443457,56 89.4843016,56 L88.9686025,56 Z" id="Fill-263"></path>
                <path d="M97.8493951,54.1142277 C97.9581149,54.2197822 98.0092777,54.3334563 97.998619,54.4593098 C97.9879603,54.5871932 97.9367976,54.6907178 97.8493951,54.7759734 C97.4976517,55.1088762 97.0840875,55.3971212 96.6129648,55.6386787 C96.1375792,55.8782063 95.5278913,56 94.7796382,56 C94.2424304,56 93.7393316,55.9086547 93.2788676,55.7259642 C92.8162729,55.5412438 92.4176303,55.2834471 92.0829421,54.9546042 C91.7461209,54.6257612 91.4839128,54.2279018 91.2899213,53.761026 C91.0980611,53.2961801 91,52.7846466 91,52.2284555 L91,48.7735744 C91,48.2275327 91.0980611,47.722089 91.2899213,47.2552131 C91.4839128,46.7903672 91.7461209,46.3925078 92.0829421,46.061635 C92.4176303,45.7307621 92.8162729,45.4729655 93.2788676,45.2841853 C93.7393316,45.0954051 94.2424304,45 94.7796382,45 C95.1420396,45 95.4724649,45.0365381 95.768782,45.1035247 C96.0672305,45.1705111 96.3358344,45.2577967 96.5788565,45.3613213 C96.8218787,45.4668759 97.0329248,45.5866396 97.2141255,45.714523 C97.3953269,45.8464661 97.546683,45.9702897 97.6681937,46.0839639 C97.8984257,46.3052224 97.8984257,46.5264809 97.6681937,46.7457096 L97.2887378,47.1070309 C97.1800172,47.2105555 97.0734281,47.2673925 96.9753669,47.2714523 C96.8751736,47.277542 96.7600572,47.220705 96.6278871,47.1070309 C96.4850583,46.9811774 96.2676171,46.832995 95.9755637,46.6665437 C95.6856424,46.4980624 95.2870006,46.4148367 94.7796382,46.4148367 C94.4278947,46.4148367 94.1166553,46.4737036 93.8480522,46.5954973 C93.5773161,46.717291 93.3470848,46.8837424 93.1552247,47.0989113 C92.9612331,47.3140801 92.8162729,47.5637571 92.718211,47.8540321 C92.6180177,48.1402473 92.5689864,48.4467614 92.5689864,48.7735744 L92.5689864,52.2284555 C92.5689864,52.930799 92.7629779,53.4991696 93.1552247,53.9335671 C93.54534,54.3679646 94.0868107,54.5871932 94.7796382,54.5871932 C95.263551,54.5871932 95.6749837,54.4999078 96.0096727,54.3253367 C96.3443609,54.1527957 96.6172284,53.9782248 96.8261423,53.799594 C96.9242042,53.7163683 97.0393198,53.6696807 97.1629627,53.6595313 C97.2908692,53.6493818 97.4102492,53.6960694 97.5189698,53.799594 L97.8493951,54.1142277 Z" id="Fill-264"></path>
                <path d="M99.5116576,56 C99.352867,56 99.2271579,55.9582066 99.136736,55.8704407 C99.0463134,55.7847644 99,55.6656535 99,55.5151975 L99,45.4848024 C99,45.3364361 99.0463134,45.2173252 99.136736,45.1316489 C99.2271579,45.043883 99.352867,45 99.5116576,45 L105.146503,45 C105.303088,45 105.428797,45.043883 105.519219,45.1316489 C105.611846,45.2173252 105.65816,45.3364361 105.65816,45.4848024 L105.65816,45.9716945 C105.65816,46.1221504 105.611846,46.2391717 105.519219,46.3269377 C105.428797,46.4126139 105.303088,46.456497 105.146503,46.456497 L100.7908,46.456497 C100.678324,46.456497 100.620983,46.5108283 100.620983,46.6174012 L100.620983,49.5283055 C100.620983,49.6369681 100.678324,49.6912994 100.7908,49.6912994 L104.804663,49.6912994 C104.963454,49.6912994 105.086957,49.7351823 105.179585,49.8208586 C105.270006,49.906535 105.314115,50.0256459 105.314115,50.1781914 L105.314115,50.6609043 C105.314115,50.8134498 105.270006,50.9325607 105.179585,51.0182371 C105.086957,51.106003 104.963454,51.1477963 104.804663,51.1477963 L100.7908,51.1477963 C100.678324,51.1477963 100.620983,51.2021276 100.620983,51.3107902 L100.620983,54.3825987 C100.620983,54.4891717 100.678324,54.543503 100.7908,54.543503 L105.486137,54.543503 C105.644928,54.543503 105.770636,54.587386 105.861059,54.6730623 C105.953687,54.7608282 106,54.8778495 106,55.0303951 L106,55.5151975 C106,55.6656535 105.953687,55.7847644 105.861059,55.8704407 C105.770636,55.9582066 105.644928,56 105.486137,56 L99.5116576,56 Z" id="Fill-265"></path>
                <path d="M114.665067,47.0545316 C114.633096,46.935398 114.577681,46.8768763 114.49882,46.8768763 C114.424221,46.8768763 114.366674,46.935398 114.334703,47.0545316 L113.01538,51.4394831 C112.981278,51.566977 113.032432,51.633859 113.162445,51.633859 L115.837325,51.633859 C115.969471,51.633859 116.018492,51.566977 115.986522,51.4394831 L114.665067,47.0545316 Z M117.817376,56 C117.518983,56 117.331421,55.8725062 117.254692,55.6112483 L116.527892,53.2515675 C116.495921,53.1449743 116.419191,53.0885426 116.297703,53.0885426 L112.702068,53.0885426 C112.580579,53.0885426 112.50385,53.1449743 112.471879,53.2515675 L111.745079,55.6112483 C111.66835,55.8725062 111.480788,56 111.182395,56 L110.374603,56 C110.057028,56 109.941934,55.8516055 110.027189,55.5485464 L113.328693,45.4368231 C113.381978,45.2654379 113.458707,45.1483944 113.550356,45.0898727 C113.646269,45.0313509 113.767757,45 113.923347,45 L115.076423,45 C115.232014,45 115.355634,45.0313509 115.449414,45.0898727 C115.541063,45.1483944 115.617794,45.2654379 115.671078,45.4368231 L118.972583,55.5485464 C119.057838,55.8516055 118.944875,56 118.625168,56 L117.817376,56 Z" id="Fill-266"></path>
                <path d="M125.330019,51.7567368 C125.330019,51.6511628 125.270946,51.5983758 125.152797,51.5983758 L123.344221,51.5983758 C123.178359,51.5983758 123.04885,51.5577704 122.955695,51.4745293 C122.860267,51.3892581 122.814826,51.2735326 122.814826,51.1293836 L122.814826,50.6563308 C122.814826,50.5101514 122.860267,50.3964563 122.955695,50.3111849 C123.04885,50.2279439 123.178359,50.1853082 123.344221,50.1853082 L126.475149,50.1853082 C126.636467,50.1853082 126.765975,50.2279439 126.859131,50.3111849 C126.954558,50.3964563 127,50.5101514 127,50.6563308 L127,52.4653009 C127,52.9992617 126.904573,53.4824658 126.711445,53.9169435 C126.518318,54.3534515 126.243397,54.7249908 125.893496,55.0315615 C125.541323,55.3421927 125.118716,55.5797342 124.627946,55.7482466 C124.132633,55.9147287 123.589605,56 122.992048,56 C122.417211,56 121.885544,55.9086378 121.399318,55.7238834 C120.913092,55.5411591 120.490486,55.2853452 120.131496,54.9544112 C119.777052,54.6234773 119.497586,54.2255445 119.297643,53.7606128 C119.097699,53.2936508 119,52.7820229 119,52.2277593 L119,48.7702104 C119,48.2260982 119.099972,47.7205611 119.306731,47.2535991 C119.511218,46.7886674 119.792956,46.3887043 120.149673,46.0598007 C120.508662,45.730897 120.933541,45.4710226 121.424311,45.2822075 C121.919625,45.0954227 122.451293,45 123.026129,45 C123.412383,45 123.766827,45.0324843 124.080375,45.0994832 C124.398466,45.1705426 124.684748,45.255814 124.941493,45.361388 C125.200511,45.466962 125.427719,45.5826874 125.618574,45.7146549 C125.813973,45.8466224 125.975291,45.9684385 126.104799,46.0841639 C126.350185,46.303433 126.350185,46.5227021 126.104799,46.7419712 L125.700369,47.1053895 C125.58222,47.2109635 125.470888,47.2637505 125.364101,47.2698413 C125.259585,47.2759321 125.136893,47.2211148 124.993752,47.1053895 C124.843794,46.9774825 124.612042,46.8333333 124.300766,46.664821 C123.991764,46.4983389 123.566884,46.4130676 123.026129,46.4130676 C122.287702,46.4130676 121.710594,46.6323366 121.294802,47.064784 C120.879012,47.4992617 120.66998,48.0677372 120.66998,48.7702104 L120.66998,52.2277593 C120.66998,52.9302325 120.872195,53.498708 121.276626,53.935216 C121.681057,54.3676634 122.251349,54.5849022 122.992048,54.5849022 C123.789548,54.5849022 124.378018,54.3920266 124.757455,54.0042451 C125.139165,53.6164636 125.330019,53.1129568 125.330019,52.4957549 L125.330019,51.7567368 Z" id="Fill-267"></path>
                <path d="M127.513701,56 C127.354961,56 127.227086,55.9582066 127.138897,55.8704407 C127.048504,55.7847644 127,55.6656535 127,55.5151975 L127,45.4848024 C127,45.3364361 127.048504,45.2173252 127.138897,45.1316489 C127.227086,45.043883 127.354961,45 127.513701,45 L133.146771,45 C133.303307,45 133.428976,45.043883 133.51937,45.1316489 C133.611968,45.2173252 133.658268,45.3364361 133.658268,45.4848024 L133.658268,45.9716945 C133.658268,46.1221504 133.611968,46.2391717 133.51937,46.3269377 C133.428976,46.4126139 133.303307,46.456497 133.146771,46.456497 L128.792441,46.456497 C128.68,46.456497 128.622677,46.5108283 128.622677,46.6174012 L128.622677,49.5283055 C128.622677,49.6369681 128.68,49.6912994 128.792441,49.6912994 L132.80504,49.6912994 C132.963779,49.6912994 133.087244,49.7351823 133.179842,49.8208586 C133.270236,49.906535 133.314331,50.0256459 133.314331,50.1781914 L133.314331,50.6609043 C133.314331,50.8134498 133.270236,50.9325607 133.179842,51.0182371 C133.087244,51.106003 132.963779,51.1477963 132.80504,51.1477963 L128.792441,51.1477963 C128.68,51.1477963 128.622677,51.2021276 128.622677,51.3107902 L128.622677,54.3825987 C128.622677,54.4891717 128.68,54.543503 128.792441,54.543503 L133.486299,54.543503 C133.645039,54.543503 133.770709,54.587386 133.861102,54.6730623 C133.9537,54.7608282 134,54.8778495 134,55.0303951 L134,55.5151975 C134,55.6656535 133.9537,55.7847644 133.861102,55.8704407 C133.770709,55.9582066 133.645039,56 133.486299,56 L127.513701,56 Z" id="Fill-268"></path>
                <path d="M141.968602,56 C141.808558,56 141.679634,55.9602963 141.581829,55.8787993 C141.484024,55.7973024 141.383996,55.6761018 141.281745,55.5151975 L136.90942,48.3162994 C136.851626,48.2306231 136.791609,48.1992781 136.72937,48.2201747 C136.664907,48.2410714 136.633788,48.2954027 136.633788,48.381079 L136.633788,55.5151975 C136.633788,55.6656535 136.589331,55.7847644 136.495972,55.8704407 C136.404835,55.9582066 136.278133,56 136.118089,56 L135.517922,56 C135.355655,56 135.228953,55.9582066 135.137816,55.8704407 C135.044457,55.7847644 135,55.6656535 135,55.5151975 L135,45.4848024 C135,45.3364361 135.044457,45.2173252 135.137816,45.1316489 C135.228953,45.043883 135.355655,45 135.517922,45 L136.186997,45 C136.360378,45 136.50264,45.0292553 136.618228,45.0877659 C136.733815,45.1504559 136.836066,45.2528495 136.927202,45.4053951 L141.108364,52.2490501 C141.155043,52.3117401 141.208391,52.3389058 141.272854,52.3284574 C141.335094,52.3180091 141.366213,52.2699468 141.366213,52.1821808 L141.366213,45.4848024 C141.366213,45.3364361 141.41067,45.2173252 141.504029,45.1316489 C141.595165,45.043883 141.721867,45 141.884135,45 L142.484302,45 C142.644346,45 142.771048,45.043883 142.862184,45.1316489 C142.955543,45.2173252 143,45.3364361 143,45.4848024 L143,55.5151975 C143,55.6656535 142.955543,55.7847644 142.862184,55.8704407 C142.771048,55.9582066 142.644346,56 142.484302,56 L141.968602,56 Z" id="Fill-269"></path>
                <path d="M150.522825,48.8825988 C150.522825,48.5043693 150.466552,48.1658434 150.351996,47.8649316 C150.237439,47.5619301 150.074648,47.3049012 149.867643,47.0959346 C149.660638,46.8848784 149.415447,46.7260638 149.13006,46.6174012 C148.844674,46.5108283 148.531151,46.456497 148.189492,46.456497 L146.633936,46.456497 C146.531438,46.456497 146.477175,46.5108283 146.477175,46.6174012 L146.477175,54.3825987 C146.477175,54.4891717 146.531438,54.543503 146.633936,54.543503 L148.189492,54.543503 C148.531151,54.543503 148.844674,54.4891717 149.13006,54.3825987 C149.415447,54.2739361 149.660638,54.1172112 149.867643,53.912424 C150.074648,53.7076367 150.237439,53.4547872 150.351996,53.1517857 C150.466552,52.8529635 150.522825,52.506079 150.522825,52.1174012 L150.522825,48.8825988 Z M145.468275,56 C145.321562,56 145.207005,55.9582066 145.124605,55.8704407 C145.040195,55.7847644 145,55.6656535 145,55.5131078 L145,45.4848024 C145,45.3364361 145.040195,45.2173252 145.124605,45.1316489 C145.207005,45.043883 145.321562,45 145.468275,45 L148.189492,45 C148.758254,45 149.280792,45.1003039 149.753086,45.2988222 C150.223371,45.4973404 150.625323,45.7710866 150.956934,46.1179711 C151.290554,46.4606762 151.547804,46.8723404 151.726673,47.3466945 C151.909561,47.8210486 152,48.3330167 152,48.8825988 L152,52.1174012 C152,52.6690729 151.909561,53.1789513 151.726673,53.6553951 C151.547804,54.1276595 151.290554,54.537234 150.956934,54.8841185 C150.625323,55.2289134 150.223371,55.5005699 149.753086,55.6990881 C149.280792,55.899696 148.758254,56 148.189492,56 L145.468275,56 Z" id="Fill-270"></path>
                <path d="M156.664569,47.0545316 C156.632595,46.935398 156.577173,46.8768763 156.498303,46.8768763 C156.423696,46.8768763 156.368273,46.935398 156.334167,47.0545316 L155.014693,51.4394831 C154.982719,51.566977 155.031746,51.633859 155.161775,51.633859 L157.836962,51.633859 C157.969123,51.633859 158.01815,51.566977 157.986175,51.4394831 L156.664569,47.0545316 Z M159.81724,56 C159.520944,56 159.333361,55.8725062 159.254491,55.6112483 L158.529739,53.2515675 C158.495633,53.1449743 158.418895,53.0885426 158.297392,53.0885426 L154.701344,53.0885426 C154.579842,53.0885426 154.503103,53.1449743 154.471129,53.2515675 L153.744246,55.6112483 C153.667507,55.8725062 153.479924,56 153.181497,56 L152.373612,56 C152.056,56 151.940892,55.8516055 152.028289,55.5485464 L155.328042,45.4368231 C155.383463,45.2654379 155.45807,45.1483944 155.54973,45.0898727 C155.645654,45.0313509 155.769288,45 155.920633,45 L157.075972,45 C157.231581,45 157.355215,45.0313509 157.449006,45.0898727 C157.542798,45.1483944 157.617404,45.2654379 157.670695,45.4368231 L160.972579,55.5485464 C161.057844,55.8516055 160.944868,56 160.625124,56 L159.81724,56 Z" id="Fill-271"></path>
                <path d="M44.7917422,51.4034422 L44.7917422,4.28004668 C44.7917422,3.69807468 44.49163,3.19778296 43.8914057,2.77508751 C43.2932091,2.35239207 42.6950125,2.14206534 42.0947882,2.14206534 C40.2961429,2.14206534 39.3958064,2.90577597 39.3958064,4.43523921 L39.3958064,31.493874 C39.3958064,32.1779463 39.040944,32.5210035 38.333247,32.5210035 C37.5707999,32.5210035 37.1895764,32.1779463 37.1895764,31.491832 L37.1895764,4.36172695 C37.1895764,3.09364061 37.6803003,2.05017503 38.6617482,1.22928822 C39.6411684,0.410443408 40.7868669,0 42.0947882,0 C43.3459315,0 44.4774355,0.396149359 45.4872725,1.18844807 C46.4950815,1.9827888 47,2.98949825 47,4.20245041 L47,51.3993582 C47,52.5633022 46.6714988,53.5822637 46.0185521,54.4542007 C45.3696609,55.3261377 44.4713522,55.7631272 43.331737,55.7631272 C41.8108983,55.7631272 40.6165329,54.6502334 39.7466132,52.4224037 L39.503279,51.9466161 L20.0345155,4.59655776 C19.4991803,3.22432906 18.7205108,2.53821471 17.6985072,2.53821471 C17.0556994,2.53821471 16.4777806,2.79142357 15.9688066,3.28967328 C15.455777,3.792007 15.2023039,4.35764294 15.2023039,4.9886231 C15.2023039,5.51750292 15.3503322,6.17707118 15.6484166,6.9673279 L32.6128657,49.3389732 C32.8845889,50.0271295 33.0204505,50.7132439 33.0204505,51.4014002 C33.0204505,52.7225787 32.5986711,53.8191366 31.7551126,54.6931155 C30.9095263,55.5650525 29.8064113,56 28.4457676,56 C26.1563983,56 24.603115,54.9442824 23.7859177,52.8287632 L4.82410044,5.0764294 C4.27862629,3.70011668 3.75951334,3.01400233 3.26878937,3.01400233 C2.56109242,3.06709451 2.20825783,4.01662777 2.20825783,5.86464411 L2.20825783,51.325846 C2.20825783,52.8573512 3.13495556,53.6210619 4.98835103,53.6210619 C6.78496851,53.6210619 7.68327723,52.9104434 7.68327723,51.4851226 L7.68327723,28 C7.68327723,27.2607934 8.06450079,26.8911902 8.82897573,26.8911902 C9.53667271,26.8911902 9.8915351,27.2607934 9.8915351,28 L9.8915351,51.4892066 C9.8915351,52.7572929 9.40081111,53.7864644 8.41936319,54.5767211 C7.43994309,55.3669778 6.29627233,55.7631272 4.98835103,55.7631272 C3.68042972,55.7631272 2.52053672,55.3404318 1.51272758,54.4950409 C0.504918458,53.6516919 0,52.5939324 0,51.327888 L0,5.62572929 C0,2.56271879 1.08486496,1.02917153 3.25053931,1.02917153 C4.11843128,1.02917153 4.82410044,1.34976663 5.36551903,1.98687281 C5.47096385,2.09509918 5.90693761,2.75670945 6.66532919,3.97987165 L7.12158081,4.91306885 L25.8623695,52.1018087 C26.2942877,53.1146441 27.2149021,53.6210619 28.6242126,53.6210619 C30.0294676,53.6210619 30.7594702,52.7797549 30.8142204,51.1012252 C30.8142204,50.2599184 28.1720166,43.3518086 22.8896367,30.3789381 C22.179912,28.6881564 19.0733454,21.1266044 13.5638537,7.69632439 C13.1846579,6.74474912 12.9960739,5.87077013 12.9960739,5.07847141 C12.9960739,3.06709451 13.815299,1.6928238 15.4476659,0.951575262 C16.2668911,0.581971995 17.0293382,0.396149359 17.7370352,0.396149359 C19.5904306,0.396149359 21.0058245,1.48045508 21.9872724,3.64906651 L22.3137458,4.36172695 L41.6851756,51.4810385 C41.7419536,51.7955076 41.9852878,52.2324971 42.4212616,52.787923 C42.8592631,53.3433489 43.2384589,53.6210619 43.5649323,53.6210619 C44.3841574,53.5700117 44.7917422,52.8308052 44.7917422,51.4034422" id="Fill-272"></path>
            </g>
        </g>
    </g>
</svg>