<?xml version="1.0" encoding="utf-8"?>
<!-- Generator: Adobe Illustrator 22.0.1, SVG Export Plug-In . SVG Version: 6.00 Build 0)  -->
<svg version="1.1" id="Layer_1" xmlns="http://www.w3.org/2000/svg" xmlns:xlink="http://www.w3.org/1999/xlink" x="0px" y="0px"
	 viewBox="0 0 162 57" style="enable-background:new 0 0 162 57;" xml:space="preserve">
<style type="text/css">
	.st0{fill:#FFFFFF;}
</style>
<title>NISA logo</title>
<desc>Created with Sketch.</desc>
<g id="NISA-logo">
	<g id="logo_nisa" transform="translate(0.000000, 1.000000)">
		<path id="Fill-240" class="st0" d="M62.7,29.1c-0.1,0-0.3,0-0.4-0.1c-0.1-0.1-0.2-0.2-0.3-0.4l-4-7c-0.1-0.1-0.1-0.1-0.2-0.1
			c-0.1,0-0.1,0.1-0.1,0.2v7c0,0.1,0,0.3-0.1,0.3c-0.1,0.1-0.2,0.1-0.3,0.1h-0.6c-0.1,0-0.3,0-0.3-0.1c-0.1-0.1-0.1-0.2-0.1-0.3
			v-9.8c0-0.1,0-0.3,0.1-0.3c0.1-0.1,0.2-0.1,0.3-0.1h0.6c0.2,0,0.3,0,0.4,0.1c0.1,0.1,0.2,0.2,0.3,0.3l3.8,6.7
			c0,0.1,0.1,0.1,0.2,0.1c0.1,0,0.1-0.1,0.1-0.1v-6.6c0-0.1,0-0.3,0.1-0.3c0.1-0.1,0.2-0.1,0.3-0.1h0.6c0.1,0,0.3,0,0.3,0.1
			c0.1,0.1,0.1,0.2,0.1,0.3v9.8c0,0.1,0,0.3-0.1,0.3c-0.1,0.1-0.2,0.1-0.3,0.1H62.7z"/>
		<path id="Fill-241" class="st0" d="M69,20.3c0-0.1-0.1-0.2-0.2-0.2c-0.1,0-0.1,0.1-0.2,0.2l-1.3,4.3c0,0.1,0,0.2,0.1,0.2h2.6
			c0.1,0,0.2-0.1,0.1-0.2L69,20.3z M72,29.1c-0.3,0-0.5-0.1-0.5-0.4l-0.7-2.3c0-0.1-0.1-0.2-0.2-0.2h-3.4c-0.1,0-0.2,0.1-0.2,0.2
			l-0.7,2.3c-0.1,0.3-0.3,0.4-0.5,0.4h-0.8c-0.3,0-0.4-0.1-0.3-0.4l3.2-9.9c0.1-0.2,0.1-0.3,0.2-0.3c0.1-0.1,0.2-0.1,0.4-0.1h1.1
			c0.1,0,0.3,0,0.4,0.1c0.1,0.1,0.2,0.2,0.2,0.3l3.2,9.9c0.1,0.3,0,0.4-0.3,0.4H72z"/>
		<path id="Fill-242" class="st0" d="M75.7,29.1c-0.1,0-0.3,0-0.3-0.1c-0.1-0.1-0.1-0.2-0.1-0.3v-8.7c0-0.1-0.1-0.2-0.2-0.2h-2.4
			c-0.1,0-0.3,0-0.3-0.1c-0.1-0.1-0.1-0.2-0.1-0.3v-0.5c0-0.1,0-0.3,0.1-0.3c0.1-0.1,0.2-0.1,0.3-0.1h6.6c0.1,0,0.3,0,0.3,0.1
			c0.1,0.1,0.1,0.2,0.1,0.3v0.5c0,0.1,0,0.3-0.1,0.3c-0.1,0.1-0.2,0.1-0.3,0.1h-2.4c-0.1,0-0.2,0.1-0.2,0.2v8.7c0,0.1,0,0.3-0.1,0.3
			c-0.1,0.1-0.2,0.1-0.3,0.1H75.7z"/>
		<path id="Fill-243" class="st0" d="M81.1,29.1c-0.1,0-0.3,0-0.3-0.1c-0.1-0.1-0.1-0.2-0.1-0.3v-9.8c0-0.1,0-0.3,0.1-0.3
			c0.1-0.1,0.2-0.1,0.3-0.1h0.6c0.1,0,0.3,0,0.3,0.1c0.1,0.1,0.1,0.2,0.1,0.3v9.8c0,0.1,0,0.3-0.1,0.3c-0.1,0.1-0.2,0.1-0.3,0.1
			H81.1z"/>
		<path id="Fill-244" class="st0" d="M89.7,21.8c0-0.6-0.2-1.2-0.6-1.6c-0.4-0.4-0.9-0.6-1.6-0.6c-0.7,0-1.3,0.2-1.6,0.6
			c-0.4,0.4-0.6,1-0.6,1.6v3.8c0,0.6,0.2,1.2,0.6,1.6c0.4,0.4,0.9,0.6,1.6,0.6c0.7,0,1.3-0.2,1.6-0.6c0.4-0.4,0.6-1,0.6-1.6V21.8z
			 M91.2,25.6c0,0.5-0.1,1-0.3,1.5c-0.2,0.4-0.4,0.8-0.8,1.1c-0.3,0.3-0.7,0.6-1.2,0.7c-0.5,0.2-1,0.3-1.5,0.3c-0.5,0-1-0.1-1.5-0.3
			c-0.5-0.2-0.8-0.4-1.2-0.7c-0.3-0.3-0.6-0.7-0.8-1.1c-0.2-0.4-0.3-0.9-0.3-1.5v-3.8c0-0.5,0.1-1,0.3-1.5c0.2-0.4,0.4-0.8,0.8-1.1
			c0.3-0.3,0.7-0.6,1.2-0.7c0.5-0.2,1-0.3,1.5-0.3c0.5,0,1,0.1,1.5,0.3c0.5,0.2,0.8,0.4,1.2,0.7c0.3,0.3,0.6,0.7,0.8,1.1
			c0.2,0.4,0.3,0.9,0.3,1.5V25.6z"/>
		<path id="Fill-245" class="st0" d="M99.2,29.1c-0.1,0-0.3,0-0.4-0.1c-0.1-0.1-0.2-0.2-0.3-0.4l-4-7c-0.1-0.1-0.1-0.1-0.2-0.1
			c-0.1,0-0.1,0.1-0.1,0.2v7c0,0.1,0,0.3-0.1,0.3c-0.1,0.1-0.2,0.1-0.3,0.1h-0.6c-0.1,0-0.3,0-0.3-0.1c-0.1-0.1-0.1-0.2-0.1-0.3
			v-9.8c0-0.1,0-0.3,0.1-0.3c0.1-0.1,0.2-0.1,0.3-0.1h0.6c0.2,0,0.3,0,0.4,0.1c0.1,0.1,0.2,0.2,0.3,0.3l3.8,6.7
			c0,0.1,0.1,0.1,0.2,0.1c0.1,0,0.1-0.1,0.1-0.1v-6.6c0-0.1,0-0.3,0.1-0.3c0.1-0.1,0.2-0.1,0.3-0.1h0.6c0.1,0,0.3,0,0.3,0.1
			c0.1,0.1,0.1,0.2,0.1,0.3v9.8c0,0.1,0,0.3-0.1,0.3c-0.1,0.1-0.2,0.1-0.3,0.1H99.2z"/>
		<path id="Fill-246" class="st0" d="M105.5,20.3c0-0.1-0.1-0.2-0.2-0.2c-0.1,0-0.1,0.1-0.2,0.2l-1.3,4.3c0,0.1,0,0.2,0.1,0.2h2.6
			c0.1,0,0.2-0.1,0.1-0.2L105.5,20.3z M108.5,29.1c-0.3,0-0.5-0.1-0.5-0.4l-0.7-2.3c0-0.1-0.1-0.2-0.2-0.2h-3.4
			c-0.1,0-0.2,0.1-0.2,0.2l-0.7,2.3c-0.1,0.3-0.3,0.4-0.5,0.4h-0.8c-0.3,0-0.4-0.1-0.3-0.4l3.2-9.9c0.1-0.2,0.1-0.3,0.2-0.3
			c0.1-0.1,0.2-0.1,0.4-0.1h1.1c0.1,0,0.3,0,0.4,0.1c0.1,0.1,0.2,0.2,0.2,0.3l3.2,9.9c0.1,0.3,0,0.4-0.3,0.4H108.5z"/>
		<path id="Fill-247" class="st0" d="M111,29.1c-0.1,0-0.3,0-0.3-0.1c-0.1-0.1-0.1-0.2-0.1-0.3v-9.8c0-0.1,0-0.3,0.1-0.3
			c0.1-0.1,0.2-0.1,0.3-0.1h0.6c0.1,0,0.3,0,0.3,0.1c0.1,0.1,0.1,0.2,0.1,0.3v8.7c0,0.1,0.1,0.2,0.2,0.2h4.3c0.1,0,0.3,0,0.3,0.1
			c0.1,0.1,0.1,0.2,0.1,0.3v0.5c0,0.1,0,0.3-0.1,0.3c-0.1,0.1-0.2,0.1-0.3,0.1H111z"/>
		<path id="Fill-248" class="st0" d="M56.7,42c-0.1,0-0.3,0-0.3-0.1c-0.1-0.1-0.1-0.2-0.1-0.3v-9.8c0-0.1,0-0.3,0.1-0.3
			c0.1-0.1,0.2-0.1,0.3-0.1h0.6c0.1,0,0.3,0,0.3,0.1c0.1,0.1,0.1,0.2,0.1,0.3v9.8c0,0.1,0,0.3-0.1,0.3C57.6,42,57.4,42,57.3,42H56.7
			z"/>
		<path id="Fill-249" class="st0" d="M65.9,42c-0.1,0-0.3,0-0.4-0.1c-0.1-0.1-0.2-0.2-0.3-0.4l-4-7c-0.1-0.1-0.1-0.1-0.2-0.1
			c-0.1,0-0.1,0.1-0.1,0.2v7c0,0.1,0,0.3-0.1,0.3C60.8,42,60.7,42,60.5,42H60c-0.1,0-0.3,0-0.3-0.1c-0.1-0.1-0.1-0.2-0.1-0.3v-9.8
			c0-0.1,0-0.3,0.1-0.3c0.1-0.1,0.2-0.1,0.3-0.1h0.6c0.2,0,0.3,0,0.4,0.1c0.1,0.1,0.2,0.2,0.3,0.3l3.8,6.7c0,0.1,0.1,0.1,0.2,0.1
			c0.1,0,0.1-0.1,0.1-0.1v-6.6c0-0.1,0-0.3,0.1-0.3c0.1-0.1,0.2-0.1,0.3-0.1h0.6c0.1,0,0.3,0,0.3,0.1c0.1,0.1,0.1,0.2,0.1,0.3v9.8
			c0,0.1,0,0.3-0.1,0.3C66.7,42,66.6,42,66.4,42H65.9z"/>
		<path id="Fill-250" class="st0" d="M75,42c-0.1,0-0.3,0-0.4-0.1c-0.1-0.1-0.2-0.2-0.3-0.4l-4-7c-0.1-0.1-0.1-0.1-0.2-0.1
			c-0.1,0-0.1,0.1-0.1,0.2v7c0,0.1,0,0.3-0.1,0.3C69.9,42,69.8,42,69.6,42h-0.6c-0.1,0-0.3,0-0.3-0.1c-0.1-0.1-0.1-0.2-0.1-0.3v-9.8
			c0-0.1,0-0.3,0.1-0.3c0.1-0.1,0.2-0.1,0.3-0.1h0.6c0.2,0,0.3,0,0.4,0.1c0.1,0.1,0.2,0.2,0.3,0.3l3.8,6.7c0,0.1,0.1,0.1,0.2,0.1
			c0.1,0,0.1-0.1,0.1-0.1v-6.6c0-0.1,0-0.3,0.1-0.3c0.1-0.1,0.2-0.1,0.3-0.1h0.6c0.1,0,0.3,0,0.3,0.1c0.1,0.1,0.1,0.2,0.1,0.3v9.8
			c0,0.1,0,0.3-0.1,0.3C75.8,42,75.7,42,75.5,42H75z"/>
		<path id="Fill-251" class="st0" d="M83.5,34.8c0-0.6-0.2-1.2-0.6-1.6c-0.4-0.4-0.9-0.6-1.6-0.6c-0.7,0-1.3,0.2-1.6,0.6
			c-0.4,0.4-0.6,1-0.6,1.6v3.8c0,0.6,0.2,1.2,0.6,1.6c0.4,0.4,0.9,0.6,1.6,0.6c0.7,0,1.3-0.2,1.6-0.6c0.4-0.4,0.6-0.9,0.6-1.6V34.8z
			 M85,38.6c0,0.5-0.1,1-0.3,1.5c-0.2,0.4-0.4,0.8-0.8,1.1c-0.3,0.3-0.7,0.6-1.2,0.7c-0.5,0.2-1,0.3-1.5,0.3c-0.5,0-1-0.1-1.5-0.3
			c-0.5-0.2-0.8-0.4-1.2-0.7c-0.3-0.3-0.6-0.7-0.8-1.1c-0.2-0.4-0.3-0.9-0.3-1.5v-3.8c0-0.5,0.1-1,0.3-1.5c0.2-0.4,0.4-0.8,0.8-1.1
			c0.3-0.3,0.7-0.6,1.2-0.7c0.5-0.2,1-0.3,1.5-0.3c0.5,0,1,0.1,1.5,0.3c0.5,0.2,0.8,0.4,1.2,0.7c0.3,0.3,0.6,0.7,0.8,1.1
			c0.2,0.4,0.3,0.9,0.3,1.5V38.6z"/>
		<path id="Fill-252" class="st0" d="M89.5,42c-0.1,0-0.3,0-0.4-0.1c-0.1-0.1-0.2-0.2-0.2-0.3l-3.2-9.9c-0.1-0.3,0-0.4,0.3-0.4h0.8
			c0.3,0,0.5,0.1,0.5,0.4l2.5,8.4c0,0.1,0.1,0.2,0.2,0.2c0.1,0,0.1-0.1,0.2-0.2l2.5-8.4c0.1-0.3,0.3-0.4,0.5-0.4H94
			c0.3,0,0.4,0.1,0.3,0.4l-3.2,9.9c-0.1,0.2-0.1,0.3-0.2,0.3C90.9,42,90.8,42,90.6,42H89.5z"/>
		<path id="Fill-253" class="st0" d="M98,33.3c0-0.1-0.1-0.2-0.2-0.2c-0.1,0-0.1,0.1-0.2,0.2l-1.3,4.3c0,0.1,0,0.2,0.1,0.2h2.6
			c0.1,0,0.2-0.1,0.1-0.2L98,33.3z M101,42c-0.3,0-0.5-0.1-0.5-0.4l-0.7-2.3c0-0.1-0.1-0.2-0.2-0.2h-3.4c-0.1,0-0.2,0.1-0.2,0.2
			l-0.7,2.3c-0.1,0.3-0.3,0.4-0.5,0.4h-0.8c-0.3,0-0.4-0.1-0.3-0.4l3.2-9.9c0.1-0.2,0.1-0.3,0.2-0.3c0.1-0.1,0.2-0.1,0.4-0.1h1.1
			c0.1,0,0.3,0,0.4,0.1c0.1,0.1,0.2,0.2,0.2,0.3l3.2,9.9c0.1,0.3,0,0.4-0.3,0.4H101z"/>
		<path id="Fill-254" class="st0" d="M104.6,42c-0.1,0-0.3,0-0.3-0.1c-0.1-0.1-0.1-0.2-0.1-0.3v-8.7c0-0.1-0.1-0.2-0.2-0.2h-2.4
			c-0.1,0-0.3,0-0.3-0.1c-0.1-0.1-0.1-0.2-0.1-0.3v-0.5c0-0.1,0-0.3,0.1-0.3c0.1-0.1,0.2-0.1,0.3-0.1h6.6c0.1,0,0.3,0,0.3,0.1
			c0.1,0.1,0.1,0.2,0.1,0.3v0.5c0,0.1,0,0.3-0.1,0.3c-0.1,0.1-0.2,0.1-0.3,0.1h-2.4c-0.1,0-0.2,0.1-0.2,0.2v8.7c0,0.1,0,0.3-0.1,0.3
			c-0.1,0.1-0.2,0.1-0.3,0.1H104.6z"/>
		<path id="Fill-255" class="st0" d="M110.1,42c-0.1,0-0.3,0-0.3-0.1c-0.1-0.1-0.1-0.2-0.1-0.3v-9.8c0-0.1,0-0.3,0.1-0.3
			c0.1-0.1,0.2-0.1,0.3-0.1h0.6c0.1,0,0.3,0,0.3,0.1c0.1,0.1,0.1,0.2,0.1,0.3v9.8c0,0.1,0,0.3-0.1,0.3c-0.1,0.1-0.2,0.1-0.3,0.1
			H110.1z"/>
		<path id="Fill-256" class="st0" d="M118.6,34.8c0-0.6-0.2-1.2-0.6-1.6c-0.4-0.4-0.9-0.6-1.6-0.6c-0.7,0-1.3,0.2-1.6,0.6
			c-0.4,0.4-0.6,1-0.6,1.6v3.8c0,0.6,0.2,1.2,0.6,1.6c0.4,0.4,0.9,0.6,1.6,0.6c0.7,0,1.3-0.2,1.6-0.6c0.4-0.4,0.6-0.9,0.6-1.6V34.8z
			 M120.1,38.6c0,0.5-0.1,1-0.3,1.5c-0.2,0.4-0.4,0.8-0.8,1.1c-0.3,0.3-0.7,0.6-1.2,0.7c-0.5,0.2-1,0.3-1.5,0.3
			c-0.5,0-1-0.1-1.5-0.3c-0.5-0.2-0.8-0.4-1.2-0.7c-0.3-0.3-0.6-0.7-0.8-1.1c-0.2-0.4-0.3-0.9-0.3-1.5v-3.8c0-0.5,0.1-1,0.3-1.5
			c0.2-0.4,0.4-0.8,0.8-1.1s0.7-0.6,1.2-0.7c0.5-0.2,1-0.3,1.5-0.3c0.5,0,1,0.1,1.5,0.3c0.5,0.2,0.8,0.4,1.2,0.7
			c0.3,0.3,0.6,0.7,0.8,1.1c0.2,0.4,0.3,0.9,0.3,1.5V38.6z"/>
		<path id="Fill-257" class="st0" d="M128.1,42c-0.1,0-0.3,0-0.4-0.1c-0.1-0.1-0.2-0.2-0.3-0.4l-4-7c-0.1-0.1-0.1-0.1-0.2-0.1
			c-0.1,0-0.1,0.1-0.1,0.2v7c0,0.1,0,0.3-0.1,0.3c-0.1,0.1-0.2,0.1-0.3,0.1h-0.6c-0.1,0-0.3,0-0.3-0.1c-0.1-0.1-0.1-0.2-0.1-0.3
			v-9.8c0-0.1,0-0.3,0.1-0.3c0.1-0.1,0.2-0.1,0.3-0.1h0.6c0.2,0,0.3,0,0.4,0.1c0.1,0.1,0.2,0.2,0.3,0.3l3.8,6.7
			c0,0.1,0.1,0.1,0.2,0.1c0.1,0,0.1-0.1,0.1-0.1v-6.6c0-0.1,0-0.3,0.1-0.3c0.1-0.1,0.2-0.1,0.3-0.1h0.6c0.1,0,0.3,0,0.3,0.1
			c0.1,0.1,0.1,0.2,0.1,0.3v9.8c0,0.1,0,0.3-0.1,0.3c-0.1,0.1-0.2,0.1-0.3,0.1H128.1z"/>
		<path id="Fill-258" class="st0" d="M139.1,37.6c0-0.1-0.1-0.2-0.2-0.2h-1.6c-0.4,0-0.8,0.2-1,0.5c-0.3,0.3-0.4,0.7-0.4,1.1
			c0,0.5,0.1,0.8,0.4,1.1c0.3,0.3,0.6,0.4,1,0.4h1.6c0.1,0,0.2-0.1,0.2-0.2V37.6z M137.3,42c-0.4,0-0.8-0.1-1.2-0.2
			c-0.4-0.1-0.7-0.3-1-0.6c-0.3-0.3-0.5-0.6-0.6-0.9c-0.2-0.4-0.2-0.7-0.2-1.2c0-0.6,0.1-1.1,0.4-1.5c0.3-0.4,0.6-0.8,1-1
			c0.1-0.1,0.1-0.1,0.1-0.2c0-0.1,0-0.1-0.1-0.2c-0.2-0.2-0.4-0.5-0.5-0.8c-0.2-0.3-0.2-0.7-0.2-1.1c0-0.4,0.1-0.8,0.2-1.2
			c0.2-0.4,0.4-0.7,0.7-1c0.3-0.3,0.6-0.5,1-0.7c0.4-0.2,0.8-0.2,1.2-0.2h1.2c0.1,0,0.3,0,0.3,0.1c0.1,0.1,0.1,0.2,0.1,0.3v0.6
			c0,0.1,0,0.3-0.1,0.3c-0.1,0.1-0.2,0.1-0.3,0.1H138c-0.4,0-0.8,0.2-1.1,0.5c-0.3,0.3-0.5,0.7-0.5,1.2c0,0.5,0.1,0.9,0.5,1.2
			c0.3,0.3,0.7,0.4,1.1,0.4h3.7c0.1,0,0.3,0,0.3,0.1c0.1,0.1,0.1,0.2,0.1,0.3V37c0,0.1,0,0.3-0.1,0.3c-0.1,0.1-0.2,0.1-0.3,0.1h-0.9
			c-0.1,0-0.2,0.1-0.2,0.2v4c0,0.1,0,0.3-0.1,0.3c-0.1,0.1-0.2,0.1-0.3,0.1H137.3z"/>
		<path id="Fill-259" class="st0" d="M56.5,53c0.1-0.1,0.2-0.2,0.3-0.1c0.1,0,0.2,0.1,0.3,0.1c0.1,0.1,0.2,0.2,0.3,0.2
			c0.1,0.1,0.2,0.2,0.4,0.2c0.1,0.1,0.3,0.1,0.5,0.2c0.2,0,0.4,0.1,0.6,0.1c0.5,0,0.9-0.1,1.2-0.4c0.3-0.3,0.5-0.6,0.5-1.1
			c0-0.5-0.1-0.9-0.4-1.1c-0.3-0.3-0.8-0.6-1.4-0.9c-0.4-0.2-0.8-0.4-1.1-0.6c-0.3-0.2-0.6-0.4-0.8-0.7c-0.2-0.3-0.4-0.6-0.5-0.9
			c-0.1-0.3-0.2-0.7-0.2-1.1c0-0.4,0.1-0.7,0.2-1c0.1-0.3,0.3-0.6,0.6-0.9c0.3-0.3,0.6-0.5,1-0.6c0.4-0.2,0.8-0.2,1.3-0.2
			c0.6,0,1.1,0.1,1.5,0.3c0.4,0.2,0.8,0.5,1,0.7c0.2,0.2,0.2,0.4,0,0.7l-0.4,0.4c-0.1,0.1-0.2,0.2-0.3,0.2c-0.1,0-0.2-0.1-0.3-0.2
			c-0.1-0.1-0.3-0.3-0.6-0.4c-0.3-0.2-0.6-0.3-0.9-0.3c-0.2,0-0.4,0-0.6,0.1c-0.2,0.1-0.4,0.2-0.5,0.3c-0.1,0.1-0.3,0.3-0.3,0.4
			c-0.1,0.2-0.1,0.3-0.1,0.5c0,0.2,0,0.4,0.1,0.6s0.2,0.3,0.3,0.5c0.1,0.2,0.3,0.3,0.6,0.4c0.2,0.1,0.5,0.3,0.8,0.4
			c0.4,0.2,0.8,0.4,1.2,0.6c0.3,0.2,0.6,0.4,0.9,0.7s0.4,0.6,0.5,0.9c0.1,0.3,0.2,0.7,0.2,1.1c0,0.4-0.1,0.8-0.3,1.1
			c-0.2,0.4-0.4,0.7-0.7,0.9c-0.3,0.3-0.6,0.5-1,0.6c-0.4,0.2-0.8,0.2-1.3,0.2c-0.7,0-1.3-0.1-1.7-0.3c-0.4-0.2-0.8-0.5-1.1-0.8
			C56,53.9,56,53.8,56,53.7c0-0.1,0-0.2,0.1-0.3L56.5,53z"/>
		<path id="Fill-260" class="st0" d="M70,53.2c0.1,0.1,0.2,0.2,0.1,0.3c0,0.1-0.1,0.2-0.1,0.3c-0.3,0.3-0.7,0.6-1.2,0.9
			c-0.5,0.2-1,0.4-1.8,0.4c-0.5,0-1-0.1-1.4-0.3c-0.4-0.2-0.8-0.4-1.1-0.8c-0.3-0.3-0.6-0.7-0.8-1.2c-0.2-0.5-0.3-1-0.3-1.5v-3.5
			c0-0.6,0.1-1.1,0.3-1.5c0.2-0.5,0.4-0.9,0.8-1.2c0.3-0.3,0.7-0.6,1.1-0.8s0.9-0.3,1.4-0.3c0.3,0,0.7,0,0.9,0.1
			c0.3,0.1,0.5,0.2,0.8,0.3c0.2,0.1,0.4,0.2,0.6,0.4c0.2,0.1,0.3,0.3,0.4,0.4c0.2,0.2,0.2,0.4,0,0.7l-0.4,0.4
			c-0.1,0.1-0.2,0.2-0.3,0.2c-0.1,0-0.2-0.1-0.3-0.2c-0.1-0.1-0.3-0.3-0.6-0.4c-0.3-0.2-0.7-0.3-1.1-0.3c-0.3,0-0.6,0.1-0.9,0.2
			c-0.3,0.1-0.5,0.3-0.7,0.5c-0.2,0.2-0.3,0.5-0.4,0.8c-0.1,0.3-0.1,0.6-0.1,0.9v3.5c0,0.7,0.2,1.3,0.6,1.7c0.4,0.4,0.9,0.7,1.6,0.7
			c0.5,0,0.9-0.1,1.2-0.3c0.3-0.2,0.6-0.3,0.8-0.5c0.1-0.1,0.2-0.1,0.3-0.1c0.1,0,0.2,0,0.3,0.1L70,53.2z"/>
		<path id="Fill-261" class="st0" d="M71.8,55c-0.1,0-0.3,0-0.3-0.1c-0.1-0.1-0.1-0.2-0.1-0.3v-9.8c0-0.1,0-0.3,0.1-0.3
			c0.1-0.1,0.2-0.1,0.3-0.1h0.6c0.1,0,0.3,0,0.3,0.1c0.1,0.1,0.1,0.2,0.1,0.3v9.8c0,0.1,0,0.3-0.1,0.3c-0.1,0.1-0.2,0.1-0.3,0.1
			H71.8z"/>
		<path id="Fill-262" class="st0" d="M75,55c-0.1,0-0.3,0-0.3-0.1c-0.1-0.1-0.1-0.2-0.1-0.3v-9.8c0-0.1,0-0.3,0.1-0.3
			c0.1-0.1,0.2-0.1,0.3-0.1h5.2c0.1,0,0.3,0,0.3,0.1c0.1,0.1,0.1,0.2,0.1,0.3v0.5c0,0.1,0,0.3-0.1,0.3c-0.1,0.1-0.2,0.1-0.3,0.1h-4
			c-0.1,0-0.2,0.1-0.2,0.2v2.8c0,0.1,0.1,0.2,0.2,0.2h3.7c0.1,0,0.3,0,0.3,0.1c0.1,0.1,0.1,0.2,0.1,0.3v0.5c0,0.1,0,0.3-0.1,0.3
			c-0.1,0.1-0.2,0.1-0.3,0.1h-3.7c-0.1,0-0.2,0.1-0.2,0.2v3c0,0.1,0.1,0.2,0.2,0.2h4.4c0.1,0,0.3,0,0.3,0.1C81,53.8,81,53.9,81,54
			v0.5c0,0.1,0,0.3-0.1,0.3c-0.1,0.1-0.2,0.1-0.3,0.1H75z"/>
		<path id="Fill-263" class="st0" d="M88.9,55c-0.1,0-0.3,0-0.4-0.1s-0.2-0.2-0.3-0.4l-4-7c-0.1-0.1-0.1-0.1-0.2-0.1
			c-0.1,0-0.1,0.1-0.1,0.2v7c0,0.1,0,0.3-0.1,0.3c-0.1,0.1-0.2,0.1-0.3,0.1h-0.6c-0.1,0-0.3,0-0.3-0.1c-0.1-0.1-0.1-0.2-0.1-0.3
			v-9.8c0-0.1,0-0.3,0.1-0.3c0.1-0.1,0.2-0.1,0.3-0.1h0.6c0.2,0,0.3,0,0.4,0.1c0.1,0.1,0.2,0.2,0.3,0.3l3.8,6.7
			c0,0.1,0.1,0.1,0.2,0.1c0.1,0,0.1-0.1,0.1-0.1v-6.6c0-0.1,0-0.3,0.1-0.3c0.1-0.1,0.2-0.1,0.3-0.1h0.6c0.1,0,0.3,0,0.3,0.1
			c0.1,0.1,0.1,0.2,0.1,0.3v9.8c0,0.1,0,0.3-0.1,0.3c-0.1,0.1-0.2,0.1-0.3,0.1H88.9z"/>
		<path id="Fill-264" class="st0" d="M98,53.2c0.1,0.1,0.2,0.2,0.1,0.3c0,0.1-0.1,0.2-0.1,0.3c-0.3,0.3-0.7,0.6-1.2,0.9
			c-0.5,0.2-1,0.4-1.8,0.4c-0.5,0-1-0.1-1.4-0.3c-0.4-0.2-0.8-0.4-1.1-0.8c-0.3-0.3-0.6-0.7-0.8-1.2c-0.2-0.5-0.3-1-0.3-1.5v-3.5
			c0-0.6,0.1-1.1,0.3-1.5c0.2-0.5,0.4-0.9,0.8-1.2c0.3-0.3,0.7-0.6,1.1-0.8c0.4-0.2,0.9-0.3,1.4-0.3c0.3,0,0.7,0,0.9,0.1
			c0.3,0.1,0.5,0.2,0.8,0.3c0.2,0.1,0.4,0.2,0.6,0.4c0.2,0.1,0.3,0.3,0.4,0.4c0.2,0.2,0.2,0.4,0,0.7l-0.4,0.4
			c-0.1,0.1-0.2,0.2-0.3,0.2c-0.1,0-0.2-0.1-0.3-0.2c-0.1-0.1-0.3-0.3-0.6-0.4c-0.3-0.2-0.7-0.3-1.1-0.3c-0.3,0-0.6,0.1-0.9,0.2
			c-0.3,0.1-0.5,0.3-0.7,0.5c-0.2,0.2-0.3,0.5-0.4,0.8c-0.1,0.3-0.1,0.6-0.1,0.9v3.5c0,0.7,0.2,1.3,0.6,1.7c0.4,0.4,0.9,0.7,1.6,0.7
			c0.5,0,0.9-0.1,1.2-0.3c0.3-0.2,0.6-0.3,0.8-0.5c0.1-0.1,0.2-0.1,0.3-0.1c0.1,0,0.2,0,0.3,0.1L98,53.2z"/>
		<path id="Fill-265" class="st0" d="M99.8,55c-0.1,0-0.3,0-0.3-0.1c-0.1-0.1-0.1-0.2-0.1-0.3v-9.8c0-0.1,0-0.3,0.1-0.3
			c0.1-0.1,0.2-0.1,0.3-0.1h5.2c0.1,0,0.3,0,0.3,0.1c0.1,0.1,0.1,0.2,0.1,0.3v0.5c0,0.1,0,0.3-0.1,0.3c-0.1,0.1-0.2,0.1-0.3,0.1h-4
			c-0.1,0-0.2,0.1-0.2,0.2v2.8c0,0.1,0.1,0.2,0.2,0.2h3.7c0.1,0,0.3,0,0.3,0.1c0.1,0.1,0.1,0.2,0.1,0.3v0.5c0,0.1,0,0.3-0.1,0.3
			c-0.1,0.1-0.2,0.1-0.3,0.1H101c-0.1,0-0.2,0.1-0.2,0.2v3c0,0.1,0.1,0.2,0.2,0.2h4.4c0.1,0,0.3,0,0.3,0.1c0.1,0.1,0.1,0.2,0.1,0.3
			v0.5c0,0.1,0,0.3-0.1,0.3c-0.1,0.1-0.2,0.1-0.3,0.1H99.8z"/>
		<path id="Fill-266" class="st0" d="M114.8,46.2c0-0.1-0.1-0.2-0.2-0.2c-0.1,0-0.1,0.1-0.2,0.2l-1.3,4.3c0,0.1,0,0.2,0.1,0.2h2.6
			c0.1,0,0.2-0.1,0.1-0.2L114.8,46.2z M117.9,55c-0.3,0-0.5-0.1-0.5-0.4l-0.7-2.3c0-0.1-0.1-0.2-0.2-0.2H113c-0.1,0-0.2,0.1-0.2,0.2
			l-0.7,2.3c-0.1,0.3-0.3,0.4-0.5,0.4h-0.8c-0.3,0-0.4-0.1-0.3-0.4l3.2-9.9c0.1-0.2,0.1-0.3,0.2-0.3c0.1-0.1,0.2-0.1,0.4-0.1h1.1
			c0.1,0,0.3,0,0.4,0.1c0.1,0.1,0.2,0.2,0.2,0.3l3.2,9.9c0.1,0.3,0,0.4-0.3,0.4H117.9z"/>
		<path id="Fill-267" class="st0" d="M125.4,50.9c0-0.1-0.1-0.2-0.2-0.2h-1.6c-0.1,0-0.3,0-0.3-0.1c-0.1-0.1-0.1-0.2-0.1-0.3v-0.5
			c0-0.1,0-0.3,0.1-0.3c0.1-0.1,0.2-0.1,0.3-0.1h2.8c0.1,0,0.3,0,0.3,0.1c0.1,0.1,0.1,0.2,0.1,0.3v1.8c0,0.5-0.1,1-0.3,1.5
			c-0.2,0.4-0.4,0.8-0.7,1.1c-0.3,0.3-0.7,0.6-1.1,0.7c-0.4,0.2-0.9,0.3-1.5,0.3c-0.5,0-1-0.1-1.4-0.3c-0.4-0.2-0.8-0.4-1.1-0.8
			c-0.3-0.3-0.6-0.7-0.8-1.2c-0.2-0.5-0.3-1-0.3-1.5v-3.5c0-0.5,0.1-1.1,0.3-1.5c0.2-0.5,0.4-0.9,0.8-1.2c0.3-0.3,0.7-0.6,1.1-0.8
			c0.4-0.2,0.9-0.3,1.4-0.3c0.3,0,0.7,0,0.9,0.1c0.3,0.1,0.5,0.2,0.8,0.3c0.2,0.1,0.4,0.2,0.6,0.4c0.2,0.1,0.3,0.3,0.4,0.4
			c0.2,0.2,0.2,0.4,0,0.7l-0.4,0.4c-0.1,0.1-0.2,0.2-0.3,0.2c-0.1,0-0.2,0-0.3-0.2c-0.1-0.1-0.3-0.3-0.6-0.4
			c-0.3-0.2-0.7-0.3-1.1-0.3c-0.7,0-1.2,0.2-1.6,0.7c-0.4,0.4-0.6,1-0.6,1.7v3.5c0,0.7,0.2,1.3,0.5,1.7c0.4,0.4,0.9,0.7,1.5,0.7
			c0.7,0,1.2-0.2,1.6-0.6c0.3-0.4,0.5-0.9,0.5-1.5V50.9z"/>
		<path id="Fill-268" class="st0" d="M128.6,55c-0.1,0-0.3,0-0.3-0.1c-0.1-0.1-0.1-0.2-0.1-0.3v-9.8c0-0.1,0-0.3,0.1-0.3
			c0.1-0.1,0.2-0.1,0.3-0.1h5.2c0.1,0,0.3,0,0.3,0.1c0.1,0.1,0.1,0.2,0.1,0.3v0.5c0,0.1,0,0.3-0.1,0.3c-0.1,0.1-0.2,0.1-0.3,0.1h-4
			c-0.1,0-0.2,0.1-0.2,0.2v2.8c0,0.1,0.1,0.2,0.2,0.2h3.7c0.1,0,0.3,0,0.3,0.1c0.1,0.1,0.1,0.2,0.1,0.3v0.5c0,0.1,0,0.3-0.1,0.3
			c-0.1,0.1-0.2,0.1-0.3,0.1h-3.7c-0.1,0-0.2,0.1-0.2,0.2v3c0,0.1,0.1,0.2,0.2,0.2h4.4c0.1,0,0.3,0,0.3,0.1c0.1,0.1,0.1,0.2,0.1,0.3
			v0.5c0,0.1,0,0.3-0.1,0.3c-0.1,0.1-0.2,0.1-0.3,0.1H128.6z"/>
		<path id="Fill-269" class="st0" d="M142.5,55c-0.1,0-0.3,0-0.4-0.1s-0.2-0.2-0.3-0.4l-4-7c-0.1-0.1-0.1-0.1-0.2-0.1
			c-0.1,0-0.1,0.1-0.1,0.2v7c0,0.1,0,0.3-0.1,0.3c-0.1,0.1-0.2,0.1-0.3,0.1h-0.6c-0.1,0-0.3,0-0.3-0.1c-0.1-0.1-0.1-0.2-0.1-0.3
			v-9.8c0-0.1,0-0.3,0.1-0.3c0.1-0.1,0.2-0.1,0.3-0.1h0.6c0.2,0,0.3,0,0.4,0.1c0.1,0.1,0.2,0.2,0.3,0.3l3.8,6.7
			c0,0.1,0.1,0.1,0.2,0.1c0.1,0,0.1-0.1,0.1-0.1v-6.6c0-0.1,0-0.3,0.1-0.3c0.1-0.1,0.2-0.1,0.3-0.1h0.6c0.1,0,0.3,0,0.3,0.1
			c0.1,0.1,0.1,0.2,0.1,0.3v9.8c0,0.1,0,0.3-0.1,0.3c-0.1,0.1-0.2,0.1-0.3,0.1H142.5z"/>
		<path id="Fill-270" class="st0" d="M150.8,48c0-0.4-0.1-0.7-0.2-1c-0.1-0.3-0.3-0.5-0.5-0.8c-0.2-0.2-0.5-0.4-0.8-0.5
			c-0.3-0.1-0.6-0.2-1-0.2h-1.6c-0.1,0-0.2,0.1-0.2,0.2v7.6c0,0.1,0.1,0.2,0.2,0.2h1.6c0.3,0,0.7-0.1,1-0.2c0.3-0.1,0.5-0.3,0.8-0.5
			c0.2-0.2,0.4-0.4,0.5-0.7c0.1-0.3,0.2-0.6,0.2-1V48z M145.6,55c-0.1,0-0.3,0-0.3-0.1c-0.1-0.1-0.1-0.2-0.1-0.3v-9.8
			c0-0.1,0-0.3,0.1-0.3c0.1-0.1,0.2-0.1,0.3-0.1h2.8c0.6,0,1.1,0.1,1.6,0.3c0.5,0.2,0.9,0.5,1.2,0.8c0.3,0.3,0.6,0.7,0.8,1.2
			c0.2,0.5,0.3,1,0.3,1.5v3.2c0,0.5-0.1,1-0.3,1.5c-0.2,0.5-0.4,0.9-0.8,1.2c-0.3,0.3-0.7,0.6-1.2,0.8c-0.5,0.2-1,0.3-1.6,0.3H145.6
			z"/>
		<path id="Fill-271" class="st0" d="M157.5,46.2c0-0.1-0.1-0.2-0.2-0.2c-0.1,0-0.1,0.1-0.2,0.2l-1.3,4.3c0,0.1,0,0.2,0.1,0.2h2.6
			c0.1,0,0.2-0.1,0.1-0.2L157.5,46.2z M160.5,55c-0.3,0-0.5-0.1-0.5-0.4l-0.7-2.3c0-0.1-0.1-0.2-0.2-0.2h-3.4
			c-0.1,0-0.2,0.1-0.2,0.2l-0.7,2.3c-0.1,0.3-0.3,0.4-0.5,0.4h-0.8c-0.3,0-0.4-0.1-0.3-0.4l3.2-9.9c0.1-0.2,0.1-0.3,0.2-0.3
			c0.1-0.1,0.2-0.1,0.4-0.1h1.1c0.1,0,0.3,0,0.4,0.1c0.1,0.1,0.2,0.2,0.2,0.3l3.2,9.9c0.1,0.3,0,0.4-0.3,0.4H160.5z"/>
		<path id="Fill-272" class="st0" d="M45.4,50.6V3.4c0-0.6-0.3-1.1-0.9-1.5c-0.6-0.4-1.2-0.6-1.8-0.6c-1.8,0-2.7,0.8-2.7,2.3v27.1
			c0,0.7-0.4,1-1.1,1c-0.8,0-1.2-0.3-1.2-1V3.5c0-1.3,0.5-2.3,1.5-3.1c1-0.8,2.1-1.2,3.5-1.2c1.3,0,2.4,0.4,3.4,1.2
			c1,0.8,1.5,1.8,1.5,3v47.3c0,1.2-0.3,2.2-1,3.1C45.9,54.5,45,55,43.9,55c-1.5,0-2.7-1.1-3.6-3.3L40,51.1L20.4,3.7
			c-0.5-1.4-1.3-2.1-2.4-2.1c-0.6,0-1.2,0.3-1.7,0.8c-0.5,0.5-0.8,1.1-0.8,1.7c0,0.5,0.1,1.2,0.4,2l17.1,42.4
			c0.3,0.7,0.4,1.4,0.4,2.1c0,1.3-0.4,2.4-1.3,3.3c-0.9,0.9-2,1.3-3.3,1.3c-2.3,0-3.9-1.1-4.7-3.2L5.1,4.2C4.5,2.8,4,2.1,3.5,2.1
			C2.8,2.2,2.4,3.1,2.4,5v45.5c0,1.5,0.9,2.3,2.8,2.3c1.8,0,2.7-0.7,2.7-2.1V27.2c0-0.7,0.4-1.1,1.2-1.1c0.7,0,1.1,0.4,1.1,1.1v23.5
			c0,1.3-0.5,2.3-1.5,3.1c-1,0.8-2.1,1.2-3.5,1.2s-2.5-0.4-3.5-1.3c-1-0.8-1.5-1.9-1.5-3.2V4.7c0-3.1,1.1-4.6,3.3-4.6
			c0.9,0,1.6,0.3,2.1,1c0.1,0.1,0.5,0.8,1.3,2L7.4,4l18.9,47.3c0.4,1,1.4,1.5,2.8,1.5c1.4,0,2.2-0.8,2.2-2.5c0-0.8-2.7-7.8-8-20.8
			c-0.7-1.7-3.8-9.3-9.4-22.7c-0.4-1-0.6-1.8-0.6-2.6c0-2,0.8-3.4,2.5-4.1c0.8-0.4,1.6-0.6,2.3-0.6c1.9,0,3.3,1.1,4.3,3.3l0.3,0.7
			l19.5,47.2c0.1,0.3,0.3,0.8,0.7,1.3c0.4,0.6,0.8,0.8,1.2,0.8C45,52.8,45.4,52,45.4,50.6"/>
	</g>
</g>
</svg>
